<?xml version="1.0" standalone="no"?>
<!DOCTYPE svg PUBLIC "-//W3C//DTD SVG 1.1//EN" "http://www.w3.org/Graphics/SVG/1.1/DTD/svg11.dtd" >
<svg>
<metadata>
Created by FontForge 20090914 at Fri Mar 18 19:17:41 2016
 By www-data
Copyright (c) 2015 by Eduardo Manso. All rights reserved.
</metadata>
<defs>
<font id="GeogrotesqueComp-RgIt" horiz-adv-x="247" >
  <font-face 
    font-family="GeogrotesqueComp-RgIt"
    font-weight="400"
    font-style="italic"
    font-stretch="ultra-condensed"
    units-per-em="1000"
    panose-1="0 0 0 0 0 0 0 0 0 0"
    ascent="783"
    descent="-217"
    x-height="494"
    cap-height="680"
    bbox="-149.451 -218.557 1419 964"
    underline-thickness="42"
    underline-position="-83"
    slope="-7"
    unicode-range="U+000D-U+FF19"
  />
<missing-glyph horiz-adv-x="816" 
d="M697 94c-69.333 -68 -152.333 -101.999 -249 -101.999c-96 0 -178 34 -246 102c-68.667 67.333 -103 149.666 -103 246.999c0 96 34.333 178.333 103 247c68 68 150 102 246 102c98 0 181 -34 249 -102c68.667 -68.667 103 -151 103 -247s-34.333 -178.333 -103 -247z
M685 106.001c66 66 99 144.332 99 234.999s-33 169 -99 235c-65.333 65.333 -144.333 98 -237 98c-90.667 0 -168.667 -32.667 -234 -98c-66 -66 -99 -144.333 -99 -235c0 -91.333 33 -169.666 99 -234.999c65.333 -65.333 143.333 -98 234 -98
c92.667 0 171.667 32.667 237 98zM570 186l-120.001 119.002l-120 -119c-6.66699 -6.66699 -13 -6.66699 -19 0l-17 18c-6.66699 6.66699 -6.66699 13 0 19l119 119l-119 120c-6.66699 6.66699 -7 13 -1 19l17 17c6.66699 6.66699 13.334 7 20.001 1l120 -121l120 120
c6.66699 6.66699 13 7 19 1l17 -17c6.66699 -6.66699 6.66699 -13.334 0 -20.001l-120 -120l120 -120c6.66699 -6.66699 6.66699 -13.334 0 -20.001l-18 -17c-6 -5.33301 -12 -5 -18 1z" />
    <glyph glyph-name="fi" unicode="fi" horiz-adv-x="405" 
d="M372 479l-56.999 -465c-0.666992 -9.33301 -5.33398 -14 -14.001 -14h-35c-8.66699 0 -12.667 4.66699 -12 14l53 428h-155l-76 -622c-0.666992 -9.33301 -5.33398 -14 -14.001 -14h-35c-8.66699 0 -12.667 4.66699 -12 14l77 622h-43c-8 0 -11.667 4.66699 -11 14l2 20
c0.666992 8 5.33398 12.333 14.001 13l36 3h7l11 88c4.66699 37.333 18.667 66 42 86s60 30 110 30h112c8 0 11.667 -4.33301 11 -13l-2 -26c-0.666992 -9.33301 -5.66699 -14 -15 -14h-110c-52.667 0 -81.667 -21.333 -87 -64l-11 -87h202
c8.66699 0 12.667 -4.33301 12 -13z" />
    <glyph glyph-name="fl" unicode="fl" horiz-adv-x="409" 
d="M400 682l-81.001 -668c-0.666992 -9.33301 -5.66699 -14 -15 -14h-35c-8.66699 0 -12.667 4.66699 -12 14l78 629h-79c-52 0 -81 -21.333 -87 -64l-11 -87h70c8.66699 0 12.667 -4 12 -12l-3 -24c-0.666992 -9.33301 -5.66699 -14 -15 -14h-70l-76 -622
c-0.666992 -9.33301 -5.33398 -14 -14.001 -14h-35c-8.66699 0 -12.667 4.66699 -12 14l77 622h-43c-8 0 -11.667 4.66699 -11 14l2 20c0.666992 8 5.33398 12.333 14.001 13l36 3h7l11 91c8.66699 75.333 59.334 113 152.001 113h129c8 0 11.667 -4.66699 11 -14z" />
    <glyph glyph-name=".notdef" horiz-adv-x="816" 
d="M697 94c-69.333 -68 -152.333 -101.999 -249 -101.999c-96 0 -178 34 -246 102c-68.667 67.333 -103 149.666 -103 246.999c0 96 34.333 178.333 103 247c68 68 150 102 246 102c98 0 181 -34 249 -102c68.667 -68.667 103 -151 103 -247s-34.333 -178.333 -103 -247z
M685 106.001c66 66 99 144.332 99 234.999s-33 169 -99 235c-65.333 65.333 -144.333 98 -237 98c-90.667 0 -168.667 -32.667 -234 -98c-66 -66 -99 -144.333 -99 -235c0 -91.333 33 -169.666 99 -234.999c65.333 -65.333 143.333 -98 234 -98
c92.667 0 171.667 32.667 237 98zM570 186l-120.001 119.002l-120 -119c-6.66699 -6.66699 -13 -6.66699 -19 0l-17 18c-6.66699 6.66699 -6.66699 13 0 19l119 119l-119 120c-6.66699 6.66699 -7 13 -1 19l17 17c6.66699 6.66699 13.334 7 20.001 1l120 -121l120 120
c6.66699 6.66699 13 7 19 1l17 -17c6.66699 -6.66699 6.66699 -13.334 0 -20.001l-120 -120l120 -120c6.66699 -6.66699 6.66699 -13.334 0 -20.001l-18 -17c-6 -5.33301 -12 -5 -18 1z" />
    <glyph glyph-name=".null" horiz-adv-x="0" 
 />
    <glyph glyph-name=".null" horiz-adv-x="0" 
 />
    <glyph glyph-name="CR" unicode="&#xd;" horiz-adv-x="0" 
 />
    <glyph glyph-name="space" unicode=" " horiz-adv-x="163" 
 />
    <glyph glyph-name="exclam" unicode="!" horiz-adv-x="178" 
d="M133 390l-33.001 -217c-0.666992 -8.66699 -5.66699 -13 -15 -13h-25c-8.66699 0 -12.667 4.33301 -12 13l21 217l34 276c0.666992 9.33301 5.33398 14 14.001 14h39c8 0 11.667 -4.66699 11 -14zM94.999 91l-9 -78c-0.666992 -8.66699 -5.66699 -13 -15 -13h-36
c-8.66699 -0 -12.667 4.33301 -12 13l10 78c0.666992 8.66699 5.66699 13 15 13h36c8 0 11.667 -4.33301 11 -13z" />
    <glyph glyph-name="quotedbl" unicode="&#x22;" horiz-adv-x="258" 
d="M257 666l-26.001 -171c-2 -9.33301 -7.33301 -14 -16 -14h-22c-8.66699 0 -12.667 4.66699 -12 14l16 171c0.666992 9.33301 5.33398 14 14.001 14h34c10 0 14 -4.66699 12 -14zM150.999 666l-27.001 -171c-2 -9.33301 -6.66699 -14 -14 -14h-24
c-8 0 -11.667 4.66699 -11 14l16 171c0.666992 9.33301 5.33398 14 14.001 14h35c9.33301 0 13 -4.66699 11 -14z" />
    <glyph glyph-name="numbersign" unicode="#" horiz-adv-x="433" 
d="M195 384l-46 -114h99l47 114h-100zM47 270h50.999l46 114h-42c-8.66699 0 -12.667 4.66699 -12 14l2 19c0.666992 8.66699 5.66699 13 15 13h56l39 98c4 9.33301 10.333 14 19 14h25c8 0 10.333 -4.66699 7 -14l-39 -98h99l39 98c4 9.33301 10.333 14 19 14h25
c8.66699 0 11.334 -4.66699 8.00098 -14l-41 -98h39c8 0 12 -4.33301 12 -13l-1 -19c-0.666992 -9.33301 -5.66699 -14 -15 -14h-52l-47 -114h43c8.66699 0 12.667 -4.33301 12 -13l-2 -19c-0.666992 -9.33301 -6 -14 -16 -14h-55l-39 -96c-4 -9.33301 -9.66699 -14 -17 -14
h-26c-8.66699 0 -11 4.66699 -7 14l38 96h-99l-39 -96c-4 -9.33301 -10 -14 -18 -14h-25c-9.33301 0 -12 4.66699 -8 14l39 96h-39c-8 0 -11.667 4.66699 -11 14l2 19c0.666992 8.66699 5.66699 13 15 13z" />
    <glyph glyph-name="dollar" unicode="$" horiz-adv-x="357" 
d="M160 0l-35 0.00292969c-8 0 -11.667 4.66699 -11 14l9 73c-31.333 4 -55 14 -71 30s-24 34.667 -24 56c0 3.33301 0.333008 7.66602 1 12.999l4 37c0.666992 8 5 12 13 12h33c7.33301 0 10.666 -4 9.99902 -12l-4 -33c-0.666992 -4.66699 -1 -8.33398 -1 -11.001
c0 -31.333 25 -47 75 -47c52.667 0 81 18.333 85 55l7 53c0.666992 6.66699 1 12.334 1 17.001c0 17.333 -12.667 32.666 -38 45.999l-92 48c-38.667 20.667 -58 48.334 -58 83.001c0 3.33301 0.333008 8 1 14l6 47c7.33301 60 45.333 93 114 99l9 72
c0.666992 9.33301 5.33398 14 14.001 14h35c8.66699 0 12.667 -4.66699 12 -14l-10 -74c30 -4.66699 52.333 -14.834 67 -30.501s22 -34.167 22 -55.5c0 -3.33301 -0.333008 -8 -1 -14l-5 -39c-1.33301 -8 -6 -12 -14 -12h-32c-8 0 -11.333 4 -10 12l4 37
c0.666992 6.66699 1 11.667 1 15c0 29.333 -24 44 -72 44c-47.333 0 -73 -17.667 -77 -53l-5 -37c-0.666992 -5.33301 -1 -10.333 -1 -15c0 -20 13.333 -36.667 40 -50l92 -48c36.667 -18.667 55 -43.667 55 -75c0 -6 -0.333008 -12.667 -1 -20l-7 -67
c-2.66699 -26.667 -13.667 -48.834 -33 -66.501s-47.666 -28.167 -84.999 -31.5l-9 -72c-0.666992 -9.33301 -5.33398 -14 -14.001 -14z" />
    <glyph glyph-name="percent" unicode="%" horiz-adv-x="611" 
d="M503 674l-333 -668c-4.66699 -9.33301 -11.334 -14 -20.001 -14h-24c-8.66699 0 -10.667 4.66699 -6 14l333 668c4.66699 9.33301 11.334 14 20.001 14h24c8.66699 0 10.667 -4.66699 6 -14zM271 600l-26.998 -213c-2.66699 -24 -11.334 -42.667 -26.001 -56
s-39.667 -20 -75 -20c-62 0 -93 22 -93 66c0 5.33301 0.333008 10.666 1 15.999l27 214c2.66699 24.667 11.167 43.667 25.5 57s39.166 20 74.499 20c32 0 55.667 -6.16699 71 -18.5s23 -28.166 23 -47.499c0 -4.66699 -0.333008 -10.667 -1 -18zM101.002 394
c-0.666992 -5.33301 -1 -8.66699 -1 -10c0 -20.667 14.667 -31 44 -31c30 0 46.667 12.667 50 38l26 209c0.666992 4.66699 1 8 1 10c0 21.333 -14.667 32 -44 32c-30 0 -46.667 -13 -50 -39zM572.002 284.999l-26.998 -213c-2.66699 -24 -11.334 -42.667 -26.001 -56
s-39.667 -20 -75 -20c-62 0 -93 22 -93 66c0 5.33301 0.333008 10.666 1 15.999l27 214c2.66699 24.667 11.167 43.667 25.5 57s39.166 20 74.499 20c32 0 55.667 -6.16699 71 -18.5s23 -28.166 23 -47.499c0 -4.66699 -0.333008 -10.667 -1 -18zM402.004 78.999
c-0.666992 -5.33301 -1 -8.66699 -1 -10c0 -20.667 14.667 -31 44 -31c30 0 46.667 12.667 50 38l26 209c0.666992 4.66699 1 8 1 10c0 21.333 -14.667 32 -44 32c-30 0 -46.667 -13 -50 -39z" />
    <glyph glyph-name="ampersand" unicode="&#x26;" horiz-adv-x="478" 
d="M370 121c-10.667 -86 -71.332 -129.002 -181.999 -129.002c-105.333 0 -158 36.667 -158 110c0 5.33301 0.333008 11.333 1 18l17 139c3.33301 28 11.666 50.5 24.999 67.5s35.333 29.167 66 36.5c-41.333 9.33301 -62 35 -62 77c0 3.33301 0.666992 11 2 23l12 98
c5.33301 40.667 19.333 72 42 94s61.334 33 116.001 33c45.333 0 79.5 -9.16699 102.5 -27.5s34.5 -43.833 34.5 -76.5c0 -5.33301 -0.333008 -12.333 -1 -21l-3 -38c-0.666992 -8.66699 -5.66699 -13 -15 -13h-36c-8.66699 0 -12.334 4.33301 -11.001 13l4 36
c0.666992 6.66699 1 12.334 1 17.001c0 38 -26.667 57 -80 57c-55.333 0 -86 -25.333 -92 -76l-11 -93c-1.33301 -12 -2 -19.333 -2 -22c0 -19.333 6.5 -33.666 19.5 -42.999s36.167 -14 69.5 -14h221c8.66699 0 12.667 -4.33301 12 -13l-3 -26
c-0.666992 -9.33301 -5.66699 -14 -15 -14h-47zM193.002 44.998c71.333 0 110.334 26.333 117.001 79l26 210h-120c-38.667 0 -65.334 -6.16699 -80.001 -18.5s-23.667 -31.5 -27 -57.5l-16 -129c-0.666992 -4.66699 -1 -10.667 -1 -18c0 -44 33.667 -66 101 -66z" />
    <glyph glyph-name="quotesingle" unicode="'" horiz-adv-x="152" 
d="M151 666l-27.001 -171c-2 -9.33301 -6.66699 -14 -14 -14h-24c-8 0 -11.667 4.66699 -11 14l16 171c0.666992 9.33301 5.33398 14 14.001 14h35c9.33301 0 13 -4.66699 11 -14z" />
    <glyph glyph-name="parenleft" unicode="(" horiz-adv-x="227" 
d="M7 -99l85 694c8.66699 75.333 57 113 145 113h8c8.66699 0 12.667 -4.33301 12 -13l-3 -26c-0.666992 -9.33301 -6 -14 -16 -14h-3c-49.333 0 -76.333 -20.333 -81 -61l-85 -695c-0.666992 -5.33301 -1 -10 -1 -14c0 -33.333 21.667 -50 65 -50h5
c10 0 14 -4.66699 12 -14l-4 -26c-2 -8.66699 -7 -13 -15 -13h-6c-80 0 -120 31.333 -120 94c0 4.66699 0.666992 13 2 25z" />
    <glyph glyph-name="parenright" unicode=")" horiz-adv-x="227" 
d="M209 589l-86.001 -694.001c-4.66699 -36.667 -18.167 -64.667 -40.5 -84s-57.166 -29 -104.499 -29h-8c-8.66699 0 -12.667 4.33301 -12 13l3 26c0.666992 9.33301 6 14 16 14h3c49.333 0 76.333 20.333 81 61l85 695c0.666992 6 1 11 1 15c0 32.667 -21.667 49 -65 49
h-5c-8 0 -11.667 4.66699 -11 14l3 26c0.666992 8.66699 5.66699 13 15 13h6c80 0 120 -31.333 120 -94c0 -9.33301 -0.333008 -17.666 -1 -24.999z" />
    <glyph glyph-name="asterisk" unicode="*" horiz-adv-x="354" 
d="M163 383l19.002 122.001l-89 -68c-8.66699 -6.66699 -14.667 -5.66699 -18 3l-8 18c-2.66699 6.66699 -0.333984 12.667 6.99902 18l94 62l-79 64c-5.33301 4.66699 -5.66602 10.667 -0.999023 18l10 16c6 9.33301 12.333 10.666 19 3.99902l73 -69l11 125
c0.666992 9.33301 5.66699 14 15 14h19c9.33301 0 13 -4.66699 11 -14l-20 -125l89 69c8 6 14 4.66699 18 -4l8 -16c3.33301 -7.33301 1.33301 -13.333 -6 -18l-96 -64l80 -62c5.33301 -4 5.66602 -10 0.999023 -18l-10 -17c-6 -10 -12.667 -11.333 -20 -4l-72 67l-11 -121
c-0.666992 -9.33301 -5.33398 -14 -14.001 -14h-19c-9.33301 0 -13 4.66699 -11 14z" />
    <glyph glyph-name="plus" unicode="+" horiz-adv-x="374" 
d="M167 159v154h-114c-8.66699 0 -13 4.33301 -13 13v26c0 8.66699 4.33301 13 13 13h114v154c0 9.33301 4.33301 14 13 14h24c9.33301 0 14 -4.66699 14 -14v-154h115c8.66699 0 13 -4.33301 13 -13v-26c0 -8.66699 -4.33301 -13 -13 -13h-115v-154
c0 -9.33301 -4.66699 -14 -14 -14h-24c-8.66699 0 -13 4.66699 -13 14z" />
    <glyph glyph-name="comma" unicode="," horiz-adv-x="162" 
d="M20 31l7.99902 60c0.666992 8.66699 5.33398 13 14.001 13h36c8 0 11.667 -4.33301 11 -13l-8 -63c-3.33301 -30 -11.833 -54.167 -25.5 -72.5s-34.167 -32.833 -61.5 -43.5c-8 -2.66699 -13.333 -0.666992 -16 6l-10 23c-4 7.33301 -1.33301 13.666 8 18.999
c25.333 14.667 40 38.334 44 71.001z" />
    <glyph glyph-name="hyphen" unicode="-" horiz-adv-x="320" 
d="M65 315h189c8.66699 0 13 -4.33301 13 -13v-25c0 -9.33301 -4.33301 -14 -13 -14h-189c-9.33301 0 -14 4.66699 -14 14v25c0 8.66699 4.66699 13 14 13z" />
    <glyph glyph-name="period" unicode="." horiz-adv-x="159" 
d="M87 91l-9 -78c-0.666992 -8.66699 -5.66699 -13 -15 -13h-36c-8 -0 -11.667 4.33301 -11 13l9 78c0.666992 8.66699 5.66699 13 15 13h36c8 0 11.667 -4.33301 11 -13z" />
    <glyph glyph-name="slash" unicode="/" horiz-adv-x="265" 
d="M289 685l-255 -819c-2.66699 -9.33301 -8.66699 -14 -18 -14h-36c-8.66699 0 -11.334 4.66699 -8.00098 14l255 819c3.33301 9.33301 9 14 17 14h37c8.66699 0 11.334 -4.66699 8.00098 -14z" />
    <glyph glyph-name="zero" unicode="0" horiz-adv-x="414" 
d="M35 124l54.001 433.001c5.33301 41.333 19.666 73.5 42.999 96.5s63 34.5 119 34.5c94.667 0 142 -36 142 -108c0 -2.66699 -0.666992 -10.667 -2 -24l-53 -433c-5.33301 -40.667 -20 -72.667 -44 -96s-63.667 -35 -119 -35c-94.667 0 -142 35.667 -142 107
c0 3.33301 0.666992 11.666 2 24.999zM276.001 124.001l51.999 429c0.666992 5.33301 1 12 1 20c0 20 -6.16699 35.333 -18.5 46s-33.5 16 -63.5 16c-32 0 -55.167 -6.83301 -69.5 -20.5s-23.166 -33.167 -26.499 -58.5l-53 -428c-1.33301 -10.667 -2 -17.667 -2 -21
c0 -41.333 27.667 -62 83 -62c58 0 90.333 26.333 97 79z" />
    <glyph glyph-name="one" unicode="1" horiz-adv-x="366" 
d="M96 645l163.999 38.001c4 1.33301 7.16699 1 9.5 -1s3.16602 -5.66699 2.49902 -11l-76 -618h110c4.66699 0 7.83398 -0.833008 9.50098 -2.5s2.16699 -4.83398 1.5 -9.50098l-2 -28c-0.666992 -8.66699 -5.66699 -13 -15 -13h-285c-8 -0 -11.667 4.33301 -11 13l3 28
c0.666992 8 5.66699 12 15 12h111l70 564l-114 -28c-4 -1.33301 -7.16699 -1 -9.5 1s-3.16602 5.33301 -2.49902 10l3 29c0.666992 8.66699 6 14 16 16z" />
    <glyph glyph-name="two" unicode="2" horiz-adv-x="396" 
d="M88 53h220.002c8 0 11.667 -4 11 -12l-3 -28c-0.666992 -8.66699 -5.66699 -13 -15 -13h-268c-8 -0 -11.667 4.33301 -11 13l22 185c5.33301 46.667 34.333 83.667 87 111l117 60c34 16.667 53 42 57 76l14 108c0.666992 6 1 13.333 1 22c0 40 -27.667 60 -83 60
c-32 0 -55 -6.83301 -69 -20.5s-22.667 -33.167 -26 -58.5l-9 -68c-0.666992 -10 -5.33398 -15 -14.001 -15h-35c-9.33301 0 -13.333 5 -12 15l9 68c6 42 20.5 74.5 43.5 97.5s62.167 34.5 117.5 34.5c93.333 0 140 -36 140 -108c0 -10 -0.333008 -18.333 -1 -25l-15 -116
c-6.66699 -52 -34.334 -90.667 -83.001 -116l-113 -57c-38 -19.333 -59.333 -45 -64 -77z" />
    <glyph glyph-name="three" unicode="3" horiz-adv-x="397" 
d="M155 387l45.999 -0.00292969c34 0 57.833 6.33301 71.5 19s22.167 32.334 25.5 59.001l12 92c1.33301 12 2 19.333 2 22c0 37.333 -26.333 56 -79 56c-31.333 0 -53.833 -6.33301 -67.5 -19s-21.834 -31.334 -24.501 -56.001l-4 -35
c-0.666992 -8.66699 -5.66699 -13 -15 -13h-35c-8.66699 0 -12.334 4.33301 -11.001 13l4 34c4.66699 40.667 18.5 72.334 41.5 95.001s61.833 34 116.5 34c90.667 0 136 -34.333 136 -103c0 -6 -0.666992 -14.333 -2 -25l-12 -97c-3.33301 -28 -10.666 -50 -21.999 -66
s-29.666 -27.333 -54.999 -34c38.667 -13.333 58 -40.666 58 -81.999c0 -3.33301 -0.666992 -11.666 -2 -24.999l-17 -137c-5.33301 -40 -19.666 -71.167 -42.999 -93.5s-62.333 -33.5 -117 -33.5c-94 0 -141 35 -141 105c0 8.66699 0.333008 16.667 1 24l4 34
c0.666992 8.66699 5.66699 13 15 13h35c8.66699 0 12.334 -4.33301 11.001 -13l-3 -31c-0.666992 -5.33301 -1 -12.333 -1 -21c0 -38.667 27.333 -58 82 -58c32 0 55.167 6.5 69.5 19.5s23.166 31.833 26.499 56.5l17 133c0.666992 6.66699 1 14.334 1 23.001
c0 19.333 -6 33.666 -18 42.999s-32.667 14 -62 14h-50c-8.66699 0 -12.667 4.66699 -12 14l3 26c0.666992 8.66699 5.66699 13 15 13z" />
    <glyph glyph-name="four" unicode="4" horiz-adv-x="394" 
d="M226 666l-135 -393.001h179l49 393c0.666992 9.33301 5.33398 14 14.001 14h36c8 0 11.667 -4.66699 11 -14l-80 -652c-0.666992 -9.33301 -5.33398 -14 -14.001 -14h-36c-8 0 -11.667 4.66699 -11 14l25 205h-230c-8.66699 0 -12.667 4.66699 -12 14l3 22
c0.666992 4.66699 2.66699 13.334 6 26.001l134 385c3.33301 9.33301 9 14 17 14h35c9.33301 0 12.333 -4.66699 9 -14z" />
    <glyph glyph-name="five" unicode="5" horiz-adv-x="390" 
d="M119 680h242.001c9.33301 0 13.666 -4.33301 12.999 -13l-4 -28c-0.666992 -8 -5.66699 -12 -15 -12h-194l-26 -215h71c44 0 77.833 -8.83301 101.5 -26.5s35.5 -42.5 35.5 -74.5c0 -6 -0.333008 -12.333 -1 -19l-20 -171c-4.66699 -41.333 -18.5 -73.333 -41.5 -96
s-62.5 -34 -118.5 -34c-91.333 0 -137 35.667 -137 107c0 8 0.333008 15.667 1 23l3 34c0.666992 8.66699 5.66699 13 15 13h35c8 0 11.667 -4.33301 11 -13l-3 -32c-0.666992 -6 -1 -13 -1 -21c0 -19.333 5.83301 -33.833 17.5 -43.5s32.5 -14.5 62.5 -14.5
c32.667 0 55.667 6.5 69 19.5s21.333 32.167 24 57.5l20 168c0.666992 6.66699 1 11.667 1 15c0 36.667 -27.667 55 -83 55h-117c-8.66699 0 -12.334 4.66699 -11.001 14l36 293c0.666992 9.33301 5.33398 14 14.001 14z" />
    <glyph glyph-name="six" unicode="6" horiz-adv-x="405" 
d="M35 124l54 437.999c2 17.333 5.66699 32.666 11 45.999s13.666 26.5 24.999 39.5s27.333 23 48 30s45.667 10.5 75 10.5c48 0 82.667 -10 104 -30s32 -45.333 32 -76c0 -6 -0.333008 -12.667 -1 -20l-3 -29c-0.666992 -9.33301 -6 -14 -16 -14h-34
c-8.66699 0 -12.667 4.66699 -12 14l3 26c0.666992 6.66699 1 13.334 1 20.001c0 37.333 -26 56 -78 56c-56 0 -87 -24 -93 -72l-24 -198c18.667 26 52.667 39 102 39c84.667 0 127 -35 127 -105c0 -4.66699 -0.666992 -13.667 -2 -27l-19 -148
c-5.33301 -41.333 -19.666 -73.666 -42.999 -96.999s-63 -35 -119 -35c-93.333 0 -140 35 -140 105c0 6 0.666992 15 2 27zM274 122.999l18 148.001c0.666992 6 1 12.667 1 20c0 40 -27.333 60 -82 60c-57.333 0 -89 -23.333 -95 -70l-19 -155
c-0.666992 -5.33301 -1 -12.333 -1 -21c0 -40 27 -60 81 -60c33.333 0 57 6.66699 71 20s22.667 32.666 26 57.999z" />
    <glyph glyph-name="seven" unicode="7" horiz-adv-x="364" 
d="M80 680h296.998c8.66699 0 12.667 -4 12 -12l-2 -18c-0.666992 -6 -2.66699 -13.667 -6 -23l-256 -613c-3.33301 -9.33301 -9.33301 -14 -18 -14h-41c-10.667 0 -13.667 5 -9 15l257 612h-239c-4.66699 0 -8.16699 1 -10.5 3s-3.16602 5 -2.49902 9l4 28
c0.666992 8.66699 5.33398 13 14.001 13z" />
    <glyph glyph-name="eight" unicode="8" horiz-adv-x="403" 
d="M80 467l10.999 89.001c5.33301 43.333 18.333 76.166 39 98.499s58.667 33.5 114 33.5c90 0 135 -35 135 -105c0 -4.66699 -0.666992 -13.667 -2 -27l-11 -89c-4 -29.333 -11.833 -52.5 -23.5 -69.5s-31.167 -28.833 -58.5 -35.5c42.667 -11.333 64 -38.333 64 -81
c0 -7.33301 -0.333008 -15 -1 -23l-16 -134c-5.33301 -42 -19.666 -74.5 -42.999 -97.5s-63.333 -34.5 -120 -34.5c-92 0 -138 35.667 -138 107c0 4.66699 0.666992 13 2 25l16 135c3.33301 28 11.333 50.5 24 67.5s33.667 28.833 63 35.5c-38 12 -57 38.667 -57 80
c0 4.66699 0.666992 13 2 25zM304.999 466.001l10.9971 91.0029c1.33301 10.667 2 17.667 2 21c0 19.333 -5.66699 33.666 -17 42.999s-31.333 14 -60 14c-31.333 0 -53.166 -6.33301 -65.499 -19s-20.166 -32 -23.499 -58l-11 -90c-1.33301 -10.667 -2 -18.334 -2 -23.001
c0 -18.667 5.33301 -32.834 16 -42.501s30 -14.5 58 -14.5c32.667 0 55.334 6.5 68.001 19.5s20.667 32.5 24 58.5zM269.996 123.004l15.001 133c1.33301 12 2 19 2 21c0 19.333 -6 34 -18 44s-33 15 -63 15c-33.333 0 -57 -6.66699 -71 -20s-22.667 -32.666 -26 -57.999
l-16 -132c-1.33301 -12 -2 -19.333 -2 -22c0 -39.333 27.333 -59 82 -59c33.333 0 57.166 6.66699 71.499 20s22.833 32.666 25.5 57.999z" />
    <glyph glyph-name="nine" unicode="9" horiz-adv-x="405" 
d="M143 557l-19 -148c-0.666992 -6.66699 -1 -13.334 -1 -20.001c0 -40 26.667 -60 80 -60c58.667 0 91 23.333 97 70l19 156c0.666992 7.33301 1 14.333 1 21c0 19.333 -6 34 -18 44s-33 15 -63 15c-32.667 0 -56 -6.66699 -70 -20s-22.667 -32.666 -26 -57.999zM380 556
l-53 -438c-4.66699 -38.667 -18.334 -69.334 -41.001 -92.001s-61.667 -34 -117 -34c-48.667 0 -83.5 10 -104.5 30s-31.5 45.333 -31.5 76c0 4.66699 0.333008 11.334 1 20.001l3 29c0.666992 9.33301 5.66699 14 15 14h35c8 0 11.667 -4.66699 11 -14l-3 -28
c-0.666992 -6 -1 -11.333 -1 -16c0 -38.667 26 -58 78 -58c56.667 0 88 24 94 72l24 198c-21.333 -26 -55.666 -39 -102.999 -39c-84 0 -126 35 -126 105c0 6 0.666992 15 2 27l18 148c5.33301 42 19.5 74.5 42.5 97.5s62.5 34.5 118.5 34.5c93.333 0 140 -36 140 -108
c0 -4 -0.666992 -12 -2 -24z" />
    <glyph glyph-name="colon" unicode=":" horiz-adv-x="170" 
d="M138 480l-9.00098 -78c-0.666992 -8.66699 -5.66699 -13 -15 -13h-35c-8.66699 0 -12.667 4.33301 -12 13l10 78c1.33301 9.33301 6 14 14 14h36c8.66699 0 12.334 -4.66699 11.001 -14zM90.999 91l-9 -78c-0.666992 -8.66699 -5.66699 -13 -15 -13h-36
c-8 -0 -11.667 4.33301 -11 13l9 78c0.666992 8.66699 5.66699 13 15 13h36c8 0 11.667 -4.33301 11 -13z" />
    <glyph glyph-name="semicolon" unicode=";" horiz-adv-x="188" 
d="M151 480l-9 -78c-0.666992 -8.66699 -5.66699 -13 -15 -13h-35c-8.66699 0 -12.667 4.33301 -12 13l9 78c1.33301 9.33301 6.33301 14 15 14h37c8 0 11.333 -4.66699 10 -14zM35 31l6.99805 60c0.666992 8.66699 5.33398 13 14.001 13h37c8 0 11.667 -4.33301 11 -13
l-8 -63c-4 -30 -12.667 -54.167 -26 -72.5s-33.666 -32.833 -60.999 -43.5c-8 -3.33301 -13.333 -1.33301 -16 6l-10 23c-4 7.33301 -1.33301 13.666 8 18.999c25.333 14.667 40 38.334 44 71.001z" />
    <glyph glyph-name="less" unicode="&#x3c;" horiz-adv-x="370" 
d="M301 472l-214 -132.001l214 -131c9.33301 -5.33301 14 -11.666 14 -18.999v-36c0 -4.66699 -1.5 -7.83398 -4.5 -9.50098s-6.16699 -1.16699 -9.5 1.5l-252 160c-8 4.66699 -12 10.334 -12 17.001v34c0 7.33301 4 13.333 12 18l252 160
c3.33301 2.66699 6.5 3.16699 9.5 1.5s4.5 -4.83398 4.5 -9.50098v-36c0 -7.33301 -4.66699 -13.666 -14 -18.999z" />
    <glyph glyph-name="equal" unicode="=" horiz-adv-x="450" 
d="M85 447h286c8.66699 0 13 -4.66699 13 -14v-26c0 -8.66699 -4.33301 -13 -13 -13h-286c-8.66699 0 -13 4.33301 -13 13v26c0 9.33301 4.33301 14 13 14zM85 271h286c8.66699 0 13 -4.33301 13 -13v-26c0 -8.66699 -4.33301 -13 -13 -13h-286
c-8.66699 0 -13 4.33301 -13 13v26c0 8.66699 4.33301 13 13 13z" />
    <glyph glyph-name="greater" unicode="&#x3e;" horiz-adv-x="362" 
d="M287 340l-214 131.001c-9.33301 6 -14 12.667 -14 20v36c0 4.66699 1.33301 8 4 10s6 1.66699 10 -1l251 -161c8 -5.33301 12 -11.333 12 -18v-34c0 -7.33301 -4 -13.333 -12 -18l-251 -160c-4 -2 -7.33301 -2.16699 -10 -0.5s-4 4.5 -4 8.5v37
c0 7.33301 4.66699 13.666 14 18.999z" />
    <glyph glyph-name="question" unicode="?" horiz-adv-x="373" 
d="M132 173l12.001 98.998c4 34.667 22.333 63 55 85l57 40c24 16.667 37.667 38 41 64l11 93c1.33301 9.33301 2 16 2 20c0 40.667 -29 61 -87 61c-33.333 0 -57.333 -6.66699 -72 -20s-23.667 -32.666 -27 -57.999l-9 -69c-0.666992 -10 -5.33398 -15 -14.001 -15h-35
c-8 0 -11.667 5 -11 15l8 69c4.66699 41.333 18.834 73.5 42.501 96.5s64.167 34.5 121.5 34.5c50 0 86.667 -10 110 -30s35 -46.333 35 -79c0 -5.33301 -0.666992 -13.333 -2 -24l-12 -94c-4.66699 -40 -26.667 -74 -66 -102l-48 -35
c-22.667 -15.333 -35.334 -35.666 -38.001 -60.999l-11 -90c-0.666992 -8.66699 -5.66699 -13 -15 -13h-36c-8.66699 0 -12.667 4.33301 -12 13zM184.001 90.998l-8.99902 -78c-0.666992 -8.66699 -5.66699 -13 -15 -13h-35c-8.66699 0 -12.667 4.33301 -12 13l9 78
c0.666992 8.66699 5.66699 13 15 13h37c7.33301 0 10.666 -4.33301 9.99902 -13z" />
    <glyph glyph-name="at" unicode="@" horiz-adv-x="617" 
d="M388 -118l-132.001 -0.000976562c-156 0 -234 45.667 -234 137c0 6.66699 0.666992 16.334 2 29.001l52 412c3.33301 23.333 9.33301 43.833 18 61.5s22.334 34.5 41.001 50.5s45.667 28.167 81 36.5s78.333 12.5 129 12.5c160 0 240 -45.667 240 -137
c0 -6 -0.666992 -14.333 -2 -25l-39 -312c-8.66699 -76 -46.667 -114 -114 -114c-48 0 -76.667 18.333 -86 55c-40.667 -36.667 -80 -55 -118 -55c-52.667 0 -79 23.333 -79 70c0 13.333 1 24.666 3 33.999l49 220c14.667 67.333 49.667 101 105 101c36 0 69 -15 99 -45
l8 27c2 6.66699 6.66699 10 14 10h30c9.33301 0 13 -4.33301 11 -13l-63 -277c-3.33301 -14.667 -5 -26.667 -5 -36c0 -30.667 12.667 -46 38 -46c27.333 0 44 21.333 50 64l39 316c1.33301 10.667 2 16.667 2 18c0 30.667 -14 54.167 -42 70.5s-76 24.5 -144 24.5
c-72 0 -123.5 -9.66699 -154.5 -29s-48.833 -47 -53.5 -83l-51 -410c-1.33301 -9.33301 -2 -16.666 -2 -21.999c0 -30.667 13.5 -54.167 40.5 -70.5s73.167 -24.5 138.5 -24.5h135c8 0 11.667 -4.33301 11 -13l-2 -23c-0.666992 -9.33301 -5.66699 -14 -15 -14z
M256.999 345.999l-46 -199.999c-2 -10 -3 -17 -3 -21c0 -23.333 14.667 -35 44 -35c28.667 0 57.667 13.667 87 41c0.666992 7.33301 2 15.666 4 24.999l47 208c-24 26.667 -48.667 40 -74 40c-30 0 -49.667 -19.333 -59 -58z" />
    <glyph glyph-name="A" unicode="A" horiz-adv-x="399" 
d="M264 250l-23.999 241.001c-4 37.333 -5.33301 70.666 -4 99.999c-12.667 -48 -22.334 -81 -29.001 -99l-85 -242h142zM227.001 680.001h38c10 0 15.333 -4.33301 16 -13l66 -654c1.33301 -8.66699 -2.66699 -13 -12 -13h-35c-9.33301 0 -14.666 4.33301 -15.999 13
l-16 185h-162l-63 -185c-3.33301 -8.66699 -9 -13 -17 -13h-34c-8.66699 0 -11.334 4.33301 -8.00098 13l225 654c2.66699 8.66699 8.66699 13 18 13z" />
    <glyph glyph-name="B" unicode="B" horiz-adv-x="427" 
d="M191 0l-148.001 0.000976562c-8.66699 0 -12.667 4.66699 -12 14l80 652c0.666992 9.33301 5.66699 14 15 14h121c100 0 150 -35 150 -105c0 -6.66699 -0.333008 -13.334 -1 -20.001l-12 -97c-6.66699 -54.667 -34 -88.667 -82 -102c50.667 -12 76 -42.333 76 -91
c0 -6 -0.333008 -12.333 -1 -19l-14 -121c-9.33301 -83.333 -66.666 -125 -171.999 -125zM243.999 627.001h-75l-31 -251h79c62 0 96.667 26 104 78l13 93c0.666992 6.66699 1 12.667 1 18c0 41.333 -30.333 62 -91 62zM218.999 326.001h-87l-34 -273h97
c66 0 101.667 25.667 107 77l13 113c0.666992 6 1 12 1 18c0 43.333 -32.333 65 -97 65z" />
    <glyph glyph-name="C" unicode="C" horiz-adv-x="405" 
d="M355 200l-9 -77.001c-4.66699 -40.667 -19.5 -72.667 -44.5 -96s-65.833 -35 -122.5 -35c-95.333 0 -143 36 -143 108c0 10 0.333008 18 1 24l53 433c5.33301 40.667 20.333 72.667 45 96s65 35 121 35c96.667 0 145 -36.333 145 -109c0 -3.33301 -0.666992 -11 -2 -23
l-8 -63c-0.666992 -9.33301 -5.66699 -14 -15 -14h-34c-9.33301 0 -13.333 4.66699 -12 14l7 60c0 2.66699 0.166992 5.33398 0.5 8.00098s0.666016 4.83398 0.999023 6.50098s0.5 3.16699 0.5 4.5c0 42 -29 63 -87 63c-60 0 -93.333 -26.333 -100 -79l-52 -429
c-0.666992 -4.66699 -1 -11.334 -1 -20.001c0 -41.333 28.333 -62 85 -62c61.333 0 95 26.333 101 79l9 76c1.33301 9.33301 6.33301 14 15 14h35c8.66699 0 12.334 -4.66699 11.001 -14z" />
    <glyph glyph-name="D" unicode="D" horiz-adv-x="440" 
d="M191 0l-150.002 -0.000976562c-7.33301 0 -10.666 4.66699 -9.99902 14l80 652c0.666992 9.33301 5.33398 14 14.001 14h140c51.333 0 89.333 -10.167 114 -30.5s37 -47.166 37 -80.499c0 -2.66699 -0.666992 -10 -2 -22l-51 -416c-10.667 -87.333 -68 -131 -172 -131z
M260.998 626.999h-92l-71 -574h97c64 0 99.333 26.667 106 80l50 409c1.33301 10.667 2 17 2 19c0 44 -30.667 66 -92 66z" />
    <glyph glyph-name="E" unicode="E" horiz-adv-x="376" 
d="M294 0l-251.997 0.000976562c-8 0 -11.667 4.66699 -11 14l80 652c0.666992 9.33301 5.66699 14 15 14h241c9.33301 0 13.666 -4.33301 12.999 -13l-4 -28c-0.666992 -8 -5.33398 -12 -14.001 -12h-193l-30 -244h180c8.66699 0 12.667 -4.33301 12 -13l-4 -26
c-0.666992 -8.66699 -5.33398 -13 -14.001 -13h-180l-35 -278h201c5.33301 0 8.83301 -0.833008 10.5 -2.5s2.16699 -4.83398 1.5 -9.50098l-2 -28c-0.666992 -8.66699 -5.66699 -13 -15 -13z" />
    <glyph glyph-name="F" unicode="F" horiz-adv-x="384" 
d="M126 680h260.002c8.66699 0 12.667 -4.33301 12 -13l-3 -28c-0.666992 -8 -5.66699 -12 -15 -12h-211l-30 -246h197c9.33301 0 13.666 -4.33301 12.999 -13l-3 -27c-0.666992 -9.33301 -5.66699 -14 -15 -14h-198l-39 -313c-0.666992 -9.33301 -5.33398 -14 -14.001 -14
h-37c-8.66699 0 -12.667 4.66699 -12 14l80 652c0.666992 9.33301 5.66699 14 15 14z" />
    <glyph glyph-name="G" unicode="G" horiz-adv-x="418" 
d="M227 323h130.002c8.66699 0 12.667 -4.33301 12 -13l-23 -187c-5.33301 -40.667 -20.333 -72.667 -45 -96s-65.334 -35 -122.001 -35c-96 0 -144 36.333 -144 109c0 8 0.333008 15.667 1 23l54 433c5.33301 40.667 20.166 72.667 44.499 96s64.833 35 121.5 35
c96 0 144 -36.333 144 -109c0 -8 -0.333008 -15.667 -1 -23l-6 -60c-0.666992 -9.33301 -6 -14 -16 -14h-34c-9.33301 0 -13.333 4.66699 -12 14l7 58c0.666992 7.33301 1 13.333 1 18c0 42 -29 63 -87 63c-60.667 0 -94.334 -26.333 -101.001 -79l-52 -429
c-0.666992 -5.33301 -1 -12 -1 -20c0 -41.333 28.667 -62 86 -62c60.667 0 94.334 26 101.001 78l18 147h-83c-8 0 -11.667 4.33301 -11 13l3 27c0.666992 8.66699 5.66699 13 15 13z" />
    <glyph glyph-name="H" unicode="H" horiz-adv-x="448" 
d="M174 666l-34 -278h192l34 278c0.666992 9.33301 5.66699 14 15 14h36c8.66699 0 12.667 -4.66699 12 -14l-80 -652c-0.666992 -9.33301 -5.66699 -14 -15 -14h-36c-9.33301 0 -13.333 4.66699 -12 14l39 320h-192l-39 -320c-1.33301 -9.33301 -6 -14 -14 -14h-37
c-8.66699 0 -12.667 4.66699 -12 14l80 652c0.666992 9.33301 5.66699 14 15 14h37c8 0 11.667 -4.66699 11 -14z" />
    <glyph glyph-name="I" unicode="I" horiz-adv-x="193" 
d="M174 666l-79.999 -652c-0.666992 -9.33301 -5.33398 -14 -14.001 -14h-37c-8.66699 0 -12.667 4.66699 -12 14l80 652c0.666992 9.33301 5.66699 14 15 14h37c8 0 11.667 -4.66699 11 -14z" />
    <glyph glyph-name="J" unicode="J" horiz-adv-x="368" 
d="M67 179l-7.00293 -53.999c-0.666992 -5.33301 -1 -12.333 -1 -21c0 -39.333 24.667 -59 74 -59c29.333 0 50.5 6.66699 63.5 20s21.167 32.666 24.5 57.999l67 543c0.666992 9.33301 5.33398 14 14.001 14h37c8.66699 0 12.334 -4.66699 11.001 -14l-66 -543
c-5.33301 -41.333 -19.166 -73.5 -41.499 -96.5s-59.833 -34.5 -112.5 -34.5c-46 0 -79.667 9.66699 -101 29s-32 45.333 -32 78c0 5.33301 0.666992 14 2 26l7 54c0.666992 9.33301 5.66699 14 15 14h35c8 0 11.667 -4.66699 11 -14z" />
    <glyph glyph-name="K" unicode="K" horiz-adv-x="399" 
d="M206 346l145.002 -333c1.33301 -3.33301 1.16602 -6.33301 -0.500977 -9s-4.83398 -4 -9.50098 -4h-41c-8 -0 -14 4.33301 -18 13l-131 305h-20l-38 -305c-0.666992 -8.66699 -5.33398 -13 -14.001 -13h-36c-8.66699 -0 -12.667 4.33301 -12 13l80 654
c0.666992 8.66699 5.66699 13 15 13h36c8.66699 0 12.667 -4.33301 12 -13l-37 -301h17l191 301c5.33301 8.66699 12.333 13 21 13h39c10.667 0 13.334 -4.33301 8.00098 -13z" />
    <glyph glyph-name="L" unicode="L" horiz-adv-x="341" 
d="M174 666l-75.999 -613h189c8.66699 0 12.667 -4 12 -12l-3 -28c-0.666992 -8.66699 -5.33398 -13 -14.001 -13h-241c-8 0 -11.333 4.66699 -10 14l80 652c0.666992 9.33301 5.66699 14 15 14h37c8 0 11.667 -4.66699 11 -14z" />
    <glyph glyph-name="M" unicode="M" horiz-adv-x="552" 
d="M532 667l-79.999 -654c-0.666992 -8.66699 -5.33398 -13 -14.001 -13h-34c-8.66699 -0 -12.667 4.33301 -12 13l65 526c-6.66699 -21.333 -13.667 -41 -21 -59l-146 -344c-4 -10 -10.667 -15 -20 -15h-31c-8.66699 0 -14 5 -16 15l-63 347
c-2.66699 13.333 -4.66699 31.333 -6 54l-66 -524c-0.666992 -8.66699 -5 -13 -13 -13h-32c-8.66699 -0 -12.667 4.33301 -12 13l80 654c1.33301 8.66699 6 13 14 13h43c7.33301 0 11.666 -3.66699 12.999 -11l75 -405c3.33301 -17.333 6.33301 -39.333 9 -66
c6.66699 24.667 14 46.667 22 66l174 406c2.66699 6.66699 7.33398 10 14.001 10h46c8 0 11.667 -4.33301 11 -13z" />
    <glyph glyph-name="N" unicode="N" horiz-adv-x="450" 
d="M431 667l-80.999 -654c-0.666992 -8.66699 -5.33398 -13 -14.001 -13h-34c-6.66699 -0 -11 3.33301 -13 10l-123 455c-6.66699 25.333 -11.667 48.333 -15 69l-64 -521c-0.666992 -8.66699 -5.33398 -13 -14.001 -13h-30c-8.66699 -0 -12.667 4.33301 -12 13l80 654
c0.666992 8.66699 5.66699 13 15 13h33c6 0 10 -2.66699 12 -8l125 -461c7.33301 -28 12 -49 14 -63l65 519c0.666992 8.66699 5.33398 13 14.001 13h30c8.66699 0 12.667 -4.33301 12 -13z" />
    <glyph glyph-name="O" unicode="O" horiz-adv-x="432" 
d="M36 124l54 432.999c10.667 87.333 67 131 169 131c51.333 0 89 -10.167 113 -30.5s36 -47.166 36 -80.499c0 -7.33301 -0.333008 -14.333 -1 -21l-54 -433c-10.667 -87.333 -67 -131 -169 -131c-51.333 0 -89 10 -113 30s-36 46.667 -36 80c0 8.66699 0.333008 16 1 22z
M291 123.999l53 429c0.666992 6 1 12 1 18c0 42.667 -30 64 -90 64c-62.667 0 -97.334 -26.333 -104.001 -79l-52 -429c-0.666992 -5.33301 -1 -11.333 -1 -18c0 -42.667 29.667 -64 89 -64c62.667 0 97.334 26.333 104.001 79z" />
    <glyph glyph-name="P" unicode="P" horiz-adv-x="417" 
d="M221 266l-97 0.000976562l-30 -252c-0.666992 -9.33301 -5.33398 -14 -14.001 -14h-37c-9.33301 0 -13.333 4.66699 -12 14l80 652c0.666992 9.33301 5.33398 14 14.001 14h138c51.333 0 89 -10.333 113 -31s36 -48 36 -82c0 -6.66699 -0.333008 -13.667 -1 -21l-18 -151
c-5.33301 -40.667 -20.833 -72.334 -46.5 -95.001s-67.5 -34 -125.5 -34zM259 627.001h-90l-38 -308h94c63.333 0 98.333 25.667 105 77l19 148c0.666992 6 1 11.667 1 17c0 44 -30.333 66 -91 66z" />
    <glyph glyph-name="Q" unicode="Q" horiz-adv-x="432" 
d="M283 -159c-7.33301 -5.33301 -12.999 -4.66602 -16.999 2.00098l-102 150c-86 4.66699 -129 41 -129 109c0 7.33301 0.333008 14.666 1 21.999l54 433c10.667 87.333 67 131 169 131c51.333 0 89 -10.167 113 -30.5s36 -47.166 36 -80.499
c0 -7.33301 -0.333008 -14.333 -1 -21l-54 -433c-9.33301 -74.667 -50.333 -117.334 -123 -128.001l80 -118c5.33301 -7.33301 4.66602 -13.333 -2.00098 -18zM291.001 124l53 429c0.666992 6 1 12 1 18c0 42.667 -30 64 -90 64c-62.667 0 -97.334 -26.333 -104.001 -79
l-52 -429c-0.666992 -5.33301 -1 -11.333 -1 -18c0 -42.667 29.667 -64 89 -64c62.667 0 97.334 26.333 104.001 79z" />
    <glyph glyph-name="R" unicode="R" horiz-adv-x="429" 
d="M259 627h-90l-37 -294h95c63.333 0 98.333 25.667 105 77l17 134c0.666992 7.33301 1 13 1 17c0 44 -30.333 66 -91 66zM93 14c-0.666992 -9.33301 -5.33398 -14 -14.001 -14h-36c-8.66699 0 -12.667 4.66699 -12 14l80 652c0.666992 9.33301 5.33398 14 14.001 14h138
c51.333 0 89 -10.333 113 -31s36 -47.667 36 -81c0 -8.66699 -0.333008 -16 -1 -22l-17 -138c-8 -64.667 -41.667 -105 -101 -121l58 -273c2 -9.33301 -2.33301 -14 -13 -14h-37c-8 0 -13 4.66699 -15 14l-54 265h-106z" />
    <glyph glyph-name="S" unicode="S" horiz-adv-x="405" 
d="M320 496l8.00195 59.998c0.666992 6 1 12 1 18c0 40.667 -28.667 61 -86 61c-60.667 0 -94.334 -25.667 -101.001 -77l-7 -55c-0.666992 -5.33301 -1 -12 -1 -20c0 -28.667 13 -51 39 -67l113 -69c43.333 -26.667 65 -62.334 65 -107.001c0 -8 -0.333008 -14.667 -1 -20
l-11 -97c-10 -87.333 -66.667 -131 -170 -131c-50.667 0 -87.834 10 -111.501 30s-35.5 46.333 -35.5 79c0 9.33301 0.333008 17 1 23l8 66c1.33301 9.33301 6.33301 14 15 14h36c8 0 11.333 -4.66699 10 -14l-8 -63c-0.666992 -5.33301 -1 -11.666 -1 -18.999
c0 -42 29.667 -63 89 -63c63.333 0 98.333 26 105 78l11 85c0.666992 7.33301 1 13 1 17c0 28.667 -16.667 53 -50 73l-108 66c-39.333 24.667 -59 59.334 -59 104.001c0 9.33301 0.333008 17 1 23l8 66c5.33301 41.333 20 73.5 44 96.5s64.333 34.5 121 34.5
c96 0 144 -36.333 144 -109c0 -7.33301 -0.333008 -14.666 -1 -21.999l-7 -61c-0.666992 -8.66699 -5.66699 -13 -15 -13h-35c-8.66699 0 -12.667 4.33301 -12 13z" />
    <glyph glyph-name="T" unicode="T" horiz-adv-x="352" 
d="M74 680h296c9.33301 0 13.666 -4.33301 12.999 -13l-3 -28c-0.666992 -8 -5.66699 -12 -15 -12h-117l-75 -613c-0.666992 -9.33301 -5.66699 -14 -15 -14h-36c-8.66699 0 -12.667 4.66699 -12 14l76 613h-118c-8.66699 0 -12.667 4 -12 12l4 28
c0.666992 8.66699 5.33398 13 14.001 13z" />
    <glyph glyph-name="U" unicode="U" horiz-adv-x="444" 
d="M172 666l-67.002 -536c-0.666992 -6 -1 -13 -1 -21c0 -42.667 29.667 -64 89 -64c62.667 0 97.334 26.333 104.001 79l67 542c0.666992 9.33301 5.33398 14 14.001 14h37c8.66699 0 12.667 -4.66699 12 -14l-67 -543c-10.667 -87.333 -67.667 -131 -171 -131
c-50.667 0 -87.834 10 -111.501 30s-35.5 46.333 -35.5 79c0 8.66699 0.333008 16.667 1 24l66 541c0.666992 9.33301 5.33398 14 14.001 14h37c8.66699 0 12.667 -4.66699 12 -14z" />
    <glyph glyph-name="V" unicode="V" horiz-adv-x="389" 
d="M139 0c-9.33301 0 -14.333 4.33301 -15 13l-59 654c-0.666992 8.66699 3 13 11 13h37c8.66699 0 13.667 -4.33301 15 -13l39 -478c1.33301 -17.333 2 -49 2 -95c9.33301 36 18.333 67.333 27 94l158 479c3.33301 8.66699 9 13 17 13h36c8.66699 0 11.667 -4.33301 9 -13
l-220 -654c-2.66699 -8.66699 -9 -13 -19 -13h-38z" />
    <glyph glyph-name="W" unicode="W" horiz-adv-x="601" 
d="M382 667l21.999 -469.999c1.33301 -27.333 1.33301 -51.666 0 -72.999c4 16 10.667 40.333 20 73l141 470c2 8.66699 7.33301 13 16 13h33c8.66699 0 11.667 -4.33301 9 -13l-196 -654c-2.66699 -8.66699 -8.66699 -13 -18 -13h-37c-10 0 -15 4.33301 -15 13l-23 494
c-1.33301 14.667 -2 31 -2 49c-2.66699 -14.667 -6.66699 -31.334 -12 -50.001l-145 -493c-2.66699 -8.66699 -8.66699 -13 -18 -13h-38c-10 0 -15 4.33301 -15 13l-35 654c0 8.66699 4 13 12 13h35c9.33301 0 14 -4.33301 14 -13l24 -466c1.33301 -30.667 2 -56 2 -76
c7.33301 31.333 14 56.666 20 75.999l137 466c2.66699 8.66699 8.33398 13 17.001 13h38c9.33301 0 14 -4.33301 14 -13z" />
    <glyph glyph-name="X" unicode="X" horiz-adv-x="393" 
d="M238 343l100.999 -330c2.66699 -8.66699 -1 -13 -11 -13h-40c-8 -0 -13.333 4.33301 -16 13l-79 264l-141 -264c-4.66699 -8.66699 -11 -13 -19 -13h-38c-8.66699 0 -10.667 5 -6 15l180 335l-96 315c-2.66699 10 0 15 8 15h40c8.66699 0 14.334 -4.33301 17.001 -13
l78 -253l131 253c4.66699 8.66699 11 13 19 13h38c9.33301 0 11.333 -5 6 -15z" />
    <glyph glyph-name="Y" unicode="Y" horiz-adv-x="381" 
d="M125 667l66.999 -284c2.66699 -11.333 4.66699 -23 6 -35c4 14.667 8.33301 26.667 13 36l140 283c4.66699 8.66699 10.334 13 17.001 13h34c10.667 0 13.667 -4.33301 9 -13l-191 -388l-32 -266c-0.666992 -8.66699 -5.66699 -13 -15 -13h-36
c-8.66699 -0 -12.667 4.33301 -12 13l32 259l-96 395c-2 8.66699 2 13 12 13h38c7.33301 0 12 -4.33301 14 -13z" />
    <glyph glyph-name="Z" unicode="Z" horiz-adv-x="345" 
d="M95 680h250.998c8.66699 0 12.667 -4.33301 12 -13l-3 -25c-1.33301 -6.66699 -3.33301 -12.667 -6 -18l-286 -571h216c8.66699 0 12.667 -4 12 -12l-2 -28c-0.666992 -8.66699 -6 -13 -16 -13h-273c-8.66699 -0 -12.667 4.33301 -12 13l3 25
c0.666992 6 2.33398 11.333 5.00098 16l286 573h-192c-8.66699 0 -12.667 4 -12 12l3 28c0.666992 8.66699 5.33398 13 14.001 13z" />
    <glyph glyph-name="bracketleft" unicode="[" horiz-adv-x="237" 
d="M-3 -197l108 882c0.666992 9.33301 5.66699 14 15 14h135c8.66699 0 12.667 -4.33301 12 -13l-3 -28c-0.666992 -8 -5.66699 -12 -15 -12h-86l-99 -804h85c8.66699 0 12.667 -4 12 -12l-3 -28c-0.666992 -8.66699 -5.66699 -13 -15 -13h-135c-8 0 -11.667 4.66699 -11 14
z" />
    <glyph glyph-name="backslash" unicode="\" horiz-adv-x="301" 
d="M167 -134l-96.999 819c-1.33301 9.33301 2.33398 14 11.001 14h35c9.33301 0 14.333 -4.66699 15 -14l96 -819c1.33301 -9.33301 -2.33398 -14 -11.001 -14h-35c-8.66699 0 -13.334 4.66699 -14.001 14z" />
    <glyph glyph-name="bracketright" unicode="]" horiz-adv-x="237" 
d="M228 685l-108.999 -882c-0.666992 -9.33301 -5.33398 -14 -14.001 -14h-136c-8 0 -11.667 4.33301 -11 13l3 28c0.666992 8 5.66699 12 15 12h86l99 804h-86c-8 0 -11.667 4 -11 12l2 28c0.666992 8.66699 5.66699 13 15 13h136c8 0 11.667 -4.66699 11 -14z" />
    <glyph glyph-name="asciicircum" unicode="^" horiz-adv-x="362" 
d="M274 316l-64 302l-112 -302c-3.33301 -9.33301 -8.66602 -14 -15.999 -14h-32c-10.667 0 -14 4.66699 -10 14l140 351c3.33301 8.66699 8.66602 13 15.999 13h38c7.33301 0 12 -4.33301 14 -13l83 -351c2 -9.33301 -2.33301 -14 -13 -14h-32c-6 0 -10 4.66699 -12 14z
" />
    <glyph glyph-name="underscore" unicode="_" horiz-adv-x="285" 
d="M-35 -86h255c9.33301 0 14 -4.33301 14 -13v-26c0 -8.66699 -4.66699 -13 -14 -13h-255c-8.66699 0 -13 4.33301 -13 13v26c0 8.66699 4.33301 13 13 13z" />
    <glyph glyph-name="grave" unicode="`" horiz-adv-x="241" 
d="M191 577l-42.999 118c-4 8.66699 -0.666992 13 10 13h36c8.66699 0 14 -4 16 -12l32 -115c2 -8 -1 -12 -9 -12h-28c-6.66699 0 -11.334 2.66699 -14.001 8z" />
    <glyph glyph-name="a" unicode="a" horiz-adv-x="387" 
d="M123 389l-35 -282c-0.666992 -5.33301 -1 -10 -1 -14c0 -30.667 18.333 -46 55 -46c36 0 70 14 102 42l39 316c-28 28 -60 42 -96 42c-38 0 -59.333 -19.333 -64 -58zM240 40c-39.333 -32 -80.332 -48 -122.999 -48c-30 0 -52.667 7.33301 -68 22s-23 34.667 -23 60
c0 6.66699 0.333008 13.667 1 21l37 307c4 30.667 15 55 33 73s43 27 75 27c45.333 0 84.666 -15.667 117.999 -47l5 26c2 8.66699 6.66699 13 14 13h32c8 0 11.667 -4.66699 11 -14l-57 -467c-0.666992 -8.66699 -5.66699 -13 -15 -13h-31c-8 -0 -11.667 4.33301 -11 13z
" />
    <glyph glyph-name="b" unicode="b" horiz-adv-x="386" 
d="M64 0l-31 -0.000976562c-8.66699 0 -12.334 4.66699 -11.001 14l82 666c0.666992 9.33301 5.66699 14 15 14h35c8.66699 0 12.334 -4.66699 11.001 -14l-27 -225c34.667 31.333 74.667 47 120 47c29.333 0 52 -7.66699 68 -23s24 -35.666 24 -60.999
c0 -5.33301 -0.333008 -11.333 -1 -18l-38 -309c-4 -30 -15 -54 -33 -72s-43 -27 -75 -27c-47.333 0 -87 16 -119 48l-5 -27c-2 -8.66699 -7 -13 -15 -13zM251 104.999l35 282c0.666992 5.33301 1 10 1 14c0 30.667 -18 46 -54 46c-33.333 0 -67.333 -14 -102 -42l-39 -316
c28 -28 60 -42 96 -42c37.333 0 58.333 19.333 63 58z" />
    <glyph glyph-name="c" unicode="c" horiz-adv-x="356" 
d="M208 502c84 0 125.997 -32.001 125.997 -96.001c0 -4.66699 -0.333008 -11 -1 -19l-3 -31c-0.666992 -8 -6 -12 -16 -12h-32c-8 0 -11.667 4 -11 12l3 29c0.666992 6.66699 1 12.334 1 17.001c0 32.667 -23.667 49 -71 49c-28 0 -48 -5.5 -60 -16.5
s-19.333 -26.833 -22 -47.5l-33 -276c-0.666992 -6.66699 -1 -13.334 -1 -20.001c0 -32 23.333 -48 70 -48c28.667 0 48.834 5.33301 60.501 16s18.834 26.667 21.501 48l5 39c1.33301 9.33301 6 14 14 14h33c8.66699 0 12.334 -4.66699 11.001 -14l-4 -37
c-4 -37.333 -17 -66.166 -39 -86.499s-57.667 -30.5 -107 -30.5c-84 0 -126 32 -126 96c0 7.33301 0.333008 14.333 1 21l34 278c4.66699 37.333 17.667 65.833 39 85.5s57 29.5 107 29.5z" />
    <glyph glyph-name="d" unicode="d" horiz-adv-x="386" 
d="M123 389l-34 -281c-0.666992 -6 -1 -11 -1 -15c0 -30.667 18 -46 54 -46s70 14 102 42l39 316c-28 28 -60 42 -96 42c-38 0 -59.333 -19.333 -64 -58zM239 40c-37.333 -32 -78.001 -48 -122.001 -48c-29.333 0 -51.833 7.5 -67.5 22.5s-23.5 35.167 -23.5 60.5
c0 6 0.333008 12.667 1 20l37 307c4 30.667 15 55 33 73s43 27 75 27c46.667 0 85.667 -15.667 117 -47l28 225c0.666992 9.33301 5.33398 14 14.001 14h35c8 0 11.667 -4.66699 11 -14l-82 -667c-0.666992 -8.66699 -5.66699 -13 -15 -13h-31
c-7.33301 -0 -11 4.33301 -11 13z" />
    <glyph glyph-name="e" unicode="e" horiz-adv-x="367" 
d="M333 386l-15.999 -135.001c-0.666992 -8 -5.33398 -12 -14.001 -12h-200l-16 -132c-0.666992 -5.33301 -1 -10.666 -1 -15.999c0 -33.333 23.667 -50 71 -50c50 0 78 20.667 84 62l5 37c0.666992 9.33301 5.66699 14 15 14h29c9.33301 0 13.333 -4.66699 12 -14l-4 -32
c-4.66699 -38 -17.5 -66.833 -38.5 -86.5s-56.167 -29.5 -105.5 -29.5c-84.667 0 -127 32 -127 96c0 6.66699 0.333008 13.334 1 20.001l33 275c4.66699 39.333 18.167 69 40.5 89s57.833 30 106.5 30c84 0 126 -32 126 -96c0 -6.66699 -0.333008 -13.334 -1 -20.001z
M122.001 389.999l-13 -104h154l14 102c0.666992 5.33301 1 10 1 14c0 34 -24.667 51 -74 51c-48.667 0 -76 -21 -82 -63z" />
    <glyph glyph-name="f" unicode="f" horiz-adv-x="235" 
d="M97 492l12 94.001c10 75.333 60.333 113 151 113h7c8.66699 0 12.667 -4.66699 12 -14l-3 -25c-0.666992 -8.66699 -6 -13 -16 -13h-5c-51.333 0 -80 -21.667 -86 -65l-11 -90h74c8.66699 0 12.667 -4 12 -12l-3 -24c-0.666992 -9.33301 -5.66699 -14 -15 -14h-74
l-75 -622c-0.666992 -9.33301 -5.66699 -14 -15 -14h-35c-8 0 -11.667 4.66699 -11 14l76 622h-43c-8 0 -11.667 4.66699 -11 14l2 20c0.666992 7.33301 5.66699 11.666 15 12.999l36 3h6z" />
    <glyph glyph-name="g" unicode="g" horiz-adv-x="387" 
d="M117 -8c-29.333 0 -51.834 7.49902 -67.501 22.499s-23.5 35.167 -23.5 60.5c0 5.33301 0.333008 11.333 1 18l37 309c4 30.667 15 55 33 73s43 27 75 27c42.667 0 82.334 -16.333 119.001 -49l4 27c0.666992 9.33301 5.66699 14 15 14h31
c9.33301 0 13.333 -4.66699 12 -14l-69 -563c-9.33301 -74 -60 -111 -152 -111h-98c-8.66699 0 -12.667 4.33301 -12 13l3 26c1.33301 9.33301 6.66602 14 15.999 14h95c29.333 0 50.5 5.33301 63.5 16s20.833 26.334 23.5 47.001l15 116
c-39.333 -30.667 -79.666 -46 -120.999 -46zM122.999 388.999l-34 -281c-0.666992 -5.33301 -1 -10 -1 -14c0 -31.333 18 -47 54 -47s70 14 102 42l39 316c-28 28 -60 42 -96 42c-38 0 -59.333 -19.333 -64 -58z" />
    <glyph glyph-name="h" unicode="h" horiz-adv-x="390" 
d="M165 680l-27.999 -224c37.333 30.667 77.666 46 120.999 46c29.333 0 52 -7.66699 68 -23s24 -35.333 24 -60c0 -4.66699 -0.333008 -9.66699 -1 -15l-47 -390c-0.666992 -9.33301 -6 -14 -16 -14h-34c-8 0 -11.667 4.66699 -11 14l45 372
c0.666992 6.66699 1 11.667 1 15c0 30.667 -18 46 -54 46c-33.333 0 -67.333 -14 -102 -42l-48 -391c-0.666992 -9.33301 -5.66699 -14 -15 -14h-35c-8 0 -11.667 4.66699 -11 14l82 666c0.666992 9.33301 5.66699 14 15 14h35c8 0 11.667 -4.66699 11 -14z" />
    <glyph glyph-name="i" unicode="i" horiz-adv-x="174" 
d="M165 680l-11.999 -93c-0.666992 -9.33301 -5.33398 -14 -14.001 -14h-35c-8.66699 0 -12.667 4.66699 -12 14l12 93c0.666992 9.33301 5.66699 14 15 14h35c8 0 11.667 -4.66699 11 -14zM140.001 480l-57 -466c-0.666992 -9.33301 -5.66699 -14 -15 -14h-35
c-8 0 -11.667 4.66699 -11 14l57 466c1.33301 9.33301 6.33301 14 15 14h34c9.33301 0 13.333 -4.66699 12 -14z" />
    <glyph glyph-name="j" unicode="j" horiz-adv-x="174" 
d="M166 680l-13 -93c-0.666992 -9.33301 -5.33398 -14 -14.001 -14h-35c-8 0 -11.667 4.66699 -11 14l12 93c0.666992 9.33301 5.33398 14 14.001 14h35c8.66699 0 12.667 -4.66699 12 -14zM140 480l-69 -563c-9.33301 -74 -59.333 -111 -150 -111h-5
c-8.66699 0 -12.667 4.33301 -12 13l3 26c1.33301 9.33301 6.33301 14 15 14h4c51.333 0 79.666 20.333 84.999 61l68 560c1.33301 9.33301 6.33301 14 15 14h35c8.66699 0 12.334 -4.66699 11.001 -14z" />
    <glyph glyph-name="k" unicode="k" horiz-adv-x="345" 
d="M68 0h-35.0029c-8 -0 -11.667 4.33301 -11 13l82 668c0.666992 8.66699 5.66699 13 15 13h35c8 0 11.667 -4.33301 11 -13l-46 -380h19l141 180c6.66699 8.66699 13.667 13 21 13h38c4.66699 0 7.83398 -1.5 9.50098 -4.5s0.833984 -6.16699 -2.49902 -9.5l-158 -201
l114 -266c1.33301 -3.33301 0.833008 -6.33301 -1.5 -9s-5.5 -4 -9.5 -4h-38c-7.33301 -0 -12.666 4.33301 -15.999 13l-102 240h-22l-29 -240c-0.666992 -8.66699 -5.66699 -13 -15 -13z" />
    <glyph glyph-name="l" unicode="l" horiz-adv-x="174" 
d="M165 680l-81.999 -666c-0.666992 -9.33301 -5.33398 -14 -14.001 -14h-36c-8 0 -11.667 4.66699 -11 14l82 666c0.666992 9.33301 5.66699 14 15 14h35c8 0 11.667 -4.66699 11 -14z" />
    <glyph glyph-name="m" unicode="m" horiz-adv-x="604" 
d="M22 14l57.0049 466c0.666992 9.33301 5.33398 14 14.001 14h32c8.66699 0 12.667 -4.66699 12 -14l-2 -26c39.333 32 79.666 48 120.999 48c47.333 0 76.666 -18 87.999 -54c42.667 36 85 54 127 54c29.333 0 52.166 -7.66699 68.499 -23s24.5 -35.333 24.5 -60
c0 -6 -0.333008 -12 -1 -18l-48 -387c-0.666992 -9.33301 -5.33398 -14 -14.001 -14h-35c-8 0 -11.667 4.66699 -11 14l44 372c0.666992 6 1 11.333 1 16c0 30 -17.667 45 -53 45c-33.333 0 -67 -14 -101 -42c0 -6 -0.333008 -12.333 -1 -19l-46 -372
c-0.666992 -9.33301 -5.33398 -14 -14.001 -14h-35c-8 0 -11.667 4.66699 -11 14l45 372c0.666992 6 1 11 1 15c0 30.667 -18 46 -54 46c-32 0 -65.333 -14 -100 -42l-48 -391c-0.666992 -9.33301 -5.33398 -14 -14.001 -14h-36c-8 0 -11.667 4.66699 -11 14z" />
    <glyph glyph-name="n" unicode="n" horiz-adv-x="390" 
d="M94 494h31c8.66699 0 12.667 -4.33301 12 -13l-2 -27c39.333 32 80.333 48 123 48c29.333 0 52 -7.66699 68 -23s24 -35.333 24 -60c0 -4.66699 -0.333008 -10 -1 -16l-47 -389c-0.666992 -9.33301 -6 -14 -16 -14h-34c-8 0 -11.667 4.66699 -11 14l45 372
c0.666992 6 1 11 1 15c0 30.667 -18 46 -54 46c-33.333 0 -67.333 -14 -102 -42l-48 -391c-0.666992 -9.33301 -5.66699 -14 -15 -14h-35c-8 0 -11.667 4.66699 -11 14l57 467c0.666992 8.66699 5.66699 13 15 13z" />
    <glyph glyph-name="o" unicode="o" horiz-adv-x="378" 
d="M27 109l34 275.999c9.33301 78 59 117 149 117c44 0 76.833 -8.66699 98.5 -26s32.5 -41.333 32.5 -72c0 -6.66699 -0.333008 -13 -1 -19l-34 -276c-4.66699 -37.333 -18.5 -66.166 -41.5 -86.499s-59.167 -30.5 -108.5 -30.5c-43.333 0 -75.833 8.66699 -97.5 26
s-32.5 41.333 -32.5 72c0 6 0.333008 12.333 1 19zM245 107.999l34.001 276c0.666992 6 1 11 1 15c0 34.667 -24.667 52 -74 52c-50.667 0 -78.667 -21.667 -84 -65l-34 -276c-0.666992 -6 -1 -11 -1 -15c0 -34.667 24.333 -52 73 -52c51.333 0 79.666 21.667 84.999 65z
" />
    <glyph glyph-name="p" unicode="p" horiz-adv-x="386" 
d="M251 105l35 281c0.666992 6 1 11 1 15c0 30.667 -18 46 -54 46c-35.333 0 -69 -14 -101 -42l-39 -316c26 -28 57.667 -42 95 -42s58.333 19.333 63 58zM94 494h31c8.66699 0 12.667 -4.66699 12 -14l-2 -26c41.333 32 82.333 48 123 48c29.333 0 52 -7.66699 68 -23
s24 -35.333 24 -60c0 -6 -0.333008 -12 -1 -18l-38 -310c-4 -30 -15 -54 -33 -72s-43 -27 -75 -27c-45.333 0 -84.333 15.333 -117 46l-27 -218c-0.666992 -9.33301 -5.66699 -14 -15 -14h-34c-8.66699 0 -12.667 4.66699 -12 14l81 660c0.666992 9.33301 5.66699 14 15 14z
" />
    <glyph glyph-name="q" unicode="q" horiz-adv-x="387" 
d="M310 494h30.999c9.33301 0 13.333 -4.66699 12 -14l-81 -660c-0.666992 -9.33301 -5.66699 -14 -15 -14h-35c-8.66699 0 -12.334 4.66699 -11.001 14l27 218c-39.333 -30.667 -79.666 -46 -120.999 -46c-29.333 0 -51.833 7.5 -67.5 22.5s-23.5 35.167 -23.5 60.5
c0 6 0.333008 12 1 18l37 309c4 30.667 14.833 55 32.5 73s42.834 27 75.501 27c43.333 0 83 -16 119 -48l4 26c2 9.33301 7 14 15 14zM122.999 389l-34 -281.001c-0.666992 -5.33301 -1 -10.666 -1 -15.999c0 -30 18 -45 54 -45s70 14 102 42l39 316c-28 28 -60 42 -96 42
c-38 0 -59.333 -19.333 -64 -58z" />
    <glyph glyph-name="r" unicode="r" horiz-adv-x="258" 
d="M256 501c8.66699 0 12.667 -4.33398 12 -13.001l-3 -29c-0.666992 -7.33301 -6 -11.666 -16 -12.999c-42 -2.66699 -82 -21.667 -120 -57l-46 -375c-0.666992 -9.33301 -5.66699 -14 -15 -14h-35c-8 0 -11.667 4.66699 -11 14l57 467c0.666992 8.66699 5.66699 13 15 13
h31c8.66699 0 12.667 -4.33301 12 -13l-3 -39c39.333 39.333 80 59 122 59z" />
    <glyph glyph-name="s" unicode="s" horiz-adv-x="351" 
d="M258 360l4 37.001c0.666992 6.66699 1 11.667 1 15c0 29.333 -24 44 -72 44c-47.333 0 -73 -17.667 -77 -53l-5 -37c-0.666992 -5.33301 -1 -10.333 -1 -15c0 -20 13.333 -36.667 40 -50l92 -48c36.667 -18.667 55 -43.667 55 -75c0 -6 -0.333008 -12.667 -1 -20l-7 -67
c-3.33301 -29.333 -16.666 -53.166 -39.999 -71.499s-58 -27.5 -104 -27.5c-42 0 -74 8.33301 -96 25s-33 37.667 -33 63c0 3.33301 0.333008 7.66602 1 12.999l4 37c0.666992 8 5 12 13 12h33c7.33301 0 10.666 -4 9.99902 -12l-4 -33
c-0.666992 -4.66699 -1 -8.33398 -1 -11.001c0 -31.333 25 -47 75 -47c52.667 0 81 18.333 85 55l7 53c0.666992 6.66699 1 12.334 1 17.001c0 17.333 -12.667 32.666 -38 45.999l-92 48c-38.667 20.667 -58 48.334 -58 83.001c0 3.33301 0.333008 8 1 14l6 47
c8.66699 66.667 54.667 100 138 100c41.333 0 72.5 -8.33301 93.5 -25s31.5 -38 31.5 -64c0 -2.66699 -0.333008 -7.33398 -1 -14.001l-5 -39c-1.33301 -8 -6 -12 -14 -12h-32c-8 0 -11.333 4 -10 12z" />
    <glyph glyph-name="t" unicode="t" horiz-adv-x="244" 
d="M149 442l-40 -322.999c-0.666992 -5.33301 -1 -11.333 -1 -18c0 -16.667 5 -28.834 15 -36.501s28.333 -11.5 55 -11.5h13c9.33301 0 13.333 -4.66699 12 -14l-3 -26c-0.666992 -8.66699 -5.66699 -13 -15 -13h-24c-76 0 -114 29.667 -114 89
c0 8.66699 0.333008 16.334 1 23.001l40 330h-40c-8.66699 0 -12.667 4.33301 -12 13l2 21c0.666992 7.33301 5.66699 11.666 15 12.999l37 3h4l14 106c0.666992 9.33301 5.66699 14 15 14h35c8 0 11.667 -4.66699 11 -14l-14 -106h77c8 0 11.667 -4.33301 11 -13l-2 -24
c-0.666992 -8.66699 -5.66699 -13 -15 -13h-77z" />
    <glyph glyph-name="u" unicode="u" horiz-adv-x="387" 
d="M239 13l2 25.999c-40.667 -31.333 -80.334 -47 -119.001 -47c-30 0 -53 7.5 -69 22.5s-24 34.833 -24 59.5c0 4.66699 0.333008 10.334 1 17.001l48 389c0.666992 9.33301 5.33398 14 14.001 14h35c8 0 11.667 -4.66699 11 -14l-45 -373c-0.666992 -6 -1 -10.667 -1 -14
c0 -30.667 18 -46 54 -46c32.667 0 65.667 13.667 99 41l47 392c0.666992 9.33301 5.66699 14 15 14h35c8 0 11.667 -4.66699 11 -14l-56 -467c-0.666992 -8.66699 -5.66699 -13 -15 -13h-31c-8.66699 -0 -12.667 4.33301 -12 13z" />
    <glyph glyph-name="v" unicode="v" horiz-adv-x="331" 
d="M150 0l-39.002 -0.000976562c-8 0 -12.333 4.33301 -13 13l-58 467c-1.33301 9.33301 3.33398 14 14.001 14h35c6.66699 0 10.667 -4.66699 12 -14l37 -342c1.33301 -11.333 2 -28.666 2 -51.999c4 18 9 35.333 15 52l121 342c3.33301 9.33301 9 14 17 14h33
c10 0 13 -4.66699 9 -14l-169 -467c-3.33301 -8.66699 -8.66602 -13 -15.999 -13z" />
    <glyph glyph-name="w" unicode="w" horiz-adv-x="494" 
d="M460 494l29 -0.00195312c9.33301 0 12.333 -4.66699 9 -14l-151 -467c-2.66699 -8.66699 -8 -13 -16 -13h-36c-8 0 -12.333 4.33301 -13 13l-22 331c-0.666992 10 -1 23.333 -1 40c-1.33301 -6.66699 -5.33301 -20 -12 -40l-106 -331c-2.66699 -8.66699 -8 -13 -16 -13
h-36c-8 0 -12.333 4.33301 -13 13l-33 467c-1.33301 9.33301 3.33398 14 14.001 14h31c7.33301 0 11.666 -4.66699 12.999 -14l21 -344c0 -4.66699 0.166992 -12.167 0.5 -22.5s0.833008 -17.5 1.5 -21.5c0.666992 6.66699 4.66699 21.334 12 44.001l105 344
c2.66699 9.33301 8 14 16 14h33c8 0 12.333 -4.66699 13 -14l20 -345c0.666992 -7.33301 1 -21.666 1 -42.999c4.66699 18.667 8.66699 33 12 43l107 345c3.33301 9.33301 9 14 17 14z" />
    <glyph glyph-name="x" unicode="x" horiz-adv-x="342" 
d="M96 494c7.33301 0 12.667 -4.66699 16 -14l65 -174l104 174c6 9.33301 12.333 14 19 14h33c10 0 12 -4.66699 6 -14l-139 -228l88 -237c4 -10 0.666992 -15 -10 -15h-36c-8 -0 -13.333 4.33301 -16 13l-69 188l-112 -188c-4.66699 -8.66699 -11.334 -13 -20.001 -13h-32
c-9.33301 -0 -11.666 4.33301 -6.99902 13l147 241l-83 226c-3.33301 9.33301 -0.333008 14 9 14h37z" />
    <glyph glyph-name="y" unicode="y" horiz-adv-x="330" 
d="M335 480l-241.002 -661c-2.66699 -8.66699 -7.66699 -13 -15 -13h-29c-10 0 -13.333 4.33301 -10 13l64 173l-64 488c-1.33301 9.33301 3.33398 14 14.001 14h35c6.66699 0 10.667 -4.66699 12 -14l38 -340c2 -16 3 -32.667 3 -50c4.66699 19.333 9.33398 35 14.001 47
l120 343c3.33301 9.33301 9 14 17 14h33c10 0 13 -4.66699 9 -14z" />
    <glyph glyph-name="z" unicode="z" horiz-adv-x="314" 
d="M73 494h217.999c8.66699 0 12.667 -4 12 -12l-3 -23c-0.666992 -4 -2.66699 -9.33301 -6 -16l-229 -392h181c8.66699 0 12.667 -4 12 -12l-3 -26c-0.666992 -8.66699 -5.66699 -13 -15 -13h-238c-8.66699 -0 -12.667 4.33301 -12 13l3 23
c0.666992 4 2.33398 8.66699 5.00098 14l230 392h-161c-8.66699 0 -12.667 4.66699 -12 14l2 25c0.666992 8.66699 6 13 16 13z" />
    <glyph glyph-name="braceleft" unicode="{" horiz-adv-x="268" 
d="M103 341l31 254c8.66699 75.333 57 113 145 113h7c8.66699 0 12.667 -4.33301 12 -13l-2 -26c-0.666992 -9.33301 -5.66699 -14 -15 -14h-4c-49.333 0 -76.333 -20.333 -81 -61l-32 -258c-6 -48 -29.333 -77 -70 -87c33.333 -9.33301 50 -32.666 50 -69.999
c0 -1.33301 -0.666992 -8 -2 -20l-32 -258c-0.666992 -6.66699 -1 -12.334 -1 -17.001c0 -32.667 22 -49 66 -49h5c8.66699 0 12.334 -4.66699 11.001 -14l-3 -26c-0.666992 -8.66699 -5.66699 -13 -15 -13h-6c-80 0 -120 31 -120 93c0 6 0.666992 14.333 2 25l31 253
c0.666992 6 1 12 1 18c0 34.667 -22 52 -66 52h-1c-8 0 -11.667 4.33301 -11 13l2 25c1.33301 9.33301 6.33301 14 15 14h1c49.333 0 76.666 22 81.999 66z" />
    <glyph glyph-name="bar" unicode="|" horiz-adv-x="216" 
d="M133 685v-882c0 -9.33301 -4.33301 -14 -13 -14h-36c-8.66699 0 -13 4.66699 -13 14v882c0 9.33301 4.33301 14 13 14h36c8.66699 0 13 -4.66699 13 -14z" />
    <glyph glyph-name="braceright" unicode="}" horiz-adv-x="268" 
d="M209 590l-31.001 -251c-0.666992 -5.33301 -1 -11.333 -1 -18c0 -34 21.333 -51 64 -51h2c9.33301 0 13.333 -4.33301 12 -13l-3 -26c-1.33301 -9.33301 -6.33301 -14 -15 -14h-2c-48 0 -74.667 -21.667 -80 -65l-31 -257c-8.66699 -75.333 -57.334 -113 -146.001 -113
h-7c-9.33301 0 -13.666 4.33301 -12.999 13l3 26c0.666992 9.33301 5.66699 14 15 14h5c48.667 0 75.334 20.333 80.001 61l32 260c6 47.333 29.333 76.666 70 87.999c-32.667 8 -49 31.333 -49 70c0 2 0.666992 9 2 21l30 255c0.666992 6.66699 1 12.334 1 17.001
c0 32 -21.667 48 -65 48h-5c-8.66699 0 -12.334 4.66699 -11.001 14l3 26c0.666992 8.66699 5.33398 13 14.001 13h7c80.667 0 121 -31 121 -93c0 -4.66699 -0.666992 -13 -2 -25z" />
    <glyph glyph-name="asciitilde" unicode="~" horiz-adv-x="360" 
d="M306 314l-1.99902 -30c-2.66699 -36.667 -20.334 -55 -53.001 -55c-12.667 0 -29 5 -49 15l-54 27c-12 6.66699 -22 10 -30 10s-13.333 -1.66699 -16 -5s-4.66699 -9.33301 -6 -18l-2 -16c-0.666992 -8.66699 -5.33398 -13 -14.001 -13h-16c-9.33301 0 -13.333 5 -12 15
l2 20c4.66699 43.333 23.334 65 56.001 65c11.333 0 25.666 -4.33301 42.999 -13l53 -27c18.667 -8.66699 30.334 -13 35.001 -13c14 0 21 8 21 24v17c0 8 4.66699 12 14 12h18c9.33301 0 13.333 -5 12 -15z" />
    <glyph glyph-name="uni00A0" unicode="&#xa0;" horiz-adv-x="163" 
 />
    <glyph glyph-name="exclamdown" unicode="&#xa1;" horiz-adv-x="171" 
d="M68 403l9 78c0.666992 8.66699 5.66699 13 15 13h36c8.66699 0 12.667 -4.33301 12 -13l-10 -78c-0.666992 -8.66699 -5.66699 -13 -15 -13h-36c-8 0 -11.667 4.33301 -11 13zM30 104l33.001 217c0.666992 8.66699 5.66699 13 15 13h25c8.66699 0 12.667 -4.33301 12 -13
l-21 -217l-34 -276c-0.666992 -9.33301 -5.33398 -14 -14.001 -14h-39c-8 0 -11.667 4.66699 -11 14z" />
    <glyph glyph-name="cent" unicode="&#xa2;" horiz-adv-x="366" 
d="M181 14c-0.666992 -9.33301 -5.33691 -14 -14.0039 -14h-35c-8 0 -11.667 4.66699 -11 14l9 73c-60.667 8.66699 -91 40 -91 94c0 7.33301 0.333008 14.333 1 21l34 278c4 34 14.833 60.5 32.5 79.5s46.167 30.5 85.5 34.5l9 72c0.666992 9.33301 5.33398 14 14.001 14
h35c8 0 11.667 -4.66699 11 -14l-8 -73c62 -8.66699 93 -40 93 -94c0 -6 -0.333008 -12.333 -1 -19l-3 -31c-0.666992 -8 -6 -12 -16 -12h-32c-8 0 -11.667 4 -11 12l3 29c0.666992 8 1 13.667 1 17c0 32.667 -23.667 49 -71 49c-28 0 -48 -5.5 -60 -16.5
s-19.333 -26.833 -22 -47.5l-33 -276c-0.666992 -6 -1 -12.333 -1 -19c0 -16 5.16699 -28.167 15.5 -36.5s28.5 -12.5 54.5 -12.5c28.667 0 48.834 5.33301 60.501 16s18.834 26.667 21.501 48l5 39c1.33301 9.33301 6 14 14 14h33c8.66699 0 12.334 -4.66699 11.001 -14
l-4 -37c-6.66699 -71.333 -47 -110 -121 -116z" />
    <glyph glyph-name="sterling" unicode="&#xa3;" horiz-adv-x="446" 
d="M165 367h103.003c9.33301 0 13.666 -4.33301 12.999 -13l-3 -25c-0.666992 -9.33301 -6 -14 -16 -14h-103l-33 -262h129c43.333 0 68.333 30.667 75 92l3 27c0.666992 9.33301 5.66699 14 15 14h32c8.66699 0 12.334 -4.66699 11.001 -14l-3 -28
c-6 -54.667 -19.667 -92.334 -41 -113.001s-50 -31 -86 -31h-244c-8 0 -11.667 4.33301 -11 13l3 26c0.666992 9.33301 5.66699 14 15 14h39l33 262h-40c-8.66699 0 -12.667 4.66699 -12 14l3 25c0.666992 8.66699 5.66699 13 15 13h40l25 197
c5.33301 40.667 19.166 71.5 41.499 92.5s61.166 31.5 116.499 31.5c92.667 0 139 -33 139 -99c0 -5.33301 -0.666992 -13.666 -2 -24.999l-5 -41c-0.666992 -9.33301 -5.66699 -14 -15 -14h-34c-8.66699 0 -12.334 4.66699 -11.001 14l4 37c1.33301 12 2 19 2 21
c0 18 -6 31.5 -18 40.5s-33 13.5 -63 13.5c-32.667 0 -55.5 -5.83301 -68.5 -17.5s-21.167 -30.167 -24.5 -55.5z" />
    <glyph glyph-name="currency" unicode="&#xa4;" horiz-adv-x="465" 
d="M168 401l-16 -130c-2.66699 -21.333 1.5 -38 12.5 -50s30.167 -18 57.5 -18c50 0 77.667 22 83 66l16 129c2.66699 21.333 -1.5 38 -12.5 50s-30.5 18 -58.5 18c-48.667 0 -76 -21.667 -82 -65zM60 108c-5.33301 -5.33301 -11.001 -5.33301 -17.001 0l-14 14
c-5.33301 5.33301 -4.33301 11.666 3 18.999l76 67c-10 16.667 -13.333 37.667 -10 63l16 129c3.33301 26.667 11 48.334 23 65.001l-57 65c-4.66699 5.33301 -4 11 2 17l17 16c6 5.33301 11.667 5 17 -1l58 -67c20 10 46.667 15 80 15c34.667 0 62 -6 82 -18l79 70
c6 5.33301 11.333 5.66602 16 0.999023l14 -16c4.66699 -5.33301 3.66699 -11 -3 -17l-76 -68c9.33301 -17.333 12.333 -38 9 -62l-16 -129c-3.33301 -25.333 -10.666 -46.666 -21.999 -63.999l58 -66c4.66699 -6 3.66699 -12.333 -3 -19l-16 -14
c-6 -5.33301 -11.667 -5.33301 -17 0l-59 68c-21.333 -10.667 -48 -16 -80 -16c-34.667 0 -62 6 -82 18z" />
    <glyph glyph-name="yen" unicode="&#xa5;" horiz-adv-x="407" 
d="M199 13c-0.666992 -8.66699 -5.66895 -13 -15.002 -13h-36c-8.66699 -0 -12.667 4.33301 -12 13l31 254h-107c-8.66699 0 -12.667 4.33301 -12 13l2 16c0.666992 8.66699 5.33398 13 14.001 13h95l-19 80h-66c-8.66699 0 -12.667 4.33301 -12 13l2 16
c0.666992 8.66699 5.66699 13 15 13h50l-57 236c-2 8.66699 2 13 12 13h38c7.33301 0 12 -4.33301 14 -13l67 -284l6 -35c4 14.667 8.33301 26.667 13 36l140 283c4.66699 8.66699 10.334 13 17.001 13h34c10 0 13 -4.33301 9 -13l-116 -236h53c8 0 11.667 -4.33301 11 -13
l-1 -16c-0.666992 -8.66699 -5.66699 -13 -15 -13h-69l-39 -80h98c8.66699 0 12.667 -4.33301 12 -13l-2 -16c-0.666992 -8.66699 -5.66699 -13 -15 -13h-109z" />
    <glyph glyph-name="brokenbar" unicode="&#xa6;" horiz-adv-x="217" 
d="M132 666v-338c0 -9.33301 -4.33301 -14 -13 -14h-35c-8.66699 0 -13 4.66699 -13 14v338c0 9.33301 4.33301 14 13 14h35c8.66699 0 13 -4.66699 13 -14zM132 141v-338c0 -9.33301 -4.33301 -14 -13 -14h-35c-8.66699 0 -13 4.66699 -13 14v338
c0 9.33301 4.33301 14 13 14h35c8.66699 0 13 -4.66699 13 -14z" />
    <glyph glyph-name="section" unicode="&#xa7;" horiz-adv-x="369" 
d="M298 170c-1.33301 -9.33301 -6.33301 -14.001 -15 -14.001h-31c-8 0 -11.667 4.66699 -11 14l11 93c1.33301 12 2 19 2 21c0 22 -13 40 -39 54l-83 43c-38 20 -57 48 -57 84c0 6 0.666992 13.667 2 23l11 90c4 34 16.667 60.833 38 80.5s56.333 29.5 105 29.5
c84.667 0 127 -31.333 127 -94c0 -3.33301 -0.333008 -8.66602 -1 -15.999l-3 -27c-0.666992 -9.33301 -5.33398 -14 -14.001 -14h-32c-7.33301 0 -10.666 4.66699 -9.99902 14l3 27c0.666992 6 1 10.667 1 14c0 34 -24 51 -72 51c-50.667 0 -78.667 -20.667 -84 -62
l-11 -89c-1.33301 -10.667 -2 -16.667 -2 -18c0 -22.667 14.333 -41 43 -55l82 -41c36.667 -19.333 55 -47.333 55 -84c0 -3.33301 -0.666992 -11 -2 -23zM46 205.999l12.998 99.9971c0.666992 9.33301 5.33398 14 14.001 14h32c8 0 11.667 -4.66699 11 -14l-12 -91
c-1.33301 -9.33301 -2 -16.666 -2 -21.999c0 -22 13.333 -40.333 40 -55l83 -43c37.333 -19.333 56 -47.333 56 -84c0 -9.33301 -0.333008 -17 -1 -23l-11 -90c-4 -34 -17 -60.667 -39 -80s-57.333 -29 -106 -29c-84 0 -126 30.667 -126 92
c0 4.66699 0.333008 10.334 1 17.001l3 28c0.666992 8.66699 5.66699 13 15 13h31c8 0 11.667 -4.33301 11 -13l-3 -27c-0.666992 -5.33301 -1 -10.666 -1 -15.999c0 -33.333 24.333 -50 73 -50c50.667 0 78.334 20.667 83.001 62l10 89c0.666992 5.33301 1 11 1 17
c0 24.667 -13.667 43.667 -41 57l-83 41c-36 18 -54 45.667 -54 83c0 5.33301 0.666992 13.333 2 24z" />
    <glyph glyph-name="dieresis" unicode="&#xa8;" horiz-adv-x="248" 
d="M275 689l-12 -97c-0.666992 -9.33301 -5.66699 -14 -15 -14h-22c-8 0 -11.667 4.66699 -11 14l11 97c0.666992 8.66699 6 13 16 13h22c8 0 11.667 -4.33301 11 -13zM189 689l-12.001 -97c-0.666992 -9.33301 -5.66699 -14 -15 -14h-21c-8 0 -11.667 4.66699 -11 14l12 97
c0.666992 8.66699 5.66699 13 15 13h21c4.66699 0 7.83398 -0.833008 9.50098 -2.5s2.16699 -5.16699 1.5 -10.5z" />
    <glyph glyph-name="copyright" unicode="&#xa9;" horiz-adv-x="547" 
d="M486 532v-384c0 -22.667 -2.66699 -42.334 -8 -59.001s-15 -32.834 -29 -48.501s-35.333 -27.667 -64 -36s-64 -12.5 -106 -12.5s-77.333 4.16699 -106 12.5s-49.834 20.333 -63.501 36s-23.167 31.834 -28.5 48.501s-8 36.334 -8 59.001v384
c0 22.667 2.66699 42.334 8 59.001s14.833 32.834 28.5 48.501s34.834 27.667 63.501 36s64 12.5 106 12.5s77.333 -4.16699 106 -12.5s50 -20.333 64 -36s23.667 -31.834 29 -48.501s8 -36.334 8 -59.001zM439 144v393c0 34.667 -12 61.667 -36 81s-65.333 29 -124 29
c-106.667 0 -160 -37 -160 -111v-392c0 -73.333 53.333 -110 160 -110c58.667 0 100 9.66699 124 29s36 46.333 36 81zM279 550c40.667 0 68.334 -9 83.001 -27s22 -45.333 22 -82v-30c0 -8.66699 -4.33301 -13 -13 -13h-25c-9.33301 0 -14 4.33301 -14 13v35
c0 20 -3.5 35 -10.5 45s-21.167 15 -42.5 15s-35.5 -5 -42.5 -15s-10.5 -25 -10.5 -45v-212c0 -20 3.5 -35.167 10.5 -45.5s21.167 -15.5 42.5 -15.5s35.5 5 42.5 15s10.5 25.333 10.5 46v42c0 8.66699 4.66699 13 14 13h25c8.66699 0 13 -4.33301 13 -13v-38
c0 -36.667 -7.33301 -64 -22 -82s-42.334 -27 -83.001 -27s-68.334 9 -83.001 27s-22 45.333 -22 82v203c0 36.667 7.33301 64 22 82s42.334 27 83.001 27z" />
    <glyph glyph-name="ordfeminine" unicode="&#xaa;" horiz-adv-x="288" 
d="M138 616l-19 -157c-0.666992 -5.33301 -1 -10 -1 -14c0 -16.667 9.66699 -25 29 -25c21.333 0 39.666 7.66699 54.999 23l23 182c-15.333 15.333 -32.666 23 -51.999 23c-21.333 0 -33 -10.667 -35 -32zM199 409c-26 -18.667 -51.3301 -28 -75.9971 -28
c-18 0 -32 4.5 -42 13.5s-15 21.167 -15 36.5c0 6 0.333008 11.667 1 17l22 179c4.66699 40 27 60 67 60c27.333 0 51.666 -9 72.999 -27l3 13c1.33301 6 4.66602 9 9.99902 9h32c5.33301 0 7.66602 -2.66699 6.99902 -8l-35 -280c-1.33301 -5.33301 -4.33301 -8 -9 -8h-31
c-5.33301 0 -8 2.66699 -8 8z" />
    <glyph glyph-name="guillemotleft" unicode="&#xab;" horiz-adv-x="394" 
d="M226 246l90.002 -106c6 -8 8.66699 -15.333 8 -22l-5 -40c-0.666992 -4.66699 -2.33398 -7.5 -5.00098 -8.5s-5.66699 0.166992 -9 3.5l-118 137c-6 6 -8.66699 13.667 -8 23l2 26c0.666992 7.33301 5.66699 15.666 15 24.999l151 137c3.33301 3.33301 6.5 4.33301 9.5 3
s4.16699 -4.33301 3.5 -9l-4 -39c-0.666992 -7.33301 -5.33398 -14.666 -14.001 -21.999zM72.002 246l90.002 -106c6 -8 8.66699 -15.333 8 -22l-5 -40c-0.666992 -4.66699 -2.33398 -7.5 -5.00098 -8.5s-5.66699 0.166992 -9 3.5l-118 137c-6 6 -8.66699 13.667 -8 23l2 26
c0.666992 7.33301 5.66699 15.666 15 24.999l151 137c3.33301 3.33301 6.5 4.33301 9.5 3s4.16699 -4.33301 3.5 -9l-4 -39c-0.666992 -7.33301 -5.33398 -14.666 -14.001 -21.999z" />
    <glyph glyph-name="logicalnot" unicode="&#xac;" horiz-adv-x="310" 
d="M46 314c0 30.667 10.667 56.834 32 78.501s47.333 32.5 78 32.5s57 -10.833 79 -32.5s33 -47.834 33 -78.501s-10.833 -56.834 -32.5 -78.501s-48.167 -32.5 -79.5 -32.5c-30.667 0 -56.667 10.833 -78 32.5s-32 47.834 -32 78.501z" />
    <glyph glyph-name="uni00AD" unicode="&#xad;" horiz-adv-x="320" 
d="M64 315h190c8.66699 0 13 -4.33301 13 -13v-25c0 -9.33301 -4.33301 -14 -13 -14h-190c-8.66699 0 -13 4.66699 -13 14v25c0 8.66699 4.33301 13 13 13z" />
    <glyph glyph-name="registered" unicode="&#xae;" horiz-adv-x="456" 
d="M419 564v-199c0 -82.667 -56.667 -124 -170 -124c-114 0 -171 41.333 -171 124v199c0 82.667 57 124 171 124c113.333 0 170 -41.333 170 -124zM376 361v207c0 54 -42.333 81 -127 81c-85.333 0 -128 -27 -128 -81v-206c0 -54.667 42.667 -82 128 -82
c84.667 0 127 27 127 81zM250 561h-34v-101h34c13.333 0 23.166 3.16699 29.499 9.5s9.5 13.833 9.5 22.5v35c0 9.33301 -3.16699 17.333 -9.5 24s-16.166 10 -29.499 10zM216 339c0 -7.33301 -3 -11 -9 -11h-24c-6 0 -9 3.66699 -9 11v245c0 6.66699 3 10 9 10h69
c52.667 0 79 -21.667 79 -65v-38c0 -28 -11.333 -47 -34 -57l28 -95c2.66699 -7.33301 0 -11 -8 -11h-25c-6 0 -10 3.66699 -12 11l-25 87h-39v-87z" />
    <glyph glyph-name="macron" unicode="&#xaf;" horiz-adv-x="299" 
d="M141 649h176c8.66699 0 12.667 -4.66699 12 -14l-2 -21c-0.666992 -9.33301 -5.66699 -14 -15 -14h-177c-8 0 -11.667 4.66699 -11 14l2 21c0.666992 9.33301 5.66699 14 15 14z" />
    <glyph glyph-name="degree" unicode="&#xb0;" horiz-adv-x="298" 
d="M70 505l11.999 103c2.66699 26 12.167 45.667 28.5 59s43.833 20 82.5 20c65.333 0 98 -23 98 -69c0 -6 -0.333008 -12 -1 -18l-12 -102c-3.33301 -26 -13.166 -45.667 -29.499 -59s-43.5 -20 -81.5 -20c-65.333 0 -98 23 -98 69c0 6 0.333008 11.667 1 17zM227.999 502
l12.001 96c0.666992 5.33301 1 9.33301 1 12c0 22.667 -17.333 34 -52 34s-53.667 -13.333 -57 -40l-11 -96c-0.666992 -4.66699 -1 -9 -1 -13c0 -22 16.667 -33 50 -33c35.333 0 54.666 13.333 57.999 40z" />
    <glyph glyph-name="plusminus" unicode="&#xb1;" horiz-adv-x="424" 
d="M181 228v127h-113c-8.66699 0 -13 4.33301 -13 13v26c0 8.66699 4.33301 13 13 13h113v126c0 8.66699 4 13 12 13h25c8.66699 0 13 -4.33301 13 -13v-126h115c8.66699 0 13 -4.33301 13 -13v-26c0 -8.66699 -4.33301 -13 -13 -13h-115v-127
c0 -9.33301 -4.33301 -14 -13 -14h-25c-8 0 -12 4.66699 -12 14zM68 153h278c8.66699 0 13 -4.33301 13 -13v-26c0 -9.33301 -4.33301 -14 -13 -14h-278c-8.66699 0 -13 4.66699 -13 14v26c0 8.66699 4.33301 13 13 13z" />
    <glyph glyph-name="twosuperior" unicode="&#xb2;" 
d="M108 498l127.999 -0.00292969c6.66699 0 9.66699 -3 9 -9l-3 -23c-0.666992 -6.66699 -4.33398 -10 -11.001 -10h-169c-6.66699 0 -9.66699 3.33301 -9 10l12 96c2.66699 25.333 19.667 46.333 51 63l70 38c0.666992 0.666992 1.66699 1.33398 3 2.00098
c16.667 9.33301 26.334 20 29.001 32c0.666992 1.33301 1 3 1 5l7 49c0.666992 5.33301 1 9.33301 1 12c0 20 -15 30 -45 30c-28.667 0 -44.667 -12.667 -48 -38l-5 -36c-0.666992 -6.66699 -4 -10 -10 -10h-31c-6 0 -8.66699 3.33301 -8 10l4 36
c2.66699 24.667 11.334 44 26.001 58s39.667 21 75 21c30.667 0 53.667 -6.16699 69 -18.5s23 -28.166 23 -47.499c0 -2.66699 -0.333008 -7.33398 -1 -14.001l-6 -55c-2.66699 -27.333 -19.667 -49.666 -51 -66.999l-71 -37c-19.333 -9.33301 -30 -21.666 -32 -36.999z" />
    <glyph glyph-name="threesuperior" unicode="&#xb3;" 
d="M138 672l29.001 -0.000976562c30.667 0 47 13.333 49 40l4 39c0.666992 6.66699 1 11.334 1 14.001c0 19.333 -13.667 29 -41 29c-30 0 -45.667 -13 -47 -39l-1 -15c-0.666992 -7.33301 -4.66699 -11 -12 -11h-30c-6 0 -8.66699 3.66699 -8 11l2 19
c2 24 10.167 42.5 24.5 55.5s39.166 19.5 74.499 19.5c59.333 0 89 -20.667 89 -62c0 -6 -0.333008 -12.667 -1 -20l-6 -46c-4 -28.667 -19 -46.334 -45 -53.001c23.333 -5.33301 35 -19.666 35 -42.999c0 -1.33301 -0.666992 -10 -2 -26l-7 -59
c-2.66699 -23.333 -11.334 -41.333 -26.001 -54s-39.667 -19 -75 -19c-30.667 0 -53.667 6 -69 18s-23 27.667 -23 47c0 2.66699 0.333008 7 1 13l2 17c0.666992 6.66699 4.33398 10 11.001 10h29c6.66699 0 9.66699 -3.33301 9 -10l-2 -15c-0.666992 -4.66699 -1 -8 -1 -10
c0 -20 15 -30 45 -30c29.333 0 45.666 12.667 48.999 38l7 59c0.666992 6 1 11 1 15c0 19.333 -14 29 -42 29h-28c-4 0 -6.83301 0.5 -8.5 1.5s-2.16699 3.5 -1.5 7.5l3 21c0.666992 6 4.33398 9 11.001 9z" />
    <glyph glyph-name="acute" unicode="&#xb4;" horiz-adv-x="240" 
d="M261 695l-71.001 -117c-3.33301 -6 -8.66602 -9 -15.999 -9h-29c-8 0 -10 4 -6 12l61 115c4 8 9.66699 12 17 12h38c9.33301 0 11.333 -4.33301 6 -13z" />
    <glyph glyph-name="mu" unicode="&#xb5;" horiz-adv-x="388" 
d="M240 13l2.00098 27.001c-37.333 -30 -73 -45 -107 -45c-26.667 0 -45.667 6.66699 -57 20l-19 -195c-1.33301 -9.33301 -6.33301 -14 -15 -14h-35c-8.66699 0 -12.334 4.66699 -11.001 14l81 660c0.666992 9.33301 5.66699 14 15 14h35c8 0 11.667 -4.66699 11 -14
l-45 -369c-1.33301 -10.667 -2 -17.334 -2 -20.001c0 -30 17.333 -45 52 -45c36 0 70 14 102 42l47 392c0.666992 9.33301 5.66699 14 15 14h35c8 0 11.667 -4.66699 11 -14l-57 -467c-0.666992 -8.66699 -5.66699 -13 -15 -13h-31c-8.66699 -0 -12.667 4.33301 -12 13z" />
    <glyph glyph-name="paragraph" unicode="&#xb6;" horiz-adv-x="432" 
d="M418 666l-105.002 -859c-0.666992 -9.33301 -5.66699 -14 -15 -14h-33c-8.66699 0 -12.667 4.66699 -12 14l106 859c0.666992 9.33301 5.33398 14 14.001 14h34c8.66699 0 12.334 -4.66699 11.001 -14zM299.998 667l-106.001 -860
c-1.33301 -9.33301 -6.33301 -14 -15 -14h-33c-8 0 -11.667 4.66699 -11 14l58 475h-25c-83.333 0 -125 34.667 -125 104c0 2.66699 0.666992 10.667 2 24l18 152c4.66699 38 18.334 67.167 41.001 87.5s60 30.5 112 30.5h73c8 0 11.667 -4.33301 11 -13z" />
    <glyph glyph-name="periodcentered" unicode="&#xb7;" horiz-adv-x="169" 
d="M117 302l-9 -78c-0.666992 -8.66699 -5.66699 -13 -15 -13h-36c-8 0 -11.667 4.33301 -11 13l9 78c0.666992 8.66699 5.66699 13 15 13h36c8 0 11.667 -4.33301 11 -13z" />
    <glyph glyph-name="cedilla" unicode="&#xb8;" horiz-adv-x="147" 
d="M73 -53l13.999 0.000976562c19.333 0 35.833 -5.33301 49.5 -16s20.5 -27.667 20.5 -51c0 -31.333 -9 -54.333 -27 -69s-39.667 -22 -65 -22h-72c-7.33301 0 -11 4.33301 -11 13v12c0 8.66699 5 13 15 13h66c12 0 23 3.66699 33 11s15 19.666 15 36.999
c0 23.333 -12 35 -36 35h-35c-13.333 0 -18 5.66699 -14 17l27 78c2.66699 8 8.33398 11.667 17.001 11l15 -1c8.66699 -1.33301 11 -6.33301 7 -15z" />
    <glyph glyph-name="onesuperior" unicode="&#xb9;" 
d="M106 811l105.998 20.001h5c1.33301 0 2.33301 -0.666992 3 -2s1 -3.33301 1 -6l-40 -325h62c6.66699 0 9.66699 -3 9 -9l-2 -23c-0.666992 -6.66699 -4.66699 -10 -12 -10h-175c-6.66699 0 -9.66699 3.33301 -9 10l3 23c0.666992 6 4.33398 9 11.001 9h63l35 283l-65 -13
c-3.33301 -0.666992 -5.83301 -0.333984 -7.5 0.999023s-2.16699 3.66602 -1.5 6.99902l3 24c0.666992 6.66699 4.33398 10.334 11.001 11.001z" />
    <glyph glyph-name="ordmasculine" unicode="&#xba;" horiz-adv-x="282" 
d="M66 461l19.9971 154c6.66699 48.667 39.334 73 98.001 73c28.667 0 50.834 -5.5 66.501 -16.5s23.5 -26.167 23.5 -45.5c0 -6 -0.333008 -11.667 -1 -17l-19 -156c-5.33301 -48 -38.666 -72 -99.999 -72c-28.667 0 -50.667 5.5 -66 16.5s-23 26.167 -23 45.5
c0 6 0.333008 12 1 18zM201.997 455l19 154c0.666992 6 1 10 1 12c0 17.333 -13.333 26 -40 26c-27.333 0 -42 -10.667 -44 -32l-19 -152c-0.666992 -4.66699 -1 -9 -1 -13c0 -18.667 13.333 -28 40 -28c27.333 0 42 11 44 33z" />
    <glyph glyph-name="guillemotright" unicode="&#xbb;" horiz-adv-x="399" 
d="M317 251l-90.002 106c-6 8 -8.66699 15.333 -8 22l5 40c0.666992 4.66699 2.33398 7.5 5.00098 8.5s5.66699 -0.166992 9 -3.5l118 -137c6 -6 8.66699 -13.667 8 -23l-2 -26c-0.666992 -7.33301 -5.66699 -15.666 -15 -24.999l-151 -137
c-3.33301 -3.33301 -6.5 -4.33301 -9.5 -3s-4.16699 4.33301 -3.5 9l4 39c0.666992 7.33301 5.33398 14.666 14.001 21.999zM156.998 251l-90.002 106c-6 8 -8.66699 15.333 -8 22l5 40c0.666992 4.66699 2.33398 7.5 5.00098 8.5s5.66699 -0.166992 9 -3.5l118 -137
c6 -6 8.66699 -13.667 8 -23l-2 -26c-0.666992 -7.33301 -5.66699 -15.666 -15 -24.999l-151 -137c-3.33301 -3.33301 -6.5 -4.33301 -9.5 -3s-4.16699 4.33301 -3.5 9l4 39c0.666992 7.33301 5.33398 14.666 14.001 21.999z" />
    <glyph glyph-name="onequarter" unicode="&#xbc;" horiz-adv-x="621" 
d="M519 674l-333 -668c-4.66699 -9.33301 -11.334 -14 -20.001 -14h-24c-8.66699 0 -10.667 4.66699 -6 14l333 668c4.66699 9.33301 11.334 14 20.001 14h24c8.66699 0 10.667 -4.66699 6 -14zM91 661l105.998 20.001h5c1.33301 0 2.33301 -0.666992 3 -2s1 -3.33301 1 -6
l-40 -325h62c6.66699 0 9.66699 -3 9 -9l-2 -23c-0.666992 -6.66699 -4.66699 -10 -12 -10h-175c-6.66699 0 -9.66699 3.33301 -9 10l3 23c0.666992 6 4.33398 9 11.001 9h63l35 283l-65 -13c-3.33301 -0.666992 -5.83301 -0.333984 -7.5 0.999023
s-2.16699 3.66602 -1.5 6.99902l3 24c0.666992 6.66699 4.33398 10.334 11.001 11.001zM485.998 364.001l-71.002 -208h94l26 208c0.666992 6.66699 4.33398 10 11.001 10h30c6 0 8.66699 -3.33301 8 -10l-43 -354c-0.666992 -6.66699 -4 -10 -10 -10h-31
c-6 0 -8.66699 3.33301 -8 10l12 103h-136c-6.66699 0 -9.66699 3.33301 -9 10l2 14c1.33301 9.33301 3 17 5 23l70 204c2.66699 6.66699 7.33398 10 14.001 10h29c6.66699 0 9 -3.33301 7 -10z" />
    <glyph glyph-name="onehalf" unicode="&#xbd;" horiz-adv-x="626" 
d="M516 674l-333 -668c-4.66699 -9.33301 -11.334 -14 -20.001 -14h-24c-8.66699 0 -10.667 4.66699 -6 14l333 668c4.66699 9.33301 11.334 14 20.001 14h24c8.66699 0 10.667 -4.66699 6 -14zM91 661l105.998 20.001h5c1.33301 0 2.33301 -0.666992 3 -2s1 -3.33301 1 -6
l-40 -325h62c6.66699 0 9.66699 -3 9 -9l-2 -23c-0.666992 -6.66699 -4.66699 -10 -12 -10h-175c-6.66699 0 -9.66699 3.33301 -9 10l3 23c0.666992 6 4.33398 9 11.001 9h63l35 283l-65 -13c-3.33301 -0.666992 -5.83301 -0.333984 -7.5 0.999023
s-2.16699 3.66602 -1.5 6.99902l3 24c0.666992 6.66699 4.33398 10.334 11.001 11.001zM420.998 42.001l128 -0.00195312c6.66699 0 9.66699 -3 9 -9l-3 -23c-0.666992 -6.66699 -4.33398 -10 -11.001 -10h-169c-6.66699 0 -9.66699 3.33301 -9 10l12 96
c2.66699 25.333 19.667 46.333 51 63l70 38c16 9.33301 26 18 30 26c1.33301 4 2.33301 8.33301 3 13l7 49c0.666992 5.33301 1 9.33301 1 12c0 20 -15 30 -45 30c-28.667 0 -44.667 -12.667 -48 -38l-5 -36c-0.666992 -6.66699 -4 -10 -10 -10h-31
c-6 0 -8.66699 3.33301 -8 10l4 36c2.66699 24.667 11.334 44 26.001 58s39.667 21 75 21c30.667 0 53.667 -6.16699 69 -18.5s23 -28.166 23 -47.499c0 -2.66699 -0.333008 -7.33398 -1 -14.001l-6 -55c-2.66699 -27.333 -19.667 -49.666 -51 -66.999l-71 -37
c-19.333 -9.33301 -30 -21.666 -32 -36.999z" />
    <glyph glyph-name="threequarters" unicode="&#xbe;" horiz-adv-x="607" 
d="M506 674l-333 -668c-4.66699 -9.33301 -11.334 -14 -20.001 -14h-24c-8.66699 0 -10.667 4.66699 -6 14l333 668c4.66699 9.33301 11.334 14 20.001 14h24c8.66699 0 10.667 -4.66699 6 -14zM131 522l29.001 -0.000976562c30.667 0 47 13.333 49 40l4 39
c0.666992 6.66699 1 11.334 1 14.001c0 19.333 -13.667 29 -41 29c-30 0 -45.667 -13 -47 -39l-1 -15c-0.666992 -7.33301 -4.66699 -11 -12 -11h-30c-6 0 -8.66699 3.66699 -8 11l2 19c2 24 10.167 42.5 24.5 55.5s39.166 19.5 74.499 19.5c59.333 0 89 -20.667 89 -62
c0 -6 -0.333008 -12.667 -1 -20l-6 -46c-4 -28.667 -19 -46.334 -45 -53.001c23.333 -5.33301 35 -19.666 35 -42.999c0 -1.33301 -0.666992 -10 -2 -26l-7 -59c-2.66699 -23.333 -11.334 -41.333 -26.001 -54s-39.667 -19 -75 -19c-30.667 0 -53.667 6 -69 18
s-23 27.667 -23 47c0 2.66699 0.333008 7 1 13l2 17c0.666992 6.66699 4.33398 10 11.001 10h29c6.66699 0 9.66699 -3.33301 9 -10l-2 -15c-0.666992 -4.66699 -1 -8 -1 -10c0 -20 15 -30 45 -30c29.333 0 45.666 12.667 48.999 38l7 59c0.666992 6 1 11 1 15
c0 19.333 -14 29 -42 29h-28c-4 0 -6.83301 0.5 -8.5 1.5s-2.16699 3.5 -1.5 7.5l3 21c0.666992 6 4.33398 9 11.001 9zM474.001 363.999l-71.002 -208h94l26 208c0.666992 6.66699 4.33398 10 11.001 10h30c6 0 8.66699 -3.33301 8 -10l-43 -354
c-0.666992 -6.66699 -4 -10 -10 -10h-31c-6 0 -8.66699 3.33301 -8 10l12 103h-136c-6.66699 0 -9.66699 3.33301 -9 10l2 14c1.33301 9.33301 3 17 5 23l70 204c2.66699 6.66699 7.33398 10 14.001 10h29c6.66699 0 9 -3.33301 7 -10z" />
    <glyph glyph-name="questiondown" unicode="&#xbf;" horiz-adv-x="368" 
d="M175 403l8.99902 78c0.666992 8.66699 5.66699 13 15 13h35c8.66699 0 12.667 -4.33301 12 -13l-9 -78c-0.666992 -8.66699 -5.66699 -13 -15 -13h-37c-7.33301 0 -10.666 4.33301 -9.99902 13zM226.999 321l-12.001 -98.998c-4 -34.667 -22.333 -63 -55 -85l-57 -40
c-24 -16.667 -37.667 -38 -41 -64l-11 -93c-1.33301 -9.33301 -2 -16 -2 -20c0 -40.667 29 -61 87 -61c33.333 0 57.333 6.66699 72 20s23.667 32.666 27 57.999l9 69c1.33301 10 6 15 14 15h35c8.66699 0 12.334 -5 11.001 -15l-8 -69
c-4.66699 -41.333 -18.834 -73.5 -42.501 -96.5s-64.167 -34.5 -121.5 -34.5c-50 0 -86.667 10 -110 30s-35 46.333 -35 79c0 5.33301 0.666992 13.333 2 24l12 94c4.66699 40 26.667 74 66 102l48 35c22.667 15.333 35.334 35.666 38.001 60.999l11 90
c0.666992 8.66699 5.66699 13 15 13h36c8.66699 0 12.667 -4.33301 12 -13z" />
    <glyph glyph-name="Agrave" unicode="&#xc0;" horiz-adv-x="399" 
d="M222 747l-44 118c-4 8.66699 -0.666992 13 10 13h37c8 0 13 -4 15 -12l32 -115c2 -8 -0.666992 -12 -8 -12h-28c-8 0 -12.667 2.66699 -14 8zM264 250l-23.999 241.001c-4 37.333 -5.33301 70.666 -4 99.999c-12.667 -48 -22.334 -81 -29.001 -99l-85 -242h142z
M227.001 680.001h38c10 0 15.333 -4.33301 16 -13l66 -654c1.33301 -8.66699 -2.66699 -13 -12 -13h-35c-9.33301 0 -14.666 4.33301 -15.999 13l-16 185h-162l-63 -185c-3.33301 -8.66699 -9 -13 -17 -13h-34c-8.66699 0 -11.334 4.33301 -8.00098 13l225 654
c2.66699 8.66699 8.66699 13 18 13z" />
    <glyph glyph-name="Aacute" unicode="&#xc1;" horiz-adv-x="399" 
d="M354 865l-71 -118c-3.33301 -5.33301 -9 -8 -17 -8h-29c-8 0 -9.66699 4 -5 12l60 115c4 8 10.333 12 19 12h37c8.66699 0 10.667 -4.33301 6 -13zM264 250l-23.999 241.001c-4 37.333 -5.33301 70.666 -4 99.999c-12.667 -48 -22.334 -81 -29.001 -99l-85 -242h142z
M227.001 680.001h38c10 0 15.333 -4.33301 16 -13l66 -654c1.33301 -8.66699 -2.66699 -13 -12 -13h-35c-9.33301 0 -14.666 4.33301 -15.999 13l-16 185h-162l-63 -185c-3.33301 -8.66699 -9 -13 -17 -13h-34c-8.66699 0 -11.334 4.33301 -8.00098 13l225 654
c2.66699 8.66699 8.66699 13 18 13z" />
    <glyph glyph-name="Acircumflex" unicode="&#xc2;" horiz-adv-x="399" 
d="M262 834l-46.999 -83c-4.66699 -8 -10.667 -12 -18 -12h-25c-8.66699 0 -10.667 4.33301 -6 13l71 115c4 7.33301 10.667 11 20 11h21c8 0 13.333 -3.33301 16 -10l44 -116c4 -8.66699 1 -13 -9 -13h-23c-8.66699 0 -14.334 4 -17.001 12zM264.001 250l-23.999 241.001
c-4 37.333 -5.33301 70.666 -4 99.999c-12.667 -48 -22.334 -81 -29.001 -99l-85 -242h142zM227.002 680.001h38c10 0 15.333 -4.33301 16 -13l66 -654c1.33301 -8.66699 -2.66699 -13 -12 -13h-35c-9.33301 0 -14.666 4.33301 -15.999 13l-16 185h-162l-63 -185
c-3.33301 -8.66699 -9 -13 -17 -13h-34c-8.66699 0 -11.334 4.33301 -8.00098 13l225 654c2.66699 8.66699 8.66699 13 18 13z" />
    <glyph glyph-name="Atilde" unicode="&#xc3;" horiz-adv-x="399" 
d="M211 809c-12.667 0 -20 -10.667 -22 -32l-1 -12c-0.666992 -8.66699 -6 -13 -16 -13h-16c-8 0 -11.333 5 -10 15l4 22c8.66699 44 28.667 66 60 66c16 0 30 -6 42 -18l26 -25c10 -8.66699 18.333 -13 25 -13s11.5 2.16699 14.5 6.5s5.16699 13.5 6.5 27.5l1 10
c0.666992 8 6 12 16 12h15c8 0 11.333 -5 10 -15l-3 -21c-6.66699 -43.333 -27 -65 -61 -65c-15.333 0 -29.333 6 -42 18l-25 22c-11.333 10 -19.333 15 -24 15zM264 250l-23.999 241.001c-4 37.333 -5.33301 70.666 -4 99.999c-12.667 -48 -22.334 -81 -29.001 -99
l-85 -242h142zM227.001 680.001h38c10 0 15.333 -4.33301 16 -13l66 -654c1.33301 -8.66699 -2.66699 -13 -12 -13h-35c-9.33301 0 -14.666 4.33301 -15.999 13l-16 185h-162l-63 -185c-3.33301 -8.66699 -9 -13 -17 -13h-34c-8.66699 0 -11.334 4.33301 -8.00098 13
l225 654c2.66699 8.66699 8.66699 13 18 13z" />
    <glyph glyph-name="Adieresis" unicode="&#xc4;" horiz-adv-x="399" 
d="M333 856l-12 -97c-0.666992 -8.66699 -5.33398 -13 -14.001 -13h-22c-8 0 -11.667 4.33301 -11 13l12 97c1.33301 9.33301 6 14 14 14h22c8.66699 0 12.334 -4.66699 11.001 -14zM248 856l-12 -97c-0.666992 -8.66699 -5.33398 -13 -14.001 -13h-22
c-8 0 -11.667 4.33301 -11 13l11 97c1.33301 9.33301 6.33301 14 15 14h22c8.66699 0 12.334 -4.66699 11.001 -14zM264 250l-23.999 241.001c-4 37.333 -5.33301 70.666 -4 99.999c-12.667 -48 -22.334 -81 -29.001 -99l-85 -242h142zM227.001 680.001h38
c10 0 15.333 -4.33301 16 -13l66 -654c1.33301 -8.66699 -2.66699 -13 -12 -13h-35c-9.33301 0 -14.666 4.33301 -15.999 13l-16 185h-162l-63 -185c-3.33301 -8.66699 -9 -13 -17 -13h-34c-8.66699 0 -11.334 4.33301 -8.00098 13l225 654
c2.66699 8.66699 8.66699 13 18 13z" />
    <glyph glyph-name="Aring" unicode="&#xc5;" horiz-adv-x="399" 
d="M332 815l-3 -27c-4.66699 -44.667 -29.667 -67 -75 -67c-22 0 -38.833 5.16699 -50.5 15.5s-17.5 23.833 -17.5 40.5c0 4 0.333008 9 1 15l3 27c4.66699 44.667 30 67 76 67c20.667 0 37 -5.16699 49 -15.5s18 -23.833 18 -40.5c0 -4.66699 -0.333008 -9.66699 -1 -15z
M294 792l2 19c0.666992 6.66699 1 11.667 1 15c0 18.667 -11.333 28 -34 28s-35 -13 -37 -39l-2 -19c-0.666992 -6 -1 -10.667 -1 -14c0 -19.333 10.667 -29 32 -29c24 0 37 13 39 39zM264 250l-23.999 241.001c-4 37.333 -5.33301 70.666 -4 99.999
c-12.667 -48 -22.334 -81 -29.001 -99l-85 -242h142zM227.001 680.001h38c10 0 15.333 -4.33301 16 -13l66 -654c1.33301 -8.66699 -2.66699 -13 -12 -13h-35c-9.33301 0 -14.666 4.33301 -15.999 13l-16 185h-162l-63 -185c-3.33301 -8.66699 -9 -13 -17 -13h-34
c-8.66699 0 -11.334 4.33301 -8.00098 13l225 654c2.66699 8.66699 8.66699 13 18 13z" />
    <glyph glyph-name="AE" unicode="&#xc6;" horiz-adv-x="601" 
d="M292 494l-133 -246h128l41 331c-10.667 -32 -22.667 -60.333 -36 -85zM-15 0c-10 0 -12.6641 4.33301 -7.99707 13l343 654c4 8.66699 11 13 21 13h253c8 0 11.667 -4.33301 11 -13l-3 -27c-0.666992 -8.66699 -5.33398 -13 -14.001 -13h-193l-31 -244h181
c8.66699 0 12.667 -4.33301 12 -13l-3 -25c-0.666992 -9.33301 -5.66699 -14 -15 -14h-181l-34 -278h201c9.33301 0 13.666 -4.33301 12.999 -13l-3 -27c-0.666992 -8.66699 -5.33398 -13 -14.001 -13h-248c-5.33301 0 -9.33301 1 -12 3s-3.66699 5.66699 -3 11l23 184h-147
l-95 -185c-4.66699 -8.66699 -10.667 -13 -18 -13h-36z" />
    <glyph glyph-name="Ccedilla" unicode="&#xc7;" horiz-adv-x="404" 
d="M248 -120c0 -31.333 -8.99902 -54.333 -26.999 -69s-39.667 -22 -65 -22h-72c-7.33301 0 -11 4.33301 -11 13v12c0 8.66699 5 13 15 13h66c12 0 23 3.66699 33 11s15 19.666 15 36.999c0 23.333 -12 35 -36 35h-35c-13.333 0 -18 5.66699 -14 17l23 67
c-70 8.66699 -105 44 -105 106c0 10 0.333008 18 1 24l53 433c5.33301 40.667 20.333 72.667 45 96s65 35 121 35c96.667 0 145 -36.333 145 -109c0 -3.33301 -0.666992 -11 -2 -23l-8 -63c-0.666992 -9.33301 -5.66699 -14 -15 -14h-34c-9.33301 0 -13.333 4.66699 -12 14
l7 60c0 2.66699 0.166992 5.33398 0.5 8.00098s0.666016 4.83398 0.999023 6.50098s0.5 3.16699 0.5 4.5c0 42 -29 63 -87 63c-60 0 -93.333 -26.333 -100 -79l-52 -429c-0.666992 -4.66699 -1 -11.334 -1 -20.001c0 -41.333 28.333 -62 85 -62c61.333 0 95 26.333 101 79
l9 76c1.33301 9.33301 6.33301 14 15 14h35c8.66699 0 12.334 -4.66699 11.001 -14l-9 -77c-4.66699 -40.667 -19.334 -72.667 -44.001 -96s-65 -35 -121 -35l-16 -45h14c19.333 0 35.833 -5.33301 49.5 -16s20.5 -27.667 20.5 -51z" />
    <glyph glyph-name="Egrave" unicode="&#xc8;" horiz-adv-x="376" 
d="M226 747l-44 118c-4 8.66699 -0.666992 13 10 13h37c8 0 13 -4 15 -12l32 -115c2 -8 -0.666992 -12 -8 -12h-28c-8 0 -12.667 2.66699 -14 8zM294 0l-251.997 0.000976562c-8 0 -11.667 4.66699 -11 14l80 652c0.666992 9.33301 5.66699 14 15 14h241
c9.33301 0 13.666 -4.33301 12.999 -13l-4 -28c-0.666992 -8 -5.33398 -12 -14.001 -12h-193l-30 -244h180c8.66699 0 12.667 -4.33301 12 -13l-4 -26c-0.666992 -8.66699 -5.33398 -13 -14.001 -13h-180l-35 -278h201c5.33301 0 8.83301 -0.833008 10.5 -2.5
s2.16699 -4.83398 1.5 -9.50098l-2 -28c-0.666992 -8.66699 -5.66699 -13 -15 -13z" />
    <glyph glyph-name="Eacute" unicode="&#xc9;" horiz-adv-x="376" 
d="M349 865l-71 -118c-3.33301 -5.33301 -9 -8 -17 -8h-29c-8 0 -9.66699 4 -5 12l60 115c4 8 10.333 12 19 12h37c8.66699 0 10.667 -4.33301 6 -13zM294 0l-251.997 0.000976562c-8 0 -11.667 4.66699 -11 14l80 652c0.666992 9.33301 5.66699 14 15 14h241
c9.33301 0 13.666 -4.33301 12.999 -13l-4 -28c-0.666992 -8 -5.33398 -12 -14.001 -12h-193l-30 -244h180c8.66699 0 12.667 -4.33301 12 -13l-4 -26c-0.666992 -8.66699 -5.33398 -13 -14.001 -13h-180l-35 -278h201c5.33301 0 8.83301 -0.833008 10.5 -2.5
s2.16699 -4.83398 1.5 -9.50098l-2 -28c-0.666992 -8.66699 -5.66699 -13 -15 -13z" />
    <glyph glyph-name="Ecircumflex" unicode="&#xca;" horiz-adv-x="376" 
d="M264 834l-46.999 -83c-4.66699 -8 -10.667 -12 -18 -12h-25c-8.66699 0 -10.667 4.33301 -6 13l71 115c4 7.33301 10.667 11 20 11h21c8 0 13.333 -3.33301 16 -10l44 -116c4 -8.66699 1 -13 -9 -13h-23c-8.66699 0 -14.334 4 -17.001 12zM294.001 0
l-251.997 0.000976562c-8 0 -11.667 4.66699 -11 14l80 652c0.666992 9.33301 5.66699 14 15 14h241c9.33301 0 13.666 -4.33301 12.999 -13l-4 -28c-0.666992 -8 -5.33398 -12 -14.001 -12h-193l-30 -244h180c8.66699 0 12.667 -4.33301 12 -13l-4 -26
c-0.666992 -8.66699 -5.33398 -13 -14.001 -13h-180l-35 -278h201c5.33301 0 8.83301 -0.833008 10.5 -2.5s2.16699 -4.83398 1.5 -9.50098l-2 -28c-0.666992 -8.66699 -5.66699 -13 -15 -13z" />
    <glyph glyph-name="Edieresis" unicode="&#xcb;" horiz-adv-x="376" 
d="M336 856l-12 -97c-0.666992 -8.66699 -5.33398 -13 -14.001 -13h-22c-8 0 -11.667 4.33301 -11 13l12 97c1.33301 9.33301 6 14 14 14h22c8.66699 0 12.334 -4.66699 11.001 -14zM251 856l-12 -97c-0.666992 -8.66699 -5.33398 -13 -14.001 -13h-22
c-8 0 -11.667 4.33301 -11 13l11 97c1.33301 9.33301 6.33301 14 15 14h22c8.66699 0 12.334 -4.66699 11.001 -14zM294 0l-251.997 0.000976562c-8 0 -11.667 4.66699 -11 14l80 652c0.666992 9.33301 5.66699 14 15 14h241c9.33301 0 13.666 -4.33301 12.999 -13l-4 -28
c-0.666992 -8 -5.33398 -12 -14.001 -12h-193l-30 -244h180c8.66699 0 12.667 -4.33301 12 -13l-4 -26c-0.666992 -8.66699 -5.33398 -13 -14.001 -13h-180l-35 -278h201c5.33301 0 8.83301 -0.833008 10.5 -2.5s2.16699 -4.83398 1.5 -9.50098l-2 -28
c-0.666992 -8.66699 -5.66699 -13 -15 -13z" />
    <glyph glyph-name="Igrave" unicode="&#xcc;" horiz-adv-x="193" 
d="M123 747l-44 118c-4 8.66699 -0.666992 13 10 13h37c8 0 13 -4 15 -12l32 -115c2 -8 -0.666992 -12 -8 -12h-28c-8 0 -12.667 2.66699 -14 8zM174 666l-79.999 -652c-0.666992 -9.33301 -5.33398 -14 -14.001 -14h-37c-8.66699 0 -12.667 4.66699 -12 14l80 652
c0.666992 9.33301 5.66699 14 15 14h37c8 0 11.667 -4.66699 11 -14z" />
    <glyph glyph-name="Iacute" unicode="&#xcd;" horiz-adv-x="193" 
d="M251 865l-71 -118c-3.33301 -5.33301 -9 -8 -17 -8h-29c-8 0 -9.66699 4 -5 12l60 115c4 8 10.333 12 19 12h37c8.66699 0 10.667 -4.33301 6 -13zM174 666l-79.999 -652c-0.666992 -9.33301 -5.33398 -14 -14.001 -14h-37c-8.66699 0 -12.667 4.66699 -12 14l80 652
c0.666992 9.33301 5.66699 14 15 14h37c8 0 11.667 -4.66699 11 -14z" />
    <glyph glyph-name="Icircumflex" unicode="&#xce;" horiz-adv-x="193" 
d="M162 834l-46.999 -83c-4.66699 -8 -10.667 -12 -18 -12h-25c-8.66699 0 -10.667 4.33301 -6 13l71 115c4 7.33301 10.667 11 20 11h21c8 0 13.333 -3.33301 16 -10l44 -116c4 -8.66699 1 -13 -9 -13h-23c-8.66699 0 -14.334 4 -17.001 12zM174.001 666l-79.999 -652
c-0.666992 -9.33301 -5.33398 -14 -14.001 -14h-37c-8.66699 0 -12.667 4.66699 -12 14l80 652c0.666992 9.33301 5.66699 14 15 14h37c8 0 11.667 -4.66699 11 -14z" />
    <glyph glyph-name="Idieresis" unicode="&#xcf;" horiz-adv-x="193" 
d="M233 856l-12 -97c-0.666992 -8.66699 -5.33398 -13 -14.001 -13h-22c-8 0 -11.667 4.33301 -11 13l12 97c1.33301 9.33301 6 14 14 14h22c8.66699 0 12.334 -4.66699 11.001 -14zM148 856l-12 -97c-0.666992 -8.66699 -5.33398 -13 -14.001 -13h-22
c-8 0 -11.667 4.33301 -11 13l11 97c1.33301 9.33301 6.33301 14 15 14h22c8.66699 0 12.334 -4.66699 11.001 -14zM174 666l-79.999 -652c-0.666992 -9.33301 -5.33398 -14 -14.001 -14h-37c-8.66699 0 -12.667 4.66699 -12 14l80 652c0.666992 9.33301 5.66699 14 15 14
h37c8 0 11.667 -4.66699 11 -14z" />
    <glyph glyph-name="Eth" unicode="&#xd0;" horiz-adv-x="445" 
d="M197 0l-150.002 -0.000976562c-7.33301 0 -10.666 4.66699 -9.99902 14l38 306h-45c-8.66699 0 -12.667 4.33301 -12 13l2 22c0.666992 8.66699 5.66699 13 15 13h45l37 298c0.666992 9.33301 5.33398 14 14.001 14h140c51.333 0 89.333 -10.167 114 -30.5
s37 -47.166 37 -80.499c0 -2.66699 -0.666992 -10 -2 -22l-51 -416c-10.667 -87.333 -68 -131 -172 -131zM103.998 52.999h97.001c64 0 99.333 26.667 106 80l50 409c1.33301 10.667 2 17 2 19c0 44 -30.667 66 -92 66h-92l-32 -259h80
c9.33301 0 13.666 -4.33301 12.999 -13l-3 -22c-0.666992 -8.66699 -5.66699 -13 -15 -13h-81z" />
    <glyph glyph-name="Ntilde" unicode="&#xd1;" horiz-adv-x="450" 
d="M243 809c-12.667 0 -20 -10.667 -22 -32l-1 -12c-0.666992 -8.66699 -6 -13 -16 -13h-16c-8 0 -11.333 5 -10 15l4 22c8.66699 44 28.667 66 60 66c16 0 30 -6 42 -18l26 -25c10 -8.66699 18.333 -13 25 -13s11.5 2.16699 14.5 6.5s5.16699 13.5 6.5 27.5l1 10
c0.666992 8 6 12 16 12h15c8 0 11.333 -5 10 -15l-3 -21c-6.66699 -43.333 -27 -65 -61 -65c-15.333 0 -29.333 6 -42 18l-25 22c-11.333 10 -19.333 15 -24 15zM431 667l-80.999 -654c-0.666992 -8.66699 -5.33398 -13 -14.001 -13h-34c-6.66699 -0 -11 3.33301 -13 10
l-123 455c-6.66699 25.333 -11.667 48.333 -15 69l-64 -521c-0.666992 -8.66699 -5.33398 -13 -14.001 -13h-30c-8.66699 -0 -12.667 4.33301 -12 13l80 654c0.666992 8.66699 5.66699 13 15 13h33c6 0 10 -2.66699 12 -8l125 -461c7.33301 -28 12 -49 14 -63l65 519
c0.666992 8.66699 5.33398 13 14.001 13h30c8.66699 0 12.667 -4.33301 12 -13z" />
    <glyph glyph-name="Ograve" unicode="&#xd2;" horiz-adv-x="432" 
d="M243 747l-44 118c-4 8.66699 -0.666992 13 10 13h37c8 0 13 -4 15 -12l32 -115c2 -8 -0.666992 -12 -8 -12h-28c-8 0 -12.667 2.66699 -14 8zM36 124l54 432.999c10.667 87.333 67 131 169 131c51.333 0 89 -10.167 113 -30.5s36 -47.166 36 -80.499
c0 -7.33301 -0.333008 -14.333 -1 -21l-54 -433c-10.667 -87.333 -67 -131 -169 -131c-51.333 0 -89 10 -113 30s-36 46.667 -36 80c0 8.66699 0.333008 16 1 22zM291 123.999l53 429c0.666992 6 1 12 1 18c0 42.667 -30 64 -90 64c-62.667 0 -97.334 -26.333 -104.001 -79
l-52 -429c-0.666992 -5.33301 -1 -11.333 -1 -18c0 -42.667 29.667 -64 89 -64c62.667 0 97.334 26.333 104.001 79z" />
    <glyph glyph-name="Oacute" unicode="&#xd3;" horiz-adv-x="432" 
d="M368 865l-71 -118c-3.33301 -5.33301 -9 -8 -17 -8h-29c-8 0 -9.66699 4 -5 12l60 115c4 8 10.333 12 19 12h37c8.66699 0 10.667 -4.33301 6 -13zM36 124l54 432.999c10.667 87.333 67 131 169 131c51.333 0 89 -10.167 113 -30.5s36 -47.166 36 -80.499
c0 -7.33301 -0.333008 -14.333 -1 -21l-54 -433c-10.667 -87.333 -67 -131 -169 -131c-51.333 0 -89 10 -113 30s-36 46.667 -36 80c0 8.66699 0.333008 16 1 22zM291 123.999l53 429c0.666992 6 1 12 1 18c0 42.667 -30 64 -90 64c-62.667 0 -97.334 -26.333 -104.001 -79
l-52 -429c-0.666992 -5.33301 -1 -11.333 -1 -18c0 -42.667 29.667 -64 89 -64c62.667 0 97.334 26.333 104.001 79z" />
    <glyph glyph-name="Ocircumflex" unicode="&#xd4;" horiz-adv-x="432" 
d="M281 834l-46.999 -83c-4.66699 -8 -10.667 -12 -18 -12h-25c-8.66699 0 -10.667 4.33301 -6 13l71 115c4 7.33301 10.667 11 20 11h21c8 0 13.333 -3.33301 16 -10l44 -116c4 -8.66699 1 -13 -9 -13h-23c-8.66699 0 -14.334 4 -17.001 12zM36.001 124l54 432.999
c10.667 87.333 67 131 169 131c51.333 0 89 -10.167 113 -30.5s36 -47.166 36 -80.499c0 -7.33301 -0.333008 -14.333 -1 -21l-54 -433c-10.667 -87.333 -67 -131 -169 -131c-51.333 0 -89 10 -113 30s-36 46.667 -36 80c0 8.66699 0.333008 16 1 22zM291.001 123.999
l53 429c0.666992 6 1 12 1 18c0 42.667 -30 64 -90 64c-62.667 0 -97.334 -26.333 -104.001 -79l-52 -429c-0.666992 -5.33301 -1 -11.333 -1 -18c0 -42.667 29.667 -64 89 -64c62.667 0 97.334 26.333 104.001 79z" />
    <glyph glyph-name="Otilde" unicode="&#xd5;" horiz-adv-x="432" 
d="M233 809c-12.667 0 -20 -10.667 -22 -32l-1 -12c-0.666992 -8.66699 -6 -13 -16 -13h-16c-8 0 -11.333 5 -10 15l4 22c8.66699 44 28.667 66 60 66c16 0 30 -6 42 -18l26 -25c10 -8.66699 18.333 -13 25 -13s11.5 2.16699 14.5 6.5s5.16699 13.5 6.5 27.5l1 10
c0.666992 8 6 12 16 12h15c8 0 11.333 -5 10 -15l-3 -21c-6.66699 -43.333 -27 -65 -61 -65c-15.333 0 -29.333 6 -42 18l-25 22c-11.333 10 -19.333 15 -24 15zM36 124l54 432.999c10.667 87.333 67 131 169 131c51.333 0 89 -10.167 113 -30.5s36 -47.166 36 -80.499
c0 -7.33301 -0.333008 -14.333 -1 -21l-54 -433c-10.667 -87.333 -67 -131 -169 -131c-51.333 0 -89 10 -113 30s-36 46.667 -36 80c0 8.66699 0.333008 16 1 22zM291 123.999l53 429c0.666992 6 1 12 1 18c0 42.667 -30 64 -90 64c-62.667 0 -97.334 -26.333 -104.001 -79
l-52 -429c-0.666992 -5.33301 -1 -11.333 -1 -18c0 -42.667 29.667 -64 89 -64c62.667 0 97.334 26.333 104.001 79z" />
    <glyph glyph-name="Odieresis" unicode="&#xd6;" horiz-adv-x="432" 
d="M351 856l-12 -97c-0.666992 -8.66699 -5.33398 -13 -14.001 -13h-22c-8 0 -11.667 4.33301 -11 13l12 97c1.33301 9.33301 6 14 14 14h22c8.66699 0 12.334 -4.66699 11.001 -14zM266 856l-12 -97c-0.666992 -8.66699 -5.33398 -13 -14.001 -13h-22
c-8 0 -11.667 4.33301 -11 13l11 97c1.33301 9.33301 6.33301 14 15 14h22c8.66699 0 12.334 -4.66699 11.001 -14zM36 124l54 432.999c10.667 87.333 67 131 169 131c51.333 0 89 -10.167 113 -30.5s36 -47.166 36 -80.499c0 -7.33301 -0.333008 -14.333 -1 -21l-54 -433
c-10.667 -87.333 -67 -131 -169 -131c-51.333 0 -89 10 -113 30s-36 46.667 -36 80c0 8.66699 0.333008 16 1 22zM291 123.999l53 429c0.666992 6 1 12 1 18c0 42.667 -30 64 -90 64c-62.667 0 -97.334 -26.333 -104.001 -79l-52 -429c-0.666992 -5.33301 -1 -11.333 -1 -18
c0 -42.667 29.667 -64 89 -64c62.667 0 97.334 26.333 104.001 79z" />
    <glyph glyph-name="multiply" unicode="&#xd7;" horiz-adv-x="383" 
d="M159 341l-97.001 95.998c-6.66699 6.66699 -7 13 -1 19l18 18c6 6.66699 12.333 6.66699 19 0l97 -97l98 97c6 6.66699 12.333 6.66699 19 0l18 -18c6.66699 -6.66699 6.66699 -12.667 0 -18l-99 -98l98 -96c7.33301 -6 7.33301 -12.667 0 -20l-18 -18
c-6 -5.33301 -12 -5 -18 1l-98 97l-97 -97c-7.33301 -7.33301 -13.666 -7.66602 -18.999 -0.999023l-17 18c-6.66699 6.66699 -6.66699 13.334 0 20.001z" />
    <glyph glyph-name="Oslash" unicode="&#xd8;" horiz-adv-x="432" 
d="M98 127c-0.666992 -4.66699 -1 -8 -1 -10l233 497c-14 14 -38.667 21 -74 21c-63.333 0 -98.333 -26.333 -105 -79zM187 45c62.667 0 97.333 26.333 104 79l53 423l-226 -485c14.667 -11.333 37.667 -17 69 -17zM80.999 -16c-4.66699 -8.66699 -10.667 -13 -18 -13h-23
c-8 0 -9.66699 4.33301 -5 13l23 50c-15.333 17.333 -23 40 -23 68c0 7.33301 0.333008 14.666 1 21.999l54 433c10.667 87.333 67 131 169 131c40.667 0 72.667 -6.66699 96 -20l13 28c4 8.66699 9.66699 13 17 13h23c8 0 10 -4.33301 6 -13l-26 -55
c13.333 -17.333 20 -38.666 20 -63.999c0 -6.66699 -0.333008 -13.667 -1 -21l-54 -433c-10.667 -87.333 -67 -131 -169 -131c-38 0 -68.333 5.66699 -91 17z" />
    <glyph glyph-name="Ugrave" unicode="&#xd9;" horiz-adv-x="444" 
d="M248 747l-44 118c-4 8.66699 -0.666992 13 10 13h37c8 0 13 -4 15 -12l32 -115c2 -8 -0.666992 -12 -8 -12h-28c-8 0 -12.667 2.66699 -14 8zM172 666l-67.002 -536c-0.666992 -6 -1 -13 -1 -21c0 -42.667 29.667 -64 89 -64c62.667 0 97.334 26.333 104.001 79l67 542
c0.666992 9.33301 5.33398 14 14.001 14h37c8.66699 0 12.667 -4.66699 12 -14l-67 -543c-10.667 -87.333 -67.667 -131 -171 -131c-50.667 0 -87.834 10 -111.501 30s-35.5 46.333 -35.5 79c0 8.66699 0.333008 16.667 1 24l66 541c0.666992 9.33301 5.33398 14 14.001 14
h37c8.66699 0 12.667 -4.66699 12 -14z" />
    <glyph glyph-name="Uacute" unicode="&#xda;" horiz-adv-x="444" 
d="M375 865l-71 -118c-3.33301 -5.33301 -9 -8 -17 -8h-29c-8 0 -9.66699 4 -5 12l60 115c4 8 10.333 12 19 12h37c8.66699 0 10.667 -4.33301 6 -13zM172 666l-67.002 -536c-0.666992 -6 -1 -13 -1 -21c0 -42.667 29.667 -64 89 -64c62.667 0 97.334 26.333 104.001 79
l67 542c0.666992 9.33301 5.33398 14 14.001 14h37c8.66699 0 12.667 -4.66699 12 -14l-67 -543c-10.667 -87.333 -67.667 -131 -171 -131c-50.667 0 -87.834 10 -111.501 30s-35.5 46.333 -35.5 79c0 8.66699 0.333008 16.667 1 24l66 541
c0.666992 9.33301 5.33398 14 14.001 14h37c8.66699 0 12.667 -4.66699 12 -14z" />
    <glyph glyph-name="Ucircumflex" unicode="&#xdb;" horiz-adv-x="444" 
d="M286 834l-46.999 -83c-4.66699 -8 -10.667 -12 -18 -12h-25c-8.66699 0 -10.667 4.33301 -6 13l71 115c4 7.33301 10.667 11 20 11h21c8 0 13.333 -3.33301 16 -10l44 -116c4 -8.66699 1 -13 -9 -13h-23c-8.66699 0 -14.334 4 -17.001 12zM172.001 666l-67.002 -536
c-0.666992 -6 -1 -13 -1 -21c0 -42.667 29.667 -64 89 -64c62.667 0 97.334 26.333 104.001 79l67 542c0.666992 9.33301 5.33398 14 14.001 14h37c8.66699 0 12.667 -4.66699 12 -14l-67 -543c-10.667 -87.333 -67.667 -131 -171 -131c-50.667 0 -87.834 10 -111.501 30
s-35.5 46.333 -35.5 79c0 8.66699 0.333008 16.667 1 24l66 541c0.666992 9.33301 5.33398 14 14.001 14h37c8.66699 0 12.667 -4.66699 12 -14z" />
    <glyph glyph-name="Udieresis" unicode="&#xdc;" horiz-adv-x="444" 
d="M356 856l-12 -97c-0.666992 -8.66699 -5.33398 -13 -14.001 -13h-22c-8 0 -11.667 4.33301 -11 13l12 97c1.33301 9.33301 6 14 14 14h22c8.66699 0 12.334 -4.66699 11.001 -14zM271 856l-12 -97c-0.666992 -8.66699 -5.33398 -13 -14.001 -13h-22
c-8 0 -11.667 4.33301 -11 13l11 97c1.33301 9.33301 6.33301 14 15 14h22c8.66699 0 12.334 -4.66699 11.001 -14zM172 666l-67.002 -536c-0.666992 -6 -1 -13 -1 -21c0 -42.667 29.667 -64 89 -64c62.667 0 97.334 26.333 104.001 79l67 542
c0.666992 9.33301 5.33398 14 14.001 14h37c8.66699 0 12.667 -4.66699 12 -14l-67 -543c-10.667 -87.333 -67.667 -131 -171 -131c-50.667 0 -87.834 10 -111.501 30s-35.5 46.333 -35.5 79c0 8.66699 0.333008 16.667 1 24l66 541c0.666992 9.33301 5.33398 14 14.001 14
h37c8.66699 0 12.667 -4.66699 12 -14z" />
    <glyph glyph-name="Yacute" unicode="&#xdd;" horiz-adv-x="381" 
d="M348 865l-71 -118c-3.33301 -5.33301 -9 -8 -17 -8h-29c-8 0 -9.66699 4 -5 12l60 115c4 8 10.333 12 19 12h37c8.66699 0 10.667 -4.33301 6 -13zM125 667l66.999 -284c2.66699 -11.333 4.66699 -23 6 -35c4 14.667 8.33301 26.667 13 36l140 283
c4.66699 8.66699 10.334 13 17.001 13h34c10.667 0 13.667 -4.33301 9 -13l-191 -388l-32 -266c-0.666992 -8.66699 -5.66699 -13 -15 -13h-36c-8.66699 -0 -12.667 4.33301 -12 13l32 259l-96 395c-2 8.66699 2 13 12 13h38c7.33301 0 12 -4.33301 14 -13z" />
    <glyph glyph-name="Thorn" unicode="&#xde;" horiz-adv-x="419" 
d="M174 666l-21.999 -173h83c52.667 0 91.5 -10.167 116.5 -30.5s37.5 -46.833 37.5 -79.5c0 -6 -0.333008 -12.667 -1 -20l-17 -130c-10.667 -87.333 -69 -131 -175 -131h-91l-11 -88c-0.666992 -9.33301 -5.33398 -14 -14.001 -14h-37c-8.66699 0 -12.667 4.66699 -12 14
l80 652c0.666992 9.33301 5.66699 14 15 14h37c8 0 11.667 -4.66699 11 -14zM231.001 440h-85l-35 -285h89c66 0 102.333 26 109 78l16 127c0.666992 6 1 11.333 1 16c0 42.667 -31.667 64 -95 64z" />
    <glyph glyph-name="germandbls" unicode="&#xdf;" horiz-adv-x="448" 
d="M170 587l-70.999 -573.002c-0.666992 -9.33301 -5.66699 -14 -15 -14h-34c-8 0 -11.667 4.66699 -11 14l53 428h-43c-8 0 -11.667 4.33301 -11 13l2 21c0.666992 7.33301 5.66699 11.666 15 12.999l38 3h4l13 96c10 75.333 62.333 113 157 113
c46 0 80.167 -8.5 102.5 -25.5s33.5 -40.167 33.5 -69.5c0 -6.66699 -0.333008 -13.334 -1 -20.001l-7 -61c-2.66699 -27.333 -22.667 -50.666 -60 -69.999l-48 -24l-9 -4c-5.33301 -2.66699 -9 -4.66699 -11 -6s-5 -3.5 -9 -6.5s-7 -6.5 -9 -10.5s-3.33301 -8.66699 -4 -14
l-2 -13c-0.666992 -6 -1 -10 -1 -12c0 -15.333 11.333 -28.666 34 -39.999l71 -40c39.333 -21.333 59 -47.666 59 -78.999c0 -4.66699 -0.333008 -9.66699 -1 -15l-12 -90c-5.33301 -36 -16.833 -63.167 -34.5 -81.5s-48.5 -27.5 -92.5 -27.5c-39.333 0 -67.5 7 -84.5 21
s-25.5 34.667 -25.5 62c0 9.33301 0.333008 17 1 23l4 29c0.666992 8.66699 5.66699 13 15 13h23c8.66699 0 12.667 -4.33301 12 -13l-4 -31c-0.666992 -6 -1 -11.667 -1 -17c0 -29.333 20.333 -44 61 -44c24 0 41.333 5 52 15s17 24.667 19 44l10 81c0.666992 6 1 12 1 18
c0 18.667 -13.667 35.334 -41 50.001l-68 36c-34 18 -51 43 -51 75c0 5.33301 0.333008 11 1 17l3 25c1.33301 12.667 6 24 14 34s15 16.833 21 20.5s14.667 8.16699 26 13.5l41 21l5 3c3.33301 1.33301 5.5 2.33301 6.5 3s3.16699 2 6.5 4s5.66602 3.83301 6.99902 5.5
s3.33301 3.66699 6 6s4.66699 4.83301 6 7.5l3 9c1.33301 3.33301 2.33301 6.66602 3 9.99902l7 50c0.666992 6.66699 1 12.334 1 17.001c0 36 -27.333 54 -82 54c-56.667 0 -88 -22.333 -94 -67z" />
    <glyph glyph-name="agrave" unicode="&#xe0;" horiz-adv-x="387" 
d="M196 577l-42.999 118c-4 8.66699 -0.666992 13 10 13h36c8.66699 0 14 -4 16 -12l32 -115c2 -8 -1 -12 -9 -12h-28c-6.66699 0 -11.334 2.66699 -14.001 8zM123.001 389l-35 -282c-0.666992 -5.33301 -1 -10 -1 -14c0 -30.667 18.333 -46 55 -46c36 0 70 14 102 42
l39 316c-28 28 -60 42 -96 42c-38 0 -59.333 -19.333 -64 -58zM240.001 40c-39.333 -32 -80.332 -48 -122.999 -48c-30 0 -52.667 7.33301 -68 22s-23 34.667 -23 60c0 6.66699 0.333008 13.667 1 21l37 307c4 30.667 15 55 33 73s43 27 75 27
c45.333 0 84.666 -15.667 117.999 -47l5 26c2 8.66699 6.66699 13 14 13h32c8 0 11.667 -4.66699 11 -14l-57 -467c-0.666992 -8.66699 -5.66699 -13 -15 -13h-31c-8 -0 -11.667 4.33301 -11 13z" />
    <glyph glyph-name="aacute" unicode="&#xe1;" horiz-adv-x="387" 
d="M315 695l-71.001 -117c-3.33301 -6 -8.66602 -9 -15.999 -9h-29c-8 0 -10 4 -6 12l61 115c4 8 9.66699 12 17 12h38c9.33301 0 11.333 -4.33301 6 -13zM122.999 389l-35 -282c-0.666992 -5.33301 -1 -10 -1 -14c0 -30.667 18.333 -46 55 -46c36 0 70 14 102 42l39 316
c-28 28 -60 42 -96 42c-38 0 -59.333 -19.333 -64 -58zM239.999 40c-39.333 -32 -80.332 -48 -122.999 -48c-30 0 -52.667 7.33301 -68 22s-23 34.667 -23 60c0 6.66699 0.333008 13.667 1 21l37 307c4 30.667 15 55 33 73s43 27 75 27c45.333 0 84.666 -15.667 117.999 -47
l5 26c2 8.66699 6.66699 13 14 13h32c8 0 11.667 -4.66699 11 -14l-57 -467c-0.666992 -8.66699 -5.66699 -13 -15 -13h-31c-8 -0 -11.667 4.33301 -11 13z" />
    <glyph glyph-name="acircumflex" unicode="&#xe2;" horiz-adv-x="387" 
d="M229 664l-46.001 -83c-4.66699 -8 -11 -12 -19 -12h-25c-9.33301 0 -11 4.33301 -5 13l71 115c4.66699 7.33301 11.334 11 20.001 11h21c7.33301 0 12.333 -3.33301 15 -10l45 -116c4 -8.66699 0.666992 -13 -10 -13h-23c-7.33301 0 -12.333 4 -15 12zM122.999 389
l-35 -282c-0.666992 -5.33301 -1 -10 -1 -14c0 -30.667 18.333 -46 55 -46c36 0 70 14 102 42l39 316c-28 28 -60 42 -96 42c-38 0 -59.333 -19.333 -64 -58zM239.999 40c-39.333 -32 -80.332 -48 -122.999 -48c-30 0 -52.667 7.33301 -68 22s-23 34.667 -23 60
c0 6.66699 0.333008 13.667 1 21l37 307c4 30.667 15 55 33 73s43 27 75 27c45.333 0 84.666 -15.667 117.999 -47l5 26c2 8.66699 6.66699 13 14 13h32c8 0 11.667 -4.66699 11 -14l-57 -467c-0.666992 -8.66699 -5.66699 -13 -15 -13h-31c-8 -0 -11.667 4.33301 -11 13z
" />
    <glyph glyph-name="atilde" unicode="&#xe3;" horiz-adv-x="387" 
d="M180 633c-6 0 -10.501 -2.16699 -13.501 -6.5s-5.5 -12.5 -7.5 -24.5l-2 -12c-1.33301 -8.66699 -6.66602 -13 -15.999 -13h-15c-9.33301 0 -13 5 -11 15l4 22c8.66699 44 28.667 66 60 66c13.333 0 27.333 -6.33301 42 -19l26 -24
c9.33301 -9.33301 17.666 -14 24.999 -14c6.66699 0 11.5 2.33301 14.5 7s5.16699 14 6.5 28l1 10c0.666992 8 6 12 16 12h15c9.33301 0 13 -5 11 -15l-4 -21c-8 -43.333 -28 -65 -60 -65c-16 0 -30.333 6 -43 18l-24 22c-9.33301 9.33301 -17.666 14 -24.999 14z
M122.999 389l-35 -282c-0.666992 -5.33301 -1 -10 -1 -14c0 -30.667 18.333 -46 55 -46c36 0 70 14 102 42l39 316c-28 28 -60 42 -96 42c-38 0 -59.333 -19.333 -64 -58zM239.999 40c-39.333 -32 -80.332 -48 -122.999 -48c-30 0 -52.667 7.33301 -68 22s-23 34.667 -23 60
c0 6.66699 0.333008 13.667 1 21l37 307c4 30.667 15 55 33 73s43 27 75 27c45.333 0 84.666 -15.667 117.999 -47l5 26c2 8.66699 6.66699 13 14 13h32c8 0 11.667 -4.66699 11 -14l-57 -467c-0.666992 -8.66699 -5.66699 -13 -15 -13h-31c-8 -0 -11.667 4.33301 -11 13z
" />
    <glyph glyph-name="adieresis" unicode="&#xe4;" horiz-adv-x="387" 
d="M300 689l-12 -97c-0.666992 -9.33301 -5.66699 -14 -15 -14h-22c-8 0 -11.667 4.66699 -11 14l11 97c0.666992 8.66699 6 13 16 13h22c8 0 11.667 -4.33301 11 -13zM214 689l-12.001 -97c-0.666992 -9.33301 -5.66699 -14 -15 -14h-21c-8 0 -11.667 4.66699 -11 14l12 97
c0.666992 8.66699 5.66699 13 15 13h21c4.66699 0 7.83398 -0.833008 9.50098 -2.5s2.16699 -5.16699 1.5 -10.5zM122.999 389l-35 -282c-0.666992 -5.33301 -1 -10 -1 -14c0 -30.667 18.333 -46 55 -46c36 0 70 14 102 42l39 316c-28 28 -60 42 -96 42
c-38 0 -59.333 -19.333 -64 -58zM239.999 40c-39.333 -32 -80.332 -48 -122.999 -48c-30 0 -52.667 7.33301 -68 22s-23 34.667 -23 60c0 6.66699 0.333008 13.667 1 21l37 307c4 30.667 15 55 33 73s43 27 75 27c45.333 0 84.666 -15.667 117.999 -47l5 26
c2 8.66699 6.66699 13 14 13h32c8 0 11.667 -4.66699 11 -14l-57 -467c-0.666992 -8.66699 -5.66699 -13 -15 -13h-31c-8 -0 -11.667 4.33301 -11 13z" />
    <glyph glyph-name="aring" unicode="&#xe5;" horiz-adv-x="387" 
d="M302 648l-3 -27c-4.66699 -44.667 -29.667 -67 -75 -67c-22 0 -38.833 5.16699 -50.5 15.5s-17.5 23.833 -17.5 40.5c0 4 0.333008 9 1 15l3 27c4.66699 44.667 30 67 76 67c20.667 0 37 -5.16699 49 -15.5s18 -23.833 18 -40.5c0 -4.66699 -0.333008 -9.66699 -1 -15z
M264 625l2 19c0.666992 6.66699 1 11.667 1 15c0 18.667 -11.333 28 -34 28s-35 -13 -37 -39l-2 -19c-0.666992 -6 -1 -10.667 -1 -14c0 -19.333 10.667 -29 32 -29c24 0 37 13 39 39zM123 389l-35 -282c-0.666992 -5.33301 -1 -10 -1 -14c0 -30.667 18.333 -46 55 -46
c36 0 70 14 102 42l39 316c-28 28 -60 42 -96 42c-38 0 -59.333 -19.333 -64 -58zM240 40c-39.333 -32 -80.332 -48 -122.999 -48c-30 0 -52.667 7.33301 -68 22s-23 34.667 -23 60c0 6.66699 0.333008 13.667 1 21l37 307c4 30.667 15 55 33 73s43 27 75 27
c45.333 0 84.666 -15.667 117.999 -47l5 26c2 8.66699 6.66699 13 14 13h32c8 0 11.667 -4.66699 11 -14l-57 -467c-0.666992 -8.66699 -5.66699 -13 -15 -13h-31c-8 -0 -11.667 4.33301 -11 13z" />
    <glyph glyph-name="ae" unicode="&#xe6;" horiz-adv-x="570" 
d="M536 382l-16.001 -131.001c-1.33301 -8 -5.66602 -12 -12.999 -12h-201l-16 -135c-0.666992 -5.33301 -1 -10.666 -1 -15.999c0 -31.333 24 -47 72 -47c49.333 0 77 20.667 83 62l5 37c0.666992 9.33301 6 14 16 14h28c8.66699 0 12.667 -4.66699 12 -14l-4 -33
c-4.66699 -37.333 -17.5 -65.833 -38.5 -85.5s-56.167 -29.5 -105.5 -29.5c-65.333 0 -105.333 19.333 -120 58c-40.667 -38.667 -82.334 -58 -125.001 -58c-29.333 0 -53 7.5 -71 22.5s-27 35.167 -27 60.5c0 6 0.333008 12.333 1 19l11 81c4 30 15.833 54.333 35.5 73
s46.834 28 81.501 28h108l13 110c1.33301 10.667 2 17 2 19c0 32.667 -23 49 -69 49c-48.667 0 -75.334 -20.667 -80.001 -62l-4 -34c-0.666992 -8.66699 -5.66699 -13 -15 -13h-31c-8 0 -11.667 4.33301 -11 13l4 32c4.66699 36.667 17.334 64.5 38.001 83.5
s55 28.5 103 28.5c52.667 0 86.667 -14.333 102 -43c22.667 28.667 59.667 43 111 43c42 0 73.167 -8.5 93.5 -25.5s30.5 -40.5 30.5 -70.5c0 -4.66699 -0.666992 -12.667 -2 -24zM324.999 389.999l-13 -104h155l13 101c0.666992 6 1 11 1 15c0 34 -24.333 51 -73 51
c-49.333 0 -77 -21 -83 -63zM131.999 42.999c30.667 0 63 15.667 97 47l16 137h-94c-19.333 0 -34.833 -5.5 -46.5 -16.5s-18.5 -25.167 -20.5 -42.5l-8 -62c-0.666992 -5.33301 -1 -10 -1 -14c0 -32.667 19 -49 57 -49z" />
    <glyph glyph-name="ccedilla" unicode="&#xe7;" horiz-adv-x="355" 
d="M229 -120c0 -31.333 -9.00195 -54.3311 -27.002 -68.998s-39.667 -22 -65 -22h-72c-7.33301 0 -11 4.33301 -11 13v12c0 8.66699 5 13 15 13h66c12 0 23 3.66699 33 11s15 19.666 15 36.999c0 23.333 -12 35 -36 35h-35c-13.333 0 -18 5.66699 -14 17l23 67
c-62.667 7.33301 -94 38.666 -94 93.999c0 7.33301 0.333008 14.333 1 21l34 278c4.66699 37.333 17.667 65.833 39 85.5s57 29.5 107 29.5c84 0 126 -32 126 -96c0 -4.66699 -0.333008 -11 -1 -19l-3 -31c-0.666992 -8 -6 -12 -16 -12h-32c-8 0 -11.667 4 -11 12l3 29
c0.666992 6.66699 1 12.334 1 17.001c0 32.667 -23.667 49 -71 49c-28 0 -48 -5.5 -60 -16.5s-19.333 -26.833 -22 -47.5l-33 -276c-0.666992 -6.66699 -1 -13.334 -1 -20.001c0 -32 23.333 -48 70 -48c28.667 0 48.834 5.33301 60.501 16s18.834 26.667 21.501 48l5 39
c1.33301 9.33301 6 14 14 14h33c8.66699 0 12.334 -4.66699 11.001 -14l-4 -37c-4 -36.667 -16.333 -65 -37 -85s-54.334 -30.667 -101.001 -32l-16 -45h14c19.333 0 35.833 -5.33301 49.5 -16s20.5 -27.667 20.5 -51z" />
    <glyph glyph-name="egrave" unicode="&#xe8;" horiz-adv-x="367" 
d="M193 577l-42.999 118c-4 8.66699 -0.666992 13 10 13h36c8.66699 0 14 -4 16 -12l32 -115c2 -8 -1 -12 -9 -12h-28c-6.66699 0 -11.334 2.66699 -14.001 8zM333.001 386l-15.999 -135.001c-0.666992 -8 -5.33398 -12 -14.001 -12h-200l-16 -132
c-0.666992 -5.33301 -1 -10.666 -1 -15.999c0 -33.333 23.667 -50 71 -50c50 0 78 20.667 84 62l5 37c0.666992 9.33301 5.66699 14 15 14h29c9.33301 0 13.333 -4.66699 12 -14l-4 -32c-4.66699 -38 -17.5 -66.833 -38.5 -86.5s-56.167 -29.5 -105.5 -29.5
c-84.667 0 -127 32 -127 96c0 6.66699 0.333008 13.334 1 20.001l33 275c4.66699 39.333 18.167 69 40.5 89s57.833 30 106.5 30c84 0 126 -32 126 -96c0 -6.66699 -0.333008 -13.334 -1 -20.001zM122.002 389.999l-13 -104h154l14 102c0.666992 5.33301 1 10 1 14
c0 34 -24.667 51 -74 51c-48.667 0 -76 -21 -82 -63z" />
    <glyph glyph-name="eacute" unicode="&#xe9;" horiz-adv-x="367" 
d="M317 695l-71.001 -117c-3.33301 -6 -8.66602 -9 -15.999 -9h-29c-8 0 -10 4 -6 12l61 115c4 8 9.66699 12 17 12h38c9.33301 0 11.333 -4.33301 6 -13zM332.999 386l-15.999 -135.001c-0.666992 -8 -5.33398 -12 -14.001 -12h-200l-16 -132
c-0.666992 -5.33301 -1 -10.666 -1 -15.999c0 -33.333 23.667 -50 71 -50c50 0 78 20.667 84 62l5 37c0.666992 9.33301 5.66699 14 15 14h29c9.33301 0 13.333 -4.66699 12 -14l-4 -32c-4.66699 -38 -17.5 -66.833 -38.5 -86.5s-56.167 -29.5 -105.5 -29.5
c-84.667 0 -127 32 -127 96c0 6.66699 0.333008 13.334 1 20.001l33 275c4.66699 39.333 18.167 69 40.5 89s57.833 30 106.5 30c84 0 126 -32 126 -96c0 -6.66699 -0.333008 -13.334 -1 -20.001zM122 389.999l-13 -104h154l14 102c0.666992 5.33301 1 10 1 14
c0 34 -24.667 51 -74 51c-48.667 0 -76 -21 -82 -63z" />
    <glyph glyph-name="ecircumflex" unicode="&#xea;" horiz-adv-x="367" 
d="M229 664l-46.001 -83c-4.66699 -8 -11 -12 -19 -12h-25c-9.33301 0 -11 4.33301 -5 13l71 115c4.66699 7.33301 11.334 11 20.001 11h21c7.33301 0 12.333 -3.33301 15 -10l45 -116c4 -8.66699 0.666992 -13 -10 -13h-23c-7.33301 0 -12.333 4 -15 12zM332.999 386
l-15.999 -135.001c-0.666992 -8 -5.33398 -12 -14.001 -12h-200l-16 -132c-0.666992 -5.33301 -1 -10.666 -1 -15.999c0 -33.333 23.667 -50 71 -50c50 0 78 20.667 84 62l5 37c0.666992 9.33301 5.66699 14 15 14h29c9.33301 0 13.333 -4.66699 12 -14l-4 -32
c-4.66699 -38 -17.5 -66.833 -38.5 -86.5s-56.167 -29.5 -105.5 -29.5c-84.667 0 -127 32 -127 96c0 6.66699 0.333008 13.334 1 20.001l33 275c4.66699 39.333 18.167 69 40.5 89s57.833 30 106.5 30c84 0 126 -32 126 -96c0 -6.66699 -0.333008 -13.334 -1 -20.001z
M122 389.999l-13 -104h154l14 102c0.666992 5.33301 1 10 1 14c0 34 -24.667 51 -74 51c-48.667 0 -76 -21 -82 -63z" />
    <glyph glyph-name="edieresis" unicode="&#xeb;" horiz-adv-x="367" 
d="M298 689l-12 -97c-0.666992 -9.33301 -5.66699 -14 -15 -14h-22c-8 0 -11.667 4.66699 -11 14l11 97c0.666992 8.66699 6 13 16 13h22c8 0 11.667 -4.33301 11 -13zM212 689l-12.001 -97c-0.666992 -9.33301 -5.66699 -14 -15 -14h-21c-8 0 -11.667 4.66699 -11 14l12 97
c0.666992 8.66699 5.66699 13 15 13h21c4.66699 0 7.83398 -0.833008 9.50098 -2.5s2.16699 -5.16699 1.5 -10.5zM332.999 386l-15.999 -135.001c-0.666992 -8 -5.33398 -12 -14.001 -12h-200l-16 -132c-0.666992 -5.33301 -1 -10.666 -1 -15.999
c0 -33.333 23.667 -50 71 -50c50 0 78 20.667 84 62l5 37c0.666992 9.33301 5.66699 14 15 14h29c9.33301 0 13.333 -4.66699 12 -14l-4 -32c-4.66699 -38 -17.5 -66.833 -38.5 -86.5s-56.167 -29.5 -105.5 -29.5c-84.667 0 -127 32 -127 96
c0 6.66699 0.333008 13.334 1 20.001l33 275c4.66699 39.333 18.167 69 40.5 89s57.833 30 106.5 30c84 0 126 -32 126 -96c0 -6.66699 -0.333008 -13.334 -1 -20.001zM122 389.999l-13 -104h154l14 102c0.666992 5.33301 1 10 1 14c0 34 -24.667 51 -74 51
c-48.667 0 -76 -21 -82 -63z" />
    <glyph glyph-name="igrave" unicode="&#xec;" horiz-adv-x="174" 
d="M90 577l-42.999 118c-4 8.66699 -0.666992 13 10 13h36c8.66699 0 14 -4 16 -12l32 -115c2 -8 -1 -12 -9 -12h-28c-6.66699 0 -11.334 2.66699 -14.001 8zM140.001 480l-57 -466c-0.666992 -9.33301 -5.66699 -14 -15 -14h-35c-8 0 -11.667 4.66699 -11 14l57 466
c1.33301 9.33301 6.33301 14 15 14h34c9.33301 0 13.333 -4.66699 12 -14z" />
    <glyph glyph-name="iacute" unicode="&#xed;" horiz-adv-x="173" 
d="M220 695l-71.001 -117c-3.33301 -6 -8.66602 -9 -15.999 -9h-29c-8 0 -10 4 -6 12l61 115c4 8 9.66699 12 17 12h38c9.33301 0 11.333 -4.33301 6 -13zM139.999 480l-57 -466c-0.666992 -9.33301 -5.66699 -14 -15 -14h-35c-8 0 -11.667 4.66699 -11 14l57 466
c1.33301 9.33301 6.33301 14 15 14h34c9.33301 0 13.333 -4.66699 12 -14z" />
    <glyph glyph-name="icircumflex" unicode="&#xee;" horiz-adv-x="173" 
d="M131 664l-46.001 -83c-4.66699 -8 -11 -12 -19 -12h-25c-9.33301 0 -11 4.33301 -5 13l71 115c4.66699 7.33301 11.334 11 20.001 11h21c7.33301 0 12.333 -3.33301 15 -10l45 -116c4 -8.66699 0.666992 -13 -10 -13h-23c-7.33301 0 -12.333 4 -15 12zM139.999 480
l-57 -466c-0.666992 -9.33301 -5.66699 -14 -15 -14h-35c-8 0 -11.667 4.66699 -11 14l57 466c1.33301 9.33301 6.33301 14 15 14h34c9.33301 0 13.333 -4.66699 12 -14z" />
    <glyph glyph-name="idieresis" unicode="&#xef;" horiz-adv-x="174" 
d="M203 689l-12 -97c-0.666992 -9.33301 -5.66699 -14 -15 -14h-22c-8 0 -11.667 4.66699 -11 14l11 97c0.666992 8.66699 6 13 16 13h22c8 0 11.667 -4.33301 11 -13zM117 689l-12.001 -97c-0.666992 -9.33301 -5.66699 -14 -15 -14h-21c-8 0 -11.667 4.66699 -11 14l12 97
c0.666992 8.66699 5.66699 13 15 13h21c4.66699 0 7.83398 -0.833008 9.50098 -2.5s2.16699 -5.16699 1.5 -10.5zM139.999 480l-57 -466c-0.666992 -9.33301 -5.66699 -14 -15 -14h-35c-8 0 -11.667 4.66699 -11 14l57 466c1.33301 9.33301 6.33301 14 15 14h34
c9.33301 0 13.333 -4.66699 12 -14z" />
    <glyph glyph-name="eth" unicode="&#xf0;" horiz-adv-x="383" 
d="M238 591l59.998 31.998c-8.66699 17.333 -30 26 -64 26h-58c-8.66699 0 -12.667 4.33301 -12 13l2 18c0.666992 9.33301 6 14 16 14h58c56 0 93 -14 111 -42l37 19c7.33301 4.66699 12.333 3.33398 15 -3.99902l4 -11c2 -6.66699 -0.666992 -12 -8 -16l-36 -19
c2.66699 -15.333 3 -29.333 1 -42l-57 -464c-4.66699 -39.333 -18.5 -69.666 -41.5 -90.999s-58.833 -32 -107.5 -32c-44 0 -76.833 8.5 -98.5 25.5s-32.5 40.5 -32.5 70.5c0 6.66699 0.333008 13 1 19l35 291c3.33301 32 14.333 57.333 33 76s44 28 76 28
c44.667 0 84.334 -16.333 119.001 -49l14 111c1.33301 10.667 1.33301 18.667 0 24l-55 -29c-8 -4 -13.333 -2.33301 -16 5l-4 10c-3.33301 7.33301 -0.666016 13 8.00098 17zM246.998 113.998l36 291c-26 28 -58 42 -96 42s-59.333 -20.333 -64 -61l-35 -279
c-0.666992 -5.33301 -1 -10 -1 -14c0 -34 25 -51 75 -51c50.667 0 79 24 85 72z" />
    <glyph glyph-name="ntilde" unicode="&#xf1;" horiz-adv-x="390" 
d="M189 633c-6 0 -10.501 -2.16699 -13.501 -6.5s-5.5 -12.5 -7.5 -24.5l-2 -12c-1.33301 -8.66699 -6.66602 -13 -15.999 -13h-15c-9.33301 0 -13 5 -11 15l4 22c8.66699 44 28.667 66 60 66c13.333 0 27.333 -6.33301 42 -19l26 -24
c9.33301 -9.33301 17.666 -14 24.999 -14c6.66699 0 11.5 2.33301 14.5 7s5.16699 14 6.5 28l1 10c0.666992 8 6 12 16 12h15c9.33301 0 13 -5 11 -15l-4 -21c-8 -43.333 -28 -65 -60 -65c-16 0 -30.333 6 -43 18l-24 22c-9.33301 9.33301 -17.666 14 -24.999 14z
M93.999 494h31c8.66699 0 12.667 -4.33301 12 -13l-2 -27c39.333 32 80.333 48 123 48c29.333 0 52 -7.66699 68 -23s24 -35.333 24 -60c0 -4.66699 -0.333008 -10 -1 -16l-47 -389c-0.666992 -9.33301 -6 -14 -16 -14h-34c-8 0 -11.667 4.66699 -11 14l45 372
c0.666992 6 1 11 1 15c0 30.667 -18 46 -54 46c-33.333 0 -67.333 -14 -102 -42l-48 -391c-0.666992 -9.33301 -5.66699 -14 -15 -14h-35c-8 0 -11.667 4.66699 -11 14l57 467c0.666992 8.66699 5.66699 13 15 13z" />
    <glyph glyph-name="ograve" unicode="&#xf2;" horiz-adv-x="378" 
d="M194 577l-42.999 118c-4 8.66699 -0.666992 13 10 13h36c8.66699 0 14 -4 16 -12l32 -115c2 -8 -1 -12 -9 -12h-28c-6.66699 0 -11.334 2.66699 -14.001 8zM27.001 109l34 275.999c9.33301 78 59 117 149 117c44 0 76.833 -8.66699 98.5 -26s32.5 -41.333 32.5 -72
c0 -6.66699 -0.333008 -13 -1 -19l-34 -276c-4.66699 -37.333 -18.5 -66.166 -41.5 -86.499s-59.167 -30.5 -108.5 -30.5c-43.333 0 -75.833 8.66699 -97.5 26s-32.5 41.333 -32.5 72c0 6 0.333008 12.333 1 19zM245.001 107.999l34.001 276c0.666992 6 1 11 1 15
c0 34.667 -24.667 52 -74 52c-50.667 0 -78.667 -21.667 -84 -65l-34 -276c-0.666992 -6 -1 -11 -1 -15c0 -34.667 24.333 -52 73 -52c51.333 0 79.666 21.667 84.999 65z" />
    <glyph glyph-name="oacute" unicode="&#xf3;" horiz-adv-x="378" 
d="M320 695l-71.001 -117c-3.33301 -6 -8.66602 -9 -15.999 -9h-29c-8 0 -10 4 -6 12l61 115c4 8 9.66699 12 17 12h38c9.33301 0 11.333 -4.33301 6 -13zM26.999 109l34 275.999c9.33301 78 59 117 149 117c44 0 76.833 -8.66699 98.5 -26s32.5 -41.333 32.5 -72
c0 -6.66699 -0.333008 -13 -1 -19l-34 -276c-4.66699 -37.333 -18.5 -66.166 -41.5 -86.499s-59.167 -30.5 -108.5 -30.5c-43.333 0 -75.833 8.66699 -97.5 26s-32.5 41.333 -32.5 72c0 6 0.333008 12.333 1 19zM244.999 107.999l34.001 276c0.666992 6 1 11 1 15
c0 34.667 -24.667 52 -74 52c-50.667 0 -78.667 -21.667 -84 -65l-34 -276c-0.666992 -6 -1 -11 -1 -15c0 -34.667 24.333 -52 73 -52c51.333 0 79.666 21.667 84.999 65z" />
    <glyph glyph-name="ocircumflex" unicode="&#xf4;" horiz-adv-x="378" 
d="M234 664l-46.001 -83c-4.66699 -8 -11 -12 -19 -12h-25c-9.33301 0 -11 4.33301 -5 13l71 115c4.66699 7.33301 11.334 11 20.001 11h21c7.33301 0 12.333 -3.33301 15 -10l45 -116c4 -8.66699 0.666992 -13 -10 -13h-23c-6.66699 0 -11.667 4 -15 12zM26.999 109
l34 275.999c9.33301 78 59 117 149 117c44 0 76.833 -8.66699 98.5 -26s32.5 -41.333 32.5 -72c0 -6.66699 -0.333008 -13 -1 -19l-34 -276c-4.66699 -37.333 -18.5 -66.166 -41.5 -86.499s-59.167 -30.5 -108.5 -30.5c-43.333 0 -75.833 8.66699 -97.5 26
s-32.5 41.333 -32.5 72c0 6 0.333008 12.333 1 19zM244.999 107.999l34.001 276c0.666992 6 1 11 1 15c0 34.667 -24.667 52 -74 52c-50.667 0 -78.667 -21.667 -84 -65l-34 -276c-0.666992 -6 -1 -11 -1 -15c0 -34.667 24.333 -52 73 -52c51.333 0 79.666 21.667 84.999 65
z" />
    <glyph glyph-name="otilde" unicode="&#xf5;" horiz-adv-x="378" 
d="M181 633c-6 0 -10.501 -2.16699 -13.501 -6.5s-5.5 -12.5 -7.5 -24.5l-2 -12c-1.33301 -8.66699 -6.66602 -13 -15.999 -13h-15c-9.33301 0 -13 5 -11 15l4 22c8.66699 44 28.667 66 60 66c13.333 0 27.333 -6.33301 42 -19l26 -24
c9.33301 -9.33301 17.666 -14 24.999 -14c6.66699 0 11.5 2.33301 14.5 7s5.16699 14 6.5 28l1 10c0.666992 8 6 12 16 12h15c9.33301 0 13 -5 11 -15l-4 -21c-8 -43.333 -28 -65 -60 -65c-16 0 -30.333 6 -43 18l-24 22c-9.33301 9.33301 -17.666 14 -24.999 14z
M26.999 109l34 275.999c9.33301 78 59 117 149 117c44 0 76.833 -8.66699 98.5 -26s32.5 -41.333 32.5 -72c0 -6.66699 -0.333008 -13 -1 -19l-34 -276c-4.66699 -37.333 -18.5 -66.166 -41.5 -86.499s-59.167 -30.5 -108.5 -30.5c-43.333 0 -75.833 8.66699 -97.5 26
s-32.5 41.333 -32.5 72c0 6 0.333008 12.333 1 19zM244.999 107.999l34.001 276c0.666992 6 1 11 1 15c0 34.667 -24.667 52 -74 52c-50.667 0 -78.667 -21.667 -84 -65l-34 -276c-0.666992 -6 -1 -11 -1 -15c0 -34.667 24.333 -52 73 -52c51.333 0 79.666 21.667 84.999 65
z" />
    <glyph glyph-name="odieresis" unicode="&#xf6;" horiz-adv-x="378" 
d="M304 689l-12 -97c-0.666992 -9.33301 -5.66699 -14 -15 -14h-22c-8 0 -11.667 4.66699 -11 14l11 97c0.666992 8.66699 6 13 16 13h22c8 0 11.667 -4.33301 11 -13zM218 689l-12.001 -97c-0.666992 -9.33301 -5.66699 -14 -15 -14h-21c-8 0 -11.667 4.66699 -11 14l12 97
c0.666992 8.66699 5.66699 13 15 13h21c4.66699 0 7.83398 -0.833008 9.50098 -2.5s2.16699 -5.16699 1.5 -10.5zM26.999 109l34 275.999c9.33301 78 59 117 149 117c44 0 76.833 -8.66699 98.5 -26s32.5 -41.333 32.5 -72c0 -6.66699 -0.333008 -13 -1 -19l-34 -276
c-4.66699 -37.333 -18.5 -66.166 -41.5 -86.499s-59.167 -30.5 -108.5 -30.5c-43.333 0 -75.833 8.66699 -97.5 26s-32.5 41.333 -32.5 72c0 6 0.333008 12.333 1 19zM244.999 107.999l34.001 276c0.666992 6 1 11 1 15c0 34.667 -24.667 52 -74 52
c-50.667 0 -78.667 -21.667 -84 -65l-34 -276c-0.666992 -6 -1 -11 -1 -15c0 -34.667 24.333 -52 73 -52c51.333 0 79.666 21.667 84.999 65z" />
    <glyph glyph-name="divide" unicode="&#xf7;" horiz-adv-x="405" 
d="M240 529v-78c0 -8.66699 -4.33301 -13 -13 -13h-36c-8.66699 0 -13 4.33301 -13 13v78c0 8.66699 4.33301 13 13 13h36c8.66699 0 13 -4.33301 13 -13zM62 349h287c8.66699 0 13 -4 13 -12v-27c0 -8.66699 -4.33301 -13 -13 -13h-286c-8.66699 0 -13 4.33301 -13 13v26
c0 8.66699 4 13 12 13zM240 196v-77c0 -9.33301 -4.33301 -14 -13 -14h-36c-8.66699 0 -13 4.66699 -13 14v77c0 9.33301 4.33301 14 13 14h36c8.66699 0 13 -4.66699 13 -14z" />
    <glyph glyph-name="oslash" unicode="&#xf8;" horiz-adv-x="378" 
d="M87 109c-0.666992 -5.33301 -1 -11 -1 -17l175 348c-12 8 -30.333 12 -55 12c-50 0 -78 -21.667 -84 -65zM159 42c51.333 0 80 21.667 86 65l35 276c0.666992 6 1 11.333 1 16l-174 -346c12.667 -7.33301 30 -11 52 -11zM72 -17
c-4.66699 -8.66699 -11 -13.002 -19 -13.002h-18c-3.33301 0 -5.33301 1.5 -6 4.5s0 5.83301 2 8.5l21 41c-17.333 16.667 -26 38.667 -26 66c0 6.66699 0.333008 13 1 19l34 276c9.33301 78 59 117 149 117c29.333 0 54.666 -4.33301 75.999 -13l12 24
c4.66699 8.66699 10.667 13 18 13h18c6.66699 0 8 -4.33301 4 -13l-22 -44c16.667 -16 25 -37.667 25 -65c0 -7.33301 -0.333008 -13.666 -1 -18.999l-34 -276c-4.66699 -37.333 -18.5 -66.166 -41.5 -86.499s-59.167 -30.5 -108.5 -30.5c-29.333 0 -53.666 4 -72.999 12z
" />
    <glyph glyph-name="ugrave" unicode="&#xf9;" horiz-adv-x="387" 
d="M198 577l-42.999 118c-4 8.66699 -0.666992 13 10 13h36c8.66699 0 14 -4 16 -12l32 -115c2 -8 -1 -12 -9 -12h-28c-6.66699 0 -11.334 2.66699 -14.001 8zM239.001 13l2 25.999c-40.667 -31.333 -80.334 -47 -119.001 -47c-30 0 -53 7.5 -69 22.5s-24 34.833 -24 59.5
c0 4.66699 0.333008 10.334 1 17.001l48 389c0.666992 9.33301 5.33398 14 14.001 14h35c8 0 11.667 -4.66699 11 -14l-45 -373c-0.666992 -6 -1 -10.667 -1 -14c0 -30.667 18 -46 54 -46c32.667 0 65.667 13.667 99 41l47 392c0.666992 9.33301 5.66699 14 15 14h35
c8 0 11.667 -4.66699 11 -14l-56 -467c-0.666992 -8.66699 -5.66699 -13 -15 -13h-31c-8.66699 -0 -12.667 4.33301 -12 13z" />
    <glyph glyph-name="uacute" unicode="&#xfa;" horiz-adv-x="387" 
d="M323 695l-71.001 -117c-3.33301 -6 -8.66602 -9 -15.999 -9h-29c-8 0 -10 4 -6 12l61 115c4 8 9.66699 12 17 12h38c9.33301 0 11.333 -4.33301 6 -13zM238.999 13l2 25.999c-40.667 -31.333 -80.334 -47 -119.001 -47c-30 0 -53 7.5 -69 22.5s-24 34.833 -24 59.5
c0 4.66699 0.333008 10.334 1 17.001l48 389c0.666992 9.33301 5.33398 14 14.001 14h35c8 0 11.667 -4.66699 11 -14l-45 -373c-0.666992 -6 -1 -10.667 -1 -14c0 -30.667 18 -46 54 -46c32.667 0 65.667 13.667 99 41l47 392c0.666992 9.33301 5.66699 14 15 14h35
c8 0 11.667 -4.66699 11 -14l-56 -467c-0.666992 -8.66699 -5.66699 -13 -15 -13h-31c-8.66699 -0 -12.667 4.33301 -12 13z" />
    <glyph glyph-name="ucircumflex" unicode="&#xfb;" horiz-adv-x="387" 
d="M236 664l-46.001 -83c-4.66699 -8 -11 -12 -19 -12h-25c-9.33301 0 -11 4.33301 -5 13l71 115c4.66699 7.33301 11.334 11 20.001 11h21c7.33301 0 12.333 -3.33301 15 -10l45 -116c4 -8.66699 0.666992 -13 -10 -13h-23c-6.66699 0 -11.667 4 -15 12zM238.999 13
l2 25.999c-40.667 -31.333 -80.334 -47 -119.001 -47c-30 0 -53 7.5 -69 22.5s-24 34.833 -24 59.5c0 4.66699 0.333008 10.334 1 17.001l48 389c0.666992 9.33301 5.33398 14 14.001 14h35c8 0 11.667 -4.66699 11 -14l-45 -373c-0.666992 -6 -1 -10.667 -1 -14
c0 -30.667 18 -46 54 -46c32.667 0 65.667 13.667 99 41l47 392c0.666992 9.33301 5.66699 14 15 14h35c8 0 11.667 -4.66699 11 -14l-56 -467c-0.666992 -8.66699 -5.66699 -13 -15 -13h-31c-8.66699 -0 -12.667 4.33301 -12 13z" />
    <glyph glyph-name="udieresis" unicode="&#xfc;" horiz-adv-x="387" 
d="M308 689l-12 -97c-0.666992 -9.33301 -5.66699 -14 -15 -14h-22c-8 0 -11.667 4.66699 -11 14l11 97c0.666992 8.66699 6 13 16 13h22c8 0 11.667 -4.33301 11 -13zM222 689l-12.001 -97c-0.666992 -9.33301 -5.66699 -14 -15 -14h-21c-8 0 -11.667 4.66699 -11 14l12 97
c0.666992 8.66699 5.66699 13 15 13h21c4.66699 0 7.83398 -0.833008 9.50098 -2.5s2.16699 -5.16699 1.5 -10.5zM238.999 13l2 25.999c-40.667 -31.333 -80.334 -47 -119.001 -47c-30 0 -53 7.5 -69 22.5s-24 34.833 -24 59.5c0 4.66699 0.333008 10.334 1 17.001l48 389
c0.666992 9.33301 5.33398 14 14.001 14h35c8 0 11.667 -4.66699 11 -14l-45 -373c-0.666992 -6 -1 -10.667 -1 -14c0 -30.667 18 -46 54 -46c32.667 0 65.667 13.667 99 41l47 392c0.666992 9.33301 5.66699 14 15 14h35c8 0 11.667 -4.66699 11 -14l-56 -467
c-0.666992 -8.66699 -5.66699 -13 -15 -13h-31c-8.66699 -0 -12.667 4.33301 -12 13z" />
    <glyph glyph-name="yacute" unicode="&#xfd;" horiz-adv-x="330" 
d="M301 695l-71.001 -117c-3.33301 -6 -8.66602 -9 -15.999 -9h-29c-8 0 -10 4 -6 12l61 115c4 8 9.66699 12 17 12h38c9.33301 0 11.333 -4.33301 6 -13zM334.999 480l-241.002 -661c-2.66699 -8.66699 -7.66699 -13 -15 -13h-29c-10 0 -13.333 4.33301 -10 13l64 173
l-64 488c-1.33301 9.33301 3.33398 14 14.001 14h35c6.66699 0 10.667 -4.66699 12 -14l38 -340c2 -16 3 -32.667 3 -50c4.66699 19.333 9.33398 35 14.001 47l120 343c3.33301 9.33301 9 14 17 14h33c10 0 13 -4.66699 9 -14z" />
    <glyph glyph-name="thorn" unicode="&#xfe;" horiz-adv-x="387" 
d="M190 46c36.667 0 57.333 19 62 57l35 282c0.666992 7.33301 1 13.333 1 18c0 29.333 -17.667 44 -53 44c-38.667 0 -73 -14 -103 -42l-39 -317c26 -28 58.333 -42 97 -42zM85.999 39l-27.002 -218.999c-0.666992 -9.33301 -5.33398 -14 -14.001 -14h-35
c-8.66699 0 -12.667 4.66699 -12 14l107 861c0.666992 8.66699 5.33398 13 14.001 13h35c8.66699 0 12.667 -4.33301 12 -13l-28 -226c38 31.333 79 47 123 47c28.667 0 50.834 -7.33301 66.501 -22s23.5 -34.334 23.5 -59.001c0 -3.33301 -0.666992 -11 -2 -23l-38 -309
c-4 -29.333 -14.667 -52.833 -32 -70.5s-41.666 -26.5 -72.999 -26.5c-47.333 0 -87.333 15.667 -120 47z" />
    <glyph glyph-name="ydieresis" unicode="&#xff;" horiz-adv-x="330" 
d="M278 689l-12 -97c-0.666992 -9.33301 -5.66699 -14 -15 -14h-22c-8 0 -11.667 4.66699 -11 14l11 97c0.666992 8.66699 6 13 16 13h22c8 0 11.667 -4.33301 11 -13zM192 689l-12.001 -97c-0.666992 -9.33301 -5.66699 -14 -15 -14h-21c-8 0 -11.667 4.66699 -11 14l12 97
c0.666992 8.66699 5.66699 13 15 13h21c4.66699 0 7.83398 -0.833008 9.50098 -2.5s2.16699 -5.16699 1.5 -10.5zM334.999 480l-241.002 -661c-2.66699 -8.66699 -7.66699 -13 -15 -13h-29c-10 0 -13.333 4.33301 -10 13l64 173l-64 488
c-1.33301 9.33301 3.33398 14 14.001 14h35c6.66699 0 10.667 -4.66699 12 -14l38 -340c2 -16 3 -32.667 3 -50c4.66699 19.333 9.33398 35 14.001 47l120 343c3.33301 9.33301 9 14 17 14h33c10 0 13 -4.66699 9 -14z" />
    <glyph glyph-name="Amacron" unicode="&#x100;" horiz-adv-x="399" 
d="M173 824h176c8.66699 0 12.667 -4.33301 12 -13l-2 -22c-0.666992 -9.33301 -6 -14 -16 -14h-176c-8 0 -11.667 4.66699 -11 14l2 21c0.666992 9.33301 5.66699 14 15 14zM264 250l-23.999 241.001c-4 37.333 -5.33301 70.666 -4 99.999
c-12.667 -48 -22.334 -81 -29.001 -99l-85 -242h142zM227.001 680.001h38c10 0 15.333 -4.33301 16 -13l66 -654c1.33301 -8.66699 -2.66699 -13 -12 -13h-35c-9.33301 0 -14.666 4.33301 -15.999 13l-16 185h-162l-63 -185c-3.33301 -8.66699 -9 -13 -17 -13h-34
c-8.66699 0 -11.334 4.33301 -8.00098 13l225 654c2.66699 8.66699 8.66699 13 18 13z" />
    <glyph glyph-name="amacron" unicode="&#x101;" horiz-adv-x="387" 
d="M141 649h176c8.66699 0 12.667 -4.66699 12 -14l-2 -21c-0.666992 -9.33301 -5.66699 -14 -15 -14h-177c-8 0 -11.667 4.66699 -11 14l2 21c0.666992 9.33301 5.66699 14 15 14zM123 389l-35 -282c-0.666992 -5.33301 -1 -10 -1 -14c0 -30.667 18.333 -46 55 -46
c36 0 70 14 102 42l39 316c-28 28 -60 42 -96 42c-38 0 -59.333 -19.333 -64 -58zM240 40c-39.333 -32 -80.332 -48 -122.999 -48c-30 0 -52.667 7.33301 -68 22s-23 34.667 -23 60c0 6.66699 0.333008 13.667 1 21l37 307c4 30.667 15 55 33 73s43 27 75 27
c45.333 0 84.666 -15.667 117.999 -47l5 26c2 8.66699 6.66699 13 14 13h32c8 0 11.667 -4.66699 11 -14l-57 -467c-0.666992 -8.66699 -5.66699 -13 -15 -13h-31c-8 -0 -11.667 4.33301 -11 13z" />
    <glyph glyph-name="Abreve" unicode="&#x102;" horiz-adv-x="399" 
d="M219 869l-3.00098 -25c-0.666992 -5.33301 -1 -12.666 -1 -21.999c0 -26.667 14 -40 42 -40c17.333 0 29.833 5.16699 37.5 15.5s12.5 25.833 14.5 46.5l3 25c0.666992 8 5.33398 12 14.001 12h21c8.66699 0 12.667 -4 12 -12l-3 -22
c-4.66699 -34.667 -14.667 -60.834 -30 -78.501s-39.333 -26.5 -72 -26.5c-56.667 0 -85 26 -85 78c0 8 0.333008 16 1 24l3 25c0.666992 8 5 12 13 12h22c8 0 11.667 -4 11 -12zM263.999 250l-23.999 241.001c-4 37.333 -5.33301 70.666 -4 99.999
c-12.667 -48 -22.334 -81 -29.001 -99l-85 -242h142zM227 680.001h38c10 0 15.333 -4.33301 16 -13l66 -654c1.33301 -8.66699 -2.66699 -13 -12 -13h-35c-9.33301 0 -14.666 4.33301 -15.999 13l-16 185h-162l-63 -185c-3.33301 -8.66699 -9 -13 -17 -13h-34
c-8.66699 0 -11.334 4.33301 -8.00098 13l225 654c2.66699 8.66699 8.66699 13 18 13z" />
    <glyph glyph-name="abreve" unicode="&#x103;" horiz-adv-x="387" 
d="M186 683l-3.00098 -25c-0.666992 -5.33301 -1 -12.666 -1 -21.999c0 -26.667 14 -40 42 -40c17.333 0 29.833 5.16699 37.5 15.5s12.5 25.833 14.5 46.5l3 25c0.666992 8 5.33398 12 14.001 12h21c9.33301 0 13.333 -4 12 -12l-3 -22
c-4.66699 -34.667 -14.667 -60.834 -30 -78.501s-39.333 -26.5 -72 -26.5c-56.667 0 -85 26 -85 78c0 8 0.333008 16 1 24l3 25c0.666992 8 5 12 13 12h22c8 0 11.667 -4 11 -12zM122.999 389l-35 -282c-0.666992 -5.33301 -1 -10 -1 -14c0 -30.667 18.333 -46 55 -46
c36 0 70 14 102 42l39 316c-28 28 -60 42 -96 42c-38 0 -59.333 -19.333 -64 -58zM239.999 40c-39.333 -32 -80.332 -48 -122.999 -48c-30 0 -52.667 7.33301 -68 22s-23 34.667 -23 60c0 6.66699 0.333008 13.667 1 21l37 307c4 30.667 15 55 33 73s43 27 75 27
c45.333 0 84.666 -15.667 117.999 -47l5 26c2 8.66699 6.66699 13 14 13h32c8 0 11.667 -4.66699 11 -14l-57 -467c-0.666992 -8.66699 -5.66699 -13 -15 -13h-31c-8 -0 -11.667 4.33301 -11 13z" />
    <glyph glyph-name="Aogonek" unicode="&#x104;" horiz-adv-x="399" 
d="M227 680l38.0029 -0.000976562c10 0 15.333 -4.33301 16 -13l66 -654c1.33301 -8.66699 -2.66699 -13 -12 -13h-14c-17.333 -7.33301 -30.5 -18.166 -39.5 -32.499s-13.5 -28.5 -13.5 -42.5c0 -22.667 12.333 -34 37 -34h12c9.33301 0 13.666 -4.33301 12.999 -13l-2 -16
c-0.666992 -9.33301 -6 -14 -16 -14h-21c-20.667 0 -37.334 5.33301 -50.001 16s-19 26.667 -19 48c0 41.333 20.333 77.333 61 108l-15 178h-162l-63 -185c-3.33301 -8.66699 -9 -13 -17 -13h-34c-8.66699 -0 -11.334 4.33301 -8.00098 13l225 654
c2.66699 8.66699 8.66699 13 18 13zM264.003 249.999l-23.999 241.001c-2.66699 23.333 -4 56.666 -4 99.999c-10.667 -40 -20.334 -73 -29.001 -99l-85 -242h142z" />
    <glyph glyph-name="aogonek" unicode="&#x105;" horiz-adv-x="386" 
d="M117 -8c-30 0 -52.666 7.33301 -67.999 22s-23 34.667 -23 60c0 8 0.333008 15 1 21l37 307c4 30.667 15 55 33 73s43 27 75 27c45.333 0 84.666 -15.667 117.999 -47l5 26c2 8.66699 6.66699 13 14 13h32c8 0 11.667 -4.66699 11 -14l-57 -467
c-0.666992 -8.66699 -5.66699 -13 -15 -13h-3c-17.333 -6.66699 -31 -18 -41 -34s-15 -30.667 -15 -44c0 -20.667 12.667 -31 38 -31h8c8.66699 0 12.667 -4.33301 12 -13l-1 -16c-0.666992 -9.33301 -5.66699 -14 -15 -14h-18c-21.333 0 -38.333 5.16699 -51 15.5
s-19 25.5 -19 45.5c0 38 21.333 73 64 105l1 26c-39.333 -32 -80.333 -48 -123 -48zM123.001 389l-35 -282c-0.666992 -5.33301 -1 -10 -1 -14c0 -30.667 18.333 -46 55 -46c36 0 70 14 102 42l39 316c-28 28 -60 42 -96 42c-38 0 -59.333 -19.333 -64 -58z" />
    <glyph glyph-name="Cacute" unicode="&#x106;" horiz-adv-x="405" 
d="M364 865l-71 -118c-3.33301 -5.33301 -9 -8 -17 -8h-29c-8 0 -9.66699 4 -5 12l60 115c4 8 10.333 12 19 12h37c8.66699 0 10.667 -4.33301 6 -13zM355 200l-9 -77.001c-4.66699 -40.667 -19.5 -72.667 -44.5 -96s-65.833 -35 -122.5 -35c-95.333 0 -143 36 -143 108
c0 10 0.333008 18 1 24l53 433c5.33301 40.667 20.333 72.667 45 96s65 35 121 35c96.667 0 145 -36.333 145 -109c0 -3.33301 -0.666992 -11 -2 -23l-8 -63c-0.666992 -9.33301 -5.66699 -14 -15 -14h-34c-9.33301 0 -13.333 4.66699 -12 14l7 60
c0 2.66699 0.166992 5.33398 0.5 8.00098s0.666016 4.83398 0.999023 6.50098s0.5 3.16699 0.5 4.5c0 42 -29 63 -87 63c-60 0 -93.333 -26.333 -100 -79l-52 -429c-0.666992 -4.66699 -1 -11.334 -1 -20.001c0 -41.333 28.333 -62 85 -62c61.333 0 95 26.333 101 79l9 76
c1.33301 9.33301 6.33301 14 15 14h35c8.66699 0 12.334 -4.66699 11.001 -14z" />
    <glyph glyph-name="cacute" unicode="&#x107;" horiz-adv-x="356" 
d="M314 695l-71.001 -117c-3.33301 -6 -8.66602 -9 -15.999 -9h-29c-8 0 -10 4 -6 12l61 115c4 8 9.66699 12 17 12h38c9.33301 0 11.333 -4.33301 6 -13zM207.999 502c84 0 125.997 -32.001 125.997 -96.001c0 -4.66699 -0.333008 -11 -1 -19l-3 -31
c-0.666992 -8 -6 -12 -16 -12h-32c-8 0 -11.667 4 -11 12l3 29c0.666992 6.66699 1 12.334 1 17.001c0 32.667 -23.667 49 -71 49c-28 0 -48 -5.5 -60 -16.5s-19.333 -26.833 -22 -47.5l-33 -276c-0.666992 -6.66699 -1 -13.334 -1 -20.001c0 -32 23.333 -48 70 -48
c28.667 0 48.834 5.33301 60.501 16s18.834 26.667 21.501 48l5 39c1.33301 9.33301 6 14 14 14h33c8.66699 0 12.334 -4.66699 11.001 -14l-4 -37c-4 -37.333 -17 -66.166 -39 -86.499s-57.667 -30.5 -107 -30.5c-84 0 -126 32 -126 96c0 7.33301 0.333008 14.333 1 21
l34 278c4.66699 37.333 17.667 65.833 39 85.5s57 29.5 107 29.5z" />
    <glyph glyph-name="Ccircumflex" unicode="&#x108;" horiz-adv-x="405" 
d="M272 834l-46.999 -83c-4.66699 -8 -10.667 -12 -18 -12h-25c-8.66699 0 -10.667 4.33301 -6 13l71 115c4 7.33301 10.667 11 20 11h21c8 0 13.333 -3.33301 16 -10l44 -116c4 -8.66699 1 -13 -9 -13h-23c-8.66699 0 -14.334 4 -17.001 12zM355.001 200l-9 -77.001
c-4.66699 -40.667 -19.5 -72.667 -44.5 -96s-65.833 -35 -122.5 -35c-95.333 0 -143 36 -143 108c0 10 0.333008 18 1 24l53 433c5.33301 40.667 20.333 72.667 45 96s65 35 121 35c96.667 0 145 -36.333 145 -109c0 -3.33301 -0.666992 -11 -2 -23l-8 -63
c-0.666992 -9.33301 -5.66699 -14 -15 -14h-34c-9.33301 0 -13.333 4.66699 -12 14l7 60c0 2.66699 0.166992 5.33398 0.5 8.00098s0.666016 4.83398 0.999023 6.50098s0.5 3.16699 0.5 4.5c0 42 -29 63 -87 63c-60 0 -93.333 -26.333 -100 -79l-52 -429
c-0.666992 -4.66699 -1 -11.334 -1 -20.001c0 -41.333 28.333 -62 85 -62c61.333 0 95 26.333 101 79l9 76c1.33301 9.33301 6.33301 14 15 14h35c8.66699 0 12.334 -4.66699 11.001 -14z" />
    <glyph glyph-name="ccircumflex" unicode="&#x109;" horiz-adv-x="356" 
d="M225 664l-46.001 -83c-4.66699 -8 -11 -12 -19 -12h-25c-9.33301 0 -11 4.33301 -5 13l71 115c4.66699 7.33301 11.334 11 20.001 11h21c7.33301 0 12.333 -3.33301 15 -10l45 -116c4 -8.66699 0.666992 -13 -10 -13h-23c-7.33301 0 -12.333 4 -15 12zM207.999 502
c84 0 125.997 -32.001 125.997 -96.001c0 -4.66699 -0.333008 -11 -1 -19l-3 -31c-0.666992 -8 -6 -12 -16 -12h-32c-8 0 -11.667 4 -11 12l3 29c0.666992 6.66699 1 12.334 1 17.001c0 32.667 -23.667 49 -71 49c-28 0 -48 -5.5 -60 -16.5s-19.333 -26.833 -22 -47.5
l-33 -276c-0.666992 -6.66699 -1 -13.334 -1 -20.001c0 -32 23.333 -48 70 -48c28.667 0 48.834 5.33301 60.501 16s18.834 26.667 21.501 48l5 39c1.33301 9.33301 6 14 14 14h33c8.66699 0 12.334 -4.66699 11.001 -14l-4 -37c-4 -37.333 -17 -66.166 -39 -86.499
s-57.667 -30.5 -107 -30.5c-84 0 -126 32 -126 96c0 7.33301 0.333008 14.333 1 21l34 278c4.66699 37.333 17.667 65.833 39 85.5s57 29.5 107 29.5z" />
    <glyph glyph-name="Cdotaccent" unicode="&#x10a;" horiz-adv-x="405" 
d="M306 839l-8.99707 -78c-0.666992 -8.66699 -5.33398 -13 -14.001 -13h-36c-4.66699 0 -7.83398 0.833008 -9.50098 2.5s-2.16699 5.16699 -1.5 10.5l9 78c1.33301 8.66699 6 13 14 13h37c7.33301 0 10.666 -4.33301 9.99902 -13zM355.003 200l-9 -77.001
c-4.66699 -40.667 -19.5 -72.667 -44.5 -96s-65.833 -35 -122.5 -35c-95.333 0 -143 36 -143 108c0 10 0.333008 18 1 24l53 433c5.33301 40.667 20.333 72.667 45 96s65 35 121 35c96.667 0 145 -36.333 145 -109c0 -3.33301 -0.666992 -11 -2 -23l-8 -63
c-0.666992 -9.33301 -5.66699 -14 -15 -14h-34c-9.33301 0 -13.333 4.66699 -12 14l7 60c0 2.66699 0.166992 5.33398 0.5 8.00098s0.666016 4.83398 0.999023 6.50098s0.5 3.16699 0.5 4.5c0 42 -29 63 -87 63c-60 0 -93.333 -26.333 -100 -79l-52 -429
c-0.666992 -4.66699 -1 -11.334 -1 -20.001c0 -41.333 28.333 -62 85 -62c61.333 0 95 26.333 101 79l9 76c1.33301 9.33301 6.33301 14 15 14h35c8.66699 0 12.334 -4.66699 11.001 -14z" />
    <glyph glyph-name="cdotaccent" unicode="&#x10b;" horiz-adv-x="356" 
d="M259 675l-9 -77c-0.666992 -9.33301 -5.66699 -14 -15 -14h-35c-8.66699 0 -12.667 4.66699 -12 14l9 77c0.666992 9.33301 5.66699 14 15 14h36c8 0 11.667 -4.66699 11 -14zM208 502c84 0 125.997 -32.001 125.997 -96.001c0 -4.66699 -0.333008 -11 -1 -19l-3 -31
c-0.666992 -8 -6 -12 -16 -12h-32c-8 0 -11.667 4 -11 12l3 29c0.666992 6.66699 1 12.334 1 17.001c0 32.667 -23.667 49 -71 49c-28 0 -48 -5.5 -60 -16.5s-19.333 -26.833 -22 -47.5l-33 -276c-0.666992 -6.66699 -1 -13.334 -1 -20.001c0 -32 23.333 -48 70 -48
c28.667 0 48.834 5.33301 60.501 16s18.834 26.667 21.501 48l5 39c1.33301 9.33301 6 14 14 14h33c8.66699 0 12.334 -4.66699 11.001 -14l-4 -37c-4 -37.333 -17 -66.166 -39 -86.499s-57.667 -30.5 -107 -30.5c-84 0 -126 32 -126 96c0 7.33301 0.333008 14.333 1 21
l34 278c4.66699 37.333 17.667 65.833 39 85.5s57 29.5 107 29.5z" />
    <glyph glyph-name="Ccaron" unicode="&#x10c;" horiz-adv-x="405" 
d="M240 865l28 -81l47 81c4.66699 8.66699 11 13 19 13h24c8.66699 0 10.667 -4.33301 6 -13l-72 -116c-4.66699 -6.66699 -11 -10 -19 -10h-21c-8 0 -13.333 3.33301 -16 10l-44 116c-4 8.66699 -1 13 9 13h25c6 0 10.667 -4.33301 14 -13zM355 200l-9 -77.001
c-4.66699 -40.667 -19.5 -72.667 -44.5 -96s-65.833 -35 -122.5 -35c-95.333 0 -143 36 -143 108c0 10 0.333008 18 1 24l53 433c5.33301 40.667 20.333 72.667 45 96s65 35 121 35c96.667 0 145 -36.333 145 -109c0 -3.33301 -0.666992 -11 -2 -23l-8 -63
c-0.666992 -9.33301 -5.66699 -14 -15 -14h-34c-9.33301 0 -13.333 4.66699 -12 14l7 60c0 2.66699 0.166992 5.33398 0.5 8.00098s0.666016 4.83398 0.999023 6.50098s0.5 3.16699 0.5 4.5c0 42 -29 63 -87 63c-60 0 -93.333 -26.333 -100 -79l-52 -429
c-0.666992 -4.66699 -1 -11.334 -1 -20.001c0 -41.333 28.333 -62 85 -62c61.333 0 95 26.333 101 79l9 76c1.33301 9.33301 6.33301 14 15 14h35c8.66699 0 12.334 -4.66699 11.001 -14z" />
    <glyph glyph-name="ccaron" unicode="&#x10d;" horiz-adv-x="356" 
d="M194 695l27.002 -81l48 81c5.33301 8.66699 11.666 13 18.999 13h25c7.33301 0 8.66602 -4.33301 3.99902 -13l-71 -116c-4 -6.66699 -10.667 -10 -20 -10h-20c-8 0 -13.333 3.33301 -16 10l-44 116c-4 8.66699 -1 13 9 13h25c6 0 10.667 -4.33301 14 -13zM208.002 502
c84 0 125.997 -32.001 125.997 -96.001c0 -4.66699 -0.333008 -11 -1 -19l-3 -31c-0.666992 -8 -6 -12 -16 -12h-32c-8 0 -11.667 4 -11 12l3 29c0.666992 6.66699 1 12.334 1 17.001c0 32.667 -23.667 49 -71 49c-28 0 -48 -5.5 -60 -16.5s-19.333 -26.833 -22 -47.5
l-33 -276c-0.666992 -6.66699 -1 -13.334 -1 -20.001c0 -32 23.333 -48 70 -48c28.667 0 48.834 5.33301 60.501 16s18.834 26.667 21.501 48l5 39c1.33301 9.33301 6 14 14 14h33c8.66699 0 12.334 -4.66699 11.001 -14l-4 -37c-4 -37.333 -17 -66.166 -39 -86.499
s-57.667 -30.5 -107 -30.5c-84 0 -126 32 -126 96c0 7.33301 0.333008 14.333 1 21l34 278c4.66699 37.333 17.667 65.833 39 85.5s57 29.5 107 29.5z" />
    <glyph glyph-name="Dcaron" unicode="&#x10e;" horiz-adv-x="440" 
d="M241 865l28 -81l47 81c4 8.66699 10.333 13 19 13h24c8.66699 0 10.667 -4.33301 6 -13l-72 -116c-4.66699 -6.66699 -11 -10 -19 -10h-21c-8 0 -13.333 3.33301 -16 10l-44 116c-4 8.66699 -1 13 9 13h25c6 0 10.667 -4.33301 14 -13zM191 0l-150.002 -0.000976562
c-7.33301 0 -10.666 4.66699 -9.99902 14l80 652c0.666992 9.33301 5.33398 14 14.001 14h140c51.333 0 89.333 -10.167 114 -30.5s37 -47.166 37 -80.499c0 -2.66699 -0.666992 -10 -2 -22l-51 -416c-10.667 -87.333 -68 -131 -172 -131zM260.998 626.999h-92l-71 -574h97
c64 0 99.333 26.667 106 80l50 409c1.33301 10.667 2 17 2 19c0 44 -30.667 66 -92 66z" />
    <glyph glyph-name="dcaron" unicode="&#x10f;" horiz-adv-x="398" 
d="M438 668l5.00195 35.001c0.666992 8 5 12 13 12h29c7.33301 0 10.666 -4 9.99902 -12l-4 -38c-4 -40.667 -23 -78 -57 -112c-6 -6.66699 -11.667 -7.33398 -17 -2.00098l-14 13c-4.66699 3.33301 -4.33398 9 0.999023 17c18.667 28.667 30 57.667 34 87zM123.002 389.001
l-34 -281c-0.666992 -6 -1 -11 -1 -15c0 -30.667 18 -46 54 -46s70 14 102 42l39 316c-28 28 -60 42 -96 42c-38 0 -59.333 -19.333 -64 -58zM239.002 40.001c-37.333 -32 -78.001 -48 -122.001 -48c-29.333 0 -51.833 7.5 -67.5 22.5s-23.5 35.167 -23.5 60.5
c0 6 0.333008 12.667 1 20l37 307c4 30.667 15 55 33 73s43 27 75 27c46.667 0 85.667 -15.667 117 -47l28 225c0.666992 9.33301 5.33398 14 14.001 14h35c8 0 11.667 -4.66699 11 -14l-82 -667c-0.666992 -8.66699 -5.66699 -13 -15 -13h-31
c-7.33301 0 -11 4.33301 -11 13z" />
    <glyph glyph-name="Dcroat" unicode="&#x110;" horiz-adv-x="445" 
d="M197 0l-150.002 -0.000976562c-7.33301 0 -10.666 4.66699 -9.99902 14l38 306h-46c-8 0 -11.667 4.33301 -11 13l2 22c0.666992 8.66699 5.66699 13 15 13h45l37 298c0.666992 9.33301 5.33398 14 14.001 14h140c51.333 0 89.333 -10.167 114 -30.5
s37 -47.166 37 -80.499c0 -2.66699 -0.666992 -10 -2 -22l-51 -416c-10.667 -87.333 -68 -131 -172 -131zM103.998 52.999h97c64 0 99.333 26.667 106 80l50 409c1.33301 10.667 2 17 2 19c0 44 -30.667 66 -92 66h-92l-32 -259h83c8.66699 0 12.667 -4.33301 12 -13l-3 -22
c-0.666992 -8.66699 -5.66699 -13 -15 -13h-83z" />
    <glyph glyph-name="dcroat" unicode="&#x111;" horiz-adv-x="386" 
d="M123 389l-34 -281c-0.666992 -6 -1 -11 -1 -15c0 -30.667 18 -46 54 -46s70 14 102 42l39 316c-28 28 -60 42 -96 42c-38 0 -59.333 -19.333 -64 -58zM239 40c-37.333 -32 -78.001 -48 -122.001 -48c-29.333 0 -51.833 7.5 -67.5 22.5s-23.5 35.167 -23.5 60.5
c0 6 0.333008 12.667 1 20l37 307c4 30.667 15 55 33 73s43 27 75 27c46.667 0 85.667 -15.667 117 -47l13 107h-104c-9.33301 0 -13.333 4 -12 12l3 19c2 9.33301 6.66699 14 14 14h105l9 73c0.666992 9.33301 5.33398 14 14.001 14h35c8 0 11.667 -4.66699 11 -14l-9 -73
h31c10.667 0 15 -4.66699 13 -14l-3 -19c-0.666992 -8 -5.66699 -12 -15 -12h-32l-67 -549c-0.666992 -8.66699 -5.66699 -13 -15 -13h-31c-7.33301 -0 -11 4.33301 -11 13z" />
    <glyph glyph-name="Emacron" unicode="&#x112;" horiz-adv-x="376" 
d="M172 824h176c8.66699 0 12.667 -4.33301 12 -13l-2 -22c-0.666992 -9.33301 -6 -14 -16 -14h-176c-8 0 -11.667 4.66699 -11 14l2 21c0.666992 9.33301 5.66699 14 15 14zM294 0l-251.997 0.000976562c-8 0 -11.667 4.66699 -11 14l80 652
c0.666992 9.33301 5.66699 14 15 14h241c9.33301 0 13.666 -4.33301 12.999 -13l-4 -28c-0.666992 -8 -5.33398 -12 -14.001 -12h-193l-30 -244h180c8.66699 0 12.667 -4.33301 12 -13l-4 -26c-0.666992 -8.66699 -5.33398 -13 -14.001 -13h-180l-35 -278h201
c5.33301 0 8.83301 -0.833008 10.5 -2.5s2.16699 -4.83398 1.5 -9.50098l-2 -28c-0.666992 -8.66699 -5.66699 -13 -15 -13z" />
    <glyph glyph-name="emacron" unicode="&#x113;" horiz-adv-x="367" 
d="M140 649h176c8.66699 0 12.667 -4.66699 12 -14l-2 -21c-0.666992 -9.33301 -5.66699 -14 -15 -14h-177c-8 0 -11.667 4.66699 -11 14l2 21c0.666992 9.33301 5.66699 14 15 14zM333 386l-15.999 -135.001c-0.666992 -8 -5.33398 -12 -14.001 -12h-200l-16 -132
c-0.666992 -5.33301 -1 -10.666 -1 -15.999c0 -33.333 23.667 -50 71 -50c50 0 78 20.667 84 62l5 37c0.666992 9.33301 5.66699 14 15 14h29c9.33301 0 13.333 -4.66699 12 -14l-4 -32c-4.66699 -38 -17.5 -66.833 -38.5 -86.5s-56.167 -29.5 -105.5 -29.5
c-84.667 0 -127 32 -127 96c0 6.66699 0.333008 13.334 1 20.001l33 275c4.66699 39.333 18.167 69 40.5 89s57.833 30 106.5 30c84 0 126 -32 126 -96c0 -6.66699 -0.333008 -13.334 -1 -20.001zM122.001 389.999l-13 -104h154l14 102c0.666992 5.33301 1 10 1 14
c0 34 -24.667 51 -74 51c-48.667 0 -76 -21 -82 -63z" />
    <glyph glyph-name="Ebreve" unicode="&#x114;" horiz-adv-x="376" 
d="M216 869l-3.00098 -25c-0.666992 -5.33301 -1 -12.666 -1 -21.999c0 -26.667 14 -40 42 -40c17.333 0 29.833 5.16699 37.5 15.5s12.5 25.833 14.5 46.5l3 25c0.666992 8 5.33398 12 14.001 12h21c9.33301 0 13.333 -4 12 -12l-3 -22
c-4.66699 -34.667 -14.667 -60.834 -30 -78.501s-39.333 -26.5 -72 -26.5c-56.667 0 -85 26 -85 78c0 8 0.333008 16 1 24l3 25c0.666992 8 5 12 13 12h22c8 0 11.667 -4 11 -12zM293.999 0l-251.997 0.000976562c-8 0 -11.667 4.66699 -11 14l80 652
c0.666992 9.33301 5.66699 14 15 14h241c9.33301 0 13.666 -4.33301 12.999 -13l-4 -28c-0.666992 -8 -5.33398 -12 -14.001 -12h-193l-30 -244h180c8.66699 0 12.667 -4.33301 12 -13l-4 -26c-0.666992 -8.66699 -5.33398 -13 -14.001 -13h-180l-35 -278h201
c5.33301 0 8.83301 -0.833008 10.5 -2.5s2.16699 -4.83398 1.5 -9.50098l-2 -28c-0.666992 -8.66699 -5.66699 -13 -15 -13z" />
    <glyph glyph-name="ebreve" unicode="&#x115;" horiz-adv-x="367" 
d="M184 683l-3.00098 -25c-0.666992 -5.33301 -1 -12.666 -1 -21.999c0 -26.667 14 -40 42 -40c17.333 0 29.833 5.16699 37.5 15.5s12.5 25.833 14.5 46.5l3 25c0.666992 8 5.33398 12 14.001 12h21c9.33301 0 13.333 -4 12 -12l-3 -22
c-4.66699 -34.667 -14.667 -60.834 -30 -78.501s-39.333 -26.5 -72 -26.5c-56.667 0 -85 26 -85 78c0 8 0.333008 16 1 24l3 25c0.666992 8 5 12 13 12h22c8 0 11.667 -4 11 -12zM332.999 386l-15.999 -135.001c-0.666992 -8 -5.33398 -12 -14.001 -12h-200l-16 -132
c-0.666992 -5.33301 -1 -10.666 -1 -15.999c0 -33.333 23.667 -50 71 -50c50 0 78 20.667 84 62l5 37c0.666992 9.33301 5.66699 14 15 14h29c9.33301 0 13.333 -4.66699 12 -14l-4 -32c-4.66699 -38 -17.5 -66.833 -38.5 -86.5s-56.167 -29.5 -105.5 -29.5
c-84.667 0 -127 32 -127 96c0 6.66699 0.333008 13.334 1 20.001l33 275c4.66699 39.333 18.167 69 40.5 89s57.833 30 106.5 30c84 0 126 -32 126 -96c0 -6.66699 -0.333008 -13.334 -1 -20.001zM122 389.999l-13 -104h154l14 102c0.666992 5.33301 1 10 1 14
c0 34 -24.667 51 -74 51c-48.667 0 -76 -21 -82 -63z" />
    <glyph glyph-name="Edotaccent" unicode="&#x116;" horiz-adv-x="376" 
d="M295 839l-8.99707 -78c-0.666992 -8.66699 -5.33398 -13 -14.001 -13h-36c-4.66699 0 -7.83398 0.833008 -9.50098 2.5s-2.16699 5.16699 -1.5 10.5l9 78c1.33301 8.66699 6 13 14 13h37c7.33301 0 10.666 -4.33301 9.99902 -13zM294.003 0l-251.997 0.000976562
c-8 0 -11.667 4.66699 -11 14l80 652c0.666992 9.33301 5.66699 14 15 14h241c9.33301 0 13.666 -4.33301 12.999 -13l-4 -28c-0.666992 -8 -5.33398 -12 -14.001 -12h-193l-30 -244h180c8.66699 0 12.667 -4.33301 12 -13l-4 -26
c-0.666992 -8.66699 -5.33398 -13 -14.001 -13h-180l-35 -278h201c5.33301 0 8.83301 -0.833008 10.5 -2.5s2.16699 -4.83398 1.5 -9.50098l-2 -28c-0.666992 -8.66699 -5.66699 -13 -15 -13z" />
    <glyph glyph-name="edotaccent" unicode="&#x117;" horiz-adv-x="367" 
d="M259 675l-9 -77c-0.666992 -9.33301 -5.66699 -14 -15 -14h-35c-8.66699 0 -12.667 4.66699 -12 14l9 77c0.666992 9.33301 5.66699 14 15 14h36c8 0 11.667 -4.66699 11 -14zM333 386l-15.999 -135.001c-0.666992 -8 -5.33398 -12 -14.001 -12h-200l-16 -132
c-0.666992 -5.33301 -1 -10.666 -1 -15.999c0 -33.333 23.667 -50 71 -50c50 0 78 20.667 84 62l5 37c0.666992 9.33301 5.66699 14 15 14h29c9.33301 0 13.333 -4.66699 12 -14l-4 -32c-4.66699 -38 -17.5 -66.833 -38.5 -86.5s-56.167 -29.5 -105.5 -29.5
c-84.667 0 -127 32 -127 96c0 6.66699 0.333008 13.334 1 20.001l33 275c4.66699 39.333 18.167 69 40.5 89s57.833 30 106.5 30c84 0 126 -32 126 -96c0 -6.66699 -0.333008 -13.334 -1 -20.001zM122.001 389.999l-13 -104h154l14 102c0.666992 5.33301 1 10 1 14
c0 34 -24.667 51 -74 51c-48.667 0 -76 -21 -82 -63z" />
    <glyph glyph-name="Eogonek" unicode="&#x118;" horiz-adv-x="376" 
d="M294 0l-17 0.000976562c-18 0 -31.667 -8.66699 -41 -26s-14 -33.333 -14 -48c0 -23.333 12.667 -35 38 -35h13c8.66699 0 12.667 -4.33301 12 -13l-2 -16c-0.666992 -9.33301 -5.66699 -14 -15 -14h-22c-20 0 -36.667 5.5 -50 16.5s-20 26.833 -20 47.5
c0 36 12.333 65.333 37 88h-171c-8 0 -11.667 4.66699 -11 14l80 652c0.666992 9.33301 5.66699 14 15 14h242c8.66699 0 12.667 -4.33301 12 -13l-3 -28c-0.666992 -8 -5.66699 -12 -15 -12h-193l-30 -244h180c8.66699 0 12.667 -4.33301 12 -13l-4 -26
c-0.666992 -8.66699 -5.33398 -13 -14.001 -13h-180l-35 -278h202c4.66699 0 7.83398 -0.833008 9.50098 -2.5s2.16699 -4.83398 1.5 -9.50098l-2 -28c-0.666992 -8.66699 -5.66699 -13 -15 -13z" />
    <glyph glyph-name="eogonek" unicode="&#x119;" horiz-adv-x="367" 
d="M333 386l-15 -135.004c-1.33301 -8 -6.33301 -12 -15 -12h-200l-16 -132c-0.666992 -5.33301 -1 -10.666 -1 -15.999c0 -33.333 24 -50 72 -50c49.333 0 77 20.667 83 62l5 37c0.666992 9.33301 5.66699 14 15 14h29c9.33301 0 13.333 -4.66699 12 -14l-3 -32
c-4 -40 -20 -70.667 -48 -92c-13.333 -10 -24.5 -22.833 -33.5 -38.5s-13.5 -31.167 -13.5 -46.5c0 -26.667 14 -40 42 -40h13c8.66699 0 12.667 -4.33301 12 -13l-2 -16c-0.666992 -9.33301 -5.66699 -14 -15 -14h-23c-21.333 0 -38.833 5.83301 -52.5 17.5
s-20.5 28.834 -20.5 51.501c0 26.667 8.33301 52.334 25 77.001c-10.667 -1.33301 -20.334 -2 -29.001 -2c-84.667 0 -127 32 -127 96c0 6.66699 0.333008 13.334 1 20.001l33 277c4 38 17.333 67 40 87s58.334 30 107.001 30c84 0 126 -32 126 -96
c0 -7.33301 -0.333008 -14 -1 -20zM122 389.996l-13 -104h155l13 102c0.666992 5.33301 1 10 1 14c0 34 -24 51 -72 51c-50 0 -78 -21 -84 -63z" />
    <glyph glyph-name="Ecaron" unicode="&#x11a;" horiz-adv-x="376" 
d="M229 865l28 -81l47 81c4 8.66699 10.333 13 19 13h24c8.66699 0 10.667 -4.33301 6 -13l-72 -116c-4.66699 -6.66699 -11 -10 -19 -10h-21c-8 0 -13.333 3.33301 -16 10l-44 116c-4 8.66699 -1 13 9 13h25c6 0 10.667 -4.33301 14 -13zM294 0l-251.997 0.000976562
c-8 0 -11.667 4.66699 -11 14l80 652c0.666992 9.33301 5.66699 14 15 14h241c9.33301 0 13.666 -4.33301 12.999 -13l-4 -28c-0.666992 -8 -5.33398 -12 -14.001 -12h-193l-30 -244h180c8.66699 0 12.667 -4.33301 12 -13l-4 -26
c-0.666992 -8.66699 -5.33398 -13 -14.001 -13h-180l-35 -278h201c5.33301 0 8.83301 -0.833008 10.5 -2.5s2.16699 -4.83398 1.5 -9.50098l-2 -28c-0.666992 -8.66699 -5.66699 -13 -15 -13z" />
    <glyph glyph-name="ecaron" unicode="&#x11b;" horiz-adv-x="367" 
d="M194 695l27.002 -81l48 81c5.33301 8.66699 11.666 13 18.999 13h25c7.33301 0 8.66602 -4.33301 3.99902 -13l-71 -116c-4 -6.66699 -10.667 -10 -20 -10h-20c-8 0 -13.333 3.33301 -16 10l-44 116c-4 8.66699 -1 13 9 13h25c6 0 10.667 -4.33301 14 -13zM333.002 386
l-15.999 -135.001c-0.666992 -8 -5.33398 -12 -14.001 -12h-200l-16 -132c-0.666992 -5.33301 -1 -10.666 -1 -15.999c0 -33.333 23.667 -50 71 -50c50 0 78 20.667 84 62l5 37c0.666992 9.33301 5.66699 14 15 14h29c9.33301 0 13.333 -4.66699 12 -14l-4 -32
c-4.66699 -38 -17.5 -66.833 -38.5 -86.5s-56.167 -29.5 -105.5 -29.5c-84.667 0 -127 32 -127 96c0 6.66699 0.333008 13.334 1 20.001l33 275c4.66699 39.333 18.167 69 40.5 89s57.833 30 106.5 30c84 0 126 -32 126 -96c0 -6.66699 -0.333008 -13.334 -1 -20.001z
M122.003 389.999l-13 -104h154l14 102c0.666992 5.33301 1 10 1 14c0 34 -24.667 51 -74 51c-48.667 0 -76 -21 -82 -63z" />
    <glyph glyph-name="Gcircumflex" unicode="&#x11c;" horiz-adv-x="418" 
d="M276 834l-46.999 -83c-4.66699 -8 -10.667 -12 -18 -12h-25c-8.66699 0 -10.667 4.33301 -6 13l71 115c4 7.33301 10.667 11 20 11h21c8 0 13.333 -3.33301 16 -10l44 -116c4 -8.66699 1 -13 -9 -13h-23c-8.66699 0 -14.334 4 -17.001 12zM227.001 323h130.002
c8.66699 0 12.667 -4.33301 12 -13l-23 -187c-5.33301 -40.667 -20.333 -72.667 -45 -96s-65.334 -35 -122.001 -35c-96 0 -144 36.333 -144 109c0 8 0.333008 15.667 1 23l54 433c5.33301 40.667 20.166 72.667 44.499 96s64.833 35 121.5 35c96 0 144 -36.333 144 -109
c0 -8 -0.333008 -15.667 -1 -23l-6 -60c-0.666992 -9.33301 -6 -14 -16 -14h-34c-9.33301 0 -13.333 4.66699 -12 14l7 58c0.666992 7.33301 1 13.333 1 18c0 42 -29 63 -87 63c-60.667 0 -94.334 -26.333 -101.001 -79l-52 -429c-0.666992 -5.33301 -1 -12 -1 -20
c0 -41.333 28.667 -62 86 -62c60.667 0 94.334 26 101.001 78l18 147h-83c-8 0 -11.667 4.33301 -11 13l3 27c0.666992 8.66699 5.66699 13 15 13z" />
    <glyph glyph-name="gcircumflex" unicode="&#x11d;" horiz-adv-x="387" 
d="M235 664l-46.001 -83c-4.66699 -8 -11 -12 -19 -12h-25c-9.33301 0 -11 4.33301 -5 13l71 115c4.66699 7.33301 11.334 11 20.001 11h21c7.33301 0 12.333 -3.33301 15 -10l45 -116c4 -8.66699 0.666992 -13 -10 -13h-23c-7.33301 0 -12.333 4 -15 12zM116.999 -8
c-29.333 0 -51.834 7.49902 -67.501 22.499s-23.5 35.167 -23.5 60.5c0 5.33301 0.333008 11.333 1 18l37 309c4 30.667 15 55 33 73s43 27 75 27c42.667 0 82.334 -16.333 119.001 -49l4 27c0.666992 9.33301 5.66699 14 15 14h31c9.33301 0 13.333 -4.66699 12 -14
l-69 -563c-9.33301 -74 -60 -111 -152 -111h-98c-8.66699 0 -12.667 4.33301 -12 13l3 26c1.33301 9.33301 6.66602 14 15.999 14h95c29.333 0 50.5 5.33301 63.5 16s20.833 26.334 23.5 47.001l15 116c-39.333 -30.667 -79.666 -46 -120.999 -46zM122.998 388.999l-34 -281
c-0.666992 -5.33301 -1 -10 -1 -14c0 -31.333 18 -47 54 -47s70 14 102 42l39 316c-28 28 -60 42 -96 42c-38 0 -59.333 -19.333 -64 -58z" />
    <glyph glyph-name="Gbreve" unicode="&#x11e;" horiz-adv-x="418" 
d="M229 869l-3.00098 -25c-0.666992 -5.33301 -1 -12.666 -1 -21.999c0 -26.667 14 -40 42 -40c17.333 0 29.833 5.16699 37.5 15.5s12.5 25.833 14.5 46.5l3 25c0.666992 8 5.33398 12 14.001 12h21c8.66699 0 12.667 -4 12 -12l-3 -22
c-4.66699 -34.667 -14.667 -60.834 -30 -78.501s-39.333 -26.5 -72 -26.5c-56.667 0 -85 26 -85 78c0 8 0.333008 16 1 24l3 25c0.666992 8 5 12 13 12h22c8 0 11.667 -4 11 -12zM226.999 323h130.002c8.66699 0 12.667 -4.33301 12 -13l-23 -187
c-5.33301 -40.667 -20.333 -72.667 -45 -96s-65.334 -35 -122.001 -35c-96 0 -144 36.333 -144 109c0 8 0.333008 15.667 1 23l54 433c5.33301 40.667 20.166 72.667 44.499 96s64.833 35 121.5 35c96 0 144 -36.333 144 -109c0 -8 -0.333008 -15.667 -1 -23l-6 -60
c-0.666992 -9.33301 -6 -14 -16 -14h-34c-9.33301 0 -13.333 4.66699 -12 14l7 58c0.666992 7.33301 1 13.333 1 18c0 42 -29 63 -87 63c-60.667 0 -94.334 -26.333 -101.001 -79l-52 -429c-0.666992 -5.33301 -1 -12 -1 -20c0 -41.333 28.667 -62 86 -62
c60.667 0 94.334 26 101.001 78l18 147h-83c-8 0 -11.667 4.33301 -11 13l3 27c0.666992 8.66699 5.66699 13 15 13z" />
    <glyph glyph-name="gbreve" unicode="&#x11f;" horiz-adv-x="387" 
d="M189 683l-3.00098 -25c-0.666992 -5.33301 -1 -12.666 -1 -21.999c0 -26.667 14 -40 42 -40c17.333 0 29.833 5.16699 37.5 15.5s12.5 25.833 14.5 46.5l3 25c0.666992 8 5.33398 12 14.001 12h21c8.66699 0 12.667 -4 12 -12l-3 -22
c-4.66699 -34.667 -14.667 -60.834 -30 -78.501s-39.333 -26.5 -72 -26.5c-56.667 0 -85 26 -85 78c0 8 0.333008 16 1 24l3 25c0.666992 8 5 12 13 12h22c8 0 11.667 -4 11 -12zM116.999 -8c-29.333 0 -51.834 7.49902 -67.501 22.499s-23.5 35.167 -23.5 60.5
c0 5.33301 0.333008 11.333 1 18l37 309c4 30.667 15 55 33 73s43 27 75 27c42.667 0 82.334 -16.333 119.001 -49l4 27c0.666992 9.33301 5.66699 14 15 14h31c9.33301 0 13.333 -4.66699 12 -14l-69 -563c-9.33301 -74 -60 -111 -152 -111h-98
c-8.66699 0 -12.667 4.33301 -12 13l3 26c1.33301 9.33301 6.66602 14 15.999 14h95c29.333 0 50.5 5.33301 63.5 16s20.833 26.334 23.5 47.001l15 116c-39.333 -30.667 -79.666 -46 -120.999 -46zM122.998 388.999l-34 -281c-0.666992 -5.33301 -1 -10 -1 -14
c0 -31.333 18 -47 54 -47s70 14 102 42l39 316c-28 28 -60 42 -96 42c-38 0 -59.333 -19.333 -64 -58z" />
    <glyph glyph-name="Gdotaccent" unicode="&#x120;" horiz-adv-x="418" 
d="M303 837l-8.99707 -78c-0.666992 -8.66699 -5.33398 -13 -14.001 -13h-36c-4.66699 0 -7.83398 0.833008 -9.50098 2.5s-2.16699 5.16699 -1.5 10.5l9 78c1.33301 8.66699 6 13 14 13h37c7.33301 0 10.666 -4.33301 9.99902 -13zM227.003 323h130.002
c8.66699 0 12.667 -4.33301 12 -13l-23 -187c-5.33301 -40.667 -20.333 -72.667 -45 -96s-65.334 -35 -122.001 -35c-96 0 -144 36.333 -144 109c0 8 0.333008 15.667 1 23l54 433c5.33301 40.667 20.166 72.667 44.499 96s64.833 35 121.5 35c96 0 144 -36.333 144 -109
c0 -8 -0.333008 -15.667 -1 -23l-6 -60c-0.666992 -9.33301 -6 -14 -16 -14h-34c-9.33301 0 -13.333 4.66699 -12 14l7 58c0.666992 7.33301 1 13.333 1 18c0 42 -29 63 -87 63c-60.667 0 -94.334 -26.333 -101.001 -79l-52 -429c-0.666992 -5.33301 -1 -12 -1 -20
c0 -41.333 28.667 -62 86 -62c60.667 0 94.334 26 101.001 78l18 147h-83c-8 0 -11.667 4.33301 -11 13l3 27c0.666992 8.66699 5.66699 13 15 13z" />
    <glyph glyph-name="gdotaccent" unicode="&#x121;" horiz-adv-x="387" 
d="M264 675l-9 -77c-0.666992 -9.33301 -5.66699 -14 -15 -14h-35c-8.66699 0 -12.667 4.66699 -12 14l9 77c0.666992 9.33301 5.66699 14 15 14h36c8 0 11.667 -4.66699 11 -14zM117 -8c-29.333 0 -51.834 7.49902 -67.501 22.499s-23.5 35.167 -23.5 60.5
c0 5.33301 0.333008 11.333 1 18l37 309c4 30.667 15 55 33 73s43 27 75 27c42.667 0 82.334 -16.333 119.001 -49l4 27c0.666992 9.33301 5.66699 14 15 14h31c9.33301 0 13.333 -4.66699 12 -14l-69 -563c-9.33301 -74 -60 -111 -152 -111h-98
c-8.66699 0 -12.667 4.33301 -12 13l3 26c1.33301 9.33301 6.66602 14 15.999 14h95c29.333 0 50.5 5.33301 63.5 16s20.833 26.334 23.5 47.001l15 116c-39.333 -30.667 -79.666 -46 -120.999 -46zM122.999 388.999l-34 -281c-0.666992 -5.33301 -1 -10 -1 -14
c0 -31.333 18 -47 54 -47s70 14 102 42l39 316c-28 28 -60 42 -96 42c-38 0 -59.333 -19.333 -64 -58z" />
    <glyph glyph-name="Gcommaaccent" unicode="&#x122;" horiz-adv-x="418" 
d="M227 323h130.002c8.66699 0 12.667 -4.33301 12 -13l-23 -187c-5.33301 -40.667 -20.333 -72.667 -45 -96s-65.334 -35 -122.001 -35c-96 0 -144 36.333 -144 109c0 8 0.333008 15.667 1 23l54 433c5.33301 40.667 20.166 72.667 44.499 96s64.833 35 121.5 35
c96 0 144 -36.333 144 -109c0 -8 -0.333008 -15.667 -1 -23l-6 -60c-0.666992 -9.33301 -6 -14 -16 -14h-34c-9.33301 0 -13.333 4.66699 -12 14l7 58c0.666992 7.33301 1 13.333 1 18c0 42 -29 63 -87 63c-60.667 0 -94.334 -26.333 -101.001 -79l-52 -429
c-0.666992 -5.33301 -1 -12 -1 -20c0 -41.333 28.667 -62 86 -62c60.667 0 94.334 26 101.001 78l18 147h-83c-8 0 -11.667 4.33301 -11 13l3 27c0.666992 8.66699 5.66699 13 15 13zM144.002 -97l5.00195 35.001c0.666992 8 5 12 13 12h29c7.33301 0 10.666 -4 9.99902 -12
l-4 -38c-4 -40.667 -23 -78 -57 -112c-6 -6.66699 -11.667 -7.33398 -17 -2.00098l-14 13c-4.66699 3.33301 -4.33398 9 0.999023 17c18.667 28.667 30 57.667 34 87z" />
    <glyph glyph-name="gcommaaccent" unicode="&#x123;" horiz-adv-x="387" 
d="M254 620l-5.00195 -35.001c-0.666992 -8 -5 -12 -13 -12h-29c-7.33301 0 -10.666 4 -9.99902 12l4 38c4 40.667 23 78 57 112c6 6.66699 11.667 7.33398 17 2.00098l14 -13c4.66699 -3.33301 4.33398 -9 -0.999023 -17c-18.667 -28.667 -30 -57.667 -34 -87z
M116.998 -8.00098c-29.333 0 -51.834 7.49902 -67.501 22.499s-23.5 35.167 -23.5 60.5c0 5.33301 0.333008 11.333 1 18l37 309c4 30.667 15 55 33 73s43 27 75 27c42.667 0 82.334 -16.333 119.001 -49l4 27c0.666992 9.33301 5.66699 14 15 14h31
c9.33301 0 13.333 -4.66699 12 -14l-69 -563c-9.33301 -74 -60 -111 -152 -111h-98c-8.66699 0 -12.667 4.33301 -12 13l3 26c1.33301 9.33301 6.66602 14 15.999 14h95c29.333 0 50.5 5.33301 63.5 16s20.833 26.334 23.5 47.001l15 116
c-39.333 -30.667 -79.666 -46 -120.999 -46zM122.997 388.998l-34 -281c-0.666992 -5.33301 -1 -10 -1 -14c0 -31.333 18 -47 54 -47s70 14 102 42l39 316c-28 28 -60 42 -96 42c-38 0 -59.333 -19.333 -64 -58z" />
    <glyph glyph-name="Hcircumflex" unicode="&#x124;" horiz-adv-x="448" 
d="M288 834l-46.999 -83c-4.66699 -8 -10.667 -12 -18 -12h-25c-8.66699 0 -10.667 4.33301 -6 13l71 115c4 7.33301 10.667 11 20 11h21c8 0 13.333 -3.33301 16 -10l44 -116c4 -8.66699 1 -13 -9 -13h-23c-8.66699 0 -14.334 4 -17.001 12zM174.001 666l-34 -278h192
l34 278c0.666992 9.33301 5.66699 14 15 14h36c8.66699 0 12.667 -4.66699 12 -14l-80 -652c-0.666992 -9.33301 -5.66699 -14 -15 -14h-36c-9.33301 0 -13.333 4.66699 -12 14l39 320h-192l-39 -320c-1.33301 -9.33301 -6 -14 -14 -14h-37
c-8.66699 0 -12.667 4.66699 -12 14l80 652c0.666992 9.33301 5.66699 14 15 14h37c8 0 11.667 -4.66699 11 -14z" />
    <glyph glyph-name="hcircumflex" unicode="&#x125;" horiz-adv-x="390" 
d="M151 834l-46.999 -83c-4.66699 -8 -10.667 -12 -18 -12h-25c-8.66699 0 -10.667 4.33301 -6 13l71 115c4 7.33301 10.667 11 20 11h21c8 0 13.333 -3.33301 16 -10l44 -116c4 -8.66699 1 -13 -9 -13h-23c-8.66699 0 -14.334 4 -17.001 12zM165.001 680l-27.999 -224
c37.333 30.667 77.666 46 120.999 46c29.333 0 52 -7.66699 68 -23s24 -35.333 24 -60c0 -4.66699 -0.333008 -9.66699 -1 -15l-47 -390c-0.666992 -9.33301 -6 -14 -16 -14h-34c-8 0 -11.667 4.66699 -11 14l45 372c0.666992 6.66699 1 11.667 1 15c0 30.667 -18 46 -54 46
c-33.333 0 -67.333 -14 -102 -42l-48 -391c-0.666992 -9.33301 -5.66699 -14 -15 -14h-35c-8 0 -11.667 4.66699 -11 14l82 666c0.666992 9.33301 5.66699 14 15 14h35c8 0 11.667 -4.66699 11 -14z" />
    <glyph glyph-name="Hbar" unicode="&#x126;" horiz-adv-x="450" 
d="M142 388h192l13 110h-192zM96 14c-1.33301 -9.33301 -5.99902 -14 -13.999 -14h-37c-8.66699 0 -12.667 4.66699 -12 14l59 484h-23c-8.66699 0 -12.667 4.33301 -12 13l2 19c0.666992 8.66699 5.66699 13 15 13h24l15 123c0.666992 9.33301 5.66699 14 15 14h37
c8 0 11.667 -4.66699 11 -14l-15 -123h192l15 123c0.666992 9.33301 5.66699 14 15 14h36c8.66699 0 12.667 -4.66699 12 -14l-15 -123h23c8.66699 0 12.667 -4.33301 12 -13l-2 -19c-0.666992 -8.66699 -5.33398 -13 -14.001 -13h-25l-59 -484
c-0.666992 -9.33301 -5.66699 -14 -15 -14h-36c-9.33301 0 -13.333 4.66699 -12 14l39 320h-192z" />
    <glyph glyph-name="hbar" unicode="&#x127;" horiz-adv-x="391" 
d="M83 14c-0.666992 -9.33301 -5.66602 -14 -14.999 -14h-35c-8 0 -11.667 4.66699 -11 14l67 548h-36c-8.66699 0 -12.667 4.33301 -12 13l2 18c0.666992 9.33301 5.33398 14 14.001 14h38l9 73c0.666992 9.33301 5.66699 14 15 14h35c8 0 11.667 -4.66699 11 -14l-9 -73
h98c10 0 14 -4.66699 12 -14l-3 -18c-0.666992 -8.66699 -5.33398 -13 -14.001 -13h-99l-13 -106c37.333 30.667 77.666 46 120.999 46c29.333 0 52 -7.66699 68 -23s24 -35.333 24 -60c0 -4.66699 -0.333008 -9.66699 -1 -15l-47 -390c-0.666992 -9.33301 -6 -14 -16 -14
h-34c-8 0 -11.667 4.66699 -11 14l45 372c0.666992 6.66699 1 11.667 1 15c0 30.667 -18 46 -54 46c-33.333 0 -67.333 -14 -102 -42z" />
    <glyph glyph-name="Itilde" unicode="&#x128;" horiz-adv-x="193" 
d="M113 809c-12.667 0 -20 -10.667 -22 -32l-1 -12c-0.666992 -8.66699 -6 -13 -16 -13h-16c-8 0 -11.333 5 -10 15l4 22c8.66699 44 28.667 66 60 66c16 0 30 -6 42 -18l26 -25c10 -8.66699 18.333 -13 25 -13s11.5 2.16699 14.5 6.5s5.16699 13.5 6.5 27.5l1 10
c0.666992 8 6 12 16 12h15c8 0 11.333 -5 10 -15l-3 -21c-6.66699 -43.333 -27 -65 -61 -65c-15.333 0 -29.333 6 -42 18l-25 22c-11.333 10 -19.333 15 -24 15zM174 666l-79.999 -652c-0.666992 -9.33301 -5.33398 -14 -14.001 -14h-37c-8.66699 0 -12.667 4.66699 -12 14
l80 652c0.666992 9.33301 5.66699 14 15 14h37c8 0 11.667 -4.66699 11 -14z" />
    <glyph glyph-name="itilde" unicode="&#x129;" horiz-adv-x="173" 
d="M79 633c-6 0 -10.501 -2.16699 -13.501 -6.5s-5.5 -12.5 -7.5 -24.5l-2 -12c-1.33301 -8.66699 -6.66602 -13 -15.999 -13h-15c-9.33301 0 -13 5 -11 15l4 22c8.66699 44 28.667 66 60 66c13.333 0 27.333 -6.33301 42 -19l26 -24
c9.33301 -9.33301 17.666 -14 24.999 -14c6.66699 0 11.5 2.33301 14.5 7s5.16699 14 6.5 28l1 10c0.666992 8 6 12 16 12h15c9.33301 0 13 -5 11 -15l-4 -21c-8 -43.333 -28 -65 -60 -65c-16 0 -30.333 6 -43 18l-24 22c-9.33301 9.33301 -17.666 14 -24.999 14z
M139.999 480l-57 -466c-0.666992 -9.33301 -5.66699 -14 -15 -14h-35c-8 0 -11.667 4.66699 -11 14l57 466c1.33301 9.33301 6.33301 14 15 14h34c9.33301 0 13.333 -4.66699 12 -14z" />
    <glyph glyph-name="Imacron" unicode="&#x12a;" horiz-adv-x="193" 
d="M74 824h176c8.66699 0 12.667 -4.33301 12 -13l-2 -22c-0.666992 -9.33301 -6 -14 -16 -14h-176c-8 0 -11.667 4.66699 -11 14l2 21c0.666992 9.33301 5.66699 14 15 14zM174 666l-79.999 -652c-0.666992 -9.33301 -5.33398 -14 -14.001 -14h-37
c-8.66699 0 -12.667 4.66699 -12 14l80 652c0.666992 9.33301 5.66699 14 15 14h37c8 0 11.667 -4.66699 11 -14z" />
    <glyph glyph-name="imacron" unicode="&#x12b;" horiz-adv-x="173" 
d="M43 649h176c8.66699 0 12.667 -4.66699 12 -14l-2 -21c-0.666992 -9.33301 -5.66699 -14 -15 -14h-177c-8 0 -11.667 4.66699 -11 14l2 21c0.666992 9.33301 5.66699 14 15 14zM140 480l-57 -466c-0.666992 -9.33301 -5.66699 -14 -15 -14h-35
c-8 0 -11.667 4.66699 -11 14l57 466c1.33301 9.33301 6.33301 14 15 14h34c9.33301 0 13.333 -4.66699 12 -14z" />
    <glyph glyph-name="Ibreve" unicode="&#x12c;" horiz-adv-x="193" 
d="M118 869l-3.00098 -25c-0.666992 -5.33301 -1 -12.666 -1 -21.999c0 -26.667 14 -40 42 -40c17.333 0 29.833 5.16699 37.5 15.5s12.5 25.833 14.5 46.5l3 25c0.666992 8 5.33398 12 14.001 12h21c9.33301 0 13.333 -4 12 -12l-3 -22
c-4.66699 -34.667 -14.667 -60.834 -30 -78.501s-39.333 -26.5 -72 -26.5c-56.667 0 -85 26 -85 78c0 8 0.333008 16 1 24l3 25c0.666992 8 5 12 13 12h22c8 0 11.667 -4 11 -12zM173.999 666l-79.999 -652c-0.666992 -9.33301 -5.33398 -14 -14.001 -14h-37
c-8.66699 0 -12.667 4.66699 -12 14l80 652c0.666992 9.33301 5.66699 14 15 14h37c8 0 11.667 -4.66699 11 -14z" />
    <glyph glyph-name="ibreve" unicode="&#x12d;" horiz-adv-x="173" 
d="M87 683l-3.00098 -25c-0.666992 -5.33301 -1 -12.666 -1 -21.999c0 -26.667 14 -40 42 -40c17.333 0 29.833 5.16699 37.5 15.5s12.5 25.833 14.5 46.5l3 25c0.666992 8 5.33398 12 14.001 12h21c8.66699 0 12.667 -4 12 -12l-3 -22
c-4.66699 -34.667 -14.667 -60.834 -30 -78.501s-39.333 -26.5 -72 -26.5c-56.667 0 -85 26 -85 78c0 8 0.333008 16 1 24l3 25c0.666992 8 5 12 13 12h22c8 0 11.667 -4 11 -12zM139.999 480l-57 -466c-0.666992 -9.33301 -5.66699 -14 -15 -14h-35
c-8 0 -11.667 4.66699 -11 14l57 466c1.33301 9.33301 6.33301 14 15 14h34c9.33301 0 13.333 -4.66699 12 -14z" />
    <glyph glyph-name="Iogonek" unicode="&#x12e;" horiz-adv-x="194" 
d="M174 666l-80 -651.998c-0.666992 -9.33301 -5.33398 -14 -14.001 -14h-10c-18 -4.66699 -31.5 -14.834 -40.5 -30.501s-13.5 -30.5 -13.5 -44.5c0 -22.667 12.333 -34 37 -34h11c8.66699 0 12.667 -4.33301 12 -13l-1 -16c-0.666992 -9.33301 -6 -14 -16 -14h-20
c-20 0 -36.667 5.33301 -50 16s-20 26.667 -20 48c0 41.333 21 77.666 63 108.999l80 645c0.666992 9.33301 5.33398 14 14.001 14h37c8 0 11.667 -4.66699 11 -14z" />
    <glyph glyph-name="iogonek" unicode="&#x12f;" horiz-adv-x="175" 
d="M167 680l-12 -93c-0.666992 -9.33301 -5.66699 -14 -15 -14h-35c-8 0 -11.667 4.66699 -11 14l12 93c0.666992 9.33301 5.66699 14 15 14h35c8 0 11.667 -4.66699 11 -14zM142 480l-56.999 -465.998c-0.666992 -9.33301 -5.33398 -14 -14.001 -14h-7
c-18 -6.66699 -31.5 -17.834 -40.5 -33.501s-13.5 -30.834 -13.5 -45.501c0 -20 12.333 -30 37 -30h12c8 0 11.667 -4.33301 11 -13l-1 -16c-0.666992 -9.33301 -6 -14 -16 -14h-19c-20 0 -36.833 5.16699 -50.5 15.5s-20.5 25.5 -20.5 45.5c0 38 20.667 75 62 111l56 460
c0.666992 9.33301 5.66699 14 15 14h35c8 0 11.667 -4.66699 11 -14z" />
    <glyph glyph-name="Idotaccent" unicode="&#x130;" horiz-adv-x="193" 
d="M195 839l-8.99707 -78c-0.666992 -8.66699 -5.33398 -13 -14.001 -13h-36c-4.66699 0 -7.83398 0.833008 -9.50098 2.5s-2.16699 5.16699 -1.5 10.5l9 78c1.33301 8.66699 6 13 14 13h37c7.33301 0 10.666 -4.33301 9.99902 -13zM174.003 666l-79.999 -652
c-0.666992 -9.33301 -5.33398 -14 -14.001 -14h-37c-8.66699 0 -12.667 4.66699 -12 14l80 652c0.666992 9.33301 5.66699 14 15 14h37c8 0 11.667 -4.66699 11 -14z" />
    <glyph glyph-name="dotlessi" unicode="&#x131;" horiz-adv-x="174" 
d="M140 480l-57 -466c-0.666992 -9.33301 -5.66699 -14 -15 -14h-35c-8 0 -11.667 4.66699 -11 14l57 466c1.33301 9.33301 6.33301 14 15 14h34c9.33301 0 13.333 -4.66699 12 -14z" />
    <glyph glyph-name="IJ" unicode="&#x132;" horiz-adv-x="560" 
d="M174 666l-79.999 -652c-0.666992 -9.33301 -5.33398 -14 -14.001 -14h-37c-8.66699 0 -12.667 4.66699 -12 14l80 652c0.666992 9.33301 5.66699 14 15 14h37c8 0 11.667 -4.66699 11 -14zM260.001 179l-7.00293 -53.999c-0.666992 -5.33301 -1 -12.333 -1 -21
c0 -39.333 24.667 -59 74 -59c29.333 0 50.5 6.66699 63.5 20s21.167 32.666 24.5 57.999l67 543c0.666992 9.33301 5.33398 14 14.001 14h37c8.66699 0 12.334 -4.66699 11.001 -14l-66 -543c-5.33301 -41.333 -19.166 -73.5 -41.499 -96.5s-59.833 -34.5 -112.5 -34.5
c-46 0 -79.667 9.66699 -101 29s-32 45.333 -32 78c0 5.33301 0.666992 14 2 26l7 54c0.666992 9.33301 5.66699 14 15 14h35c8 0 11.667 -4.66699 11 -14z" />
    <glyph glyph-name="ij" unicode="&#x133;" horiz-adv-x="342" 
d="M335 680l-13 -93c-0.666992 -9.33301 -5.33398 -14 -14.001 -14h-35c-8 0 -11.667 4.66699 -11 14l12 93c0.666992 9.33301 5.33398 14 14.001 14h35c8.66699 0 12.667 -4.66699 12 -14zM165 680l-11.999 -93c-0.666992 -9.33301 -5.33398 -14 -14.001 -14h-35
c-8.66699 0 -12.667 4.66699 -12 14l12 93c0.666992 9.33301 5.66699 14 15 14h35c8 0 11.667 -4.66699 11 -14zM309.001 480l-69 -563c-9.33301 -74 -59.333 -111 -150 -111h-5c-8.66699 0 -12.667 4.33301 -12 13l3 26c1.33301 9.33301 6.33301 14 15 14h4
c51.333 0 79.666 20.333 84.999 61l68 560c1.33301 9.33301 6.33301 14 15 14h35c8.66699 0 12.334 -4.66699 11.001 -14zM140.001 480l-57 -466c-0.666992 -9.33301 -5.66699 -14 -15 -14h-35c-8 0 -11.667 4.66699 -11 14l57 466c1.33301 9.33301 6.33301 14 15 14h34
c9.33301 0 13.333 -4.66699 12 -14z" />
    <glyph glyph-name="Jcircumflex" unicode="&#x134;" horiz-adv-x="368" 
d="M336 834l-46.999 -83c-4.66699 -8 -10.667 -12 -18 -12h-25c-8.66699 0 -10.667 4.33301 -6 13l71 115c4 7.33301 10.667 11 20 11h21c8 0 13.333 -3.33301 16 -10l44 -116c4 -8.66699 1 -13 -9 -13h-23c-8.66699 0 -14.334 4 -17.001 12zM67.001 179l-7.00293 -53.999
c-0.666992 -5.33301 -1 -12.333 -1 -21c0 -39.333 24.667 -59 74 -59c29.333 0 50.5 6.66699 63.5 20s21.167 32.666 24.5 57.999l67 543c0.666992 9.33301 5.33398 14 14.001 14h37c8.66699 0 12.334 -4.66699 11.001 -14l-66 -543
c-5.33301 -41.333 -19.166 -73.5 -41.499 -96.5s-59.833 -34.5 -112.5 -34.5c-46 0 -79.667 9.66699 -101 29s-32 45.333 -32 78c0 5.33301 0.666992 14 2 26l7 54c0.666992 9.33301 5.66699 14 15 14h35c8 0 11.667 -4.66699 11 -14z" />
    <glyph glyph-name="jcircumflex" unicode="&#x135;" horiz-adv-x="174" 
d="M129 664l-46.001 -83c-4.66699 -8 -11 -12 -19 -12h-25c-9.33301 0 -11 4.33301 -5 13l71 115c4.66699 7.33301 11.334 11 20.001 11h21c7.33301 0 12.333 -3.33301 15 -10l45 -116c4 -8.66699 0.666992 -13 -10 -13h-23c-7.33301 0 -12.333 4 -15 12zM139.999 480
l-69 -564c-9.33301 -73.333 -59.333 -110 -150 -110h-5c-8.66699 0 -12.667 4.33301 -12 13l3 26c1.33301 8.66699 6.33301 13 15 13h4c51.333 0 79.666 20.667 84.999 62l68 560c1.33301 9.33301 6.33301 14 15 14h35c8.66699 0 12.334 -4.66699 11.001 -14z" />
    <glyph glyph-name="Kcommaaccent" unicode="&#x136;" horiz-adv-x="399" 
d="M206 346l145.002 -333c1.33301 -3.33301 1.16602 -6.33301 -0.500977 -9s-4.83398 -4 -9.50098 -4h-41c-8 -0 -14 4.33301 -18 13l-131 305h-20l-38 -305c-0.666992 -8.66699 -5.33398 -13 -14.001 -13h-36c-8.66699 -0 -12.667 4.33301 -12 13l80 654
c0.666992 8.66699 5.66699 13 15 13h36c8.66699 0 12.667 -4.33301 12 -13l-37 -301h17l191 301c5.33301 8.66699 12.333 13 21 13h39c10.667 0 13.334 -4.33301 8.00098 -13zM142.002 -97l5.00195 35.001c0.666992 8 5 12 13 12h29c7.33301 0 10.666 -4 9.99902 -12l-4 -38
c-4 -40.667 -23 -78 -57 -112c-6 -6.66699 -11.667 -7.33398 -17 -2.00098l-14 13c-4.66699 3.33301 -4.33398 9 0.999023 17c18.667 28.667 30 57.667 34 87z" />
    <glyph glyph-name="kcommaaccent" unicode="&#x137;" horiz-adv-x="345" 
d="M68 0h-35.0029c-8 -0 -11.667 4.33301 -11 13l82 668c0.666992 8.66699 5.66699 13 15 13h35c8 0 11.667 -4.33301 11 -13l-46 -380h19l141 180c6.66699 8.66699 13.667 13 21 13h38c4.66699 0 7.83398 -1.5 9.50098 -4.5s0.833984 -6.16699 -2.49902 -9.5l-158 -201
l114 -266c1.33301 -3.33301 0.833008 -6.33301 -1.5 -9s-5.5 -4 -9.5 -4h-38c-7.33301 -0 -12.666 4.33301 -15.999 13l-102 240h-22l-29 -240c-0.666992 -8.66699 -5.66699 -13 -15 -13zM116.997 -97l5.00195 35.001c1.33301 8 5.66602 12 12.999 12h29
c8 0 11.333 -4 10 -12l-4 -38c-4 -40.667 -23 -78 -57 -112c-6 -6.66699 -11.667 -7.33398 -17 -2.00098l-14 13c-4.66699 3.33301 -4.33398 9 0.999023 17c18.667 28.667 30 57.667 34 87z" />
    <glyph glyph-name="kgreenlandic" unicode="&#x138;" horiz-adv-x="344" 
d="M68 0h-34.9971c-8 -0 -11.667 4.33301 -11 13l57 468c0.666992 8.66699 5.66699 13 15 13h35c8 0 11.667 -4.33301 11 -13l-21 -180h18l140 180c7.33301 8.66699 14.333 13 21 13h38c5.33301 0 8.66602 -1.33301 9.99902 -4s0.333008 -6 -3 -10l-157 -201l115 -266
c1.33301 -3.33301 1.16602 -6.33301 -0.500977 -9s-4.83398 -4 -9.50098 -4h-38c-8 -0 -13.667 4.33301 -17 13l-104 240h-20l-29 -240c-0.666992 -8.66699 -5.66699 -13 -15 -13z" />
    <glyph glyph-name="Lacute" unicode="&#x139;" horiz-adv-x="341" 
d="M251 865l-71 -118c-3.33301 -5.33301 -9 -8 -17 -8h-29c-8 0 -9.66699 4 -5 12l60 115c4 8 10.333 12 19 12h37c8.66699 0 10.667 -4.33301 6 -13zM174 666l-75.999 -613h189c8.66699 0 12.667 -4 12 -12l-3 -28c-0.666992 -8.66699 -5.33398 -13 -14.001 -13h-241
c-8 0 -11.333 4.66699 -10 14l80 652c0.666992 9.33301 5.66699 14 15 14h37c8 0 11.667 -4.66699 11 -14z" />
    <glyph glyph-name="lacute" unicode="&#x13a;" horiz-adv-x="174" 
d="M241 865l-71 -118c-3.33301 -5.33301 -9 -8 -17 -8h-29c-8 0 -9.66699 4 -5 12l60 115c4 8 10.333 12 19 12h37c8.66699 0 10.667 -4.33301 6 -13zM165 680l-81.999 -666c-0.666992 -9.33301 -5.33398 -14 -14.001 -14h-36c-8 0 -11.667 4.66699 -11 14l82 666
c0.666992 9.33301 5.66699 14 15 14h35c8 0 11.667 -4.66699 11 -14z" />
    <glyph glyph-name="Lcommaaccent" unicode="&#x13b;" horiz-adv-x="341" 
d="M174 666l-75.999 -613h189c8.66699 0 12.667 -4 12 -12l-3 -28c-0.666992 -8.66699 -5.33398 -13 -14.001 -13h-241c-8 0 -11.333 4.66699 -10 14l80 652c0.666992 9.33301 5.66699 14 15 14h37c8 0 11.667 -4.66699 11 -14zM128.001 -97l5.00195 35.001
c0.666992 8 5 12 13 12h29c7.33301 0 10.666 -4 9.99902 -12l-4 -38c-4 -40.667 -23 -78 -57 -112c-6 -6.66699 -11.667 -7.33398 -17 -2.00098l-14 13c-4.66699 3.33301 -4.33398 9 0.999023 17c18.667 28.667 30 57.667 34 87z" />
    <glyph glyph-name="lcommaaccent" unicode="&#x13c;" horiz-adv-x="174" 
d="M165 680l-81.999 -666c-0.666992 -9.33301 -5.33398 -14 -14.001 -14h-36c-8 0 -11.667 4.66699 -11 14l82 666c0.666992 9.33301 5.66699 14 15 14h35c8 0 11.667 -4.66699 11 -14zM14.001 -97l5.00195 35.001c0.666992 8 5 12 13 12h29
c7.33301 0 10.666 -4 9.99902 -12l-4 -38c-4 -40.667 -23 -78 -57 -112c-6 -6.66699 -11.667 -7.33398 -17 -2.00098l-14 13c-4.66699 3.33301 -4.33398 9 0.999023 17c18.667 28.667 30 57.667 34 87z" />
    <glyph glyph-name="Lcaron" unicode="&#x13d;" horiz-adv-x="346" 
d="M282 655l5.00195 35.001c0.666992 8 5 12 13 12h29c7.33301 0 10.666 -4 9.99902 -12l-4 -38c-4 -40.667 -23 -78 -57 -112c-6 -6.66699 -11.667 -7.33398 -17 -2.00098l-14 13c-4.66699 3.33301 -4.33398 9 0.999023 17c18.667 28.667 30 57.667 34 87zM174.002 666.001
l-75.999 -613h189c8.66699 0 12.667 -4 12 -12l-3 -28c-0.666992 -8.66699 -5.33398 -13 -14.001 -13h-241c-8 0 -11.333 4.66699 -10 14l80 652c0.666992 9.33301 5.66699 14 15 14h37c8 0 11.667 -4.66699 11 -14z" />
    <glyph glyph-name="lcaron" unicode="&#x13e;" horiz-adv-x="185" 
d="M223 668l5.00195 35.001c1.33301 8 5.66602 12 12.999 12h29c8 0 11.333 -4 10 -12l-4 -38c-4 -40.667 -23 -78 -57 -112c-6 -6.66699 -11.667 -7.33398 -17 -2.00098l-14 13c-4.66699 3.33301 -4.33398 9 0.999023 17c18.667 28.667 30 57.667 34 87zM165.002 680.001
l-81.999 -666c-0.666992 -9.33301 -5.33398 -14 -14.001 -14h-36c-8 0 -11.667 4.66699 -11 14l82 666c0.666992 9.33301 5.66699 14 15 14h35c8 0 11.667 -4.66699 11 -14z" />
    <glyph glyph-name="Ldot" unicode="&#x13f;" horiz-adv-x="352" 
d="M174 666l-75.999 -613h189c8.66699 0 12.667 -4 12 -12l-3 -28c-0.666992 -8.66699 -5.33398 -13 -14.001 -13h-241c-8 0 -11.333 4.66699 -10 14l80 652c0.666992 9.33301 5.66699 14 15 14h37c8 0 11.667 -4.66699 11 -14zM320.001 393l-9 -78
c-0.666992 -8.66699 -5.66699 -13 -15 -13h-36c-8 0 -11.667 4.33301 -11 13l9 78c0.666992 8.66699 5.66699 13 15 13h36c8 0 11.667 -4.33301 11 -13z" />
    <glyph glyph-name="ldot" unicode="&#x140;" horiz-adv-x="221" 
d="M165 680l-81.999 -666c-0.666992 -9.33301 -5.33398 -14 -14.001 -14h-36c-8 0 -11.667 4.66699 -11 14l82 666c0.666992 9.33301 5.66699 14 15 14h35c8 0 11.667 -4.66699 11 -14zM240.001 393l-9 -78c-0.666992 -8.66699 -5.66699 -13 -15 -13h-36
c-8 0 -11.667 4.33301 -11 13l9 78c0.666992 8.66699 5.66699 13 15 13h36c8 0 11.667 -4.33301 11 -13z" />
    <glyph glyph-name="Lslash" unicode="&#x141;" horiz-adv-x="349" 
d="M291 0h-240.999c-8 0 -11.333 4.66699 -10 14l36 289l-45 -20c-6.66699 -3.33301 -11.667 -1.33301 -15 6l-6 14c-3.33301 6.66699 0 12.334 10 17.001l61 28l39 318c0.666992 9.33301 5.66699 14 15 14h37c8 0 11.667 -4.66699 11 -14l-36 -287l49 22
c8.66699 4 14 1.66699 16 -7l4 -14c2 -6.66699 -1.33301 -12.334 -10 -17.001l-64 -29l-35 -281h189c8.66699 0 12.667 -4 12 -12l-3 -28c-0.666992 -8.66699 -5.33398 -13 -14.001 -13z" />
    <glyph glyph-name="lslash" unicode="&#x142;" horiz-adv-x="199" 
d="M81 0h-35.999c-8 0 -11.667 4.66699 -11 14l35 287l-36 -18c-8 -4 -13.333 -2 -16 6l-5 14c-2 7.33301 1.33301 13 10 17l53 27l41 333c0.666992 9.33301 5.66699 14 15 14h35c8 0 11.667 -4.66699 11 -14l-37 -300l40 20c9.33301 5.33301 15 3.33301 17 -6l3 -14
c2 -7.33301 -1 -13 -9 -17l-57 -29l-39 -320c-0.666992 -9.33301 -5.33398 -14 -14.001 -14z" />
    <glyph glyph-name="Nacute" unicode="&#x143;" horiz-adv-x="450" 
d="M381 865l-71 -118c-3.33301 -5.33301 -9 -8 -17 -8h-29c-8 0 -9.66699 4 -5 12l60 115c4 8 10.333 12 19 12h37c8.66699 0 10.667 -4.33301 6 -13zM431 667l-80.999 -654c-0.666992 -8.66699 -5.33398 -13 -14.001 -13h-34c-6.66699 -0 -11 3.33301 -13 10l-123 455
c-6.66699 25.333 -11.667 48.333 -15 69l-64 -521c-0.666992 -8.66699 -5.33398 -13 -14.001 -13h-30c-8.66699 -0 -12.667 4.33301 -12 13l80 654c0.666992 8.66699 5.66699 13 15 13h33c6 0 10 -2.66699 12 -8l125 -461c7.33301 -28 12 -49 14 -63l65 519
c0.666992 8.66699 5.33398 13 14.001 13h30c8.66699 0 12.667 -4.33301 12 -13z" />
    <glyph glyph-name="nacute" unicode="&#x144;" horiz-adv-x="390" 
d="M331 695l-71.001 -117c-3.33301 -6 -8.66602 -9 -15.999 -9h-29c-8 0 -10 4 -6 12l61 115c4 8 9.66699 12 17 12h38c9.33301 0 11.333 -4.33301 6 -13zM93.999 494h31c8.66699 0 12.667 -4.33301 12 -13l-2 -27c39.333 32 80.333 48 123 48c29.333 0 52 -7.66699 68 -23
s24 -35.333 24 -60c0 -4.66699 -0.333008 -10 -1 -16l-47 -389c-0.666992 -9.33301 -6 -14 -16 -14h-34c-8 0 -11.667 4.66699 -11 14l45 372c0.666992 6 1 11 1 15c0 30.667 -18 46 -54 46c-33.333 0 -67.333 -14 -102 -42l-48 -391
c-0.666992 -9.33301 -5.66699 -14 -15 -14h-35c-8 0 -11.667 4.66699 -11 14l57 467c0.666992 8.66699 5.66699 13 15 13z" />
    <glyph glyph-name="Ncommaaccent" unicode="&#x145;" horiz-adv-x="450" 
d="M431 667l-80.999 -654c-0.666992 -8.66699 -5.33398 -13 -14.001 -13h-34c-6.66699 -0 -11 3.33301 -13 10l-123 455c-6.66699 25.333 -11.667 48.333 -15 69l-64 -521c-0.666992 -8.66699 -5.33398 -13 -14.001 -13h-30c-8.66699 -0 -12.667 4.33301 -12 13l80 654
c0.666992 8.66699 5.66699 13 15 13h33c6 0 10 -2.66699 12 -8l125 -461c7.33301 -28 12 -49 14 -63l65 519c0.666992 8.66699 5.33398 13 14.001 13h30c8.66699 0 12.667 -4.33301 12 -13zM164.001 -97l5.00195 35.001c0.666992 8 5 12 13 12h29
c7.33301 0 10.666 -4 9.99902 -12l-4 -38c-4 -40.667 -23 -78 -57 -112c-6 -6.66699 -11.667 -7.33398 -17 -2.00098l-14 13c-4.66699 3.33301 -4.33398 9 0.999023 17c18.667 28.667 30 57.667 34 87z" />
    <glyph glyph-name="ncommaaccent" unicode="&#x146;" horiz-adv-x="390" 
d="M94 494h31c8.66699 0 12.667 -4.33301 12 -13l-2 -27c39.333 32 80.333 48 123 48c29.333 0 52 -7.66699 68 -23s24 -35.333 24 -60c0 -4.66699 -0.333008 -10 -1 -16l-47 -389c-0.666992 -9.33301 -6 -14 -16 -14h-34c-8 0 -11.667 4.66699 -11 14l45 372
c0.666992 6 1 11 1 15c0 30.667 -18 46 -54 46c-33.333 0 -67.333 -14 -102 -42l-48 -391c-0.666992 -9.33301 -5.66699 -14 -15 -14h-35c-8 0 -11.667 4.66699 -11 14l57 467c0.666992 8.66699 5.66699 13 15 13zM127 -96l5.00195 35.001c1.33301 8 5.66602 12 12.999 12
h29c8 0 11.333 -4 10 -12l-4 -38c-4 -40.667 -23 -78 -57 -112c-6 -6.66699 -11.667 -7.33398 -17 -2.00098l-14 13c-4.66699 3.33301 -4.33398 9 0.999023 17c18.667 28.667 30 57.667 34 87z" />
    <glyph glyph-name="Ncaron" unicode="&#x147;" horiz-adv-x="450" 
d="M258 865l28 -81l47 81c4.66699 8.66699 11 13 19 13h24c8.66699 0 10.667 -4.33301 6 -13l-72 -116c-4.66699 -6.66699 -11 -10 -19 -10h-21c-8 0 -13.333 3.33301 -16 10l-44 116c-4 8.66699 -1 13 9 13h25c6 0 10.667 -4.33301 14 -13zM431 667l-80.999 -654
c-0.666992 -8.66699 -5.33398 -13 -14.001 -13h-34c-6.66699 -0 -11 3.33301 -13 10l-123 455c-6.66699 25.333 -11.667 48.333 -15 69l-64 -521c-0.666992 -8.66699 -5.33398 -13 -14.001 -13h-30c-8.66699 -0 -12.667 4.33301 -12 13l80 654
c0.666992 8.66699 5.66699 13 15 13h33c6 0 10 -2.66699 12 -8l125 -461c7.33301 -28 12 -49 14 -63l65 519c0.666992 8.66699 5.33398 13 14.001 13h30c8.66699 0 12.667 -4.33301 12 -13z" />
    <glyph glyph-name="ncaron" unicode="&#x148;" horiz-adv-x="390" 
d="M205 695l27.002 -81l48 81c5.33301 8.66699 11.666 13 18.999 13h25c7.33301 0 8.66602 -4.33301 3.99902 -13l-71 -116c-4 -6.66699 -10.667 -10 -20 -10h-20c-8 0 -13.333 3.33301 -16 10l-44 116c-4 8.66699 -1 13 9 13h25c6 0 10.667 -4.33301 14 -13zM94.002 494h31
c8.66699 0 12.667 -4.33301 12 -13l-2 -27c39.333 32 80.333 48 123 48c29.333 0 52 -7.66699 68 -23s24 -35.333 24 -60c0 -4.66699 -0.333008 -10 -1 -16l-47 -389c-0.666992 -9.33301 -6 -14 -16 -14h-34c-8 0 -11.667 4.66699 -11 14l45 372c0.666992 6 1 11 1 15
c0 30.667 -18 46 -54 46c-33.333 0 -67.333 -14 -102 -42l-48 -391c-0.666992 -9.33301 -5.66699 -14 -15 -14h-35c-8 0 -11.667 4.66699 -11 14l57 467c0.666992 8.66699 5.66699 13 15 13z" />
    <glyph glyph-name="napostrophe" unicode="&#x149;" horiz-adv-x="390" 
d="M92 668l5.00195 35.001c0.666992 8 5 12 13 12h29c7.33301 0 10.666 -4 9.99902 -12l-4 -38c-4 -40.667 -23 -78 -57 -112c-6 -6.66699 -11.667 -7.33398 -17 -2.00098l-14 13c-4.66699 3.33301 -4.33398 9 0.999023 17c18.667 28.667 30 57.667 34 87zM94.002 494.001
h31c8.66699 0 12.667 -4.33301 12 -13l-2 -27c39.333 32 80.333 48 123 48c29.333 0 52 -7.66699 68 -23s24 -35.333 24 -60c0 -4.66699 -0.333008 -10 -1 -16l-47 -389c-0.666992 -9.33301 -6 -14 -16 -14h-34c-8 0 -11.667 4.66699 -11 14l45 372c0.666992 6 1 11 1 15
c0 30.667 -18 46 -54 46c-33.333 0 -67.333 -14 -102 -42l-48 -391c-0.666992 -9.33301 -5.66699 -14 -15 -14h-35c-8 0 -11.667 4.66699 -11 14l57 467c0.666992 8.66699 5.66699 13 15 13z" />
    <glyph glyph-name="Eng" unicode="&#x14a;" horiz-adv-x="449" 
d="M431 667l-93 -745c-10 -77.333 -64 -116 -162 -116h-7c-8 0 -11.667 4.33301 -11 13l2 25c0.666992 8.66699 6 13 16 13h5c62.667 0 96.667 23.333 102 70l10 78l-127 460c-4.66699 15.333 -9.66699 38.333 -15 69l-64 -521c-0.666992 -8.66699 -5.33398 -13 -14.001 -13
h-30c-8.66699 -0 -12.667 4.33301 -12 13l80 654c0.666992 8.66699 5.66699 13 15 13h34c6.66699 0 10.334 -2.33301 11.001 -7l126 -462c5.33301 -21.333 9.66602 -42 12.999 -62l65 518c0.666992 8.66699 5.33398 13 14.001 13h30c8.66699 0 12.667 -4.33301 12 -13z" />
    <glyph glyph-name="eng" unicode="&#x14b;" horiz-adv-x="390" 
d="M349 420c0 -8 -0.333008 -14.667 -1 -20l-59 -484c-8.66699 -73.333 -58.667 -110 -150 -110h-6c-8.66699 0 -12.667 4.33301 -12 13l3 26c1.33301 8.66699 6 13 14 13h6c50.667 0 78.667 20 84 60l57 466c0.666992 6 1 12 1 18c0 30 -17.667 45 -53 45
c-38 0 -72 -14 -102 -42l-48 -391c-0.666992 -9.33301 -5.66699 -14 -15 -14h-35c-8 0 -11.667 4.66699 -11 14l57 467c0.666992 8.66699 5.66699 13 15 13h31c8.66699 0 12.667 -4.33301 12 -13l-2 -27c41.333 32 82 48 122 48c29.333 0 52 -7.5 68 -22.5
s24 -34.833 24 -59.5z" />
    <glyph glyph-name="Omacron" unicode="&#x14c;" horiz-adv-x="432" 
d="M193 824h176c8.66699 0 12.667 -4.33301 12 -13l-2 -22c-0.666992 -9.33301 -6 -14 -16 -14h-176c-8 0 -11.667 4.66699 -11 14l2 21c0.666992 9.33301 5.66699 14 15 14zM36 124l54 432.999c10.667 87.333 67 131 169 131c51.333 0 89 -10.167 113 -30.5
s36 -47.166 36 -80.499c0 -7.33301 -0.333008 -14.333 -1 -21l-54 -433c-10.667 -87.333 -67 -131 -169 -131c-51.333 0 -89 10 -113 30s-36 46.667 -36 80c0 8.66699 0.333008 16 1 22zM291 123.999l53 429c0.666992 6 1 12 1 18c0 42.667 -30 64 -90 64
c-62.667 0 -97.334 -26.333 -104.001 -79l-52 -429c-0.666992 -5.33301 -1 -11.333 -1 -18c0 -42.667 29.667 -64 89 -64c62.667 0 97.334 26.333 104.001 79z" />
    <glyph glyph-name="omacron" unicode="&#x14d;" horiz-adv-x="378" 
d="M144 649h176c8.66699 0 12.667 -4.66699 12 -14l-2 -21c-0.666992 -9.33301 -5.66699 -14 -15 -14h-177c-8 0 -11.667 4.66699 -11 14l2 21c0.666992 9.33301 5.66699 14 15 14zM27 109l34 275.999c9.33301 78 59 117 149 117c44 0 76.833 -8.66699 98.5 -26
s32.5 -41.333 32.5 -72c0 -6.66699 -0.333008 -13 -1 -19l-34 -276c-4.66699 -37.333 -18.5 -66.166 -41.5 -86.499s-59.167 -30.5 -108.5 -30.5c-43.333 0 -75.833 8.66699 -97.5 26s-32.5 41.333 -32.5 72c0 6 0.333008 12.333 1 19zM245 107.999l34.001 276
c0.666992 6 1 11 1 15c0 34.667 -24.667 52 -74 52c-50.667 0 -78.667 -21.667 -84 -65l-34 -276c-0.666992 -6 -1 -11 -1 -15c0 -34.667 24.333 -52 73 -52c51.333 0 79.666 21.667 84.999 65z" />
    <glyph glyph-name="Obreve" unicode="&#x14e;" horiz-adv-x="432" 
d="M239 869l-3.00098 -25c-0.666992 -5.33301 -1 -12.666 -1 -21.999c0 -26.667 14 -40 42 -40c17.333 0 29.833 5.16699 37.5 15.5s12.5 25.833 14.5 46.5l3 25c0.666992 8 5.33398 12 14.001 12h21c8.66699 0 12.667 -4 12 -12l-3 -22
c-4.66699 -34.667 -14.667 -60.834 -30 -78.501s-39.333 -26.5 -72 -26.5c-56.667 0 -85 26 -85 78c0 8 0.333008 16 1 24l3 25c0.666992 8 5 12 13 12h22c8 0 11.667 -4 11 -12zM35.999 124l54 432.999c10.667 87.333 67 131 169 131c51.333 0 89 -10.167 113 -30.5
s36 -47.166 36 -80.499c0 -7.33301 -0.333008 -14.333 -1 -21l-54 -433c-10.667 -87.333 -67 -131 -169 -131c-51.333 0 -89 10 -113 30s-36 46.667 -36 80c0 8.66699 0.333008 16 1 22zM290.999 123.999l53 429c0.666992 6 1 12 1 18c0 42.667 -30 64 -90 64
c-62.667 0 -97.334 -26.333 -104.001 -79l-52 -429c-0.666992 -5.33301 -1 -11.333 -1 -18c0 -42.667 29.667 -64 89 -64c62.667 0 97.334 26.333 104.001 79z" />
    <glyph glyph-name="obreve" unicode="&#x14f;" horiz-adv-x="378" 
d="M190 683l-3.00098 -25c-0.666992 -5.33301 -1 -12.666 -1 -21.999c0 -26.667 14 -40 42 -40c17.333 0 29.833 5.16699 37.5 15.5s12.5 25.833 14.5 46.5l3 25c0.666992 8 5.33398 12 14.001 12h21c9.33301 0 13.333 -4 12 -12l-3 -22
c-4.66699 -34.667 -14.667 -60.834 -30 -78.501s-39.333 -26.5 -72 -26.5c-56.667 0 -85 26 -85 78c0 8 0.333008 16 1 24l3 25c0.666992 8 5 12 13 12h22c8 0 11.667 -4 11 -12zM26.999 109l34 275.999c9.33301 78 59 117 149 117c44 0 76.833 -8.66699 98.5 -26
s32.5 -41.333 32.5 -72c0 -6.66699 -0.333008 -13 -1 -19l-34 -276c-4.66699 -37.333 -18.5 -66.166 -41.5 -86.499s-59.167 -30.5 -108.5 -30.5c-43.333 0 -75.833 8.66699 -97.5 26s-32.5 41.333 -32.5 72c0 6 0.333008 12.333 1 19zM244.999 107.999l34.001 276
c0.666992 6 1 11 1 15c0 34.667 -24.667 52 -74 52c-50.667 0 -78.667 -21.667 -84 -65l-34 -276c-0.666992 -6 -1 -11 -1 -15c0 -34.667 24.333 -52 73 -52c51.333 0 79.666 21.667 84.999 65z" />
    <glyph glyph-name="Ohungarumlaut" unicode="&#x150;" horiz-adv-x="432" 
d="M321 865l-64.999 -115c-4 -7.33301 -9.66699 -11 -17 -11h-26c-8 0 -10 4 -6 12l58 115c4 8 10.667 12 20 12h29c9.33301 0 11.666 -4.33301 6.99902 -13zM414.001 865l-76 -115c-4.66699 -7.33301 -11 -11 -19 -11h-26c-8.66699 0 -10.334 4 -5.00098 12l71 115
c4.66699 8 11.334 12 20.001 12h30c9.33301 0 11 -4.33301 5 -13zM36.001 124l54 432.999c10.667 87.333 67 131 169 131c51.333 0 89 -10.167 113 -30.5s36 -47.166 36 -80.499c0 -7.33301 -0.333008 -14.333 -1 -21l-54 -433c-10.667 -87.333 -67 -131 -169 -131
c-51.333 0 -89 10 -113 30s-36 46.667 -36 80c0 8.66699 0.333008 16 1 22zM291.001 123.999l53 429c0.666992 6 1 12 1 18c0 42.667 -30 64 -90 64c-62.667 0 -97.334 -26.333 -104.001 -79l-52 -429c-0.666992 -5.33301 -1 -11.333 -1 -18c0 -42.667 29.667 -64 89 -64
c62.667 0 97.334 26.333 104.001 79z" />
    <glyph glyph-name="ohungarumlaut" unicode="&#x151;" horiz-adv-x="378" 
d="M272 695l-64 -115c-4 -7.33301 -10 -11 -18 -11h-26c-8 0 -10 4 -6 12l58 115c4 8 10.667 12 20 12h30c8 0 10 -4.33301 6 -13zM366 695l-76 -115c-4 -7.33301 -10.667 -11 -20 -11h-26c-8 0 -9.66699 4 -5 12l71 115c5.33301 8 12 12 20 12h31
c9.33301 0 11 -4.33301 5 -13zM27 109l34 275.999c9.33301 78 59 117 149 117c44 0 76.833 -8.66699 98.5 -26s32.5 -41.333 32.5 -72c0 -6.66699 -0.333008 -13 -1 -19l-34 -276c-4.66699 -37.333 -18.5 -66.166 -41.5 -86.499s-59.167 -30.5 -108.5 -30.5
c-43.333 0 -75.833 8.66699 -97.5 26s-32.5 41.333 -32.5 72c0 6 0.333008 12.333 1 19zM245 107.999l34.001 276c0.666992 6 1 11 1 15c0 34.667 -24.667 52 -74 52c-50.667 0 -78.667 -21.667 -84 -65l-34 -276c-0.666992 -6 -1 -11 -1 -15c0 -34.667 24.333 -52 73 -52
c51.333 0 79.666 21.667 84.999 65z" />
    <glyph glyph-name="OE" unicode="&#x152;" horiz-adv-x="622" 
d="M291 124l52.999 429c0.666992 6 1 12 1 18c0 42.667 -30 64 -90 64c-62 0 -96.333 -26.333 -103 -79l-53 -426c-0.666992 -6 -1 -13 -1 -21c0 -42.667 29.667 -64 89 -64c62.667 0 97.334 26.333 104.001 79zM277.999 14l1.00293 9c-26 -20.667 -60.333 -31 -103 -31
c-48.667 0 -84.334 10 -107.001 30s-34 46.333 -34 79c0 4.66699 0.666992 13 2 25l53 431c10.667 87.333 64.667 131 162 131c46 0 81 -11 105 -33l2 11c2 9.33301 6.66699 14 14 14h242c8.66699 0 12.667 -4.33301 12 -13l-4 -27
c-0.666992 -8.66699 -5.33398 -13 -14.001 -13h-194l-29 -244h179c8.66699 0 12.667 -4.33301 12 -13l-2 -26c-0.666992 -8.66699 -5.66699 -13 -15 -13h-181l-34 -278h201c8.66699 0 12.667 -4 12 -12l-3 -28c-0.666992 -8.66699 -5.33398 -13 -14.001 -13h-252
c-8 0 -11.667 4.66699 -11 14z" />
    <glyph glyph-name="oe" unicode="&#x153;" horiz-adv-x="585" 
d="M372 -8c-53.333 0 -88.998 13.666 -106.998 40.999c-23.333 -27.333 -61.333 -41 -114 -41c-83.333 0 -125 32.333 -125 97c0 5.33301 0.333008 12 1 20l34 276c9.33301 78 58.333 117 147 117c50.667 0 85.667 -12.667 105 -38c24 25.333 63 38 117 38
c81.333 0 122 -31.333 122 -94c0 -7.33301 -0.333008 -14.666 -1 -21.999l-16 -133c-0.666992 -8.66699 -5.33398 -13 -14.001 -13h-200l-17 -135c-0.666992 -5.33301 -1 -10 -1 -14c0 -33.333 24 -50 72 -50c51.333 0 79.333 20.333 84 61l4 38
c1.33301 9.33301 6.33301 14 15 14h30c8.66699 0 12.667 -4.66699 12 -14l-4 -33c-4.66699 -36.667 -17.834 -65 -39.501 -85s-56.5 -30 -104.5 -30zM482.002 285.999l12 102c0.666992 6 1 10.667 1 14c0 34 -24 51 -72 51c-49.333 0 -77 -21 -83 -63l-14 -104h156z
M245.002 107.999l34 276c0.666992 6 1 11 1 15c0 34.667 -24.667 52 -74 52c-50.667 0 -78.667 -21.333 -84 -64l-34 -277c-0.666992 -5.33301 -1 -10.333 -1 -15c0 -35.333 24 -53 72 -53c52 0 80.667 22 86 66z" />
    <glyph glyph-name="Racute" unicode="&#x154;" horiz-adv-x="429" 
d="M357 865l-71 -118c-3.33301 -5.33301 -9 -8 -17 -8h-29c-8 0 -9.66699 4 -5 12l60 115c4 8 10.333 12 19 12h37c8.66699 0 10.667 -4.33301 6 -13zM259 627h-90l-37 -294h95c63.333 0 98.333 25.667 105 77l17 134c0.666992 7.33301 1 13 1 17c0 44 -30.333 66 -91 66z
M93 14c-0.666992 -9.33301 -5.33398 -14 -14.001 -14h-36c-8.66699 0 -12.667 4.66699 -12 14l80 652c0.666992 9.33301 5.33398 14 14.001 14h138c51.333 0 89 -10.333 113 -31s36 -47.667 36 -81c0 -8.66699 -0.333008 -16 -1 -22l-17 -138
c-8 -64.667 -41.667 -105 -101 -121l58 -273c2 -9.33301 -2.33301 -14 -13 -14h-37c-8 0 -13 4.66699 -15 14l-54 265h-106z" />
    <glyph glyph-name="racute" unicode="&#x155;" horiz-adv-x="258" 
d="M267 695l-71.001 -117c-3.33301 -6 -8.66602 -9 -15.999 -9h-29c-8 0 -10 4 -6 12l61 115c4 8 9.66699 12 17 12h38c9.33301 0 11.333 -4.33301 6 -13zM255.999 501c8.66699 0 12.667 -4.33398 12 -13.001l-3 -29c-0.666992 -7.33301 -6 -11.666 -16 -12.999
c-42 -2.66699 -82 -21.667 -120 -57l-46 -375c-0.666992 -9.33301 -5.66699 -14 -15 -14h-35c-8 0 -11.667 4.66699 -11 14l57 467c0.666992 8.66699 5.66699 13 15 13h31c8.66699 0 12.667 -4.33301 12 -13l-3 -39c39.333 39.333 80 59 122 59z" />
    <glyph glyph-name="Rcommaaccent" unicode="&#x156;" horiz-adv-x="429" 
d="M259 627h-90l-37 -294h95c63.333 0 98.333 25.667 105 77l17 134c0.666992 7.33301 1 13 1 17c0 44 -30.333 66 -91 66zM93 14c-0.666992 -9.33301 -5.33398 -14 -14.001 -14h-36c-8.66699 0 -12.667 4.66699 -12 14l80 652c0.666992 9.33301 5.33398 14 14.001 14h138
c51.333 0 89 -10.333 113 -31s36 -47.667 36 -81c0 -8.66699 -0.333008 -16 -1 -22l-17 -138c-8 -64.667 -41.667 -105 -101 -121l58 -273c2 -9.33301 -2.33301 -14 -13 -14h-37c-8 0 -13 4.66699 -15 14l-54 265h-106zM151 -96l5.00195 35.001
c1.33301 8 5.66602 12 12.999 12h29c8 0 11.333 -4 10 -12l-4 -38c-4 -40.667 -23 -78 -57 -112c-6 -6.66699 -11.667 -7.33398 -17 -2.00098l-14 13c-4.66699 3.33301 -4.33398 9 0.999023 17c18.667 28.667 30 57.667 34 87z" />
    <glyph glyph-name="rcommaaccent" unicode="&#x157;" horiz-adv-x="258" 
d="M256 501c8.66699 0 12.667 -4.33398 12 -13.001l-3 -29c-0.666992 -7.33301 -6 -11.666 -16 -12.999c-42 -2.66699 -82 -21.667 -120 -57l-46 -375c-0.666992 -9.33301 -5.66699 -14 -15 -14h-35c-8 0 -11.667 4.66699 -11 14l57 467c0.666992 8.66699 5.66699 13 15 13
h31c8.66699 0 12.667 -4.33301 12 -13l-3 -39c39.333 39.333 80 59 122 59zM14 -97.001l5.00195 35.001c0.666992 8 5 12 13 12h29c7.33301 0 10.666 -4 9.99902 -12l-4 -38c-4 -40.667 -23 -78 -57 -112c-6 -6.66699 -11.667 -7.33398 -17 -2.00098l-14 13
c-4.66699 3.33301 -4.33398 9 0.999023 17c18.667 28.667 30 57.667 34 87z" />
    <glyph glyph-name="Rcaron" unicode="&#x158;" horiz-adv-x="429" 
d="M232 865l28 -81l47 81c4.66699 8.66699 11 13 19 13h24c8.66699 0 10.667 -4.33301 6 -13l-72 -116c-4.66699 -6.66699 -11 -10 -19 -10h-21c-8 0 -13.333 3.33301 -16 10l-44 116c-4 8.66699 -1 13 9 13h25c6 0 10.667 -4.33301 14 -13zM259 627h-90l-37 -294h95
c63.333 0 98.333 25.667 105 77l17 134c0.666992 7.33301 1 13 1 17c0 44 -30.333 66 -91 66zM93 14c-0.666992 -9.33301 -5.33398 -14 -14.001 -14h-36c-8.66699 0 -12.667 4.66699 -12 14l80 652c0.666992 9.33301 5.33398 14 14.001 14h138c51.333 0 89 -10.333 113 -31
s36 -47.667 36 -81c0 -8.66699 -0.333008 -16 -1 -22l-17 -138c-8 -64.667 -41.667 -105 -101 -121l58 -273c2 -9.33301 -2.33301 -14 -13 -14h-37c-8 0 -13 4.66699 -15 14l-54 265h-106z" />
    <glyph glyph-name="rcaron" unicode="&#x159;" horiz-adv-x="258" 
d="M145 695l27.002 -81l48 81c5.33301 8.66699 11.666 13 18.999 13h25c7.33301 0 8.66602 -4.33301 3.99902 -13l-71 -116c-4 -6.66699 -10.667 -10 -20 -10h-20c-8 0 -13.333 3.33301 -16 10l-44 116c-4 8.66699 -1 13 9 13h25c6 0 10.667 -4.33301 14 -13zM256.002 501
c8.66699 0 12.667 -4.33398 12 -13.001l-3 -29c-0.666992 -7.33301 -6 -11.666 -16 -12.999c-42 -2.66699 -82 -21.667 -120 -57l-46 -375c-0.666992 -9.33301 -5.66699 -14 -15 -14h-35c-8 0 -11.667 4.66699 -11 14l57 467c0.666992 8.66699 5.66699 13 15 13h31
c8.66699 0 12.667 -4.33301 12 -13l-3 -39c39.333 39.333 80 59 122 59z" />
    <glyph glyph-name="Sacute" unicode="&#x15a;" horiz-adv-x="405" 
d="M347 865l-71 -118c-3.33301 -5.33301 -9 -8 -17 -8h-29c-8 0 -9.66699 4 -5 12l60 115c4 8 10.333 12 19 12h37c8.66699 0 10.667 -4.33301 6 -13zM320 496l8.00195 59.998c0.666992 6 1 12 1 18c0 40.667 -28.667 61 -86 61c-60.667 0 -94.334 -25.667 -101.001 -77
l-7 -55c-0.666992 -5.33301 -1 -12 -1 -20c0 -28.667 13 -51 39 -67l113 -69c43.333 -26.667 65 -62.334 65 -107.001c0 -8 -0.333008 -14.667 -1 -20l-11 -97c-10 -87.333 -66.667 -131 -170 -131c-50.667 0 -87.834 10 -111.501 30s-35.5 46.333 -35.5 79
c0 9.33301 0.333008 17 1 23l8 66c1.33301 9.33301 6.33301 14 15 14h36c8 0 11.333 -4.66699 10 -14l-8 -63c-0.666992 -5.33301 -1 -11.666 -1 -18.999c0 -42 29.667 -63 89 -63c63.333 0 98.333 26 105 78l11 85c0.666992 7.33301 1 13 1 17c0 28.667 -16.667 53 -50 73
l-108 66c-39.333 24.667 -59 59.334 -59 104.001c0 9.33301 0.333008 17 1 23l8 66c5.33301 41.333 20 73.5 44 96.5s64.333 34.5 121 34.5c96 0 144 -36.333 144 -109c0 -7.33301 -0.333008 -14.666 -1 -21.999l-7 -61c-0.666992 -8.66699 -5.66699 -13 -15 -13h-35
c-8.66699 0 -12.667 4.33301 -12 13z" />
    <glyph glyph-name="sacute" unicode="&#x15b;" horiz-adv-x="351" 
d="M303 695l-71.001 -117c-3.33301 -6 -8.66602 -9 -15.999 -9h-29c-8 0 -10 4 -6 12l61 115c4 8 9.66699 12 17 12h38c9.33301 0 11.333 -4.33301 6 -13zM257.999 360l4 37.001c0.666992 6.66699 1 11.667 1 15c0 29.333 -24 44 -72 44c-47.333 0 -73 -17.667 -77 -53
l-5 -37c-0.666992 -5.33301 -1 -10.333 -1 -15c0 -20 13.333 -36.667 40 -50l92 -48c36.667 -18.667 55 -43.667 55 -75c0 -6 -0.333008 -12.667 -1 -20l-7 -67c-3.33301 -29.333 -16.666 -53.166 -39.999 -71.499s-58 -27.5 -104 -27.5c-42 0 -74 8.33301 -96 25
s-33 37.667 -33 63c0 3.33301 0.333008 7.66602 1 12.999l4 37c0.666992 8 5 12 13 12h33c7.33301 0 10.666 -4 9.99902 -12l-4 -33c-0.666992 -4.66699 -1 -8.33398 -1 -11.001c0 -31.333 25 -47 75 -47c52.667 0 81 18.333 85 55l7 53c0.666992 6.66699 1 12.334 1 17.001
c0 17.333 -12.667 32.666 -38 45.999l-92 48c-38.667 20.667 -58 48.334 -58 83.001c0 3.33301 0.333008 8 1 14l6 47c8.66699 66.667 54.667 100 138 100c41.333 0 72.5 -8.33301 93.5 -25s31.5 -38 31.5 -64c0 -2.66699 -0.333008 -7.33398 -1 -14.001l-5 -39
c-1.33301 -8 -6 -12 -14 -12h-32c-8 0 -11.333 4 -10 12z" />
    <glyph glyph-name="Scircumflex" unicode="&#x15c;" horiz-adv-x="405" 
d="M264 834l-46.999 -83c-4.66699 -8 -10.667 -12 -18 -12h-25c-8.66699 0 -10.667 4.33301 -6 13l71 115c4 7.33301 10.667 11 20 11h21c8 0 13.333 -3.33301 16 -10l44 -116c4 -8.66699 1 -13 -9 -13h-23c-8.66699 0 -14.334 4 -17.001 12zM320.001 496l8.00195 59.998
c0.666992 6 1 12 1 18c0 40.667 -28.667 61 -86 61c-60.667 0 -94.334 -25.667 -101.001 -77l-7 -55c-0.666992 -5.33301 -1 -12 -1 -20c0 -28.667 13 -51 39 -67l113 -69c43.333 -26.667 65 -62.334 65 -107.001c0 -8 -0.333008 -14.667 -1 -20l-11 -97
c-10 -87.333 -66.667 -131 -170 -131c-50.667 0 -87.834 10 -111.501 30s-35.5 46.333 -35.5 79c0 9.33301 0.333008 17 1 23l8 66c1.33301 9.33301 6.33301 14 15 14h36c8 0 11.333 -4.66699 10 -14l-8 -63c-0.666992 -5.33301 -1 -11.666 -1 -18.999
c0 -42 29.667 -63 89 -63c63.333 0 98.333 26 105 78l11 85c0.666992 7.33301 1 13 1 17c0 28.667 -16.667 53 -50 73l-108 66c-39.333 24.667 -59 59.334 -59 104.001c0 9.33301 0.333008 17 1 23l8 66c5.33301 41.333 20 73.5 44 96.5s64.333 34.5 121 34.5
c96 0 144 -36.333 144 -109c0 -7.33301 -0.333008 -14.666 -1 -21.999l-7 -61c-0.666992 -8.66699 -5.66699 -13 -15 -13h-35c-8.66699 0 -12.667 4.33301 -12 13z" />
    <glyph glyph-name="scircumflex" unicode="&#x15d;" horiz-adv-x="351" 
d="M215 664l-46.001 -83c-4.66699 -8 -11 -12 -19 -12h-25c-9.33301 0 -11 4.33301 -5 13l71 115c4.66699 7.33301 11.334 11 20.001 11h21c7.33301 0 12.333 -3.33301 15 -10l45 -116c4 -8.66699 0.666992 -13 -10 -13h-23c-7.33301 0 -12.333 4 -15 12zM257.999 360
l4 37.001c0.666992 6.66699 1 11.667 1 15c0 29.333 -24 44 -72 44c-47.333 0 -73 -17.667 -77 -53l-5 -37c-0.666992 -5.33301 -1 -10.333 -1 -15c0 -20 13.333 -36.667 40 -50l92 -48c36.667 -18.667 55 -43.667 55 -75c0 -6 -0.333008 -12.667 -1 -20l-7 -67
c-3.33301 -29.333 -16.666 -53.166 -39.999 -71.499s-58 -27.5 -104 -27.5c-42 0 -74 8.33301 -96 25s-33 37.667 -33 63c0 3.33301 0.333008 7.66602 1 12.999l4 37c0.666992 8 5 12 13 12h33c7.33301 0 10.666 -4 9.99902 -12l-4 -33
c-0.666992 -4.66699 -1 -8.33398 -1 -11.001c0 -31.333 25 -47 75 -47c52.667 0 81 18.333 85 55l7 53c0.666992 6.66699 1 12.334 1 17.001c0 17.333 -12.667 32.666 -38 45.999l-92 48c-38.667 20.667 -58 48.334 -58 83.001c0 3.33301 0.333008 8 1 14l6 47
c8.66699 66.667 54.667 100 138 100c41.333 0 72.5 -8.33301 93.5 -25s31.5 -38 31.5 -64c0 -2.66699 -0.333008 -7.33398 -1 -14.001l-5 -39c-1.33301 -8 -6 -12 -14 -12h-32c-8 0 -11.333 4 -10 12z" />
    <glyph glyph-name="Scedilla" unicode="&#x15e;" horiz-adv-x="405" 
d="M153 -211l-71.999 -0.00292969c-7.33301 0 -11 4.33301 -11 13v12c0 8.66699 5 13 15 13h66c12 0 23 3.66699 33 11s15 19.666 15 36.999c0 23.333 -12 35 -36 35h-35c-13.333 0 -18 5.66699 -14 17l23 67c-39.333 4 -68.333 15.5 -87 34.5s-28 43.167 -28 72.5
c0 9.33301 0.333008 17 1 23l8 66c1.33301 9.33301 6.33301 14 15 14h36c8 0 11.333 -4.66699 10 -14l-8 -63c-0.666992 -5.33301 -1 -11.666 -1 -18.999c0 -42 29.667 -63 89 -63c63.333 0 98.333 26 105 78l11 85c0.666992 7.33301 1 13 1 17c0 28.667 -16.667 53 -50 73
l-108 66c-39.333 24.667 -59 59.334 -59 104.001c0 9.33301 0.333008 17 1 23l8 66c5.33301 41.333 20 73.5 44 96.5s64.333 34.5 121 34.5c96 0 144 -36.333 144 -109c0 -7.33301 -0.333008 -14.666 -1 -21.999l-7 -61c-0.666992 -8.66699 -5.66699 -13 -15 -13h-35
c-8.66699 0 -12.667 4.33301 -12 13l8 60c0.666992 6 1 12 1 18c0 40.667 -28.667 61 -86 61c-60.667 0 -94.334 -25.667 -101.001 -77l-7 -55c-0.666992 -5.33301 -1 -12 -1 -20c0 -28.667 13 -51 39 -67l113 -69c43.333 -26.667 65 -62.334 65 -107.001
c0 -8 -0.333008 -14.667 -1 -20l-11 -97c-4.66699 -39.333 -19.167 -70.666 -43.5 -93.999s-63.833 -35.666 -118.5 -36.999l-16 -45h14c19.333 0 35.833 -5.33301 49.5 -16s20.5 -27.667 20.5 -51c0 -31.333 -9 -54.333 -27 -69s-39.667 -22 -65 -22z" />
    <glyph glyph-name="scedilla" unicode="&#x15f;" horiz-adv-x="351" 
d="M128 -211l-71.999 0.00195312c-7.33301 0 -11 4.33301 -11 13v12c0 8.66699 5 13 15 13h66c12 0 23 3.66699 33 11s15 19.666 15 36.999c0 23.333 -12 35 -36 35h-35c-13.333 0 -18 5.66699 -14 17l23 67c-32 4 -56.333 13.833 -73 29.5s-25 34.5 -25 56.5
c0 3.33301 0.333008 7.66602 1 12.999l4 37c0.666992 8 5 12 13 12h33c7.33301 0 10.666 -4 9.99902 -12l-4 -33c-0.666992 -4.66699 -1 -8.33398 -1 -11.001c0 -31.333 25 -47 75 -47c52.667 0 81 18.333 85 55l7 53c0.666992 6.66699 1 12.334 1 17.001
c0 17.333 -12.667 32.666 -38 45.999l-92 48c-38.667 20.667 -58 48.334 -58 83.001c0 3.33301 0.333008 8 1 14l6 47c8.66699 66.667 54.667 100 138 100c41.333 0 72.5 -8.33301 93.5 -25s31.5 -38 31.5 -64c0 -3.33301 -0.333008 -8 -1 -14l-5 -39
c-1.33301 -8 -6 -12 -14 -12h-32c-8 0 -11.333 4 -10 12l4 37c0.666992 6.66699 1 11.667 1 15c0 29.333 -24 44 -72 44c-47.333 0 -73 -17.667 -77 -53l-5 -37c-0.666992 -5.33301 -1 -10.333 -1 -15c0 -20 13.333 -36.667 40 -50l92 -48c36.667 -18.667 55 -43.667 55 -75
c0 -6 -0.333008 -12.667 -1 -20l-7 -67c-7.33301 -63.333 -52.333 -96.333 -135 -99l-16 -45h14c19.333 0 35.833 -5.33301 49.5 -16s20.5 -27.667 20.5 -51c0 -31.333 -9 -54.333 -27 -69s-39.667 -22 -65 -22z" />
    <glyph glyph-name="Scaron" unicode="&#x160;" horiz-adv-x="405" 
d="M229 865l28 -81l47 81c4 8.66699 10.333 13 19 13h24c8.66699 0 10.667 -4.33301 6 -13l-72 -116c-4.66699 -6.66699 -11 -10 -19 -10h-21c-8 0 -13.333 3.33301 -16 10l-44 116c-4 8.66699 -1 13 9 13h25c6 0 10.667 -4.33301 14 -13zM320 496l8.00195 59.998
c0.666992 6 1 12 1 18c0 40.667 -28.667 61 -86 61c-60.667 0 -94.334 -25.667 -101.001 -77l-7 -55c-0.666992 -5.33301 -1 -12 -1 -20c0 -28.667 13 -51 39 -67l113 -69c43.333 -26.667 65 -62.334 65 -107.001c0 -8 -0.333008 -14.667 -1 -20l-11 -97
c-10 -87.333 -66.667 -131 -170 -131c-50.667 0 -87.834 10 -111.501 30s-35.5 46.333 -35.5 79c0 9.33301 0.333008 17 1 23l8 66c1.33301 9.33301 6.33301 14 15 14h36c8 0 11.333 -4.66699 10 -14l-8 -63c-0.666992 -5.33301 -1 -11.666 -1 -18.999
c0 -42 29.667 -63 89 -63c63.333 0 98.333 26 105 78l11 85c0.666992 7.33301 1 13 1 17c0 28.667 -16.667 53 -50 73l-108 66c-39.333 24.667 -59 59.334 -59 104.001c0 9.33301 0.333008 17 1 23l8 66c5.33301 41.333 20 73.5 44 96.5s64.333 34.5 121 34.5
c96 0 144 -36.333 144 -109c0 -7.33301 -0.333008 -14.666 -1 -21.999l-7 -61c-0.666992 -8.66699 -5.66699 -13 -15 -13h-35c-8.66699 0 -12.667 4.33301 -12 13z" />
    <glyph glyph-name="scaron" unicode="&#x161;" horiz-adv-x="351" 
d="M179 695l27.002 -81l48 81c5.33301 8.66699 11.666 13 18.999 13h25c7.33301 0 8.66602 -4.33301 3.99902 -13l-71 -116c-4 -6.66699 -10.667 -10 -20 -10h-20c-8 0 -13.333 3.33301 -16 10l-44 116c-4 8.66699 -1 13 9 13h25c6 0 10.667 -4.33301 14 -13zM258.002 360
l4 37.001c0.666992 6.66699 1 11.667 1 15c0 29.333 -24 44 -72 44c-47.333 0 -73 -17.667 -77 -53l-5 -37c-0.666992 -5.33301 -1 -10.333 -1 -15c0 -20 13.333 -36.667 40 -50l92 -48c36.667 -18.667 55 -43.667 55 -75c0 -6 -0.333008 -12.667 -1 -20l-7 -67
c-3.33301 -29.333 -16.666 -53.166 -39.999 -71.499s-58 -27.5 -104 -27.5c-42 0 -74 8.33301 -96 25s-33 37.667 -33 63c0 3.33301 0.333008 7.66602 1 12.999l4 37c0.666992 8 5 12 13 12h33c7.33301 0 10.666 -4 9.99902 -12l-4 -33
c-0.666992 -4.66699 -1 -8.33398 -1 -11.001c0 -31.333 25 -47 75 -47c52.667 0 81 18.333 85 55l7 53c0.666992 6.66699 1 12.334 1 17.001c0 17.333 -12.667 32.666 -38 45.999l-92 48c-38.667 20.667 -58 48.334 -58 83.001c0 3.33301 0.333008 8 1 14l6 47
c8.66699 66.667 54.667 100 138 100c41.333 0 72.5 -8.33301 93.5 -25s31.5 -38 31.5 -64c0 -2.66699 -0.333008 -7.33398 -1 -14.001l-5 -39c-1.33301 -8 -6 -12 -14 -12h-32c-8 0 -11.333 4 -10 12z" />
    <glyph glyph-name="Tcommaaccent" unicode="&#x162;" horiz-adv-x="352" 
d="M74 680h296c9.33301 0 13.666 -4.33301 12.999 -13l-3 -28c-0.666992 -8 -5.66699 -12 -15 -12h-117l-75 -613c-0.666992 -9.33301 -5.66699 -14 -15 -14h-36c-8.66699 0 -12.667 4.66699 -12 14l76 613h-118c-8.66699 0 -12.667 4 -12 12l4 28
c0.666992 8.66699 5.33398 13 14.001 13zM102 -97l5.00195 35.001c0.666992 8 5 12 13 12h29c7.33301 0 10.666 -4 9.99902 -12l-4 -38c-4 -40.667 -23 -78 -57 -112c-6 -6.66699 -11.667 -7.33398 -17 -2.00098l-14 13c-4.66699 3.33301 -4.33398 9 0.999023 17
c18.667 28.667 30 57.667 34 87z" />
    </font>
</defs>
</svg>
