<?xml version="1.0" standalone="no"?>
<!DOCTYPE svg PUBLIC "-//W3C//DTD SVG 1.1//EN" "http://www.w3.org/Graphics/SVG/1.1/DTD/svg11.dtd" >
<svg>
<metadata>
Created by FontForge 20090914 at Fri Mar 18 19:17:19 2016
 By www-data
Copyright (c) 2015 by Eduardo Manso. All rights reserved.
</metadata>
<defs>
<font id="GeogrotesqueComp-LtIt" horiz-adv-x="240" >
  <font-face 
    font-family="GeogrotesqueComp-LtIt"
    font-weight="400"
    font-style="italic"
    font-stretch="ultra-condensed"
    units-per-em="1000"
    panose-1="0 0 0 0 0 0 0 0 0 0"
    ascent="782"
    descent="-218"
    x-height="493"
    cap-height="680"
    bbox="-148.251 -218 1419 964"
    underline-thickness="32"
    underline-position="-93"
    slope="-7"
    unicode-range="U+000D-U+FF19"
  />
<missing-glyph horiz-adv-x="818" 
d="M698 94c-69.333 -68 -152.333 -101.999 -249 -101.999c-96 0 -178 34 -246 102c-68.667 67.333 -103 149.666 -103 246.999c0 96 34.333 178.333 103 247c68 68 150 102 246 102c98 0 181 -34 249 -102c68.667 -68.667 103 -151 103 -247s-34.333 -178.333 -103 -247z
M686 106.001c66 66 99 144.332 99 234.999s-33 169 -99 235c-65.333 65.333 -144.333 98 -237 98c-90.667 0 -168.667 -32.667 -234 -98c-66 -66 -99 -144.333 -99 -235c0 -91.333 33 -169.666 99 -234.999c65.333 -65.333 143.333 -98 234 -98
c92.667 0 171.667 32.667 237 98zM575 189l-124 124.002l-124 -123c-6 -6 -11.333 -6 -16 0l-12 13c-4.66699 6 -4.66699 11.333 0 16l123 122l-123 125c-4.66699 5.33301 -4.66699 10.333 0 15l12 13c6 5.33301 11.333 5.66602 16 0.999023l124 -125l125 124
c5.33301 5.33301 10.333 5.66602 15 0.999023l12 -13c4.66699 -4.66699 4.66699 -10 0 -16l-124 -125l124 -123c6 -6 6 -11.667 0 -17l-13 -12c-5.33301 -4.66699 -10.333 -4.66699 -15 0z" />
    <glyph glyph-name="fi" unicode="fi" horiz-adv-x="392" 
d="M355 480l-57.999 -469.001c-0.666992 -7.33301 -4.66699 -11 -12 -11h-25c-6.66699 0 -9.66699 3.66699 -9 11l54 441h-164l-79 -636c-0.666992 -7.33301 -4.33398 -11 -11.001 -11h-25c-7.33301 0 -10.666 3.66699 -9.99902 11l79 636h-45c-6.66699 0 -9.66699 4 -9 12
l1 13c0.666992 6.66699 4.66699 10.334 12 11.001l37 3h8l11 94c4.66699 35.333 17.834 62.5 39.501 81.5s56.5 28.5 104.5 28.5h99c7.33301 0 10.666 -3.66699 9.99902 -11l-2 -18c-0.666992 -7.33301 -4.66699 -11 -12 -11h-98c-58 0 -89.667 -23.667 -95 -71l-11 -93h200
c7.33301 0 10.666 -3.66699 9.99902 -11z" />
    <glyph glyph-name="fl" unicode="fl" horiz-adv-x="395" 
d="M383 684l-82.999 -673.001c-0.666992 -7.33301 -4.66699 -11 -12 -11h-25c-6.66699 0 -9.66699 3.66699 -9 11l79 644h-82c-57.333 0 -89 -23.667 -95 -71l-11 -93h75c6.66699 0 9.66699 -3.33301 9 -10l-2 -17c-0.666992 -8 -4.66699 -12 -12 -12h-74l-79 -636
c-0.666992 -7.33301 -4.33398 -11 -11.001 -11h-25c-7.33301 0 -10.666 3.66699 -9.99902 11l79 636h-45c-6.66699 0 -9.66699 4 -9 12l1 13c0.666992 6.66699 4.66699 10.334 12 11.001l37 3h8l11 96c8 72 56 108 144 108h119c7.33301 0 10.666 -3.66699 9.99902 -11z" />
    <glyph glyph-name=".notdef" horiz-adv-x="818" 
d="M698 94c-69.333 -68 -152.333 -101.999 -249 -101.999c-96 0 -178 34 -246 102c-68.667 67.333 -103 149.666 -103 246.999c0 96 34.333 178.333 103 247c68 68 150 102 246 102c98 0 181 -34 249 -102c68.667 -68.667 103 -151 103 -247s-34.333 -178.333 -103 -247z
M686 106.001c66 66 99 144.332 99 234.999s-33 169 -99 235c-65.333 65.333 -144.333 98 -237 98c-90.667 0 -168.667 -32.667 -234 -98c-66 -66 -99 -144.333 -99 -235c0 -91.333 33 -169.666 99 -234.999c65.333 -65.333 143.333 -98 234 -98
c92.667 0 171.667 32.667 237 98zM575 189l-124 124.002l-124 -123c-6 -6 -11.333 -6 -16 0l-12 13c-4.66699 6 -4.66699 11.333 0 16l123 122l-123 125c-4.66699 5.33301 -4.66699 10.333 0 15l12 13c6 5.33301 11.333 5.66602 16 0.999023l124 -125l125 124
c5.33301 5.33301 10.333 5.66602 15 0.999023l12 -13c4.66699 -4.66699 4.66699 -10 0 -16l-124 -125l124 -123c6 -6 6 -11.667 0 -17l-13 -12c-5.33301 -4.66699 -10.333 -4.66699 -15 0z" />
    <glyph glyph-name=".null" horiz-adv-x="0" 
 />
    <glyph glyph-name=".null" horiz-adv-x="0" 
 />
    <glyph glyph-name="CR" unicode="&#xd;" horiz-adv-x="0" 
 />
    <glyph glyph-name="space" unicode=" " horiz-adv-x="169" 
 />
    <glyph glyph-name="exclam" unicode="!" horiz-adv-x="169" 
d="M122 390l-33 -224c-0.666992 -7.33301 -4.66699 -11 -12 -11h-18c-7.33301 0 -10.666 3.66699 -9.99902 11l23 224l34 279c0.666992 7.33301 4.66699 11 12 11h28c7.33301 0 10.666 -3.66699 9.99902 -11zM83 88l-9.00098 -77c-0.666992 -7.33301 -4.66699 -11 -12 -11
h-26c-7.33301 0 -10.666 3.66699 -9.99902 11l10 77c1.33301 7.33301 5.33301 11 12 11h26c7.33301 0 10.333 -3.66699 9 -11z" />
    <glyph glyph-name="quotedbl" unicode="&#x22;" horiz-adv-x="242" 
d="M238 669l-26 -174c-0.666992 -7.33301 -4.66699 -11 -12 -11h-16c-7.33301 0 -10.666 3.66699 -9.99902 11l17 174c0.666992 7.33301 4.66699 11 12 11h25c7.33301 0 10.666 -3.66699 9.99902 -11zM142 669l-25.999 -174c-0.666992 -7.33301 -4.66699 -11 -12 -11h-17
c-6.66699 0 -9.66699 3.66699 -9 11l17 174c0.666992 7.33301 4.66699 11 12 11h25c7.33301 0 10.666 -3.66699 9.99902 -11z" />
    <glyph glyph-name="numbersign" unicode="#" horiz-adv-x="424" 
d="M190 392l-49 -122h105l50 122h-106zM47 270h54.0029l49 122h-48c-8 0 -11.333 3.66699 -10 11l2 14c0.666992 7.33301 4.66699 11 12 11h59l41 103c3.33301 7.33301 8.66602 11 15.999 11h18c6.66699 0 8.66699 -3.66699 6 -11l-41 -103h105l41 103
c3.33301 7.33301 8.66602 11 15.999 11h18c6.66699 0 8.66699 -3.66699 6 -11l-41 -103h43c7.33301 0 10.666 -3.66699 9.99902 -11l-1 -14c-1.33301 -7.33301 -5.66602 -11 -12.999 -11h-53l-50 -122h48c7.33301 0 10.666 -3.66699 9.99902 -11l-1 -14
c-0.666992 -7.33301 -5 -11 -13 -11h-58l-40 -100c-2.66699 -8 -7.66699 -12 -15 -12h-19c-7.33301 0 -9.33301 4 -6 12l40 100h-105l-40 -100c-3.33301 -8 -8.33301 -12 -15 -12h-19c-7.33301 0 -9.33301 4 -6 12l40 100h-44c-6.66699 0 -9.66699 3.66699 -9 11l1 14
c0.666992 7.33301 4.66699 11 12 11z" />
    <glyph glyph-name="dollar" unicode="$" horiz-adv-x="352" 
d="M152 0l-25.001 -0.00195312c-6.66699 0 -9.66699 3.66699 -9 11l9 75c-31.333 4 -55.166 13.5 -71.499 28.5s-24.5 33.5 -24.5 55.5c0 2.66699 0.333008 6.66699 1 12l4 38c0.666992 6.66699 4.33398 10 11.001 10h24c6 0 8.66699 -3.33301 8 -10l-4 -35
c-0.666992 -6 -1 -10.333 -1 -13c0 -15.333 7 -27.666 21 -36.999s34.333 -14 61 -14c57.333 0 88.333 20.667 93 62l7 60c0.666992 6.66699 1 12.334 1 17.001c0 20 -13.667 36.667 -41 50l-89 44c-40 20 -60 47.333 -60 82c0 3.33301 0.333008 8 1 14l6 48
c7.33301 58.667 46 90.334 116 95.001l9 76c0.666992 7.33301 4.33398 11 11.001 11h25c7.33301 0 10.666 -3.66699 9.99902 -11l-9 -77c29.333 -4 51.666 -13.5 66.999 -28.5s23 -33.167 23 -54.5c0 -3.33301 -0.333008 -8 -1 -14l-5 -41c-1.33301 -6.66699 -5 -10 -11 -10
h-23c-7.33301 0 -10.333 3.33301 -9 10l5 39c0.666992 6.66699 1 11.667 1 15c0 33.333 -26.333 50 -79 50c-52 0 -80.667 -19.667 -86 -59l-5 -40c-0.666992 -6 -1 -12.333 -1 -19c0 -22.667 14.667 -40.334 44 -53.001l89 -43c37.333 -18 56 -42.667 56 -74
c0 -4.66699 -0.333008 -11 -1 -19l-8 -71c-7.33301 -58 -47.333 -89.333 -120 -94l-8 -75c-0.666992 -7.33301 -4.66699 -11 -12 -11z" />
    <glyph glyph-name="percent" unicode="%" horiz-adv-x="586" 
d="M485 677l-335.001 -674c-4 -7.33301 -9.33301 -11 -16 -11h-18c-6.66699 0 -8 3.66699 -4 11l334 674c4 7.33301 9.66699 11 17 11h17c6.66699 0 8.33398 -3.66699 5.00098 -11zM262.999 606l-28 -222c-2.66699 -23.333 -10.834 -41.333 -24.501 -54
s-37.167 -19 -70.5 -19c-58 0 -87 21 -87 63c0 4 0.333008 8.66699 1 14l28 222c2.66699 23.333 10.834 41.5 24.501 54.5s37.167 19.5 70.5 19.5c58 0 87 -21 87 -63c0 -3.33301 -0.333008 -8.33301 -1 -15zM93.999 396
c-1.33301 -10.667 -2.00098 -16.666 -2.00098 -17.999c0 -22.667 16.333 -34 49 -34c34 0 52.667 14.333 56 43l27 219c0.666992 5.33301 1 8.66602 1 9.99902c0 23.333 -16.667 35 -50 35s-51.666 -14.333 -54.999 -43zM542.998 291.001l-28 -222
c-2.66699 -23.333 -10.834 -41.333 -24.501 -54s-37.167 -19 -70.5 -19c-58 0 -87 21 -87 63c0 4 0.333008 8.66699 1 14l28 222c2.66699 23.333 10.834 41.5 24.501 54.5s37.167 19.5 70.5 19.5c58 0 87 -21 87 -63c0 -3.33301 -0.333008 -8.33301 -1 -15zM373.998 81.001
c-1.33301 -10.667 -2.00098 -16.667 -2.00098 -18c0 -22.667 16.333 -34 49 -34c34 0 52.667 14.333 56 43l27 218c0.666992 6 1 9.66699 1 11c0 23.333 -16.667 35 -50 35s-51.666 -14.333 -54.999 -43z" />
    <glyph glyph-name="ampersand" unicode="&#x26;" horiz-adv-x="469" 
d="M359 117c-10.667 -83.333 -69.001 -125 -175.001 -125c-100.667 0 -151 35.333 -151 106c0 5.33301 0.333008 11.333 1 18l17 144c3.33301 28.667 11.833 51.334 25.5 68.001s36.167 28.667 67.5 36c-42 8.66699 -63 34.667 -63 78c0 4 0.666992 12 2 24l12 99
c4.66699 39.333 17.834 69.666 39.501 90.999s58.834 32 111.501 32c42.667 0 75.167 -8.5 97.5 -25.5s33.5 -41.5 33.5 -73.5c0 -5.33301 -0.333008 -12.333 -1 -21l-3 -36c-1.33301 -7.33301 -5.66602 -11 -12.999 -11h-25c-7.33301 0 -10.333 3.66699 -9 11l3 32
c0.666992 6 1 13.333 1 22c0 41.333 -29 62 -87 62c-60.667 0 -94.334 -28.333 -101.001 -85l-12 -95c-1.33301 -12 -2 -19.667 -2 -23c0 -20.667 7.16699 -36.167 21.5 -46.5s39.833 -15.5 76.5 -15.5h215c7.33301 0 10.666 -3.66699 9.99902 -11l-2 -18
c-0.666992 -7.33301 -5 -11 -13 -11h-50zM187.999 32c76.667 0 118.333 29.001 125 87.001l27 224h-125c-42.667 0 -72 -6.83301 -88 -20.5s-25.667 -34.834 -29 -63.501l-17 -137c-0.666992 -5.33301 -1 -11 -1 -17c0 -48.667 36 -73 108 -73z" />
    <glyph glyph-name="quotesingle" unicode="'" horiz-adv-x="146" 
d="M142 669l-25.999 -174c-0.666992 -7.33301 -4.66699 -11 -12 -11h-17c-6.66699 0 -9.66699 3.66699 -9 11l17 174c0.666992 7.33301 4.66699 11 12 11h25c7.33301 0 10.666 -3.66699 9.99902 -11z" />
    <glyph glyph-name="parenleft" unicode="(" horiz-adv-x="221" 
d="M9 -106l87.002 705c4 35.333 16.667 62.333 38 81s55 28 101 28h6c7.33301 0 10.666 -3.66699 9.99902 -11l-2 -18c-0.666992 -7.33301 -5 -11 -13 -11h-3c-54 0 -84 -23 -90 -69l-87 -705c-0.666992 -4.66699 -1 -10 -1 -16c0 -37.333 24.333 -56 73 -56h4
c7.33301 0 10.666 -3.66699 9.99902 -11l-2 -18c-0.666992 -7.33301 -5 -11 -13 -11h-5c-76 0 -114 29.667 -114 89c0 9.33301 0.333008 17 1 23z" />
    <glyph glyph-name="parenright" unicode=")" horiz-adv-x="221" 
d="M200 596l-87 -705c-4 -35.333 -16.667 -62.333 -38 -81s-55 -28 -101 -28h-7c-6.66699 0 -9.66699 3.66699 -9 11l2 18c0.666992 7.33301 5 11 13 11h3c53.333 0 83 23 89 69l87 705c0.666992 6 1 11.667 1 17c0 36.667 -24.333 55 -73 55h-4
c-6.66699 0 -9.66699 3.66699 -9 11l2 18c0.666992 7.33301 4.66699 11 12 11h5c76.667 0 115 -29.667 115 -89c0 -9.33301 -0.333008 -17 -1 -23z" />
    <glyph glyph-name="asterisk" unicode="*" horiz-adv-x="342" 
d="M162 393l19.002 125l-90 -70c-6.66699 -6 -11.667 -5.33301 -15 2l-5 13c-2 5.33301 -0.333008 10 5 14l96 68l-80 68c-4.66699 4 -5 9 -1 15l8 12c5.33301 7.33301 10.666 8.33301 15.999 3l73 -72l12 128c1.33301 8 5.66602 12 12.999 12h13
c6.66699 0 9.66699 -4 9 -12l-19 -128l90 72c6 4.66699 11 3.66699 15 -3l6 -12c2.66699 -5.33301 1 -10.333 -5 -15l-97 -68l80 -68c4 -4 4.33301 -8.66699 1 -14l-8 -12c-4.66699 -7.33301 -10 -8.33301 -16 -3l-73 70l-12 -125c-0.666992 -8 -4.66699 -12 -12 -12h-13
c-8 0 -11.333 4 -10 12z" />
    <glyph glyph-name="plus" unicode="+" horiz-adv-x="374" 
d="M173 154v165h-119c-7.33301 0 -11 3.66699 -11 11v18c0 7.33301 3.66699 11 11 11h119v165c0 8 3.33301 12 10 12h18c7.33301 0 11 -4 11 -12v-165h120c7.33301 0 11 -3.66699 11 -11v-18c0 -7.33301 -3.66699 -11 -11 -11h-120v-165c0 -7.33301 -3.66699 -11 -11 -11
h-18c-6.66699 0 -10 3.66699 -10 11z" />
    <glyph glyph-name="comma" unicode="," horiz-adv-x="153" 
d="M23 30l7.00098 58.001c1.33301 7.33301 5.33301 11 12 11h25c7.33301 0 10.333 -3.66699 9 -11l-7 -61c-6 -54 -32.333 -90.333 -79 -109c-6 -2.66699 -10.333 -1.33398 -13 3.99902l-7 17c-2.66699 6 -0.333984 11 6.99902 15c26.667 14.667 42 40 46 76z" />
    <glyph glyph-name="hyphen" unicode="-" horiz-adv-x="316" 
d="M63 309h189c7.33301 0 11 -3.66699 11 -11v-18c0 -7.33301 -3.66699 -11 -11 -11h-189c-7.33301 0 -11 3.66699 -11 11v18c0 7.33301 3.66699 11 11 11z" />
    <glyph glyph-name="period" unicode="." horiz-adv-x="150" 
d="M75 88l-8.99902 -77c-0.666992 -7.33301 -4.66699 -11 -12 -11h-26c-6.66699 0 -9.66699 3.66699 -9 11l9 77c1.33301 7.33301 5.66602 11 12.999 11h25c7.33301 0 10.333 -3.66699 9 -11z" />
    <glyph glyph-name="slash" unicode="/" horiz-adv-x="260" 
d="M281 688l-260 -825c-2 -7.33301 -6.66699 -11 -14 -11h-26c-6 0 -8 3.66699 -6 11l259 825c2 7.33301 6.66699 11 14 11h26c6.66699 0 9 -3.66699 7 -11z" />
    <glyph glyph-name="zero" unicode="0" horiz-adv-x="409" 
d="M38 120l55 440.999c5.33301 40.667 19 72 41 94s60.333 33 115 33c90 0 135 -34.333 135 -103c0 -3.33301 -0.666992 -11.666 -2 -24.999l-53 -441c-5.33301 -40 -19.5 -71.167 -42.5 -93.5s-61.5 -33.5 -115.5 -33.5c-90 0 -135 34 -135 102c0 4 0.666992 12.667 2 26z
M281 119.999l53.999 438c1.33301 10.667 2 18 2 22c0 22 -6.83301 38.667 -20.5 50s-37.5 17 -71.5 17c-36 0 -61.667 -7.5 -77 -22.5s-24.666 -36.5 -27.999 -64.5l-55 -438c-1.33301 -10.667 -2 -18 -2 -22c0 -44.667 30.667 -67 92 -67c36 0 61.833 7.5 77.5 22.5
s25.167 36.5 28.5 64.5z" />
    <glyph glyph-name="one" unicode="1" horiz-adv-x="359" 
d="M95 643l156 38.999c3.33301 0.666992 6 0.166992 8 -1.5s2.66699 -4.5 2 -8.5l-78 -631h116c6.66699 0 9.66699 -3.66699 9 -11l-2 -19c-0.666992 -7.33301 -4.66699 -11 -12 -11h-279c-6.66699 0 -9.66699 3.66699 -9 11l2 19c0.666992 7.33301 4.66699 11 12 11h116
l73 591l-119 -31c-3.33301 -1.33301 -6 -1.16602 -8 0.500977s-2.66699 4.16699 -2 7.5l2 21c0.666992 6.66699 5 11 13 13z" />
    <glyph glyph-name="two" unicode="2" horiz-adv-x="390" 
d="M75 41h224c7.33301 0 10.666 -3.66699 9.99902 -11l-2 -19c-0.666992 -7.33301 -5 -11 -13 -11h-260c-7.33301 0 -10.666 3.66699 -9.99902 11l23 190c5.33301 48 35.666 84.667 90.999 110l111 52c36.667 16.667 57.334 43 62.001 79l14 117c1.33301 12 2 19.667 2 23
c0 21.333 -6.83301 37.5 -20.5 48.5s-37.167 16.5 -70.5 16.5c-36 0 -61.333 -7.5 -76 -22.5s-24 -36.5 -28 -64.5l-9 -67c-0.666992 -8 -4.66699 -12 -12 -12h-25c-8 0 -11.333 4 -10 12l9 67c6 41.333 19.833 73 41.5 95s59.5 33 113.5 33c89.333 0 134 -34 134 -102
c0 -5.33301 -0.666992 -14 -2 -26l-15 -122c-6 -50 -33.667 -87 -83 -111l-110 -52c-42.667 -21.333 -66 -48 -70 -80z" />
    <glyph glyph-name="three" unicode="3" horiz-adv-x="390" 
d="M149 383l49.0029 -0.00195312c38 0 64.167 7 78.5 21s23.5 35.667 27.5 65l12 93c1.33301 12 2 19.333 2 22c0 42.667 -28.667 64 -86 64c-34.667 0 -59.5 -7.16699 -74.5 -21.5s-24.167 -35.166 -27.5 -62.499l-4 -32c-1.33301 -7.33301 -5.33301 -11 -12 -11h-25
c-7.33301 0 -10.333 3.66699 -9 11l3 31c4 39.333 17.333 70 40 92s60 33 112 33c86.667 0 130 -32.667 130 -98c0 -5.33301 -0.666992 -14 -2 -26l-12 -96c-4 -29.333 -11.667 -52.333 -23 -69s-30 -28.334 -56 -35.001c39.333 -12.667 59 -39.667 59 -81
c0 -4 -0.666992 -12.667 -2 -26l-17 -142c-4.66699 -39.333 -18.334 -69.666 -41.001 -90.999s-60.334 -32 -113.001 -32c-90 0 -135 33.333 -135 100c0 3.33301 0.666992 12.333 2 27l3 29c1.33301 7.33301 5.66602 11 12.999 11h25c7.33301 0 10.333 -3.66699 9 -11
l-4 -30c-0.666992 -6 -1 -12.667 -1 -20c0 -44 30.333 -66 91 -66c35.333 0 60.5 7.16699 75.5 21.5s24.5 35.5 28.5 63.5l18 138c1.33301 10.667 2 19 2 25c0 20.667 -6.5 36.334 -19.5 47.001s-35.833 16 -68.5 16h-52c-6 0 -9 3.66699 -9 11l1 18c0 7.33301 4 11 12 11z
" />
    <glyph glyph-name="four" unicode="4" horiz-adv-x="386" 
d="M220 669l-142.999 -401h197l49 401c0.666992 7.33301 4.66699 11 12 11h25c7.33301 0 10.666 -3.66699 9.99902 -11l-81 -658c-0.666992 -7.33301 -4.66699 -11 -12 -11h-25c-7.33301 0 -10.666 3.66699 -9.99902 11l27 216h-236c-6.66699 0 -9.66699 3.66699 -9 11l2 15
c2 10 4 18 6 24l141 392c3.33301 7.33301 8.33301 11 15 11h25c7.33301 0 9.66602 -3.66699 6.99902 -11z" />
    <glyph glyph-name="five" unicode="5" horiz-adv-x="383" 
d="M119 680h235.002c8 0 11.667 -3.66699 11 -11l-3 -19c-0.666992 -7.33301 -4.66699 -11 -12 -11h-200l-29 -233h80c42 0 74.5 -8.16699 97.5 -24.5s34.5 -39.833 34.5 -70.5c0 -6 -0.333008 -12 -1 -18l-21 -176c-4.66699 -40.667 -17.834 -71.667 -39.501 -93
s-59.5 -32 -113.5 -32c-86.667 0 -130 34 -130 102c0 6.66699 0.333008 14.334 1 23.001l3 31c1.33301 7.33301 5.66602 11 12.999 11h25c7.33301 0 10.333 -3.66699 9 -11l-3 -30c-0.666992 -6.66699 -1 -14 -1 -22c0 -20.667 6.33301 -36.5 19 -47.5
s35.334 -16.5 68.001 -16.5c36 0 61.167 7.16699 75.5 21.5s23.166 35.5 26.499 63.5l21 173c0.666992 5.33301 1 10.666 1 15.999c0 40 -30.667 60 -92 60h-113c-8 0 -11.333 3.66699 -10 11l36 292c0.666992 7.33301 4.66699 11 12 11z" />
    <glyph glyph-name="six" unicode="6" horiz-adv-x="400" 
d="M38 120l54.999 447c4 36.667 17 66 39 88s60 33 114 33c86.667 0 130 -33.667 130 -101c0 -6 -0.333008 -12.667 -1 -20l-3 -27c-0.666992 -7.33301 -5 -11 -13 -11h-24c-7.33301 0 -10.666 3.66699 -9.99902 11l3 25c0.666992 6.66699 1 13 1 19
c0 42.667 -28.667 64 -86 64c-36 0 -61.5 -7.16699 -76.5 -21.5s-23.833 -33.833 -26.5 -58.5l-26 -211c18 29.333 54 44 108 44c83.333 0 125 -33.333 125 -100c0 -4.66699 -0.666992 -13.667 -2 -27l-19 -154c-5.33301 -40.667 -19 -72.167 -41 -94.5
s-60.333 -33.5 -115 -33.5c-89.333 0 -134 33.667 -134 101c0 4.66699 0.666992 13.667 2 27zM278.999 119l19.002 154c1.33301 12 2 19.333 2 22c0 44 -30.333 66 -91 66c-62.667 0 -97.334 -26 -104.001 -78l-20 -162c-1.33301 -12 -2 -19.667 -2 -23c0 -44 30 -66 90 -66
c36.667 0 62.667 7.5 78 22.5s24.666 36.5 27.999 64.5z" />
    <glyph glyph-name="seven" unicode="7" horiz-adv-x="356" 
d="M79 680h291.003c7.33301 0 10.666 -3.33301 9.99902 -10l-2 -17c-0.666992 -4.66699 -2.33398 -9.66699 -5.00098 -15l-261 -627c-2.66699 -7.33301 -7.33398 -11 -14.001 -11h-30c-8 -0 -10.333 4.33301 -7 13l262 626h-247c-8 0 -11.667 3.66699 -11 11l2 19
c0.666992 7.33301 4.66699 11 12 11z" />
    <glyph glyph-name="eight" unicode="8" horiz-adv-x="398" 
d="M84 471l10 89c4.66699 42 17.167 73.833 37.5 95.5s57.5 32.5 111.5 32.5c46.667 0 79.667 -8.66699 99 -26s29 -41.666 29 -72.999c0 -6 -0.666992 -15.667 -2 -29l-11 -89c-4 -30.667 -11.833 -54.5 -23.5 -71.5s-32.167 -28.833 -61.5 -35.5
c44.667 -10 67 -37.667 67 -83c0 -8.66699 -0.333008 -16 -1 -22l-17 -139c-5.33301 -41.333 -19 -73 -41 -95s-60.667 -33 -116 -33c-88 0 -132 34 -132 102c0 4 0.666992 12.667 2 26l16 139c3.33301 29.333 11.5 52.666 24.5 69.999s34.833 29 65.5 35
c-39.333 10.667 -59 37.667 -59 81c0 5.33301 0.666992 14 2 26zM312 470l11.001 90.998c1.33301 12 2 20 2 24c0 20.667 -6.16699 36.334 -18.5 47.001s-34.5 16 -66.5 16c-35.333 0 -59.833 -7.16699 -73.5 -21.5s-22.167 -35.833 -25.5 -64.5l-11 -90
c-1.33301 -13.333 -2 -21.666 -2 -24.999c0 -20.667 5.83301 -36.167 17.5 -46.5s33.167 -15.5 64.5 -15.5c36 0 61.167 7.16699 75.5 21.5s23.166 35.5 26.499 63.5zM275.001 118.998l16.999 138.001c0.666992 7.33301 1 14.666 1 21.999c0 22 -6.33301 38.5 -19 49.5
s-35.667 16.5 -69 16.5c-37.333 0 -63.666 -7.33301 -78.999 -22s-24.666 -36 -27.999 -64l-17 -139c-0.666992 -6 -1 -13.667 -1 -23c0 -43.333 29.667 -65 89 -65c36.667 0 62.667 7.5 78 22.5s24.666 36.5 27.999 64.5z" />
    <glyph glyph-name="nine" unicode="9" horiz-adv-x="400" 
d="M132 561l-19.001 -154.001c-1.33301 -12 -2 -19.333 -2 -22c0 -44 29.667 -66 89 -66c64 0 99.333 26 106 78l20 163c1.33301 10.667 2 18.334 2 23.001c0 43.333 -30 65 -90 65c-36.667 0 -62.667 -7.5 -78 -22.5s-24.666 -36.5 -27.999 -64.5zM371.999 559.999
l-54.001 -447c-4 -36.667 -17 -66 -39 -88s-59.667 -33 -113 -33c-86.667 0 -130 33.667 -130 101c0 6 0.333008 13.333 1 22l2 25c0.666992 7.33301 4.66699 11 12 11h25c6.66699 0 9.66699 -3.66699 9 -11l-2 -24c-0.666992 -8 -1 -14.333 -1 -19c0 -43.333 29 -65 87 -65
c35.333 0 60.5 7.16699 75.5 21.5s23.833 33.833 26.5 58.5l26 211c-19.333 -29.333 -55.666 -44 -108.999 -44c-82.667 0 -124 33.333 -124 100c0 6 0.666992 15 2 27l19 154c5.33301 40.667 19 72.167 41 94.5s60 33.5 114 33.5c89.333 0 134 -34 134 -102
c0 -5.33301 -0.666992 -14 -2 -26z" />
    <glyph glyph-name="colon" unicode=":" horiz-adv-x="161" 
d="M127 481l-9.99902 -77c-1.33301 -7.33301 -5.33301 -11 -12 -11h-25c-8 0 -11.333 3.66699 -10 11l10 77c1.33301 8 5.33301 12 12 12h25c7.33301 0 10.666 -4 9.99902 -12zM78.001 88l-9.00098 -77c-0.666992 -7.33301 -4.66699 -11 -12 -11h-25
c-6.66699 0 -9.66699 3.66699 -9 11l9 77c1.33301 7.33301 5.33301 11 12 11h26c6.66699 0 9.33398 -3.66699 8.00098 -11z" />
    <glyph glyph-name="semicolon" unicode=";" horiz-adv-x="181" 
d="M140 481l-9.00098 -77c-1.33301 -7.33301 -5.33301 -11 -12 -11h-25c-8 0 -11.333 3.66699 -10 11l9 77c0.666992 8 5 12 13 12h26c6.66699 0 9.33398 -4 8.00098 -12zM37.999 30l7.00098 58.001c1.33301 7.33301 5.33301 11 12 11h27c7.33301 0 10.333 -3.66699 9 -11
l-8 -61c-6.66699 -54.667 -33 -91 -79 -109c-6 -2.66699 -10.333 -1.33398 -13 3.99902l-7 17c-2.66699 6 -0.333984 11 6.99902 15c26 14 41 39.333 45 76z" />
    <glyph glyph-name="less" unicode="&#x3c;" horiz-adv-x="371" 
d="M300 480l-222 -139.001l222 -140c7.33301 -4.66699 11 -9.66699 11 -15v-27c0 -8.66699 -3.66699 -10.667 -11 -6l-251 161c-6.66699 4.66699 -10 9.33398 -10 14.001v24c0 5.33301 3.33301 10.333 10 15l251 161c7.33301 4.66699 11 2.66699 11 -6v-26
c0 -6 -3.66699 -11.333 -11 -16z" />
    <glyph glyph-name="equal" unicode="=" horiz-adv-x="448" 
d="M86 440h283c7.33301 0 11 -3.66699 11 -11v-19c0 -7.33301 -3.66699 -11 -11 -11h-283c-7.33301 0 -11 3.66699 -11 11v19c0 7.33301 3.66699 11 11 11zM86 271h283c7.33301 0 11 -3.66699 11 -11v-19c0 -7.33301 -3.66699 -11 -11 -11h-283
c-7.33301 0 -11 3.66699 -11 11v19c0 7.33301 3.66699 11 11 11z" />
    <glyph glyph-name="greater" unicode="&#x3e;" horiz-adv-x="361" 
d="M295 341l-223 139.001c-7.33301 5.33301 -11 10.666 -11 15.999v26c0 4 1.16699 6.66699 3.5 8s4.83301 1 7.5 -1l251 -162c6.66699 -4 10 -9 10 -15v-24c0 -5.33301 -3.33301 -10 -10 -14l-251 -161c-2.66699 -1.33301 -5.16699 -1.5 -7.5 -0.5s-3.5 3.16699 -3.5 6.5
v27c0 6 3.66699 11 11 15z" />
    <glyph glyph-name="question" unicode="?" horiz-adv-x="367" 
d="M137 166l11.999 102.999c4 34 22.667 62.667 56 86l54 37c25.333 16.667 39.666 39 42.999 67l12 100c1.33301 12 2 19 2 21c0 44.667 -31.333 67 -94 67c-37.333 0 -63.833 -7.33301 -79.5 -22s-25.5 -36 -29.5 -64l-9 -68c-1.33301 -8 -5.33301 -12 -12 -12h-25
c-7.33301 0 -10.333 4 -9 12l8 68c4.66699 40.667 18.334 72 41.001 94s61.667 33 117 33c92.667 0 139 -34.667 139 -104c0 -5.33301 -0.666992 -13.333 -2 -24l-12 -100c-4.66699 -38.667 -26.334 -71.667 -65.001 -99l-48 -34
c-23.333 -17.333 -36.666 -38.666 -39.999 -63.999l-12 -97c-0.666992 -7.33301 -4.66699 -11 -12 -11h-25c-7.33301 0 -10.666 3.66699 -9.99902 11zM173.999 87.999l-9.00098 -77c-0.666992 -7.33301 -4.66699 -11 -12 -11h-25c-7.33301 0 -10.666 3.66699 -9.99902 11
l9 77c1.33301 7.33301 5.66602 11 12.999 11h26c6.66699 0 9.33398 -3.66699 8.00098 -11z" />
    <glyph glyph-name="at" unicode="@" horiz-adv-x="588" 
d="M375 -111l-135.001 0.00292969c-143.333 0 -215 41.667 -215 125c0 9.33301 0.666992 18.666 2 27.999l53 425c2.66699 22 8.16699 41.167 16.5 57.5s21.5 31.5 39.5 45.5s43.167 24.833 75.5 32.5s71.833 11.5 118.5 11.5c148 0 222 -41.667 222 -125
c0 -8.66699 -0.333008 -16.334 -1 -23.001l-41 -329c-8.66699 -69.333 -42.334 -104 -101.001 -104c-43.333 0 -69 18.667 -77 56c-39.333 -37.333 -78.666 -56 -117.999 -56c-50 0 -75 22 -75 66c0 10 1 20.333 3 31l52 232c14.667 64.667 48.334 97 101.001 97
c37.333 0 70 -15.667 98 -47l9 29c1.33301 6.66699 5.33301 10 12 10h21c7.33301 0 10 -3.66699 8 -11l-65 -287c-3.33301 -15.333 -5 -27.333 -5 -36c0 -32.667 13.667 -49 41 -49c28.667 0 45.667 22 51 66l41 331c1.33301 9.33301 2 15.333 2 18
c0 29.333 -13.667 52 -41 68s-74 24 -140 24c-69.333 0 -119.333 -9.33301 -150 -28s-48.334 -45.334 -53.001 -80.001l-53 -425c-1.33301 -12 -2 -19.333 -2 -22c0 -30 13.333 -52.833 40 -68.5s71.334 -23.5 134.001 -23.5h137c6 0 9 -3.66699 9 -11l-1 -17
c0 -7.33301 -4.33301 -11 -13 -11zM237.999 355.003l-49.999 -218c-2 -8 -3 -15.667 -3 -23c0 -25.333 15.667 -38 47 -38s63.666 15.667 96.999 47c0 8 1.33301 17.333 4 28l50 221l-16 19c-3.33301 3.33301 -11.5 8.5 -24.5 15.5s-26.5 10.5 -40.5 10.5
c-32.667 0 -54 -20.667 -64 -62z" />
    <glyph glyph-name="A" unicode="A" horiz-adv-x="393" 
d="M268 249l-28 273.001c-3.33301 28.667 -5 58.667 -5 90c-8 -32.667 -17 -62.334 -27 -89.001l-97 -274h157zM229 680.001h27.999c8 0 12.333 -3.66699 13 -11l68 -658c1.33301 -7.33301 -1.66699 -11 -9 -11h-26c-6.66699 0 -10.667 3.66699 -12 11l-20 198h-172
l-69 -198c-2 -7.33301 -6.33301 -11 -13 -11h-25c-8 0 -10.333 3.66699 -7 11l230 658c2.66699 7.33301 7.33398 11 14.001 11z" />
    <glyph glyph-name="B" unicode="B" horiz-adv-x="422" 
d="M188 0l-144 0.000976562c-6.66699 0 -9.66699 3.66699 -9 11l80 658c0.666992 7.33301 4.66699 11 12 11h119c49.333 0 85.666 -9 108.999 -27s35 -41.667 35 -71c0 -6 -0.666992 -14.333 -2 -25l-12 -97c-6.66699 -56.667 -35 -91.667 -85 -105
c52 -10.667 78 -40.667 78 -90c0 -6.66699 -0.333008 -13.334 -1 -20.001l-14 -122c-9.33301 -82 -64.666 -123 -165.999 -123zM243 640.001h-84l-32 -269h87c68.667 0 106.667 28.667 114 86l13 95c0.666992 8 1 15 1 21c0 44.667 -33 67 -99 67zM215 332.001h-94l-36 -292
h107c70 0 108.333 28.667 115 86l14 117c0.666992 6.66699 1 13 1 19c0 46.667 -35.667 70 -107 70z" />
    <glyph glyph-name="C" unicode="C" horiz-adv-x="399" 
d="M347 196l-8.99805 -77c-4.66699 -40 -19 -71.167 -43 -93.5s-63.667 -33.5 -119 -33.5c-92 0 -138 34.667 -138 104c0 4 0.666992 12 2 24l54 441c5.33301 40 19.833 71.167 43.5 93.5s62.5 33.5 116.5 33.5c93.333 0 140 -35 140 -105c0 -3.33301 -0.666992 -11 -2 -23
l-8 -64c-0.666992 -7.33301 -4.66699 -11 -12 -11h-25c-7.33301 0 -10.333 3.66699 -9 11l7 63c1.33301 12 2 18.667 2 20c0 45.333 -32 68 -96 68c-66.667 0 -103.334 -29 -110.001 -87l-54 -438c-1.33301 -10.667 -2 -17.667 -2 -21c0 -45.333 31.667 -68 95 -68
c67.333 0 104.333 29 111 87l9 76c1.33301 7.33301 5.66602 11 12.999 11h25c7.33301 0 10.333 -3.66699 9 -11z" />
    <glyph glyph-name="D" unicode="D" horiz-adv-x="435" 
d="M188 0l-145 0.000976562c-6 0 -8.66699 3.66699 -8 11l80 658c0.666992 7.33301 4.66699 11 12 11h136c50 0 86.667 -9.66699 110 -29s35 -45.333 35 -78c0 -4.66699 -1 -14.334 -3 -29.001l-51 -417c-5.33301 -40 -20.333 -71.167 -45 -93.5s-65 -33.5 -121 -33.5z
M260 639.001h-101.001l-74 -598h106c70.667 0 109.334 29 116.001 87l50 412c2 12 3 21.333 3 28c0 47.333 -33.333 71 -100 71z" />
    <glyph glyph-name="E" unicode="E" horiz-adv-x="377" 
d="M296 0h-251.997c-6.66699 0 -9.66699 3.66699 -9 11l80 658c0.666992 7.33301 4.66699 11 12 11h242c7.33301 0 10.666 -3.66699 9.99902 -11l-2 -19c-0.666992 -7.33301 -4.66699 -11 -12 -11h-206l-31 -261h191c7.33301 0 10.666 -3.66699 9.99902 -11l-2 -18
c-0.666992 -7.33301 -4.66699 -11 -12 -11h-193l-37 -297h215c7.33301 0 10.666 -3.66699 9.99902 -11l-2 -19c-0.666992 -7.33301 -4.66699 -11 -12 -11z" />
    <glyph glyph-name="F" unicode="F" horiz-adv-x="384" 
d="M127 680h261.003c7.33301 0 10.666 -3.66699 9.99902 -11l-2 -19c-1.33301 -7.33301 -5.33301 -11 -12 -11h-225l-32 -263h210c8 0 11.667 -3.66699 11 -11l-3 -19c-0.666992 -7.33301 -4.33398 -11 -11.001 -11h-212l-40 -324
c-0.666992 -7.33301 -4.33398 -11 -11.001 -11h-27c-6.66699 0 -9.66699 3.66699 -9 11l80 658c0.666992 7.33301 4.66699 11 12 11z" />
    <glyph glyph-name="G" unicode="G" horiz-adv-x="414" 
d="M223 316h128.002c7.33301 0 10.666 -3.66699 9.99902 -11l-23 -186c-5.33301 -40 -19.833 -71.167 -43.5 -93.5s-63.167 -33.5 -118.5 -33.5c-92 0 -138 34.667 -138 104c0 8.66699 0.333008 16.667 1 24l55 441c5.33301 40 19.833 71.167 43.5 93.5
s62.5 33.5 116.5 33.5c93.333 0 140 -35 140 -105c0 -3.33301 -0.666992 -11 -2 -23l-7 -62c-0.666992 -7.33301 -5 -11 -13 -11h-24c-8 0 -11.333 3.66699 -10 11l7 53c1.33301 12 2 21.333 2 28c0 45.333 -32 68 -96 68c-66.667 0 -103.334 -29 -110.001 -87l-54 -438
c-0.666992 -5.33301 -1 -12.333 -1 -21c0 -45.333 31.333 -68 94 -68c67.333 0 104.333 28.333 111 85l20 157h-93c-6.66699 0 -9.66699 3.66699 -9 11l2 19c0.666992 7.33301 4.66699 11 12 11z" />
    <glyph glyph-name="H" unicode="H" horiz-adv-x="444" 
d="M163 669l-34.999 -284h210l35 284c0.666992 7.33301 4.66699 11 12 11h25c7.33301 0 10.666 -3.66699 9.99902 -11l-80 -658c-0.666992 -7.33301 -5 -11 -13 -11h-25c-8 0 -11.333 3.66699 -10 11l41 332h-210l-41 -332c-1.33301 -7.33301 -5 -11 -11 -11h-27
c-6.66699 0 -9.66699 3.66699 -9 11l80 658c0.666992 7.33301 4.66699 11 12 11h27c6.66699 0 9.66699 -3.66699 9 -11z" />
    <glyph glyph-name="I" unicode="I" horiz-adv-x="186" 
d="M163 669l-80.999 -658c-0.666992 -7.33301 -4.33398 -11 -11.001 -11h-27c-6.66699 0 -9.66699 3.66699 -9 11l80 658c0.666992 7.33301 4.66699 11 12 11h27c6.66699 0 9.66699 -3.66699 9 -11z" />
    <glyph glyph-name="J" unicode="J" horiz-adv-x="361" 
d="M54 171l-6.99902 -51c-0.666992 -6 -1 -13.333 -1 -22c0 -43.333 27.333 -65 82 -65c32.667 0 56.167 7.33301 70.5 22s23.166 36 26.499 64l67 550c0.666992 7.33301 4.66699 11 12 11h26c8 0 11.333 -3.66699 10 -11l-68 -550c-5.33301 -40.667 -18.5 -72 -39.5 -94
s-56.833 -33 -107.5 -33c-84 0 -126 34 -126 102c0 5.33301 0.666992 14 2 26l6 51c0.666992 7.33301 5 11 13 11h25c6.66699 0 9.66699 -3.66699 9 -11z" />
    <glyph glyph-name="K" unicode="K" horiz-adv-x="391" 
d="M184 345l157.001 -334c3.33301 -7.33301 0.666016 -11 -8.00098 -11h-30c-6.66699 0 -11.667 3.66699 -15 11l-146 312h-22l-38 -312c-0.666992 -7.33301 -4.66699 -11 -12 -11h-26c-7.33301 0 -10.666 3.66699 -9.99902 11l81 658c0.666992 7.33301 4.66699 11 12 11h26
c7.33301 0 10.666 -3.66699 9.99902 -11l-38 -308h20l206 309c4.66699 6.66699 10 10 16 10h29c9.33301 0 11.333 -3.66699 6 -11z" />
    <glyph glyph-name="L" unicode="L" horiz-adv-x="342" 
d="M163 669l-77.9971 -628h203c7.33301 0 10.666 -3.66699 9.99902 -11l-3 -19c-0.666992 -7.33301 -4.33398 -11 -11.001 -11h-241c-6.66699 0 -9.33398 3.66699 -8.00098 11l80 658c0.666992 7.33301 4.66699 11 12 11h27c6.66699 0 9.66699 -3.66699 9 -11z" />
    <glyph glyph-name="M" unicode="M" horiz-adv-x="544" 
d="M521 669l-82 -658c-0.666992 -7.33301 -4.33398 -11 -11.001 -11h-24c-7.33301 0 -10.666 3.66699 -9.99902 11l69 558c-4.66699 -16 -11.334 -34.667 -20.001 -56l-165 -386c-3.33301 -7.33301 -8.66602 -11 -15.999 -11h-24c-7.33301 0 -11.666 3.66699 -12.999 11
l-72 388c-2 11.333 -4 29 -6 53l-69 -557c-0.666992 -7.33301 -4.33398 -11 -11.001 -11h-23c-7.33301 0 -10.666 3.66699 -9.99902 11l81 658c1.33301 7.33301 5.33301 11 12 11h30c6 0 9.33301 -3 10 -9l82 -438c3.33301 -16.667 6.33301 -37 9 -61c4 18 11 38.333 21 61
l188 439c2 5.33301 6 8 12 8h32c7.33301 0 10.666 -3.66699 9.99902 -11z" />
    <glyph glyph-name="N" unicode="N" horiz-adv-x="446" 
d="M422 669l-81 -658.001c-0.666992 -7.33301 -4.33398 -11 -11.001 -11h-24c-5.33301 0 -9 2.66699 -11 8l-135 492c-5.33301 18.667 -10 41.334 -14 68.001l-69 -557c-0.666992 -7.33301 -4.33398 -11 -11.001 -11h-22c-7.33301 0 -10.666 3.66699 -9.99902 11l81 658
c0.666992 7.33301 4.66699 11 12 11h24c5.33301 0 8.33301 -2.33301 9 -7l137 -498c6.66699 -26 11.334 -46.667 14.001 -62l69 556c0.666992 7.33301 4.66699 11 12 11h21c6.66699 0 9.66699 -3.66699 9 -11z" />
    <glyph glyph-name="O" unicode="O" horiz-adv-x="427" 
d="M39 120l55 441c5.33301 40 20.166 71.167 44.499 93.5s63.833 33.5 118.5 33.5c49.333 0 85.5 -9.66699 108.5 -29s34.5 -45 34.5 -77c0 -6.66699 -0.333008 -14 -1 -22l-55 -441c-5.33301 -40 -20.166 -71.167 -44.499 -93.5s-63.833 -33.5 -118.5 -33.5
c-95.333 0 -143 35.333 -143 106c0 8.66699 0.333008 16 1 22zM297 120l54 437.999c0.666992 6 1 12.333 1 19c0 46.667 -32.667 70 -98 70c-68.667 0 -106.334 -29 -113.001 -87l-54 -438c-0.666992 -5.33301 -1 -11.666 -1 -18.999c0 -46.667 32.667 -70 98 -70
c68.667 0 106.334 29 113.001 87z" />
    <glyph glyph-name="P" unicode="P" horiz-adv-x="413" 
d="M220 271l-105.999 0.000976562l-32 -260c-0.666992 -7.33301 -4.33398 -11 -11.001 -11h-27c-7.33301 0 -10.333 3.66699 -9 11l80 658c0.666992 7.33301 4.66699 11 12 11h135c49.333 0 85.5 -9.83301 108.5 -29.5s34.5 -45.834 34.5 -78.501c0 -8 -0.333008 -15 -1 -21
l-19 -155c-5.33301 -39.333 -20.333 -70 -45 -92s-64.667 -33 -120 -33zM259.001 639.001h-100l-40 -327h104c70 0 108.333 28.333 115 85l19 152c0.666992 6 1 12.333 1 19c0 47.333 -33 71 -99 71z" />
    <glyph glyph-name="Q" unicode="Q" horiz-adv-x="427" 
d="M282 -158c-6 -3.33301 -10.333 -2.66504 -13 2.00195l-100 148c-87.333 3.33301 -131 38.666 -131 105.999c0 7.33301 0.333008 14.666 1 21.999l55 441c5.33301 40 20.166 71.167 44.499 93.5s63.833 33.5 118.5 33.5c49.333 0 85.5 -9.66699 108.5 -29
s34.5 -45 34.5 -77c0 -8 -0.333008 -15.333 -1 -22l-55 -441c-9.33301 -74 -51 -115.667 -125 -125l84 -124c4.66699 -6 4.33398 -11 -0.999023 -15zM297 120.001l54 438c0.666992 6 1 12.333 1 19c0 46.667 -32.667 70 -98 70c-68.667 0 -106.334 -29 -113.001 -87
l-54 -438c-0.666992 -6 -1 -12.333 -1 -19c0 -46.667 32.667 -70 98 -70c68.667 0 106.334 29 113.001 87z" />
    <glyph glyph-name="R" unicode="R" horiz-adv-x="425" 
d="M259 639h-100l-39 -315h105c69.333 0 107.333 28.333 114 85l18 140c0.666992 7.33301 1 13.333 1 18c0 48 -33 72 -99 72zM82 11c-0.666992 -7.33301 -4.66699 -10.999 -12 -10.999h-26c-6.66699 0 -9.66699 3.66699 -9 11l80 658c0.666992 7.33301 4.66699 11 12 11
h135c49.333 0 85.5 -9.83301 108.5 -29.5s34.5 -45.834 34.5 -78.501c0 -6.66699 -0.333008 -13.667 -1 -21l-18 -143c-8 -65.333 -42.667 -105 -104 -119l63 -278c2 -7.33301 -1.66699 -11 -11 -11h-27c-6 0 -10 3.66699 -12 11l-60 272h-120z" />
    <glyph glyph-name="S" unicode="S" horiz-adv-x="400" 
d="M327 499l7 60.999c0.666992 8 1 15 1 21c0 44.667 -31 67 -93 67c-67.333 0 -104.333 -28.667 -111 -86l-7 -58c-0.666992 -5.33301 -1 -12 -1 -20c0 -33.333 14 -58.333 42 -75l112 -66c43.333 -26 65 -61.333 65 -106c0 -6 -0.333008 -12.333 -1 -19l-11 -99
c-9.33301 -84.667 -64 -127 -164 -127c-94 0 -141 35 -141 105c0 8 0.333008 15.667 1 23l8 63c1.33301 8 5.33301 12 12 12h25c7.33301 0 10.333 -4 9 -12l-7 -61c-0.666992 -6 -1 -13 -1 -21c0 -46 32 -69 96 -69c70 0 108.333 29 115 87l11 91
c0.666992 7.33301 1 12.666 1 15.999c0 32.667 -17.667 59.334 -53 80.001l-109 64c-38 22.667 -57 57 -57 103c0 9.33301 0.333008 17 1 23l8 65c5.33301 40 19.5 71.167 42.5 93.5s61.833 33.5 116.5 33.5c92 0 138 -34.667 138 -104
c0 -11.333 -0.666992 -21.666 -2 -30.999l-7 -54c-0.666992 -7.33301 -4.66699 -11 -12 -11h-25c-6.66699 0 -9.66699 3.66699 -9 11z" />
    <glyph glyph-name="T" unicode="T" horiz-adv-x="350" 
d="M73 680h295.999c7.33301 0 10.666 -3.66699 9.99902 -11l-2 -19c-0.666992 -7.33301 -4.66699 -11 -12 -11h-124l-77 -628c-0.666992 -7.33301 -4.66699 -11 -12 -11h-26c-7.33301 0 -10.666 3.66699 -9.99902 11l78 628h-125c-7.33301 0 -10.666 3.66699 -9.99902 11
l2 19c0.666992 7.33301 4.66699 11 12 11z" />
    <glyph glyph-name="U" unicode="U" horiz-adv-x="439" 
d="M161 669l-67.001 -545.999c-1.33301 -10.667 -2 -17.334 -2 -20.001c0 -46.667 32.667 -70 98 -70c68.667 0 106.334 29 113.001 87l68 549c0.666992 7.33301 4.33398 11 11.001 11h27c6.66699 0 9.66699 -3.66699 9 -11l-67 -550
c-5.33301 -40 -20.333 -71.167 -45 -93.5s-64.667 -33.5 -120 -33.5c-48.667 0 -84.5 9.66699 -107.5 29s-34.5 45 -34.5 77c0 4 0.666992 11.333 2 22l67 549c0.666992 7.33301 4.66699 11 12 11h26c7.33301 0 10.666 -3.66699 9.99902 -11z" />
    <glyph glyph-name="V" unicode="V" horiz-adv-x="383" 
d="M141 0c-7.33301 0 -11.332 3.66699 -11.999 11l-62 658c-0.666992 7.33301 2.33301 11 9 11h26c7.33301 0 11.666 -3.66699 12.999 -11l45 -511c2 -24 3 -53 3 -87c10.667 37.333 19.334 66 26.001 86l172 512c2 7.33301 6.33301 11 13 11h26
c7.33301 0 9.66602 -3.66699 6.99902 -11l-222 -658c-2.66699 -7.33301 -8 -11 -16 -11h-28z" />
    <glyph glyph-name="W" unicode="W" horiz-adv-x="592" 
d="M369 669l25.999 -505c0.666992 -18 1 -42 1 -72c6.66699 26 13.334 50 20.001 72l152 505c2 7.33301 6.33301 11 13 11h24c6.66699 0 9 -3.66699 7 -11l-198 -658c-2 -7.33301 -7 -11 -15 -11h-27c-8 0 -12 3.66699 -12 11l-27 527c-1.33301 17.333 -2 32.333 -2 45
c-3.33301 -14 -7.33301 -29.333 -12 -46l-157 -526c-2 -7.33301 -6.66699 -11 -14 -11h-28c-8.66699 0 -13 3.66699 -13 11l-36 658c0 7.33301 3.66699 11 11 11h24c8 0 12 -3.66699 12 -11l27 -503c1.33301 -30.667 2 -55 2 -73c7.33301 28.667 14 53 20 73l150 503
c2 7.33301 6.33301 11 13 11h27c8 0 12 -3.66699 12 -11z" />
    <glyph glyph-name="X" unicode="X" horiz-adv-x="386" 
d="M227 344l102 -333c2.66699 -7.33301 -0.333008 -11 -9 -11h-29c-6 0 -10.333 3.66699 -13 11l-86 281l-153 -281c-3.33301 -7.33301 -8.33301 -11 -15 -11h-28c-7.33301 0 -9 4 -5 12l183 336l-99 320c-2.66699 8 -0.333984 12 6.99902 12h29
c6.66699 0 11.334 -3.66699 14.001 -11l84 -271l143 271c4 7.33301 9 11 15 11h28c8 0 9.66699 -4 5 -12z" />
    <glyph glyph-name="Y" unicode="Y" horiz-adv-x="375" 
d="M112 669l75.999 -302.999c2 -8.66699 3.66699 -19.334 5 -32.001c2 10 6.33301 21 13 33l151 302c3.33301 7.33301 8 11 14 11h25c8.66699 0 11 -3.66699 7 -11l-193 -386l-33 -272c-0.666992 -7.33301 -5 -11 -13 -11h-25c-7.33301 0 -10.666 3.66699 -9.99902 11
l33 267l-99 391c-2 7.33301 1 11 9 11h28c6 0 10 -3.66699 12 -11z" />
    <glyph glyph-name="Z" unicode="Z" horiz-adv-x="339" 
d="M94 680l248 0.000976562c7.33301 0 10.666 -3.66699 9.99902 -11l-2 -18c-1.33301 -6.66699 -2.66602 -11.334 -3.99902 -14.001l-301 -596h229c7.33301 0 10.666 -3.66699 9.99902 -11l-2 -19c-0.666992 -7.33301 -5 -11 -13 -11h-270c-6.66699 -0 -10 3.33301 -10 10
l1 18c0 4 1.66699 8.66699 5 14l300 597h-205c-7.33301 0 -10.666 3.66699 -9.99902 11l2 19c0.666992 7.33301 4.66699 11 12 11z" />
    <glyph glyph-name="bracketleft" unicode="[" horiz-adv-x="225" 
d="M0 -200l108.001 888c0.666992 7.33301 5 11 13 11h125c7.33301 0 10.666 -3.66699 9.99902 -11l-3 -19c-0.666992 -7.33301 -4.66699 -11 -12 -11h-89l-102 -828h89c6 0 9 -3.66699 9 -11l-1 -19c0 -7.33301 -4.33301 -11 -13 -11h-125
c-6.66699 0 -9.66699 3.66699 -9 11z" />
    <glyph glyph-name="backslash" unicode="\" horiz-adv-x="302" 
d="M180 -137l-109 825c-1.33301 7.33301 2 11 10 11h24c8 0 12.333 -3.66699 13 -11l108 -825c1.33301 -7.33301 -1.66699 -11 -9 -11h-25c-7.33301 0 -11.333 3.66699 -12 11z" />
    <glyph glyph-name="bracketright" unicode="]" horiz-adv-x="225" 
d="M214 688l-110 -888c-0.666992 -7.33301 -4.66699 -11 -12 -11h-125c-7.33301 0 -10.666 3.66699 -9.99902 11l3 19c0.666992 7.33301 4.66699 11 12 11h89l102 828h-89c-6.66699 0 -9.66699 3.66699 -9 11l2 19c0.666992 7.33301 4.66699 11 12 11h125
c7.33301 0 10.666 -3.66699 9.99902 -11z" />
    <glyph glyph-name="asciicircum" unicode="^" horiz-adv-x="354" 
d="M277 319l-68.998 313l-120 -313c-2.66699 -8 -7 -12 -13 -12h-24c-8.66699 0 -11.334 4 -8.00098 12l142 350c3.33301 7.33301 7.66602 11 12.999 11h27c6 0 10 -3.66699 12 -11l84 -350c2 -8 -1.33301 -12 -10 -12h-24c-4.66699 0 -8 4 -10 12z" />
    <glyph glyph-name="underscore" unicode="_" horiz-adv-x="278" 
d="M-37 -89h253c7.33301 0 11 -3.66699 11 -11v-18c0 -7.33301 -3.66699 -11 -11 -11h-253c-7.33301 0 -11 3.66699 -11 11v18c0 7.33301 3.66699 11 11 11z" />
    <glyph glyph-name="grave" unicode="`" horiz-adv-x="245" 
d="M200 577l-42.999 120c-2.66699 7.33301 -0.333984 11 6.99902 11h27c6.66699 0 11 -3 13 -9l36 -119c2 -6.66699 -0.333008 -10 -7 -10h-21c-6.66699 0 -10.667 2.33301 -12 7z" />
    <glyph glyph-name="a" unicode="a" horiz-adv-x="380" 
d="M113 395l-36 -296c-0.666992 -6 -1 -11 -1 -15c0 -33.333 20 -50 60 -50c38.667 0 75.667 15.333 111 46l41 333c-30 30 -65 45 -105 45c-42 0 -65.333 -21 -70 -63zM244 41c-42 -32.667 -84 -48.998 -126 -48.998c-29.333 0 -51.5 7.16699 -66.5 21.5
s-22.5 34.166 -22.5 59.499c0 5.33301 0.333008 11.666 1 18.999l38 311c4 30 14.667 53.833 32 71.5s42 26.5 74 26.5c45.333 0 85 -16 119 -48l6 29c2 7.33301 6 11 12 11h22c7.33301 0 10.333 -4 9 -12l-57 -470c-0.666992 -7.33301 -5 -11 -13 -11h-21
c-6.66699 0 -9.66699 3.66699 -9 11z" />
    <glyph glyph-name="b" unicode="b" horiz-adv-x="380" 
d="M56 0h-21c-7.33301 0 -10.666 4 -9.99902 12l83 671c0.666992 7.33301 4.66699 11 12 11h25c7.33301 0 10.333 -3.66699 9 -11l-27 -230c35.333 32 76.333 48 123 48c29.333 0 51.666 -7.5 66.999 -22.5s23 -34.833 23 -59.5c0 -4 -0.333008 -9.66699 -1 -17l-39 -313
c-8 -64.667 -43.333 -97 -106 -97c-46 0 -86.333 16.333 -121 49l-4 -30c-0.666992 -7.33301 -5 -11 -13 -11zM255 98l36.999 295c0.666992 5.33301 1 10.333 1 15c0 33.333 -20 50 -60 50c-38 0 -75.333 -15 -112 -45l-40 -333c28.667 -30.667 63.334 -46 104.001 -46
s64 21.333 70 64z" />
    <glyph glyph-name="c" unicode="c" horiz-adv-x="350" 
d="M206 501c79.333 0 118.998 -30.667 118.998 -92c0 -5.33301 -0.333008 -11.666 -1 -18.999l-3 -31c-0.666992 -6.66699 -4.66699 -10 -12 -10h-23c-7.33301 0 -10.666 3.33301 -9.99902 10l3 29c0.666992 6.66699 1 12.667 1 18c0 37.333 -25.667 56 -77 56
c-31.333 0 -53.666 -6.33301 -66.999 -19s-21.333 -30.334 -24 -53.001l-34 -284c-0.666992 -7.33301 -1 -14.333 -1 -21c0 -17.333 5.5 -30.666 16.5 -39.999s31.167 -14 60.5 -14c31.333 0 53.5 6.16699 66.5 18.5s20.833 30.166 23.5 53.499l5 39
c1.33301 7.33301 5.33301 11 12 11h24c7.33301 0 10.333 -3.66699 9 -11l-4 -38c-4 -36 -16.5 -63.667 -37.5 -83s-55.167 -29 -102.5 -29c-80 0 -120 30.333 -120 91c0 7.33301 0.333008 14.333 1 21l35 286c4.66699 36 17.167 63.5 37.5 82.5s54.5 28.5 102.5 28.5z" />
    <glyph glyph-name="d" unicode="d" horiz-adv-x="380" 
d="M113 395l-36 -295c-0.666992 -5.33301 -1 -10.333 -1 -15c0 -34 20 -51 60 -51c38.667 0 75.667 15.333 111 46l41 333c-30 30 -65 45 -105 45c-42 0 -65.333 -21 -70 -63zM243 41c-40 -32.667 -81.667 -48.999 -125 -48.999c-29.333 0 -51.5 7.16699 -66.5 21.5
s-22.5 34.166 -22.5 59.499c0 6 0.333008 12.333 1 19l38 311c4 30 14.667 53.833 32 71.5s42 26.5 74 26.5c47.333 0 87 -16 119 -48l28 230c0.666992 7.33301 4.66699 11 12 11h25c6.66699 0 9.66699 -3.66699 9 -11l-82 -672c-0.666992 -7.33301 -5 -11 -13 -11h-21
c-6 0 -9 3.66699 -9 11z" />
    <glyph glyph-name="e" unicode="e" horiz-adv-x="363" 
d="M325 390l-16 -136.001c-0.666992 -6.66699 -4.66699 -10 -12 -10h-204l-18 -142c-0.666992 -5.33301 -1 -10.666 -1 -15.999c0 -37.333 26.667 -56 80 -56c55.333 0 86 23 92 69l5 39c0.666992 7.33301 4.66699 11 12 11h21c8 0 11.333 -3.66699 10 -11l-4 -36
c-4 -35.333 -16.333 -62.5 -37 -81.5s-54.667 -28.5 -102 -28.5c-81.333 0 -122 30.333 -122 91c0 6.66699 0.333008 13 1 19l35 285c4.66699 38 17.5 66.5 38.5 85.5s55.167 28.5 102.5 28.5c80 0 120 -30.667 120 -92c0 -6 -0.333008 -12.333 -1 -19zM112 392.999
l-15 -112h171l14 110c0.666992 6 1 11 1 15c0 38 -26.667 57 -80 57c-54.667 0 -85 -23.333 -91 -70z" />
    <glyph glyph-name="f" unicode="f" horiz-adv-x="226" 
d="M99 491l12.001 98.999c9.33301 72.667 57.333 109 144 109h5c7.33301 0 10.666 -4 9.99902 -12l-2 -18c-1.33301 -7.33301 -5.66602 -11 -12.999 -11h-4c-56.667 0 -88 -23.667 -94 -71l-12 -96h79c7.33301 0 10.666 -3.33301 9.99902 -10l-2 -17
c-1.33301 -8 -5.33301 -12 -12 -12h-79l-78 -636c-0.666992 -7.33301 -4.66699 -11 -12 -11h-25c-6.66699 0 -9.66699 3.66699 -9 11l78 636h-45c-6.66699 0 -9.66699 4 -9 12l1 13c0.666992 6.66699 5 10.334 13 11.001l36 3h8z" />
    <glyph glyph-name="g" unicode="g" horiz-adv-x="380" 
d="M118 -8c-29.333 0 -51.5 7.33105 -66.5 21.998s-22.5 34.334 -22.5 59.001c0 4.66699 0.333008 10.334 1 17.001l38 313c4 30 14.667 53.833 32 71.5s42 26.5 74 26.5c46.667 0 86.667 -16.667 120 -50l5 30c0.666992 8 4.66699 12 12 12h22c7.33301 0 10.333 -4 9 -12
l-69 -570c-4.66699 -34 -18 -60.167 -40 -78.5s-57 -27.5 -105 -27.5h-96c-6 0 -9 3.66699 -9 11l1 18c0 7.33301 4.33301 11 13 11h95c57.333 0 89 23 95 69l15 125c-40 -31.333 -81.333 -47 -124 -47zM113 394.998l-36 -295.001
c-0.666992 -5.33301 -1 -9.66602 -1 -12.999c0 -35.333 20 -53 60 -53c38.667 0 75.667 15.333 111 46l41 333c-30 30 -65 45 -105 45c-42 0 -65.333 -21 -70 -63z" />
    <glyph glyph-name="h" unicode="h" horiz-adv-x="384" 
d="M154 683l-27.999 -229.999c37.333 32 78.666 48 123.999 48c29.333 0 51.666 -7.33301 66.999 -22s23 -34.334 23 -59.001c0 -4 -0.333008 -9 -1 -15l-48 -394c-0.666992 -7.33301 -5 -11 -13 -11h-24c-6.66699 0 -9.66699 3.66699 -9 11l47 382c0.666992 6 1 11 1 15
c0 33.333 -20.333 50 -61 50c-37.333 0 -74.333 -15 -111 -45l-49 -402c-0.666992 -7.33301 -4.66699 -11 -12 -11h-25c-7.33301 0 -10.666 3.66699 -9.99902 11l83 672c0.666992 7.33301 5 11 13 11h25c6 0 8.66699 -3.66699 8 -11z" />
    <glyph glyph-name="i" unicode="i" horiz-adv-x="167" 
d="M154 683l-11 -95c-0.666992 -8 -4.66699 -12 -12 -12h-25c-8 0 -11.333 4 -10 12l12 95c0.666992 7.33301 4.66699 11 12 11h25c6.66699 0 9.66699 -3.66699 9 -11zM130 481l-58.001 -470c-0.666992 -7.33301 -4.66699 -11 -12 -11h-25
c-7.33301 0 -10.666 3.66699 -9.99902 11l58 470c0.666992 8 4.66699 12 12 12h25c8 0 11.333 -4 10 -12z" />
    <glyph glyph-name="j" unicode="j" horiz-adv-x="167" 
d="M155 683l-11.999 -95c-0.666992 -8 -4.66699 -12 -12 -12h-25c-6.66699 0 -9.66699 4 -9 12l12 95c0.666992 7.33301 4.66699 11 12 11h24c7.33301 0 10.666 -3.66699 9.99902 -11zM130.001 481l-70 -570c-8 -70.667 -55.333 -106 -142 -106h-5
c-7.33301 0 -10.666 3.66699 -9.99902 11l2 18c1.33301 7.33301 5.66602 11 12.999 11h4c56 0 86.667 22.667 92 68l69 568c0.666992 8 5 12 13 12h24c8 0 11.333 -4 10 -12z" />
    <glyph glyph-name="k" unicode="k" horiz-adv-x="336" 
d="M60 0h-25.001c-7.33301 0 -10.666 3.66699 -9.99902 11l83 672c0.666992 7.33301 4.66699 11 12 11h26c6 0 8.66699 -3.66699 8 -11l-47 -388h23l152 188c4.66699 6.66699 10.667 10 18 10h27c10 0 12 -4 6 -12l-166 -202l123 -268c2.66699 -7.33301 0 -11 -8 -11h-28
c-6 -0 -10.667 3.33301 -14 10l-113 248h-25l-30 -247c-0.666992 -7.33301 -4.66699 -11 -12 -11z" />
    <glyph glyph-name="l" unicode="l" horiz-adv-x="167" 
d="M154 683l-82.001 -672c-0.666992 -7.33301 -4.66699 -11 -12 -11h-25c-7.33301 0 -10.666 3.66699 -9.99902 11l83 672c0.666992 7.33301 4.66699 11 12 11h25c6.66699 0 9.66699 -3.66699 9 -11z" />
    <glyph glyph-name="m" unicode="m" horiz-adv-x="600" 
d="M25 11l58 470c0.666992 8 4.66699 12 12 12h22c6.66699 0 10 -4 10 -12l-2 -29c38 32.667 79 49 123 49c48 0 77 -18.333 87 -55c42 36.667 85.333 55 130 55c29.333 0 51.833 -7.5 67.5 -22.5s23.5 -34.5 23.5 -58.5c0 -5.33301 -0.333008 -11 -1 -17l-49 -392
c0 -7.33301 -4 -11 -12 -11h-24c-6.66699 0 -10 3.66699 -10 11l46 381c0.666992 6 1 11 1 15c0 34 -19.667 51 -59 51c-36.667 0 -73.667 -15.333 -111 -46c0 -6 -0.333008 -12.333 -1 -19l-47 -382c-0.666992 -7.33301 -4.66699 -11 -12 -11h-24
c-7.33301 0 -10.666 3.66699 -9.99902 11l46 380c0.666992 6.66699 1 12 1 16c0 34 -19.667 51 -59 51c-36.667 0 -73.334 -15 -110.001 -45l-49 -402c-0.666992 -7.33301 -4.66699 -11 -12 -11h-25c-6.66699 0 -10 3.66699 -10 11z" />
    <glyph glyph-name="n" unicode="n" horiz-adv-x="384" 
d="M95 493l22 0.000976562c6.66699 0 10 -3.66699 10 -11l-2 -30c38 32.667 79.667 49 125 49c29.333 0 51.666 -7.33301 66.999 -22s23 -34.334 23 -59.001c0 -4.66699 -0.333008 -10 -1 -16l-48 -393c-0.666992 -7.33301 -5 -11 -13 -11h-24
c-6.66699 0 -9.66699 3.66699 -9 11l47 381c0.666992 6 1 11 1 15c0 34 -20 51 -60 51c-38 0 -75.333 -15 -112 -45l-49 -402c-0.666992 -7.33301 -4.66699 -11 -12 -11h-25c-7.33301 0 -10.666 3.66699 -9.99902 11l58 471c0.666992 7.33301 4.66699 11 12 11z" />
    <glyph glyph-name="o" unicode="o" horiz-adv-x="372" 
d="M30 104l35.001 284.001c8.66699 75.333 56 113 142 113c82.667 0 124 -31 124 -93c0 -6 -0.333008 -12.667 -1 -20l-35 -284c-4.66699 -36 -17.834 -63.667 -39.501 -83s-56.167 -29 -103.5 -29c-82 0 -123 31 -123 93c0 5.33301 0.333008 11.666 1 18.999z
M249.001 104.001l35 284c0.666992 6 1 11.333 1 16c0 38.667 -27 58 -81 58c-56 0 -87 -24.333 -93 -73l-35 -284c-0.666992 -6 -1 -11.333 -1 -16c0 -38.667 27 -58 81 -58c56.667 0 87.667 24.333 93 73z" />
    <glyph glyph-name="p" unicode="p" horiz-adv-x="380" 
d="M255 98l36.999 294c0.666992 6 1 11.333 1 16c0 33.333 -20 50 -60 50s-77 -15 -111 -45l-41 -333c28.667 -30.667 63.334 -46 104.001 -46s64 21.333 70 64zM95.999 493l21.002 0.000976562c7.33301 0 10.666 -4 9.99902 -12l-2 -29c40 32.667 81.667 49 125 49
c29.333 0 51.666 -7.33301 66.999 -22s23 -34.334 23 -59.001c0 -5.33301 -0.333008 -11.333 -1 -18l-38 -313c-4 -29.333 -14.833 -52.833 -32.5 -70.5s-42.167 -26.5 -73.5 -26.5c-45.333 0 -85.333 15.667 -120 47l-27 -223c-0.666992 -7.33301 -4.66699 -11 -12 -11h-25
c-6.66699 0 -9.66699 3.66699 -9 11l81 665c0.666992 8 5 12 13 12z" />
    <glyph glyph-name="q" unicode="q" horiz-adv-x="380" 
d="M311 493l22 -0.000976562c7.33301 0 10.333 -4 9 -12l-81 -665c-0.666992 -7.33301 -4.66699 -11 -12 -11h-25c-7.33301 0 -10.333 3.66699 -9 11l27 223c-40 -31.333 -81.333 -47 -124 -47c-29.333 0 -51.5 7.33301 -66.5 22s-22.5 34.334 -22.5 59.001
c0 6 0.333008 11.667 1 17l38 313c8 65.333 43.333 98 106 98c47.333 0 87.333 -16.333 120 -49l5 29c0.666992 8 4.66699 12 12 12zM113 394.999l-36 -295c-0.666992 -5.33301 -1 -10.333 -1 -15c0 -34 20 -51 60 -51c38.667 0 75.667 15.333 111 46l41 333
c-30 30 -65 45 -105 45c-42 0 -65.333 -21 -70 -63z" />
    <glyph glyph-name="r" unicode="r" horiz-adv-x="250" 
d="M249 500c7.33301 0 10.667 -3.66602 10 -10.999l-2 -21c-0.666992 -7.33301 -5.33398 -11 -14.001 -11c-43.333 -2.66699 -84.333 -22.334 -123 -59.001l-48 -387c-0.666992 -7.33301 -4.66699 -11 -12 -11h-25c-7.33301 0 -10.666 3.66699 -9.99902 11l58 471
c1.33301 7.33301 5.33301 11 12 11h22c6.66699 0 10 -3.66699 10 -11l-3 -43c14 14.667 32.5 28.5 55.5 41.5s46.167 19.5 69.5 19.5z" />
    <glyph glyph-name="s" unicode="s" horiz-adv-x="347" 
d="M263 361l4.99902 39c0.666992 6.66699 1 11.667 1 15c0 33.333 -26.333 50 -79 50c-52 0 -80.667 -19.667 -86 -59l-5 -40c-0.666992 -7.33301 -1 -13.666 -1 -18.999c0 -21.333 14.667 -39 44 -53l89 -43c37.333 -18 56 -42.333 56 -73
c0 -4.66699 -0.333008 -11.334 -1 -20.001l-8 -71c-3.33301 -28 -16.166 -50.833 -38.499 -68.5s-55.5 -26.5 -99.5 -26.5c-40 0 -70.5 8 -91.5 24s-31.5 36.333 -31.5 61c0 3.33301 0.666992 10.333 2 21l3 29c0.666992 6.66699 4.33398 10 11.001 10h24
c6 0 8.66699 -3.33301 8 -10l-4 -35c-0.666992 -6 -1 -10 -1 -12c0 -15.333 7 -27.833 21 -37.5s34.333 -14.5 61 -14.5c57.333 0 88.333 20.667 93 62l7 60c0.666992 7.33301 1 13 1 17c0 20 -13.667 36.667 -41 50l-89 44c-40 20 -60 47.333 -60 82
c0 3.33301 0.333008 8 1 14l6 48c7.33301 64 51.666 96 132.999 96c39.333 0 69 -8 89 -24s30 -36.333 30 -61c0 -3.33301 -0.333008 -8 -1 -14l-5 -41c-1.33301 -6.66699 -5 -10 -11 -10h-23c-7.33301 0 -10.333 3.33301 -9 10z" />
    <glyph glyph-name="t" unicode="t" horiz-adv-x="234" 
d="M138 452l-41.998 -338.999c-0.666992 -6 -1 -11.667 -1 -17c0 -37.333 25 -56 75 -56h13c7.33301 0 10.666 -3.66699 9.99902 -11l-2 -18c-0.666992 -7.33301 -4.66699 -11 -12 -11h-21c-73.333 0 -110 28.667 -110 86c0 7.33301 0.333008 14.666 1 21.999l42 344h-43
c-7.33301 0 -10.333 3.66699 -9 11l1 14c0.666992 6 4.66699 9.66699 12 11l39 3h5l13 109c1.33301 7.33301 5.66602 11 12.999 11h25c7.33301 0 10.333 -3.66699 9 -11l-14 -109h81c6.66699 0 9.66699 -3.66699 9 -11l-2 -17c-0.666992 -7.33301 -4.66699 -11 -12 -11h-80z
" />
    <glyph glyph-name="u" unicode="u" horiz-adv-x="381" 
d="M243 11l2.00098 29c-41.333 -32 -82 -48 -122 -48c-29.333 0 -51.833 7.33301 -67.5 22s-23.5 34 -23.5 58c0 5.33301 0.333008 11 1 17l49 392c1.33301 8 5.33301 12 12 12h24c7.33301 0 10.666 -4 9.99902 -12l-47 -382c-0.666992 -6 -1 -10.333 -1 -13
c0 -34.667 20 -52 60 -52c38 0 74 15 108 45l49 402c0.666992 8 4.66699 12 12 12h25c6.66699 0 9.66699 -4 9 -12l-57 -470c-0.666992 -7.33301 -4.66699 -11 -12 -11h-22c-6.66699 0 -9.66699 3.66699 -9 11z" />
    <glyph glyph-name="v" unicode="v" horiz-adv-x="322" 
d="M139 0h-26.9971c-6.66699 0 -10.334 3.66699 -11.001 11l-58 470c-1.33301 8 2.66699 12 12 12h25c5.33301 0 8.66602 -4 9.99902 -12l41 -367c2 -17.333 3 -33 3 -47c3.33301 17.333 7.66602 33 12.999 47l131 367c2.66699 8 7.33398 12 14.001 12h24
c8 0 10.667 -4 8 -12l-171 -470c-2.66699 -7.33301 -7.33398 -11 -14.001 -11z" />
    <glyph glyph-name="w" unicode="w" horiz-adv-x="482" 
d="M454 493l22 0.00195312c6.66699 0 9 -4 7 -12l-152 -470c-2.66699 -7.33301 -7 -11 -13 -11h-26c-6.66699 0 -10.334 3.66699 -11.001 11l-24 360c-1.33301 19.333 -1.66602 31.666 -0.999023 36.999l-12 -37l-115 -360c-2.66699 -7.33301 -7 -11 -13 -11h-26
c-6.66699 0 -10.334 3.66699 -11.001 11l-34 470c-0.666992 8 3 12 11 12h23c6 0 9.66699 -4 11 -12l24 -368c1.33301 -20 2 -34 2 -42c2.66699 14.667 6.33398 28.667 11.001 42l114 368c2 8 6.33301 12 13 12h25c6.66699 0 10 -4 10 -12l23 -369
c1.33301 -14.667 2 -28.334 2 -41.001c1.33301 7.33301 5 21 11 41l116 369c2 8 6.33301 12 13 12z" />
    <glyph glyph-name="x" unicode="x" horiz-adv-x="334" 
d="M87 493c5.33301 0 9.33398 -4 12.001 -12l72 -188l113 188c4.66699 8 9.66699 12 15 12h25c7.33301 0 9 -4 5 -12l-140 -230l88 -238c4 -8.66699 1.66699 -13 -7 -13h-26c-6.66699 0 -11.334 3.66699 -14.001 11l-74 201l-122 -201c-4 -7.33301 -9.66699 -11 -17 -11h-23
c-8.66699 0 -10.667 3.66699 -6 11l149 242l-85 228c-2.66699 8 0 12 8 12h27z" />
    <glyph glyph-name="y" unicode="y" horiz-adv-x="321" 
d="M324 481l-243 -665c-2 -7.33301 -6.33301 -11 -13 -11h-21c-8.66699 0 -11.334 3.66699 -8.00098 11l66 179l-62 486c-0.666992 8 3.33301 12 12 12h25c5.33301 0 8.33301 -4 9 -12l43 -366c2 -14.667 3 -29.667 3 -45c2.66699 12 7 26 13 42l130 369
c2.66699 8 7.33398 12 14.001 12h24c8 0 10.667 -4 8 -12z" />
    <glyph glyph-name="z" unicode="z" horiz-adv-x="308" 
d="M71 493h215.998c8 0 11.333 -3.33301 10 -10l-2 -16c-0.666992 -3.33301 -3 -8.33301 -7 -15l-239 -412h191c6.66699 0 9.66699 -3.66699 9 -11l-2 -18c-0.666992 -7.33301 -4.66699 -11 -12 -11h-234c-7.33301 -0 -10.666 3.33301 -9.99902 10l2 17
c0.666992 3.33301 2.33398 7.33301 5.00098 12l241 414h-173c-7.33301 0 -10.666 3.66699 -9.99902 11l2 18c1.33301 7.33301 5.66602 11 12.999 11z" />
    <glyph glyph-name="braceleft" unicode="{" horiz-adv-x="263" 
d="M107 341l32.001 258c9.33301 72.667 55.666 109 138.999 109h5c8 0 11.667 -3.66699 11 -11l-2 -18c-0.666992 -7.33301 -4.66699 -11 -12 -11h-4c-54 0 -84 -23 -90 -69l-32 -262c-6 -48 -30.333 -77.667 -73 -89c34.667 -8 52 -31.333 52 -70
c0 -3.33301 -0.666992 -10.333 -2 -21l-32 -262c-0.666992 -5.33301 -1 -11.333 -1 -18c0 -36.667 24.667 -55 74 -55h4c6.66699 0 9.66699 -3.66699 9 -11l-2 -18c-0.666992 -7.33301 -4.66699 -11 -12 -11h-5c-76.667 0 -115 29.333 -115 88c0 10 0.333008 18.333 1 25
l32 258c0.666992 6.66699 1 13 1 19c0 38 -23.667 57 -71 57h-1c-6.66699 0 -9.66699 3.33301 -9 10l2 18c1.33301 8 5.33301 12 12 12h1c52.667 0 82 24 88 72z" />
    <glyph glyph-name="bar" unicode="|" horiz-adv-x="207" 
d="M121 688v-888c0 -7.33301 -3.66699 -11 -11 -11h-25c-7.33301 0 -11 3.66699 -11 11v888c0 7.33301 3.66699 11 11 11h25c7.33301 0 11 -3.66699 11 -11z" />
    <glyph glyph-name="braceright" unicode="}" horiz-adv-x="263" 
d="M200 596l-31.002 -257c-1.33301 -10.667 -2 -17 -2 -19c0 -37.333 23.333 -56 70 -56h2c7.33301 0 10.333 -3.66699 9 -11l-2 -18c-1.33301 -8 -5.33301 -12 -12 -12h-2c-52 0 -80.667 -23.667 -86 -71l-33 -261c-9.33301 -72.667 -55.333 -109 -138 -109h-7
c-7.33301 0 -10.666 3.66699 -9.99902 11l2 18c0.666992 7.33301 4.66699 11 12 11h5c53.333 0 83 23 89 69l33 264c6 48 30 77.667 72 89c-34.667 8 -52 31.667 -52 71c0 3.33301 0.666992 10.333 2 21l31 259c0.666992 6 1 12.667 1 20c0 35.333 -24 53 -72 53h-5
c-6.66699 0 -9.66699 3.66699 -9 11l2 18c0.666992 7.33301 4.33398 11 11.001 11h7c76.667 0 115 -29.333 115 -88c0 -5.33301 -0.666992 -13.333 -2 -24z" />
    <glyph glyph-name="asciitilde" unicode="~" horiz-adv-x="351" 
d="M292 311v-14c0 -43.333 -17.333 -65 -52 -65c-12.667 0 -28.667 5.33301 -48 16l-47 27c-17.333 9.33301 -28.666 14 -33.999 14c-8 0 -13.667 -2.16699 -17 -6.5s-5 -12.5 -5 -24.5v-15c0 -7.33301 -3.66699 -11 -11 -11h-13c-6 0 -9 4.33301 -9 13v14
c0 43.333 16.333 65 49 65c12.667 0 28.667 -5.33301 48 -16l47 -27c15.333 -9.33301 27.666 -14 36.999 -14c8 0 13.5 2.83301 16.5 8.5s4.5 16.5 4.5 32.5v5c0 7.33301 3.66699 11 11 11h13c6.66699 0 10 -4.33301 10 -13z" />
    <glyph glyph-name="uni00A0" unicode="&#xa0;" horiz-adv-x="169" 
 />
    <glyph glyph-name="exclamdown" unicode="&#xa1;" horiz-adv-x="163" 
d="M72 405l9.00098 77c0.666992 7.33301 4.66699 11 12 11h26c7.33301 0 10.666 -3.66699 9.99902 -11l-10 -77c-1.33301 -7.33301 -5.33301 -11 -12 -11h-26c-7.33301 0 -10.333 3.66699 -9 11zM33.001 103l33 224c0.666992 7.33301 4.66699 11 12 11h18
c7.33301 0 10.666 -3.66699 9.99902 -11l-23 -224l-34 -279c-0.666992 -7.33301 -4.66699 -11 -12 -11h-28c-7.33301 0 -10.666 3.66699 -9.99902 11z" />
    <glyph glyph-name="cent" unicode="&#xa2;" horiz-adv-x="360" 
d="M171 11c-0.666992 -7.33301 -4.66992 -10.999 -12.0029 -10.999h-24c-7.33301 0 -10.666 3.66699 -9.99902 11l9 75c-62 6.66699 -93 36.667 -93 90c0 7.33301 0.333008 14.333 1 21l35 286c4 33.333 14.833 59.333 32.5 78s46.834 29.334 87.501 32.001l9 76
c0.666992 7.33301 4.66699 11 12 11h24c7.33301 0 10.666 -3.66699 9.99902 -11l-8 -76c61.333 -6.66699 92 -37 92 -91c0 -6 -0.333008 -12.333 -1 -19l-3 -31c-0.666992 -6.66699 -4.66699 -10 -12 -10h-23c-7.33301 0 -10.666 3.33301 -9.99902 10l3 29
c0.666992 6.66699 1 12.667 1 18c0 37.333 -25.667 56 -77 56c-31.333 0 -53.666 -6.33301 -66.999 -19s-21.333 -30.334 -24 -53.001l-34 -284c-0.666992 -6 -1 -12.667 -1 -20c0 -18 5.5 -31.667 16.5 -41s31.167 -14 60.5 -14c31.333 0 53.5 6.16699 66.5 18.5
s20.833 30.166 23.5 53.499l5 39c1.33301 7.33301 5.33301 11 12 11h24c7.33301 0 10.333 -3.66699 9 -11l-4 -38c-4 -33.333 -15 -59.5 -33 -78.5s-47 -29.833 -87 -32.5z" />
    <glyph glyph-name="sterling" unicode="&#xa3;" horiz-adv-x="437" 
d="M150 363h113c6.66699 0 10 -3.66699 10 -11l-1 -18c0 -7.33301 -4.33301 -11 -13 -11h-114l-35 -283h141c21.333 0 38.833 7.33301 52.5 22s23.167 41 28.5 79l3 25c0.666992 8 4.66699 12 12 12h23c8 0 11.333 -4 10 -12l-3 -23
c-6.66699 -54.667 -20.334 -92.167 -41.001 -112.5s-48 -30.5 -82 -30.5h-237c-6.66699 0 -9.66699 3.66699 -9 11l2 18c0.666992 7.33301 4.66699 11 12 11h40l36 283h-41c-7.33301 0 -10.666 3.66699 -9.99902 11l2 18c0.666992 7.33301 4.66699 11 12 11h42l25 206
c4.66699 39.333 17.667 69 39 89s59 30 113 30c48.667 0 83 -7.83301 103 -23.5s30 -38.5 30 -68.5c0 -6 -0.666992 -15 -2 -27l-5 -40c-1.33301 -7.33301 -5.33301 -11 -12 -11h-24c-8 0 -11.333 3.66699 -10 11l5 38c0.666992 6.66699 1 14 1 22
c0 20 -6.33301 34.667 -19 44s-35.667 14 -69 14c-37.333 0 -63 -6.33301 -77 -19s-22.667 -32.667 -26 -60z" />
    <glyph glyph-name="currency" unicode="&#xa4;" horiz-adv-x="465" 
d="M160 402l-15.001 -130c-2.66699 -22.667 2 -40.5 14 -53.5s33 -19.5 63 -19.5c55.333 0 86 24 92 72l16 129c2.66699 22.667 -2.16602 40.667 -14.499 54s-33.833 20 -64.5 20c-54.667 0 -85 -24 -91 -72zM56.999 112
c-5.33301 -5.33301 -10.3281 -5.33203 -14.9951 0.000976562l-10 11c-4 4.66699 -3 9.66699 3 15l79 70c-10.667 17.333 -14.334 38.666 -11.001 63.999l16 129c3.33301 26.667 11.666 48.667 24.999 66l-60 68c-4.66699 4.66699 -4.33398 9.66699 0.999023 15l12 11
c5.33301 4.66699 10.333 4.66699 15 0l60 -70c20 12 47.333 18 82 18c35.333 0 63.333 -6.66699 84 -20l81 72c5.33301 5.33301 10 5.33301 14 0l10 -11c4 -4.66699 3.33301 -9.66699 -2 -15l-80 -71c10 -16.667 13.333 -37.667 10 -63l-16 -129
c-3.33301 -28 -11.333 -49.667 -24 -65l61 -69c3.33301 -4.66699 2.33301 -9.66699 -3 -15l-11 -11c-4.66699 -4.66699 -9.33398 -4.66699 -14.001 0l-61 70c-20 -12 -47.667 -18 -83 -18c-34.667 0 -62.334 6.66699 -83.001 20z" />
    <glyph glyph-name="yen" unicode="&#xa5;" horiz-adv-x="400" 
d="M188 11c-0.666992 -7.33301 -5 -10.999 -13 -10.999h-25c-7.33301 0 -10.666 3.66699 -9.99902 11l33 264h-111c-7.33301 0 -10.666 3.66699 -9.99902 11l1 11c0.666992 7.33301 4.66699 11 12 11h100l-21 85h-69c-6.66699 0 -9.66699 3.66699 -9 11l1 12
c1.33301 7.33301 5.66602 11 12.999 11h55l-61 242c-2 7.33301 1 11 9 11h28c6 0 10 -3.66699 12 -11l76 -303c2 -8.66699 3.66699 -19.334 5 -32.001c2 10 6.33301 21 13 33l151 302c4 7.33301 8.66699 11 14 11h25c8.66699 0 11 -3.66699 7 -11l-121 -242h57
c7.33301 0 10.333 -3.66699 9 -11l-1 -12c-0.666992 -7.33301 -4.66699 -11 -12 -11h-70l-42 -85h101c7.33301 0 10.666 -3.66699 9.99902 -11l-1 -11c-0.666992 -7.33301 -5 -11 -13 -11h-111z" />
    <glyph glyph-name="brokenbar" unicode="&#xa6;" horiz-adv-x="209" 
d="M120 669v-344c0 -7.33301 -3.33301 -11 -10 -11h-25c-7.33301 0 -11 3.66699 -11 11v344c0 7.33301 3.66699 11 11 11h25c6.66699 0 10 -3.66699 10 -11zM120 144v-344c0 -7.33301 -3.33301 -11 -10 -11h-25c-7.33301 0 -11 3.66699 -11 11v344
c0 7.33301 3.66699 11 11 11h25c6.66699 0 10 -3.66699 10 -11z" />
    <glyph glyph-name="section" unicode="&#xa7;" horiz-adv-x="366" 
d="M291 162c-1.33301 -7.33301 -5.33301 -10.999 -12 -10.999h-23c-6.66699 0 -9.66699 3.66699 -9 11l12 100c1.33301 10.667 2 18 2 22c0 25.333 -13.667 44.666 -41 57.999l-84 41c-38.667 19.333 -58 46.666 -58 81.999c0 4.66699 0.666992 12.334 2 23.001l11 93
c8 71.333 54.333 107 139 107c80.667 0 121 -30 121 -90c0 -5.33301 -0.333008 -11 -1 -17l-3 -27c-0.666992 -7.33301 -4.66699 -11 -12 -11h-23c-6 0 -8.66699 3.66699 -8 11l3 27c0.666992 6 1 11 1 15c0 38 -26.667 57 -80 57c-55.333 0 -86 -23 -92 -69l-12 -94
c-1.33301 -9.33301 -2 -15.333 -2 -18c0 -24.667 15.667 -44.334 47 -59.001l83 -40c36 -17.333 54 -44.666 54 -81.999c0 -2.66699 -0.666992 -10 -2 -22zM48 206.001l14.001 105.997c0.666992 7.33301 4.66699 11 12 11h22c7.33301 0 10.666 -3.66699 9.99902 -11
l-13 -100c-1.33301 -9.33301 -2 -16.666 -2 -21.999c0 -24 14 -43 42 -57l83 -42c38.667 -20 58 -47.333 58 -82c0 -3.33301 -0.666992 -11 -2 -23l-11 -93c-8 -70.667 -54.333 -106 -139 -106c-80.667 0 -121 29.333 -121 88c0 6 0.333008 12 1 18l3 28
c0.666992 6.66699 5 10 13 10h22c6.66699 0 9.66699 -3.33301 9 -10l-3 -27c-0.666992 -5.33301 -1 -10.666 -1 -15.999c0 -37.333 26.667 -56 80 -56c56 0 86.667 23 92 69l11 92c0.666992 4.66699 1 11 1 19c0 24 -15 43.667 -45 59l-84 41c-36 18 -54 45 -54 81
c0 4.66699 0.666992 12.334 2 23.001z" />
    <glyph glyph-name="dieresis" unicode="&#xa8;" horiz-adv-x="235" 
d="M259 690l-12 -97c-0.666992 -8 -4.66699 -12 -12 -12h-16c-7.33301 0 -10.333 4 -9 12l11 97c0.666992 7.33301 5 11 13 11h16c6.66699 0 9.66699 -3.66699 9 -11zM181 690l-12 -97c-0.666992 -8 -4.66699 -12 -12 -12h-16c-7.33301 0 -10.333 4 -9 12l12 97
c0.666992 7.33301 4.66699 11 12 11h16c6.66699 0 9.66699 -3.66699 9 -11z" />
    <glyph glyph-name="copyright" unicode="&#xa9;" horiz-adv-x="532" 
d="M467 545l-0.000976562 -409.002c0 -21.333 -2.66699 -39.833 -8 -55.5s-14.666 -30.667 -27.999 -45s-33.333 -25.166 -60 -32.499s-60 -11 -100 -11c-75.333 0 -126.5 12.833 -153.5 38.5s-40.5 60.834 -40.5 105.501v409c0 44.667 13.5 79.667 40.5 105
s78.167 38 153.5 38s126.833 -12.667 154.5 -38s41.5 -60.333 41.5 -105zM429.999 132.998v415c0 34 -11.833 60.333 -35.5 79s-64.834 28 -123.501 28c-58 0 -98.667 -9.5 -122 -28.5s-35 -45.5 -35 -79.5v-414c0 -34 11.667 -60.5 35 -79.5s64 -28.5 122 -28.5
c58.667 0 99.834 9.5 123.501 28.5s35.5 45.5 35.5 79.5zM270.999 550.998c39.333 0 65.833 -8.83301 79.5 -26.5s20.5 -44.167 20.5 -79.5v-31c0 -7.33301 -3.66699 -11 -11 -11h-18c-7.33301 0 -11 3.66699 -11 11v35c0 22.667 -3.83301 39.667 -11.5 51
s-23.834 17 -48.501 17c-24 0 -39.667 -5.66699 -47 -17s-11 -28.333 -11 -51v-218c0 -22.667 3.66699 -39.667 11 -51s23 -17 47 -17c24.667 0 40.834 5.66699 48.501 17s11.5 28.333 11.5 51v42c0 7.33301 3.66699 11 11 11h18c7.33301 0 11 -3.66699 11 -11v-39
c0 -35.333 -6.83301 -61.833 -20.5 -79.5s-40.167 -26.5 -79.5 -26.5c-38.667 0 -64.834 8.83301 -78.501 26.5s-20.5 44.167 -20.5 79.5v211c0 35.333 6.83301 61.833 20.5 79.5s39.834 26.5 78.501 26.5z" />
    <glyph glyph-name="ordfeminine" unicode="&#xaa;" horiz-adv-x="282" 
d="M130 620l-20.002 -164c-0.666992 -6.66699 -1 -11.667 -1 -15c0 -19.333 11 -29 33 -29c23.333 0 44 9 62 27l24 192c-17.333 17.333 -36.666 26 -57.999 26c-23.333 0 -36.666 -12.333 -39.999 -37zM201.998 411c-24.667 -19.333 -50.668 -29.001 -78.001 -29.001
c-18 0 -31.667 4.33301 -41 13s-14 20.334 -14 35.001c0 5.33301 0.333008 11 1 17l22 182c4.66699 39.333 26.334 59 65.001 59c28.667 0 53.667 -9.66699 75 -29l3 15c0.666992 6 3.66699 9 9 9h22c4.66699 0 6.66699 -2.66699 6 -8l-35 -282c0 -4 -2.66699 -6 -8 -6h-22
c-4 0 -6 2 -6 6z" />
    <glyph glyph-name="guillemotleft" unicode="&#xab;" horiz-adv-x="385" 
d="M209 246l95.999 -116c4.66699 -6.66699 6.66699 -12.667 6 -18l-3 -29c-0.666992 -3.33301 -2.16699 -5.5 -4.5 -6.5s-4.83301 -0.166992 -7.5 2.5l-117 139c-4 4.66699 -6 10.667 -6 18l1 18c0.666992 7.33301 4.66699 14 12 20l151 139
c2.66699 2 5.33398 2.66699 8.00098 2s3.66699 -3 3 -7l-3 -28c-0.666992 -6 -4.66699 -12 -12 -18zM61.999 246l95.999 -116c4.66699 -6.66699 6.66699 -12.667 6 -18l-3 -29c-0.666992 -3.33301 -2.16699 -5.5 -4.5 -6.5s-4.83301 -0.166992 -7.5 2.5l-117 139
c-4 5.33301 -6 11.333 -6 18l1 18c0.666992 7.33301 4.66699 14 12 20l151 139c2.66699 2 5.33398 2.66699 8.00098 2s3.66699 -3 3 -7l-3 -28c-0.666992 -6 -4.66699 -12 -12 -18z" />
    <glyph glyph-name="logicalnot" unicode="&#xac;" horiz-adv-x="311" 
d="M49 312c0 30 10.5 55.667 31.5 77s46.5 32 76.5 32c29.333 0 54.666 -10.667 75.999 -32s32 -47 32 -77c0 -29.333 -10.667 -54.666 -32 -75.999s-46.666 -32 -75.999 -32c-30 0 -55.5 10.667 -76.5 32s-31.5 46.666 -31.5 75.999z" />
    <glyph glyph-name="uni00AD" unicode="&#xad;" horiz-adv-x="316" 
d="M62 309h190c7.33301 0 11 -3.66699 11 -11v-18c0 -7.33301 -3.66699 -11 -11 -11h-190c-6.66699 0 -10 3.66699 -10 11v18c0 7.33301 3.33301 11 10 11z" />
    <glyph glyph-name="registered" unicode="&#xae;" horiz-adv-x="441" 
d="M402 573v-202c0 -76.667 -53.333 -115 -160 -115c-107.333 0 -161 38.333 -161 115v202c0 76.667 53.667 115 161 115c106.667 0 160 -38.333 160 -115zM368 368v208c0 54 -42 81 -126 81c-84.667 0 -127 -27 -127 -81v-207c0 -54.667 42.333 -82 127 -82
c84 0 126 27 126 81zM242 573h-37v-110h37c29.333 0 44 12.333 44 37v36c0 24.667 -14.667 37 -44 37zM205 344c0 -5.33301 -2.33398 -8 -7.00098 -8h-19c-4.66699 0 -7 2.66699 -7 8v248c0 5.33301 2.66699 8 8 8h63c51.333 0 77 -21 77 -63v-39c0 -27.333 -12 -46 -36 -56
l30 -98c1.33301 -5.33301 -1 -8 -7 -8h-20c-5.33301 0 -8.66602 2.66699 -9.99902 8l-26 91h-46v-91z" />
    <glyph glyph-name="macron" unicode="&#xaf;" horiz-adv-x="301" 
d="M140 644h180.001c7.33301 0 10.666 -3.66699 9.99902 -11l-2 -16c-1.33301 -7.33301 -5.33301 -11 -12 -11h-181c-8 0 -11.333 3.66699 -10 11l2 16c0.666992 7.33301 5 11 13 11z" />
    <glyph glyph-name="degree" unicode="&#xb0;" horiz-adv-x="291" 
d="M73 504l13 107c2.66699 24.667 11.667 43.334 27 56.001s41 19 77 19c61.333 0 92 -21.333 92 -64c0 -6 -0.333008 -12.333 -1 -19l-13 -106c-3.33301 -24.667 -12.5 -43.334 -27.5 -56.001s-40.5 -19 -76.5 -19c-61.333 0 -92 21.667 -92 65c0 6 0.333008 11.667 1 17z
M229 500l12 102.001c0.666992 5.33301 1 10 1 14c0 24.667 -18.333 37 -55 37c-38 0 -58.667 -14.667 -62 -44l-13 -103c-0.666992 -4.66699 -1 -9.33398 -1 -14.001c0 -24.667 18.667 -37 56 -37c38 0 58.667 15 62 45z" />
    <glyph glyph-name="plusminus" unicode="&#xb1;" horiz-adv-x="429" 
d="M189 226v134h-118c-7.33301 0 -11 3.66699 -11 11v19c0 6.66699 3.66699 10 11 10h118v133c0 7.33301 3.66699 11 11 11h17c7.33301 0 11 -3.66699 11 -11v-133h121c7.33301 0 11 -3.33301 11 -10v-19c0 -7.33301 -3.66699 -11 -11 -11h-121v-134
c0 -7.33301 -3.66699 -11 -11 -11h-17c-7.33301 0 -11 3.66699 -11 11zM71 153h278c7.33301 0 11 -3.66699 11 -11v-18c0 -7.33301 -3.66699 -11 -11 -11h-278c-7.33301 0 -11 3.66699 -11 11v18c0 7.33301 3.66699 11 11 11z" />
    <glyph glyph-name="twosuperior" unicode="&#xb2;" 
d="M98 489l129.999 0.000976562c4 0 6 -2.66699 6 -8l-1 -17c0 -5.33301 -3.33301 -8 -10 -8h-160c-6 0 -8.66699 2.66699 -8 8l12 101c2.66699 25.333 20 45.666 52 60.999l68 33c20 9.33301 31.333 23.333 34 42l8 55c0.666992 5.33301 1 10 1 14
c0 21.333 -16.667 32 -50 32c-32.667 0 -50.667 -14.333 -54 -43l-5 -36c-0.666992 -6 -3.33398 -9 -8.00098 -9h-23c-5.33301 0 -7.66602 3 -6.99902 9l4 37c2 23.333 9.83301 41.5 23.5 54.5s37.5 19.5 71.5 19.5c57.333 0 86 -20.667 86 -62
c0 -3.33301 -0.333008 -8 -1 -14l-7 -60c-3.33301 -28.667 -19.666 -50 -48.999 -64l-68 -33c-22 -10 -34 -23.333 -36 -40z" />
    <glyph glyph-name="threesuperior" unicode="&#xb3;" 
d="M133 669h29.9971c19.333 0 32.666 3.66699 39.999 11s12 18.333 14 33l5 42c1.33301 9.33301 2 14.333 2 15c0 22 -15.667 33 -47 33s-48.666 -14 -51.999 -42l-2 -16c-0.666992 -6 -3.66699 -9 -9 -9h-23c-4.66699 0 -6.66699 3 -6 9l2 17
c2.66699 23.333 10.5 41.166 23.5 53.499s36.167 18.5 69.5 18.5c55.333 0 83 -19.667 83 -59c0 -6 -0.666992 -13.333 -2 -22l-5 -43c-3.33301 -30 -18.666 -48.667 -45.999 -56c23.333 -5.33301 35 -19.333 35 -42c0 -4 -0.333008 -10.333 -1 -19l-8 -71
c-2 -22 -10 -39.167 -24 -51.5s-37.667 -18.5 -71 -18.5c-29.333 0 -51.166 5.66699 -65.499 17s-21.5 26.333 -21.5 45c0 2 0.333008 6 1 12l2 16c0.666992 6 3.66699 9 9 9h22c6.66699 0 9.33398 -3 8.00098 -9l-2 -15c-2 -14.667 0.833008 -25.667 8.5 -33
s21.167 -11 40.5 -11c32.667 0 50.667 14.333 54 43l8 64c2 16.667 0 28.834 -6 36.501s-19.333 11.5 -40 11.5h-29c-3.33301 0 -5.83301 0.666992 -7.5 2s-2.16699 3.33301 -1.5 6l2 16c0.666992 4.66699 4 7 10 7z" />
    <glyph glyph-name="acute" unicode="&#xb4;" horiz-adv-x="244" 
d="M257 697l-71.999 -119c-2.66699 -5.33301 -6.66699 -8 -12 -8h-23c-6.66699 0 -8.33398 3.33301 -5.00098 10l66 119c3.33301 6 8 9 14 9h28c6.66699 0 8 -3.66699 4 -11z" />
    <glyph glyph-name="mu" unicode="&#xb5;" horiz-adv-x="380" 
d="M244 11l1.99902 30c-38.667 -31.333 -76.667 -47 -114 -47c-30.667 0 -52 8.66699 -64 26l-21 -204c-1.33301 -7.33301 -5.33301 -11 -12 -11h-25c-7.33301 0 -10.333 3.66699 -9 11l82 666c0.666992 7.33301 4.66699 11 12 11h25c6.66699 0 9.66699 -3.66699 9 -11
l-46 -375c-1.33301 -12 -2 -19.667 -2 -23c0 -34 19.667 -51 59 -51c38.667 0 75.334 15.333 110.001 46l48 403c0.666992 7.33301 4.66699 11 12 11h25c6.66699 0 9.66699 -3.66699 9 -11l-57 -471c-0.666992 -7.33301 -4.66699 -11 -12 -11h-22
c-6.66699 0 -9.66699 3.66699 -9 11z" />
    <glyph glyph-name="paragraph" unicode="&#xb6;" horiz-adv-x="417" 
d="M401 669l-107 -866c-0.666992 -7.33301 -4.66699 -11 -12 -11h-24c-6.66699 0 -9.66699 3.66699 -9 11l106 866c0.666992 7.33301 4.66699 11 12 11h24c8 0 11.333 -3.66699 10 -11zM294 670l-107.002 -867c-1.33301 -7.33301 -5.33301 -11 -12 -11h-24
c-6.66699 0 -9.66699 3.66699 -9 11l59 479h-29c-84 0 -126 34.667 -126 104c0 3.33301 0.666992 11 2 23l18 153c4.66699 38 18.334 67.167 41.001 87.5s60.334 30.5 113.001 30.5h65c6.66699 0 9.66699 -3.33301 9 -10z" />
    <glyph glyph-name="periodcentered" unicode="&#xb7;" horiz-adv-x="160" 
d="M104 299l-8.99902 -77c-0.666992 -7.33301 -4.66699 -11 -12 -11h-26c-6.66699 0 -9.66699 3.66699 -9 11l9 77c1.33301 7.33301 5.66602 11 12.999 11h25c7.33301 0 10.333 -3.66699 9 -11z" />
    <glyph glyph-name="cedilla" unicode="&#xb8;" horiz-adv-x="128" 
d="M63 -54l14 0.000976562c18.667 0 34.834 -5.33301 48.501 -16s20.5 -27.334 20.5 -50.001c0 -32 -9.16699 -55.167 -27.5 -69.5s-39.166 -21.5 -62.499 -21.5h-72c-6 0 -9 3.66699 -9 11v9c0 7.33301 4 11 12 11h68c13.333 0 25.833 4.16699 37.5 12.5
s17.5 22.833 17.5 43.5c0 14.667 -4.33301 25 -13 31s-18.334 9 -29.001 9h-32c-10.667 0 -14.334 4.66699 -11.001 14l26 74c2 7.33301 6.66699 10.333 14 9l11 -2c6 -1.33301 8 -5.33301 6 -12z" />
    <glyph glyph-name="onesuperior" unicode="&#xb9;" 
d="M106 810l98 20.999c2.66699 0.666992 4.83398 0.333984 6.50098 -0.999023s2.16699 -3.33301 1.5 -6l-41 -335h64c6 0 8.66699 -2.66699 8 -8l-2 -17c-0.666992 -5.33301 -3.66699 -8 -9 -8h-169c-6 0 -8.66699 2.66699 -8 8l2 17c0.666992 5.33301 4 8 10 8h65l37 302
l-67 -14c-2.66699 -0.666992 -4.83398 -0.5 -6.50098 0.5s-2.16699 2.83301 -1.5 5.5l2 18c0.666992 5.33301 4 8.33301 10 9z" />
    <glyph glyph-name="ordmasculine" unicode="&#xba;" horiz-adv-x="276" 
d="M70 458l20.001 162.001c5.33301 45.333 35.666 68 90.999 68c56 0 84 -19.333 84 -58c0 -5.33301 -0.333008 -11 -1 -17l-20 -163c-5.33301 -45.333 -36.333 -68 -93 -68c-55.333 0 -83 19 -83 57c0 3.33301 0.666992 9.66602 2 18.999zM204.001 451.001l21 163.001
c0.666992 5.33301 1 9.66602 1 12.999c0 19.333 -15.333 29 -46 29c-30 0 -46.667 -12 -50 -36l-20 -160c-0.666992 -5.33301 -1 -10.333 -1 -15c0 -20.667 15 -31 45 -31s46.667 12.333 50 37z" />
    <glyph glyph-name="guillemotright" unicode="&#xbb;" horiz-adv-x="389" 
d="M317 251l-95.999 116c-4.66699 6.66699 -6.66699 12.667 -6 18l3 29c0.666992 3.33301 2.16699 5.5 4.5 6.5s4.83301 0.166992 7.5 -2.5l117 -139c4 -4.66699 6 -10.667 6 -18l-1 -18c-0.666992 -7.33301 -4.66699 -14 -12 -20l-151 -139
c-2.66699 -2 -5.33398 -2.66699 -8.00098 -2s-3.66699 3 -3 7l3 28c0.666992 6 4.66699 12 12 18zM165.001 251l-95.999 116c-4.66699 6.66699 -6.66699 12.667 -6 18l3 29c0.666992 3.33301 2.16699 5.5 4.5 6.5s4.83301 0.166992 7.5 -2.5l117 -139
c4 -4.66699 6 -10.667 6 -18l-1 -18c-0.666992 -7.33301 -4.66699 -14 -12 -20l-151 -139c-2.66699 -2 -5.33398 -2.66699 -8.00098 -2s-3.66699 3 -3 7l3 28c0.666992 6 4.66699 12 12 18z" />
    <glyph glyph-name="onequarter" unicode="&#xbc;" horiz-adv-x="593" 
d="M503 677l-335.001 -674c-4 -7.33301 -9.33301 -11 -16 -11h-18c-6.66699 0 -8 3.66699 -4 11l334 674c4 7.33301 9.66699 11 17 11h17c6.66699 0 8.33398 -3.66699 5.00098 -11zM91.999 660l98 20.999c2.66699 0.666992 4.83398 0.333984 6.50098 -0.999023
s2.16699 -3.33301 1.5 -6l-41 -335h64c6 0 8.66699 -2.66699 8 -8l-2 -17c-0.666992 -5.33301 -3.66699 -8 -9 -8h-169c-6 0 -8.66699 2.66699 -8 8l2 17c0.666992 5.33301 4 8 10 8h65l37 302l-67 -14c-2.66699 -0.666992 -4.83398 -0.5 -6.50098 0.5
s-2.16699 2.83301 -1.5 5.5l2 18c0.666992 5.33301 4 8.33301 10 9zM460.999 364.999l-76.999 -213h105l26 213c0.666992 6 3.66699 9 9 9h23c5.33301 0 7.66602 -3 6.99902 -9l-44 -356c-0.666992 -6 -3.66699 -9 -9 -9h-23c-4.66699 0 -6.66699 3 -6 9l13 110h-137
c-4.66699 0 -7 2.33301 -7 7l1 10c0.666992 6.66699 1.66699 11.667 3 15l77 214c2 6 5.66699 9 11 9h22c6 0 8 -3 6 -9z" />
    <glyph glyph-name="onehalf" unicode="&#xbd;" horiz-adv-x="599" 
d="M499 677l-335.001 -674c-4 -7.33301 -9.33301 -11 -16 -11h-18c-6.66699 0 -8 3.66699 -4 11l334 674c4 7.33301 9.66699 11 17 11h17c6.66699 0 8.33398 -3.66699 5.00098 -11zM91.999 660l98 20.999c2.66699 0.666992 4.83398 0.333984 6.50098 -0.999023
s2.16699 -3.33301 1.5 -6l-41 -335h64c6 0 8.66699 -2.66699 8 -8l-2 -17c-0.666992 -5.33301 -3.66699 -8 -9 -8h-169c-6 0 -8.66699 2.66699 -8 8l2 17c0.666992 5.33301 4 8 10 8h65l37 302l-67 -14c-2.66699 -0.666992 -4.83398 -0.5 -6.50098 0.5
s-2.16699 2.83301 -1.5 5.5l2 18c0.666992 5.33301 4 8.33301 10 9zM389.999 32.999l129.999 0.000976562c4 0 6 -2.66699 6 -8l-1 -17c0 -5.33301 -3.33301 -8 -10 -8h-160c-6 0 -8.66699 2.66699 -8 8l12 101c2.66699 25.333 20 45.666 52 60.999l68 33
c20 9.33301 31.333 23.333 34 42l8 55c0.666992 5.33301 1 10 1 14c0 21.333 -16.667 32 -50 32c-32.667 0 -50.667 -14.333 -54 -43l-5 -36c-0.666992 -6 -3.33398 -9 -8.00098 -9h-23c-5.33301 0 -7.66602 3 -6.99902 9l4 37c2 23.333 9.83301 41.5 23.5 54.5
s37.5 19.5 71.5 19.5c57.333 0 86 -20.667 86 -62c0 -3.33301 -0.333008 -8 -1 -14l-7 -60c-3.33301 -28.667 -19.666 -50 -48.999 -64l-68 -33c-22 -10 -34 -23.333 -36 -40z" />
    <glyph glyph-name="threequarters" unicode="&#xbe;" horiz-adv-x="580" 
d="M490 677l-335.001 -674c-3.33301 -7.33301 -8.66602 -11 -15.999 -11h-18c-6 0 -7.33301 3.66699 -4 11l334 674c3.33301 7.33301 9 11 17 11h17c7.33301 0 9 -3.66699 5 -11zM126.999 519h29.9971c19.333 0 32.666 3.66699 39.999 11s12 18.333 14 33l5 42
c1.33301 9.33301 2 14.333 2 15c0 22 -15.667 33 -47 33s-48.666 -14 -51.999 -42l-2 -16c-0.666992 -6 -3.66699 -9 -9 -9h-23c-4.66699 0 -6.66699 3 -6 9l2 17c2.66699 23.333 10.5 41.166 23.5 53.499s36.167 18.5 69.5 18.5c55.333 0 83 -19.667 83 -59
c0 -6 -0.666992 -13.333 -2 -22l-5 -43c-3.33301 -30 -18.666 -48.667 -45.999 -56c23.333 -5.33301 35 -19.333 35 -42c0 -4 -0.333008 -10.333 -1 -19l-8 -71c-2 -22 -10 -39.167 -24 -51.5s-37.667 -18.5 -71 -18.5c-29.333 0 -51.166 5.66699 -65.499 17
s-21.5 26.333 -21.5 45c0 2 0.333008 6 1 12l2 16c0.666992 6 3.66699 9 9 9h22c6.66699 0 9.33398 -3 8.00098 -9l-2 -15c-2 -14.667 0.833008 -25.667 8.5 -33s21.167 -11 40.5 -11c32.667 0 50.667 14.333 54 43l8 64c2 16.667 0 28.834 -6 36.501s-19.333 11.5 -40 11.5
h-29c-3.33301 0 -5.83301 0.666992 -7.5 2s-2.16699 3.33301 -1.5 6l2 16c0.666992 4.66699 4 7 10 7zM448.996 365l-76.999 -213h105l26 213c0.666992 6 3.66699 9 9 9h23c5.33301 0 7.66602 -3 6.99902 -9l-44 -356c-0.666992 -6 -3.66699 -9 -9 -9h-23
c-4.66699 0 -6.66699 3 -6 9l13 110h-137c-4.66699 0 -7 2.33301 -7 7l1 10c0.666992 6.66699 1.66699 11.667 3 15l77 214c2 6 5.66699 9 11 9h22c6 0 8 -3 6 -9z" />
    <glyph glyph-name="questiondown" unicode="&#xbf;" horiz-adv-x="362" 
d="M179 405l9.00098 77c0.666992 7.33301 4.66699 11 12 11h25c7.33301 0 10.666 -3.66699 9.99902 -11l-9 -77c-1.33301 -7.33301 -5.66602 -11 -12.999 -11h-26c-6.66699 0 -9.33398 3.66699 -8.00098 11zM216.001 327l-11.999 -102.999c-4 -34 -22.667 -62.667 -56 -86
l-54 -37c-25.333 -16.667 -39.666 -39 -42.999 -67l-12 -100c-1.33301 -12 -2 -19 -2 -21c0 -44.667 31.333 -67 94 -67c37.333 0 63.833 7.33301 79.5 22s25.5 36 29.5 64l9 68c0.666992 8 4.66699 12 12 12h25c6.66699 0 9.66699 -4 9 -12l-8 -68
c-4.66699 -40.667 -18.334 -72 -41.001 -94s-61.667 -33 -117 -33c-92.667 0 -139 34.667 -139 104c0 5.33301 0.666992 13.333 2 24l12 100c4.66699 38.667 26.334 71.667 65.001 99l48 34c23.333 17.333 36.666 38.666 39.999 63.999l12 97
c0.666992 7.33301 4.66699 11 12 11h25c7.33301 0 10.666 -3.66699 9.99902 -11z" />
    <glyph glyph-name="Agrave" unicode="&#xc0;" horiz-adv-x="393" 
d="M225 747l-45 120c-2.66699 7.33301 0 11 8 11h27c6 0 10 -3 12 -9l37 -119c2 -6.66699 -0.333008 -10 -7 -10h-21c-6 0 -9.66699 2.33301 -11 7zM268 249l-28 273.001c-3.33301 28.667 -5 58.667 -5 90c-8 -32.667 -17 -62.334 -27 -89.001l-97 -274h157zM229 680.001
h27.999c8 0 12.333 -3.66699 13 -11l68 -658c1.33301 -7.33301 -1.66699 -11 -9 -11h-26c-6.66699 0 -10.667 3.66699 -12 11l-20 198h-172l-69 -198c-2 -7.33301 -6.33301 -11 -13 -11h-25c-8 0 -10.333 3.66699 -7 11l230 658c2.66699 7.33301 7.33398 11 14.001 11z" />
    <glyph glyph-name="Aacute" unicode="&#xc1;" horiz-adv-x="393" 
d="M345 867l-73 -120c-3.33301 -4.66699 -7.66602 -7 -12.999 -7h-22c-6 0 -7.33301 3.33301 -4 10l65 119c2.66699 6 7.66699 9 15 9h28c7.33301 0 8.66602 -3.66699 3.99902 -11zM268 249l-28 273.001c-3.33301 28.667 -5 58.667 -5 90
c-8 -32.667 -17 -62.334 -27 -89.001l-97 -274h157zM229 680.001h27.999c8 0 12.333 -3.66699 13 -11l68 -658c1.33301 -7.33301 -1.66699 -11 -9 -11h-26c-6.66699 0 -10.667 3.66699 -12 11l-20 198h-172l-69 -198c-2 -7.33301 -6.33301 -11 -13 -11h-25
c-8 0 -10.333 3.66699 -7 11l230 658c2.66699 7.33301 7.33398 11 14.001 11z" />
    <glyph glyph-name="Acircumflex" unicode="&#xc2;" horiz-adv-x="393" 
d="M260 844l-53 -93c-4 -7.33301 -9 -11 -15 -11h-18c-8 0 -9.66699 3.66699 -5 11l71 117c4 6.66699 9.33301 10 16 10h17c6 0 10 -3 12 -9l43 -118c2.66699 -7.33301 0.333984 -11 -6.99902 -11h-17c-6.66699 0 -11.334 3.66699 -14.001 11zM268 249l-28 273.001
c-3.33301 28.667 -5 58.667 -5 90c-8 -32.667 -17 -62.334 -27 -89.001l-97 -274h157zM229 680.001h27.999c8 0 12.333 -3.66699 13 -11l68 -658c1.33301 -7.33301 -1.66699 -11 -9 -11h-26c-6.66699 0 -10.667 3.66699 -12 11l-20 198h-172l-69 -198
c-2 -7.33301 -6.33301 -11 -13 -11h-25c-8 0 -10.333 3.66699 -7 11l230 658c2.66699 7.33301 7.33398 11 14.001 11z" />
    <glyph glyph-name="Atilde" unicode="&#xc3;" horiz-adv-x="393" 
d="M209 817c-7.33301 0 -12.499 -2.5 -15.499 -7.5s-5.83301 -15.5 -8.5 -31.5l-2 -12c-0.666992 -6.66699 -5 -10 -13 -10h-11c-7.33301 0 -10.333 4 -9 12l3 19c7.33301 44 26 66 56 66c13.333 0 26.666 -6.66699 39.999 -20l25 -26c8.66699 -9.33301 17 -14 25 -14
c7.33301 0 12.833 2.66699 16.5 8s6.16699 16 7.5 32l1 10c0.666992 7.33301 5 11 13 11h12c6.66699 0 9.33398 -4.33301 8.00098 -13l-2 -18c-4.66699 -44 -23.667 -66 -57 -66c-14.667 0 -28.334 6.66699 -41.001 20l-24 25c-10 10 -18 15 -24 15zM268.001 249
l-28 273.001c-3.33301 28.667 -5 58.667 -5 90c-8 -32.667 -17 -62.334 -27 -89.001l-97 -274h157zM229.001 680.001h27.999c8 0 12.333 -3.66699 13 -11l68 -658c1.33301 -7.33301 -1.66699 -11 -9 -11h-26c-6.66699 0 -10.667 3.66699 -12 11l-20 198h-172l-69 -198
c-2 -7.33301 -6.33301 -11 -13 -11h-25c-8 0 -10.333 3.66699 -7 11l230 658c2.66699 7.33301 7.33398 11 14.001 11z" />
    <glyph glyph-name="Adieresis" unicode="&#xc4;" horiz-adv-x="393" 
d="M321 857l-12.999 -98c-0.666992 -6.66699 -4.33398 -10 -11.001 -10h-16c-7.33301 0 -10.666 3.33301 -9.99902 10l13 98c1.33301 8 5 12 11 12h16c7.33301 0 10.666 -4 9.99902 -12zM243.001 857l-12 -98c-0.666992 -6.66699 -4.66699 -10 -12 -10h-16
c-6.66699 0 -9.66699 3.33301 -9 10l12 98c1.33301 8 5.33301 12 12 12h16c6.66699 0 9.66699 -4 9 -12zM268.001 249l-28 273.001c-3.33301 28.667 -5 58.667 -5 90c-8 -32.667 -17 -62.334 -27 -89.001l-97 -274h157zM229.001 680.001h27.999c8 0 12.333 -3.66699 13 -11
l68 -658c1.33301 -7.33301 -1.66699 -11 -9 -11h-26c-6.66699 0 -10.667 3.66699 -12 11l-20 198h-172l-69 -198c-2 -7.33301 -6.33301 -11 -13 -11h-25c-8 0 -10.333 3.66699 -7 11l230 658c2.66699 7.33301 7.33398 11 14.001 11z" />
    <glyph glyph-name="Aring" unicode="&#xc5;" horiz-adv-x="393" 
d="M325 812l-2 -20.999c-4.66699 -45.333 -29 -68 -73 -68c-20.667 0 -36.5 5.16699 -47.5 15.5s-16.5 23.833 -16.5 40.5c0 4.66699 0.333008 10 1 16l3 21c6.66699 45.333 31 68 73 68c20 0 35.5 -5.33301 46.5 -16s16.5 -24.334 16.5 -41.001
c0 -4.66699 -0.333008 -9.66699 -1 -15zM294 793.001l2 16c0.666992 6.66699 1 12 1 16c0 22 -12.333 33 -37 33s-38.667 -14.667 -42 -44l-2 -16c-0.666992 -4.66699 -1 -10 -1 -16c0 -22 12.333 -33 37 -33s38.667 14.667 42 44zM268 249.001l-28 273.001
c-3.33301 28.667 -5 58.667 -5 90c-8 -32.667 -17 -62.334 -27 -89.001l-97 -274h157zM229 680.002h27.999c8 0 12.333 -3.66699 13 -11l68 -658c1.33301 -7.33301 -1.66699 -11 -9 -11h-26c-6.66699 0 -10.667 3.66699 -12 11l-20 198h-172l-69 -198
c-2 -7.33301 -6.33301 -11 -13 -11h-25c-8 0 -10.333 3.66699 -7 11l230 658c2.66699 7.33301 7.33398 11 14.001 11z" />
    <glyph glyph-name="AE" unicode="&#xc6;" horiz-adv-x="601" 
d="M299 524l-150 -277.001h140l43 353c-9.33301 -27.333 -20.333 -52.666 -33 -75.999zM-14 -0.000976562c-9.33301 0 -11.999 3.66602 -7.99902 10.999l350 658c4 7.33301 9.66699 11 17 11h248c7.33301 0 10.666 -3.66699 9.99902 -11l-2 -19
c-0.666992 -6.66699 -4.66699 -10 -12 -10h-205l-33 -262h193c7.33301 0 10.666 -3.66699 9.99902 -11l-2 -18c-1.33301 -7.33301 -5.33301 -11 -12 -11h-193l-37 -298h214c4 0 7 -0.666992 9 -2s2.66699 -4 2 -8l-2 -19c-0.666992 -7.33301 -4.66699 -11 -12 -11h-248
c-4.66699 0 -8.16699 0.833008 -10.5 2.5s-3.16602 4.83398 -2.49902 9.50098l24 197h-154l-104 -198c-4 -7.33301 -9 -11 -15 -11h-25z" />
    <glyph glyph-name="Ccedilla" unicode="&#xc7;" horiz-adv-x="399" 
d="M241 -120c0 -32 -9.16504 -55.166 -27.498 -69.499s-39.166 -21.5 -62.499 -21.5h-72c-6 0 -9 3.66699 -9 11v9c0 7.33301 4 11 12 11h68c13.333 0 25.833 4.16699 37.5 12.5s17.5 22.833 17.5 43.5c0 14.667 -4.33301 25 -13 31s-18.334 9 -29.001 9h-32
c-10.667 0 -14.334 4.66699 -11.001 14l22 64c-69.333 8 -104 42 -104 102c0 4 0.666992 12 2 24l54 441c5.33301 40 19.833 71.167 43.5 93.5s62.5 33.5 116.5 33.5c93.333 0 140 -35 140 -105c0 -3.33301 -0.666992 -11 -2 -23l-8 -64
c-0.666992 -7.33301 -4.66699 -11 -12 -11h-25c-7.33301 0 -10.333 3.66699 -9 11l7 63c1.33301 12 2 18.667 2 20c0 45.333 -32 68 -96 68c-66.667 0 -103.334 -29 -110.001 -87l-54 -438c-1.33301 -10.667 -2 -17.667 -2 -21c0 -45.333 31.667 -68 95 -68
c67.333 0 104.333 29 111 87l9 76c1.33301 7.33301 5.66602 11 12.999 11h25c7.33301 0 10.333 -3.66699 9 -11l-9 -77c-4.66699 -40 -19 -71.167 -43 -93.5s-63.667 -33.5 -119 -33.5h-2l-16 -46h14c18.667 0 34.834 -5.33301 48.501 -16s20.5 -27.334 20.5 -50.001z" />
    <glyph glyph-name="Egrave" unicode="&#xc8;" horiz-adv-x="377" 
d="M234 747l-45 120c-2.66699 7.33301 0 11 8 11h27c6 0 10 -3 12 -9l37 -119c2 -6.66699 -0.333008 -10 -7 -10h-21c-6 0 -9.66699 2.33301 -11 7zM296 0h-251.997c-6.66699 0 -9.66699 3.66699 -9 11l80 658c0.666992 7.33301 4.66699 11 12 11h242
c7.33301 0 10.666 -3.66699 9.99902 -11l-2 -19c-0.666992 -7.33301 -4.66699 -11 -12 -11h-206l-31 -261h191c7.33301 0 10.666 -3.66699 9.99902 -11l-2 -18c-0.666992 -7.33301 -4.66699 -11 -12 -11h-193l-37 -297h215c7.33301 0 10.666 -3.66699 9.99902 -11l-2 -19
c-0.666992 -7.33301 -4.66699 -11 -12 -11z" />
    <glyph glyph-name="Eacute" unicode="&#xc9;" horiz-adv-x="377" 
d="M347 867l-73 -120c-3.33301 -4.66699 -7.66602 -7 -12.999 -7h-22c-6 0 -7.33301 3.33301 -4 10l65 119c2.66699 6 7.66699 9 15 9h28c7.33301 0 8.66602 -3.66699 3.99902 -11zM296 0h-251.997c-6.66699 0 -9.66699 3.66699 -9 11l80 658
c0.666992 7.33301 4.66699 11 12 11h242c7.33301 0 10.666 -3.66699 9.99902 -11l-2 -19c-0.666992 -7.33301 -4.66699 -11 -12 -11h-206l-31 -261h191c7.33301 0 10.666 -3.66699 9.99902 -11l-2 -18c-0.666992 -7.33301 -4.66699 -11 -12 -11h-193l-37 -297h215
c7.33301 0 10.666 -3.66699 9.99902 -11l-2 -19c-0.666992 -7.33301 -4.66699 -11 -12 -11z" />
    <glyph glyph-name="Ecircumflex" unicode="&#xca;" horiz-adv-x="377" 
d="M267 844l-53 -93c-4 -7.33301 -9 -11 -15 -11h-18c-8 0 -9.66699 3.66699 -5 11l71 117c4 6.66699 9.33301 10 16 10h17c6 0 10 -3 12 -9l43 -118c2.66699 -7.33301 0.333984 -11 -6.99902 -11h-17c-6.66699 0 -11.334 3.66699 -14.001 11zM296 0h-251.997
c-6.66699 0 -9.66699 3.66699 -9 11l80 658c0.666992 7.33301 4.66699 11 12 11h242c7.33301 0 10.666 -3.66699 9.99902 -11l-2 -19c-0.666992 -7.33301 -4.66699 -11 -12 -11h-206l-31 -261h191c7.33301 0 10.666 -3.66699 9.99902 -11l-2 -18
c-0.666992 -7.33301 -4.66699 -11 -12 -11h-193l-37 -297h215c7.33301 0 10.666 -3.66699 9.99902 -11l-2 -19c-0.666992 -7.33301 -4.66699 -11 -12 -11z" />
    <glyph glyph-name="Edieresis" unicode="&#xcb;" horiz-adv-x="377" 
d="M330 857l-13.001 -98c-0.666992 -6.66699 -4.33398 -10 -11.001 -10h-16c-7.33301 0 -10.666 3.33301 -9.99902 10l13 98c0.666992 8 4.33398 12 11.001 12h16c8 0 11.333 -4 10 -12zM251.999 857l-12 -98c-0.666992 -6.66699 -4.66699 -10 -12 -10h-16
c-6.66699 0 -9.66699 3.33301 -9 10l12 98c0.666992 8 4.66699 12 12 12h16c7.33301 0 10.333 -4 9 -12zM295.999 0h-251.997c-6.66699 0 -9.66699 3.66699 -9 11l80 658c0.666992 7.33301 4.66699 11 12 11h242c7.33301 0 10.666 -3.66699 9.99902 -11l-2 -19
c-0.666992 -7.33301 -4.66699 -11 -12 -11h-206l-31 -261h191c7.33301 0 10.666 -3.66699 9.99902 -11l-2 -18c-0.666992 -7.33301 -4.66699 -11 -12 -11h-193l-37 -297h215c7.33301 0 10.666 -3.66699 9.99902 -11l-2 -19c-0.666992 -7.33301 -4.66699 -11 -12 -11z" />
    <glyph glyph-name="Igrave" unicode="&#xcc;" horiz-adv-x="186" 
d="M126 747l-45 120c-2.66699 7.33301 0 11 8 11h27c6 0 10 -3 12 -9l37 -119c2 -6.66699 -0.333008 -10 -7 -10h-21c-6 0 -9.66699 2.33301 -11 7zM163 669l-80.999 -658c-0.666992 -7.33301 -4.33398 -11 -11.001 -11h-27c-6.66699 0 -9.66699 3.66699 -9 11l80 658
c0.666992 7.33301 4.66699 11 12 11h27c6.66699 0 9.66699 -3.66699 9 -11z" />
    <glyph glyph-name="Iacute" unicode="&#xcd;" horiz-adv-x="186" 
d="M243 867l-73 -120c-3.33301 -4.66699 -7.66602 -7 -12.999 -7h-22c-6 0 -7.33301 3.33301 -4 10l65 119c2.66699 6 7.66699 9 15 9h28c7.33301 0 8.66602 -3.66699 3.99902 -11zM163 669l-80.999 -658c-0.666992 -7.33301 -4.33398 -11 -11.001 -11h-27
c-6.66699 0 -9.66699 3.66699 -9 11l80 658c0.666992 7.33301 4.66699 11 12 11h27c6.66699 0 9.66699 -3.66699 9 -11z" />
    <glyph glyph-name="Icircumflex" unicode="&#xce;" horiz-adv-x="186" 
d="M159 844l-53 -93c-4 -7.33301 -9 -11 -15 -11h-18c-8 0 -9.66699 3.66699 -5 11l71 117c4 6.66699 9.33301 10 16 10h17c6 0 10 -3 12 -9l43 -118c2.66699 -7.33301 0.333984 -11 -6.99902 -11h-17c-6.66699 0 -11.334 3.66699 -14.001 11zM163 669l-80.999 -658
c-0.666992 -7.33301 -4.33398 -11 -11.001 -11h-27c-6.66699 0 -9.66699 3.66699 -9 11l80 658c0.666992 7.33301 4.66699 11 12 11h27c6.66699 0 9.66699 -3.66699 9 -11z" />
    <glyph glyph-name="Idieresis" unicode="&#xcf;" horiz-adv-x="186" 
d="M221 857l-12.999 -98c-0.666992 -6.66699 -4.33398 -10 -11.001 -10h-16c-7.33301 0 -10.666 3.33301 -9.99902 10l13 98c1.33301 8 5 12 11 12h16c7.33301 0 10.666 -4 9.99902 -12zM143.001 857l-12 -98c-0.666992 -6.66699 -4.66699 -10 -12 -10h-16
c-6.66699 0 -9.66699 3.33301 -9 10l12 98c1.33301 8 5.33301 12 12 12h16c6.66699 0 9.66699 -4 9 -12zM163.001 669l-80.999 -658c-0.666992 -7.33301 -4.33398 -11 -11.001 -11h-27c-6.66699 0 -9.66699 3.66699 -9 11l80 658c0.666992 7.33301 4.66699 11 12 11h27
c6.66699 0 9.66699 -3.66699 9 -11z" />
    <glyph glyph-name="Eth" unicode="&#xd0;" horiz-adv-x="440" 
d="M193 0h-145.001c-6 0 -8.66699 3.66699 -8 11l38 315h-49c-7.33301 0 -10.666 3.66699 -9.99902 11l2 15c0.666992 7.33301 4.66699 11 12 11h50l37 306c0.666992 7.33301 4.66699 11 12 11h136c50 0 86.667 -9.66699 110 -29s35 -45.333 35 -78
c0 -4 -0.666992 -11 -2 -21l-52 -425c-5.33301 -40 -20.333 -71.167 -45 -93.5s-65 -33.5 -121 -33.5zM89.999 41h105.999c70.667 0 109.334 29 116.001 87l51 421c1.33301 10.667 2 17 2 19c0 47.333 -33.333 71 -100 71h-101l-34 -276h91c8 0 11.667 -3.66699 11 -11
l-2 -15c-0.666992 -7.33301 -4.66699 -11 -12 -11h-93z" />
    <glyph glyph-name="Ntilde" unicode="&#xd1;" horiz-adv-x="446" 
d="M241 817c-7.33301 0 -12.499 -2.5 -15.499 -7.5s-5.83301 -15.5 -8.5 -31.5l-2 -12c-0.666992 -6.66699 -5 -10 -13 -10h-11c-7.33301 0 -10.333 4 -9 12l3 19c7.33301 44 26 66 56 66c13.333 0 26.666 -6.66699 39.999 -20l25 -26c8.66699 -9.33301 17 -14 25 -14
c7.33301 0 12.833 2.66699 16.5 8s6.16699 16 7.5 32l1 10c0.666992 7.33301 5 11 13 11h12c6.66699 0 9.33398 -4.33301 8.00098 -13l-2 -18c-4.66699 -44 -23.667 -66 -57 -66c-14.667 0 -28.334 6.66699 -41.001 20l-24 25c-10 10 -18 15 -24 15zM422.001 669
l-81 -658.001c-0.666992 -7.33301 -4.33398 -11 -11.001 -11h-24c-5.33301 0 -9 2.66699 -11 8l-135 492c-5.33301 18.667 -10 41.334 -14 68.001l-69 -557c-0.666992 -7.33301 -4.33398 -11 -11.001 -11h-22c-7.33301 0 -10.666 3.66699 -9.99902 11l81 658
c0.666992 7.33301 4.66699 11 12 11h24c5.33301 0 8.33301 -2.33301 9 -7l137 -498c6.66699 -26 11.334 -46.667 14.001 -62l69 556c0.666992 7.33301 4.66699 11 12 11h21c6.66699 0 9.66699 -3.66699 9 -11z" />
    <glyph glyph-name="Ograve" unicode="&#xd2;" horiz-adv-x="427" 
d="M248 747l-45 120c-2.66699 7.33301 0 11 8 11h27c6 0 10 -3 12 -9l37 -119c2 -6.66699 -0.333008 -10 -7 -10h-21c-6 0 -9.66699 2.33301 -11 7zM39 120l55 441c5.33301 40 20.166 71.167 44.499 93.5s63.833 33.5 118.5 33.5c49.333 0 85.5 -9.66699 108.5 -29
s34.5 -45 34.5 -77c0 -6.66699 -0.333008 -14 -1 -22l-55 -441c-5.33301 -40 -20.166 -71.167 -44.499 -93.5s-63.833 -33.5 -118.5 -33.5c-95.333 0 -143 35.333 -143 106c0 8.66699 0.333008 16 1 22zM297 120l54 437.999c0.666992 6 1 12.333 1 19
c0 46.667 -32.667 70 -98 70c-68.667 0 -106.334 -29 -113.001 -87l-54 -438c-0.666992 -5.33301 -1 -11.666 -1 -18.999c0 -46.667 32.667 -70 98 -70c68.667 0 106.334 29 113.001 87z" />
    <glyph glyph-name="Oacute" unicode="&#xd3;" horiz-adv-x="427" 
d="M361 867l-73 -120c-3.33301 -4.66699 -7.66602 -7 -12.999 -7h-22c-6 0 -7.33301 3.33301 -4 10l65 119c2.66699 6 7.66699 9 15 9h28c7.33301 0 8.66602 -3.66699 3.99902 -11zM39 120l55 441c5.33301 40 20.166 71.167 44.499 93.5s63.833 33.5 118.5 33.5
c49.333 0 85.5 -9.66699 108.5 -29s34.5 -45 34.5 -77c0 -6.66699 -0.333008 -14 -1 -22l-55 -441c-5.33301 -40 -20.166 -71.167 -44.499 -93.5s-63.833 -33.5 -118.5 -33.5c-95.333 0 -143 35.333 -143 106c0 8.66699 0.333008 16 1 22zM297 120l54 437.999
c0.666992 6 1 12.333 1 19c0 46.667 -32.667 70 -98 70c-68.667 0 -106.334 -29 -113.001 -87l-54 -438c-0.666992 -5.33301 -1 -11.666 -1 -18.999c0 -46.667 32.667 -70 98 -70c68.667 0 106.334 29 113.001 87z" />
    <glyph glyph-name="Ocircumflex" unicode="&#xd4;" horiz-adv-x="427" 
d="M279 844l-53 -93c-4 -7.33301 -9 -11 -15 -11h-18c-8 0 -9.66699 3.66699 -5 11l71 117c4 6.66699 9.33301 10 16 10h17c6 0 10 -3 12 -9l43 -118c2.66699 -7.33301 0.333984 -11 -6.99902 -11h-17c-6.66699 0 -11.334 3.66699 -14.001 11zM39 120l55 441
c5.33301 40 20.166 71.167 44.499 93.5s63.833 33.5 118.5 33.5c49.333 0 85.5 -9.66699 108.5 -29s34.5 -45 34.5 -77c0 -6.66699 -0.333008 -14 -1 -22l-55 -441c-5.33301 -40 -20.166 -71.167 -44.499 -93.5s-63.833 -33.5 -118.5 -33.5c-95.333 0 -143 35.333 -143 106
c0 8.66699 0.333008 16 1 22zM297 120l54 437.999c0.666992 6 1 12.333 1 19c0 46.667 -32.667 70 -98 70c-68.667 0 -106.334 -29 -113.001 -87l-54 -438c-0.666992 -5.33301 -1 -11.666 -1 -18.999c0 -46.667 32.667 -70 98 -70c68.667 0 106.334 29 113.001 87z" />
    <glyph glyph-name="Otilde" unicode="&#xd5;" horiz-adv-x="427" 
d="M231 817c-7.33301 0 -12.499 -2.5 -15.499 -7.5s-5.83301 -15.5 -8.5 -31.5l-2 -12c-0.666992 -6.66699 -5 -10 -13 -10h-11c-7.33301 0 -10.333 4 -9 12l3 19c7.33301 44 26 66 56 66c13.333 0 26.666 -6.66699 39.999 -20l25 -26c8.66699 -9.33301 17 -14 25 -14
c7.33301 0 12.833 2.66699 16.5 8s6.16699 16 7.5 32l1 10c0.666992 7.33301 5 11 13 11h12c6.66699 0 9.33398 -4.33301 8.00098 -13l-2 -18c-4.66699 -44 -23.667 -66 -57 -66c-14.667 0 -28.334 6.66699 -41.001 20l-24 25c-10 10 -18 15 -24 15zM39.001 120l55 441
c5.33301 40 20.166 71.167 44.499 93.5s63.833 33.5 118.5 33.5c49.333 0 85.5 -9.66699 108.5 -29s34.5 -45 34.5 -77c0 -6.66699 -0.333008 -14 -1 -22l-55 -441c-5.33301 -40 -20.166 -71.167 -44.499 -93.5s-63.833 -33.5 -118.5 -33.5c-95.333 0 -143 35.333 -143 106
c0 8.66699 0.333008 16 1 22zM297.001 120l54 437.999c0.666992 6 1 12.333 1 19c0 46.667 -32.667 70 -98 70c-68.667 0 -106.334 -29 -113.001 -87l-54 -438c-0.666992 -5.33301 -1 -11.666 -1 -18.999c0 -46.667 32.667 -70 98 -70c68.667 0 106.334 29 113.001 87z" />
    <glyph glyph-name="Odieresis" unicode="&#xd6;" horiz-adv-x="427" 
d="M340 857l-13.001 -98c-0.666992 -6.66699 -4.33398 -10 -11.001 -10h-16c-7.33301 0 -10.666 3.33301 -9.99902 10l13 98c0.666992 8 4.33398 12 11.001 12h16c8 0 11.333 -4 10 -12zM261.999 857l-12 -98c-0.666992 -6.66699 -4.66699 -10 -12 -10h-16
c-6.66699 0 -9.66699 3.33301 -9 10l12 98c0.666992 8 4.66699 12 12 12h16c7.33301 0 10.333 -4 9 -12zM38.999 120l55 441c5.33301 40 20.166 71.167 44.499 93.5s63.833 33.5 118.5 33.5c49.333 0 85.5 -9.66699 108.5 -29s34.5 -45 34.5 -77
c0 -6.66699 -0.333008 -14 -1 -22l-55 -441c-5.33301 -40 -20.166 -71.167 -44.499 -93.5s-63.833 -33.5 -118.5 -33.5c-95.333 0 -143 35.333 -143 106c0 8.66699 0.333008 16 1 22zM296.999 120l54 437.999c0.666992 6 1 12.333 1 19c0 46.667 -32.667 70 -98 70
c-68.667 0 -106.334 -29 -113.001 -87l-54 -438c-0.666992 -5.33301 -1 -11.666 -1 -18.999c0 -46.667 32.667 -70 98 -70c68.667 0 106.334 29 113.001 87z" />
    <glyph glyph-name="multiply" unicode="&#xd7;" horiz-adv-x="383" 
d="M167 340l-102 102c-6 5.33301 -6.33301 10.666 -1 15.999l13 13c4.66699 4.66699 10 4.33398 16 -0.999023l101 -102l104 103c5.33301 4.66699 10.333 4.66699 15 0l13 -13c5.33301 -5.33301 5.33301 -10.333 0 -15l-103 -103l102 -102
c4.66699 -4.66699 4.66699 -10 0 -16l-12 -13c-4.66699 -5.33301 -10 -5 -16 1l-102 102l-103 -102c-5.33301 -5.33301 -10.333 -5.66602 -15 -0.999023l-12 13c-5.33301 5.33301 -5.33301 10.666 0 15.999z" />
    <glyph glyph-name="Oslash" unicode="&#xd8;" horiz-adv-x="427" 
d="M86 122c-1.33301 -11.333 -1.33301 -23.333 0 -36l250 538c-15.333 15.333 -42.333 23 -81 23c-69.333 0 -107.333 -29 -114 -87zM183 33c69.333 0 107.333 29 114 87l55 438c0.666992 8 1 16.333 1 25l-246 -531c16.667 -12.667 42 -19 76 -19zM76 -16
c-4 -7.33301 -9 -10.998 -15 -10.998h-17c-6.66699 0 -8.33398 3.66699 -5.00098 11l22 47c-15.333 17.333 -23 39.666 -23 66.999c0 8 0.333008 15.333 1 22l55 441c5.33301 40 20.166 71.167 44.499 93.5s63.833 33.5 118.5 33.5c42 0 74.667 -7.33301 98 -22l14 30
c3.33301 7.33301 8 11 14 11h17c6.66699 0 8.33398 -3.66699 5.00098 -11l-24 -52c12.667 -16.667 19 -37.334 19 -62.001c0 -8 -0.333008 -15.333 -1 -22l-55 -441c-5.33301 -40 -20.166 -71.167 -44.499 -93.5s-63.833 -33.5 -118.5 -33.5c-38 0 -69 6 -93 18z" />
    <glyph glyph-name="Ugrave" unicode="&#xd9;" horiz-adv-x="439" 
d="M252 747l-45 120c-2.66699 7.33301 0 11 8 11h27c6 0 10 -3 12 -9l37 -119c2 -6.66699 -0.333008 -10 -7 -10h-21c-6 0 -9.66699 2.33301 -11 7zM161 669l-67.001 -545.999c-1.33301 -10.667 -2 -17.334 -2 -20.001c0 -46.667 32.667 -70 98 -70
c68.667 0 106.334 29 113.001 87l68 549c0.666992 7.33301 4.33398 11 11.001 11h27c6.66699 0 9.66699 -3.66699 9 -11l-67 -550c-5.33301 -40 -20.333 -71.167 -45 -93.5s-64.667 -33.5 -120 -33.5c-48.667 0 -84.5 9.66699 -107.5 29s-34.5 45 -34.5 77
c0 4 0.666992 11.333 2 22l67 549c0.666992 7.33301 4.66699 11 12 11h26c7.33301 0 10.666 -3.66699 9.99902 -11z" />
    <glyph glyph-name="Uacute" unicode="&#xda;" horiz-adv-x="439" 
d="M368 867l-73 -120c-3.33301 -4.66699 -7.66602 -7 -12.999 -7h-22c-6 0 -7.33301 3.33301 -4 10l65 119c3.33301 6 8.33301 9 15 9h28c7.33301 0 8.66602 -3.66699 3.99902 -11zM161 669l-67.001 -545.999c-1.33301 -10.667 -2 -17.334 -2 -20.001
c0 -46.667 32.667 -70 98 -70c68.667 0 106.334 29 113.001 87l68 549c0.666992 7.33301 4.33398 11 11.001 11h27c6.66699 0 9.66699 -3.66699 9 -11l-67 -550c-5.33301 -40 -20.333 -71.167 -45 -93.5s-64.667 -33.5 -120 -33.5c-48.667 0 -84.5 9.66699 -107.5 29
s-34.5 45 -34.5 77c0 4 0.666992 11.333 2 22l67 549c0.666992 7.33301 4.66699 11 12 11h26c7.33301 0 10.666 -3.66699 9.99902 -11z" />
    <glyph glyph-name="Ucircumflex" unicode="&#xdb;" horiz-adv-x="439" 
d="M285 844l-53 -93c-4 -7.33301 -9 -11 -15 -11h-18c-8 0 -9.66699 3.66699 -5 11l71 117c4 6.66699 9.33301 10 16 10h17c6 0 10 -3 12 -9l43 -118c2.66699 -7.33301 0.333984 -11 -6.99902 -11h-17c-6.66699 0 -11.334 3.66699 -14.001 11zM161 669l-67.001 -545.999
c-1.33301 -10.667 -2 -17.334 -2 -20.001c0 -46.667 32.667 -70 98 -70c68.667 0 106.334 29 113.001 87l68 549c0.666992 7.33301 4.33398 11 11.001 11h27c6.66699 0 9.66699 -3.66699 9 -11l-67 -550c-5.33301 -40 -20.333 -71.167 -45 -93.5s-64.667 -33.5 -120 -33.5
c-48.667 0 -84.5 9.66699 -107.5 29s-34.5 45 -34.5 77c0 4 0.666992 11.333 2 22l67 549c0.666992 7.33301 4.66699 11 12 11h26c7.33301 0 10.666 -3.66699 9.99902 -11z" />
    <glyph glyph-name="Udieresis" unicode="&#xdc;" horiz-adv-x="439" 
d="M345 857l-12.999 -98c-0.666992 -6.66699 -4.33398 -10 -11.001 -10h-16c-7.33301 0 -10.666 3.33301 -9.99902 10l13 98c1.33301 8 5 12 11 12h16c7.33301 0 10.666 -4 9.99902 -12zM267.001 857l-12 -98c-0.666992 -6.66699 -4.66699 -10 -12 -10h-16
c-6.66699 0 -9.66699 3.33301 -9 10l12 98c1.33301 8 5.33301 12 12 12h16c6.66699 0 9.66699 -4 9 -12zM161.001 669l-67.001 -545.999c-1.33301 -10.667 -2 -17.334 -2 -20.001c0 -46.667 32.667 -70 98 -70c68.667 0 106.334 29 113.001 87l68 549
c0.666992 7.33301 4.33398 11 11.001 11h27c6.66699 0 9.66699 -3.66699 9 -11l-67 -550c-5.33301 -40 -20.333 -71.167 -45 -93.5s-64.667 -33.5 -120 -33.5c-48.667 0 -84.5 9.66699 -107.5 29s-34.5 45 -34.5 77c0 4 0.666992 11.333 2 22l67 549
c0.666992 7.33301 4.66699 11 12 11h26c7.33301 0 10.666 -3.66699 9.99902 -11z" />
    <glyph glyph-name="Yacute" unicode="&#xdd;" horiz-adv-x="375" 
d="M340 867l-73 -120c-3.33301 -4.66699 -7.66602 -7 -12.999 -7h-22c-6 0 -7.33301 3.33301 -4 10l65 119c3.33301 6 8.33301 9 15 9h28c7.33301 0 8.66602 -3.66699 3.99902 -11zM112 669l75.999 -302.999c2 -8.66699 3.66699 -19.334 5 -32.001c2 10 6.33301 21 13 33
l151 302c3.33301 7.33301 8 11 14 11h25c8.66699 0 11 -3.66699 7 -11l-193 -386l-33 -272c-0.666992 -7.33301 -5 -11 -13 -11h-25c-7.33301 0 -10.666 3.66699 -9.99902 11l33 267l-99 391c-2 7.33301 1 11 9 11h28c6 0 10 -3.66699 12 -11z" />
    <glyph glyph-name="Thorn" unicode="&#xde;" horiz-adv-x="415" 
d="M163 669l-21.999 -176.999h92c51.333 0 89 -9.66699 113 -29s36 -45 36 -77c0 -6.66699 -0.333008 -13.334 -1 -20.001l-18 -134c-5.33301 -40 -20.5 -71.167 -45.5 -93.5s-66.167 -33.5 -123.5 -33.5h-100l-12 -94c-0.666992 -7.33301 -4.33398 -11 -11.001 -11h-27
c-6.66699 0 -9.66699 3.66699 -9 11l80 658c0.666992 7.33301 4.66699 11 12 11h27c6.66699 0 9.66699 -3.66699 9 -11zM230.001 451.001h-94l-38 -305h99c72.667 0 112.667 28.667 120 86l16 132c0.666992 6 1 11.667 1 17c0 46.667 -34.667 70 -104 70z" />
    <glyph glyph-name="germandbls" unicode="&#xdf;" horiz-adv-x="437" 
d="M157 592l-71 -581.004c-0.666992 -7.33301 -4.66699 -11 -12 -11h-25c-6.66699 0 -9.66699 3.66699 -9 11l55 441h-45c-7.33301 0 -10.333 3.66699 -9 11l1 14c0.666992 6.66699 5 10.334 13 11.001l39 3h5l13 102c9.33301 71.333 59 107 149 107c86 0 129 -30 129 -90
c0 -6.66699 -0.333008 -13.334 -1 -20.001l-7 -59c-3.33301 -29.333 -24 -52.666 -62 -69.999l-47 -21c-0.666992 0 -2.66699 -1 -6 -3l-7 -3l-7 -4c-3.33301 -1.33301 -6 -2.66602 -8 -3.99902s-4.33301 -3.16602 -7 -5.49902s-4.83398 -4.66602 -6.50098 -6.99902
s-3 -5 -4 -8s-1.83301 -6.16699 -2.5 -9.5l-2 -16c-0.666992 -7.33301 -1 -12.333 -1 -15c0 -3.33301 0.333008 -6.5 1 -9.5s1.66699 -5.5 3 -7.5s3 -4.16699 5 -6.5s3.66699 -4.16602 5 -5.49902s3.5 -2.83301 6.5 -4.5s4.83301 -2.83398 5.5 -3.50098l6 -4
c2.66699 -1.33301 4.33398 -2 5.00098 -2l72 -38c40.667 -21.333 61 -48 61 -80c0 -4.66699 -0.333008 -9.33398 -1 -14.001l-12 -92c-4.66699 -34.667 -15.667 -61 -33 -79s-47.666 -27 -90.999 -27c-71.333 0 -107 27 -107 81c0 8.66699 0.333008 16.334 1 23.001l4 29
c1.33301 7.33301 5.33301 11 12 11h17c7.33301 0 10.666 -3.66699 9.99902 -11l-4 -31c-0.666992 -4.66699 -1 -10.667 -1 -18c0 -33.333 23 -50 69 -50c27.333 0 46.833 5.66699 58.5 17s18.834 28 21.501 50l10 84c1.33301 10.667 2 17 2 19c0 20 -14.667 38 -44 54
l-71 36c-34.667 17.333 -52 41.666 -52 72.999c0 4.66699 0.333008 10.334 1 17.001l3 23c3.33301 28 25 51 65 69l42 18c27.333 11.333 42.666 28.333 45.999 51l7 51c0.666992 6 1 12 1 18c0 38.667 -29.333 58 -88 58c-61.333 0 -95 -24 -101 -72z" />
    <glyph glyph-name="agrave" unicode="&#xe0;" horiz-adv-x="380" 
d="M198 577l-42.999 120c-2.66699 7.33301 -0.333984 11 6.99902 11h27c6.66699 0 11 -3 13 -9l36 -119c2 -6.66699 -0.333008 -10 -7 -10h-21c-6.66699 0 -10.667 2.33301 -12 7zM113.001 395l-36 -296c-0.666992 -6 -1 -11 -1 -15c0 -33.333 20 -50 60 -50
c38.667 0 75.667 15.333 111 46l41 333c-30 30 -65 45 -105 45c-42 0 -65.333 -21 -70 -63zM244.001 41c-42 -32.667 -84 -48.998 -126 -48.998c-29.333 0 -51.5 7.16699 -66.5 21.5s-22.5 34.166 -22.5 59.499c0 5.33301 0.333008 11.666 1 18.999l38 311
c4 30 14.667 53.833 32 71.5s42 26.5 74 26.5c45.333 0 85 -16 119 -48l6 29c2 7.33301 6 11 12 11h22c7.33301 0 10.333 -4 9 -12l-57 -470c-0.666992 -7.33301 -5 -11 -13 -11h-21c-6.66699 0 -9.66699 3.66699 -9 11z" />
    <glyph glyph-name="aacute" unicode="&#xe1;" horiz-adv-x="380" 
d="M307 697l-71.999 -119c-2.66699 -5.33301 -6.66699 -8 -12 -8h-23c-6.66699 0 -8.33398 3.33301 -5.00098 10l66 119c3.33301 6 8 9 14 9h28c6.66699 0 8 -3.66699 4 -11zM113.001 395l-36 -296c-0.666992 -6 -1 -11 -1 -15c0 -33.333 20 -50 60 -50
c38.667 0 75.667 15.333 111 46l41 333c-30 30 -65 45 -105 45c-42 0 -65.333 -21 -70 -63zM244.001 41c-42 -32.667 -84 -48.998 -126 -48.998c-29.333 0 -51.5 7.16699 -66.5 21.5s-22.5 34.166 -22.5 59.499c0 5.33301 0.333008 11.666 1 18.999l38 311
c4 30 14.667 53.833 32 71.5s42 26.5 74 26.5c45.333 0 85 -16 119 -48l6 29c2 7.33301 6 11 12 11h22c7.33301 0 10.333 -4 9 -12l-57 -470c-0.666992 -7.33301 -5 -11 -13 -11h-21c-6.66699 0 -9.66699 3.66699 -9 11z" />
    <glyph glyph-name="acircumflex" unicode="&#xe2;" horiz-adv-x="380" 
d="M228 674l-53.001 -93c-4 -7.33301 -9 -11 -15 -11h-18c-8 0 -9.66699 3.66699 -5 11l71 117c4 6.66699 9.33301 10 16 10h17c6 0 10 -3 12 -9l43 -118c2.66699 -7.33301 0.333984 -11 -6.99902 -11h-18c-5.33301 0 -9.33301 3.66699 -12 11zM112.999 395l-36 -296
c-0.666992 -6 -1 -11 -1 -15c0 -33.333 20 -50 60 -50c38.667 0 75.667 15.333 111 46l41 333c-30 30 -65 45 -105 45c-42 0 -65.333 -21 -70 -63zM243.999 41c-42 -32.667 -84 -48.998 -126 -48.998c-29.333 0 -51.5 7.16699 -66.5 21.5s-22.5 34.166 -22.5 59.499
c0 5.33301 0.333008 11.666 1 18.999l38 311c4 30 14.667 53.833 32 71.5s42 26.5 74 26.5c45.333 0 85 -16 119 -48l6 29c2 7.33301 6 11 12 11h22c7.33301 0 10.333 -4 9 -12l-57 -470c-0.666992 -7.33301 -5 -11 -13 -11h-21c-6.66699 0 -9.66699 3.66699 -9 11z" />
    <glyph glyph-name="atilde" unicode="&#xe3;" horiz-adv-x="380" 
d="M178 642c-8 0 -13.8291 -2.66699 -17.4961 -8s-6.16699 -15.333 -7.5 -30l-1 -12c-0.666992 -7.33301 -5 -11 -13 -11h-12c-6.66699 0 -9.33398 4.33301 -8.00098 13l3 18c7.33301 44.667 25.666 67 54.999 67c13.333 0 27 -7 41 -21l25 -26
c9.33301 -9.33301 17.666 -14 24.999 -14s12.833 2.66699 16.5 8s6.16699 16 7.5 32l1 11c0.666992 6.66699 5 10 13 10h11c7.33301 0 10.333 -4 9 -12l-3 -18c-7.33301 -44 -26 -66 -56 -66c-14.667 0 -28.334 6.33301 -41.001 19l-24 25c-10 10 -18 15 -24 15z
M113.004 395l-36 -296c-0.666992 -6 -1 -11 -1 -15c0 -33.333 20 -50 60 -50c38.667 0 75.667 15.333 111 46l41 333c-30 30 -65 45 -105 45c-42 0 -65.333 -21 -70 -63zM244.004 41c-42 -32.667 -84 -48.998 -126 -48.998c-29.333 0 -51.5 7.16699 -66.5 21.5
s-22.5 34.166 -22.5 59.499c0 5.33301 0.333008 11.666 1 18.999l38 311c4 30 14.667 53.833 32 71.5s42 26.5 74 26.5c45.333 0 85 -16 119 -48l6 29c2 7.33301 6 11 12 11h22c7.33301 0 10.333 -4 9 -12l-57 -470c-0.666992 -7.33301 -5 -11 -13 -11h-21
c-6.66699 0 -9.66699 3.66699 -9 11z" />
    <glyph glyph-name="adieresis" unicode="&#xe4;" horiz-adv-x="380" 
d="M287 690l-12 -97c-0.666992 -8 -4.66699 -12 -12 -12h-16c-7.33301 0 -10.333 4 -9 12l11 97c0.666992 7.33301 5 11 13 11h16c6.66699 0 9.66699 -3.66699 9 -11zM209 690l-12 -97c-0.666992 -8 -4.66699 -12 -12 -12h-16c-7.33301 0 -10.333 4 -9 12l12 97
c0.666992 7.33301 4.66699 11 12 11h16c6.66699 0 9.66699 -3.66699 9 -11zM113 395l-36 -296c-0.666992 -6 -1 -11 -1 -15c0 -33.333 20 -50 60 -50c38.667 0 75.667 15.333 111 46l41 333c-30 30 -65 45 -105 45c-42 0 -65.333 -21 -70 -63zM244 41
c-42 -32.667 -84 -48.998 -126 -48.998c-29.333 0 -51.5 7.16699 -66.5 21.5s-22.5 34.166 -22.5 59.499c0 5.33301 0.333008 11.666 1 18.999l38 311c4 30 14.667 53.833 32 71.5s42 26.5 74 26.5c45.333 0 85 -16 119 -48l6 29c2 7.33301 6 11 12 11h22
c7.33301 0 10.333 -4 9 -12l-57 -470c-0.666992 -7.33301 -5 -11 -13 -11h-21c-6.66699 0 -9.66699 3.66699 -9 11z" />
    <glyph glyph-name="aring" unicode="&#xe5;" horiz-adv-x="380" 
d="M296 645l-2 -20.999c-4.66699 -45.333 -29 -68 -73 -68c-20.667 0 -36.5 5.16699 -47.5 15.5s-16.5 23.833 -16.5 40.5c0 4.66699 0.333008 10 1 16l3 21c6.66699 45.333 31 68 73 68c20 0 35.5 -5.33301 46.5 -16s16.5 -24.334 16.5 -41.001
c0 -4.66699 -0.333008 -9.66699 -1 -15zM265 626.001l2 16c0.666992 6.66699 1 12 1 16c0 22 -12.333 33 -37 33s-38.667 -14.667 -42 -44l-2 -16c-0.666992 -4.66699 -1 -10 -1 -16c0 -22 12.333 -33 37 -33s38.667 14.667 42 44zM113 395.001l-36 -296
c-0.666992 -6 -1 -11 -1 -15c0 -33.333 20 -50 60 -50c38.667 0 75.667 15.333 111 46l41 333c-30 30 -65 45 -105 45c-42 0 -65.333 -21 -70 -63zM244 41.001c-42 -32.667 -84 -48.998 -126 -48.998c-29.333 0 -51.5 7.16699 -66.5 21.5s-22.5 34.166 -22.5 59.499
c0 5.33301 0.333008 11.666 1 18.999l38 311c4 30 14.667 53.833 32 71.5s42 26.5 74 26.5c45.333 0 85 -16 119 -48l6 29c2 7.33301 6 11 12 11h22c7.33301 0 10.333 -4 9 -12l-57 -470c-0.666992 -7.33301 -5 -11 -13 -11h-21c-6.66699 0 -9.66699 3.66699 -9 11z" />
    <glyph glyph-name="ae" unicode="&#xe6;" horiz-adv-x="568" 
d="M532 388l-16.998 -134.003c-0.666992 -6.66699 -4.33398 -10 -11.001 -10h-206l-17 -145c-0.666992 -6 -1 -11.667 -1 -17c0 -34.667 26.667 -52 80 -52c55.333 0 86 23 92 69l5 39c0.666992 7.33301 5 11 13 11h20c7.33301 0 10.666 -3.66699 9.99902 -11l-5 -36
c-5.33301 -36 -17.833 -63.333 -37.5 -82s-53.167 -28 -100.5 -28c-65.333 0 -104.333 19.667 -117 59c-43.333 -39.333 -85.666 -59 -126.999 -59c-29.333 0 -52.5 7.5 -69.5 22.5s-25.5 34.833 -25.5 59.5c0 6 0.333008 12.333 1 19l10 79c4 30 15.667 54.167 35 72.5
s46 27.5 80 27.5h112l15 117c0.666992 4.66699 1 11.334 1 20.001c0 36 -25.667 54 -77 54c-30 0 -51.667 -6 -65 -18s-21.333 -29 -24 -51l-4 -34c-1.33301 -7.33301 -5.33301 -11 -12 -11h-22c-6.66699 0 -9.66699 3.66699 -9 11l4 33c4.66699 34.667 17 61.334 37 80.001
s53 28 99 28c54.667 0 88.667 -15.333 102 -46c21.333 30.667 58.666 46 111.999 46c80 0 120 -30.333 120 -91c0 -7.33301 -0.333008 -14.666 -1 -21.999zM317.002 392.997l-14 -112h171l14 110c0.666992 6 1 11 1 15c0 38 -26.667 57 -80 57
c-55.333 0 -86 -23.333 -92 -70zM128.002 31.9971c36 0 71.334 17.333 106.001 52l18 151h-104c-21.333 0 -38.333 -6.33301 -51 -19s-20.334 -29 -23.001 -49l-9 -66c-0.666992 -6 -1 -10.667 -1 -14c0 -36.667 21.333 -55 64 -55z" />
    <glyph glyph-name="ccedilla" unicode="&#xe7;" horiz-adv-x="350" 
d="M223 -120c0 -32 -9.16895 -55.165 -27.502 -69.498s-39.166 -21.5 -62.499 -21.5h-72c-6 0 -9 3.66699 -9 11v9c0 7.33301 4 11 12 11h68c13.333 0 25.833 4.16699 37.5 12.5s17.5 22.833 17.5 43.5c0 14.667 -4.33301 25 -13 31s-18.334 9 -29.001 9h-32
c-10.667 0 -14.334 4.66699 -11.001 14l22 63c-62.667 6.66699 -94 36.667 -94 90c0 7.33301 0.333008 14.333 1 21l35 286c4.66699 36 17.167 63.5 37.5 82.5s54.5 28.5 102.5 28.5c79.333 0 119 -30.667 119 -92c0 -5.33301 -0.333008 -11.666 -1 -18.999l-3 -31
c-0.666992 -6.66699 -4.66699 -10 -12 -10h-23c-7.33301 0 -10.666 3.33301 -9.99902 10l3 29c0.666992 6.66699 1 12.667 1 18c0 37.333 -25.667 56 -77 56c-31.333 0 -53.666 -6.33301 -66.999 -19s-21.333 -30.334 -24 -53.001l-34 -284c-0.666992 -6 -1 -12.667 -1 -20
c0 -18 5.5 -31.667 16.5 -41s31.167 -14 60.5 -14c31.333 0 53.5 6.16699 66.5 18.5s20.833 30.166 23.5 53.499l5 39c1.33301 7.33301 5.33301 11 12 11h24c7.33301 0 10.333 -3.66699 9 -11l-4 -38c-8 -74.667 -52.333 -112 -133 -112l-17 -46h14
c18.667 0 34.834 -5.33301 48.501 -16s20.5 -27.334 20.5 -50.001z" />
    <glyph glyph-name="egrave" unicode="&#xe8;" horiz-adv-x="363" 
d="M197 577l-42.999 120c-2.66699 7.33301 -0.333984 11 6.99902 11h27c6.66699 0 11 -3 13 -9l36 -119c2 -6.66699 -0.333008 -10 -7 -10h-21c-6.66699 0 -10.667 2.33301 -12 7zM325.001 390l-16 -136.001c-0.666992 -6.66699 -4.66699 -10 -12 -10h-204l-18 -142
c-0.666992 -5.33301 -1 -10.666 -1 -15.999c0 -37.333 26.667 -56 80 -56c55.333 0 86 23 92 69l5 39c0.666992 7.33301 4.66699 11 12 11h21c8 0 11.333 -3.66699 10 -11l-4 -36c-4 -35.333 -16.333 -62.5 -37 -81.5s-54.667 -28.5 -102 -28.5
c-81.333 0 -122 30.333 -122 91c0 6.66699 0.333008 13 1 19l35 285c4.66699 38 17.5 66.5 38.5 85.5s55.167 28.5 102.5 28.5c80 0 120 -30.667 120 -92c0 -6 -0.333008 -12.333 -1 -19zM112.001 392.999l-15 -112h171l14 110c0.666992 6 1 11 1 15c0 38 -26.667 57 -80 57
c-54.667 0 -85 -23.333 -91 -70z" />
    <glyph glyph-name="eacute" unicode="&#xe9;" horiz-adv-x="363" 
d="M310 697l-72 -119c-2.66699 -5.33301 -6.66699 -8 -12 -8h-23c-6.66699 0 -8.33398 3.33301 -5.00098 10l66 119c2.66699 6 7.33398 9 14.001 9h28c6.66699 0 8 -3.66699 4 -11zM325 390l-16 -136.001c-0.666992 -6.66699 -4.66699 -10 -12 -10h-204l-18 -142
c-0.666992 -5.33301 -1 -10.666 -1 -15.999c0 -37.333 26.667 -56 80 -56c55.333 0 86 23 92 69l5 39c0.666992 7.33301 4.66699 11 12 11h21c8 0 11.333 -3.66699 10 -11l-4 -36c-4 -35.333 -16.333 -62.5 -37 -81.5s-54.667 -28.5 -102 -28.5
c-81.333 0 -122 30.333 -122 91c0 6.66699 0.333008 13 1 19l35 285c4.66699 38 17.5 66.5 38.5 85.5s55.167 28.5 102.5 28.5c80 0 120 -30.667 120 -92c0 -6 -0.333008 -12.333 -1 -19zM112 392.999l-15 -112h171l14 110c0.666992 6 1 11 1 15c0 38 -26.667 57 -80 57
c-54.667 0 -85 -23.333 -91 -70z" />
    <glyph glyph-name="ecircumflex" unicode="&#xea;" horiz-adv-x="363" 
d="M229 674l-53.001 -93c-4 -7.33301 -9 -11 -15 -11h-18c-8 0 -9.66699 3.66699 -5 11l71 117c4 6.66699 9.33301 10 16 10h17c6 0 10 -3 12 -9l43 -118c2.66699 -7.33301 0.333984 -11 -6.99902 -11h-18c-5.33301 0 -9.33301 3.66699 -12 11zM324.999 390l-16 -136.001
c-0.666992 -6.66699 -4.66699 -10 -12 -10h-204l-18 -142c-0.666992 -5.33301 -1 -10.666 -1 -15.999c0 -37.333 26.667 -56 80 -56c55.333 0 86 23 92 69l5 39c0.666992 7.33301 4.66699 11 12 11h21c8 0 11.333 -3.66699 10 -11l-4 -36
c-4 -35.333 -16.333 -62.5 -37 -81.5s-54.667 -28.5 -102 -28.5c-81.333 0 -122 30.333 -122 91c0 6.66699 0.333008 13 1 19l35 285c4.66699 38 17.5 66.5 38.5 85.5s55.167 28.5 102.5 28.5c80 0 120 -30.667 120 -92c0 -6 -0.333008 -12.333 -1 -19zM111.999 392.999
l-15 -112h171l14 110c0.666992 6 1 11 1 15c0 38 -26.667 57 -80 57c-54.667 0 -85 -23.333 -91 -70z" />
    <glyph glyph-name="edieresis" unicode="&#xeb;" horiz-adv-x="363" 
d="M286 690l-12 -97c-1.33301 -8 -5.33301 -12 -12 -12h-16c-6.66699 0 -9.66699 4 -9 12l11 97c0.666992 7.33301 5 11 13 11h16c6.66699 0 9.66699 -3.66699 9 -11zM208 690l-12 -97c-1.33301 -8 -5.33301 -12 -12 -12h-16c-6.66699 0 -9.66699 4 -9 12l12 97
c0.666992 7.33301 4.66699 11 12 11h16c6.66699 0 9.66699 -3.66699 9 -11zM325 390l-16 -136.001c-0.666992 -6.66699 -4.66699 -10 -12 -10h-204l-18 -142c-0.666992 -5.33301 -1 -10.666 -1 -15.999c0 -37.333 26.667 -56 80 -56c55.333 0 86 23 92 69l5 39
c0.666992 7.33301 4.66699 11 12 11h21c8 0 11.333 -3.66699 10 -11l-4 -36c-4 -35.333 -16.333 -62.5 -37 -81.5s-54.667 -28.5 -102 -28.5c-81.333 0 -122 30.333 -122 91c0 6.66699 0.333008 13 1 19l35 285c4.66699 38 17.5 66.5 38.5 85.5s55.167 28.5 102.5 28.5
c80 0 120 -30.667 120 -92c0 -6 -0.333008 -12.333 -1 -19zM112 392.999l-15 -112h171l14 110c0.666992 6 1 11 1 15c0 38 -26.667 57 -80 57c-54.667 0 -85 -23.333 -91 -70z" />
    <glyph glyph-name="igrave" unicode="&#xec;" horiz-adv-x="167" 
d="M93 577l-42.999 120c-2.66699 7.33301 -0.333984 11 6.99902 11h27c6.66699 0 11 -3 13 -9l36 -119c2 -6.66699 -0.333008 -10 -7 -10h-21c-6.66699 0 -10.667 2.33301 -12 7zM129.001 481l-57.001 -470c-0.666992 -7.33301 -5 -11 -13 -11h-24
c-7.33301 0 -10.666 3.66699 -9.99902 11l58 470c0.666992 8 4.66699 12 12 12h25c6.66699 0 9.66699 -4 9 -12z" />
    <glyph glyph-name="iacute" unicode="&#xed;" horiz-adv-x="167" 
d="M212 697l-72 -119c-2.66699 -5.33301 -6.66699 -8 -12 -8h-23c-6.66699 0 -8.33398 3.33301 -5.00098 10l66 119c2.66699 6 7.33398 9 14.001 9h28c6.66699 0 8 -3.66699 4 -11zM129 481l-57.001 -470c-0.666992 -7.33301 -5 -11 -13 -11h-24
c-7.33301 0 -10.666 3.66699 -9.99902 11l58 470c0.666992 8 4.66699 12 12 12h25c6.66699 0 9.66699 -4 9 -12z" />
    <glyph glyph-name="icircumflex" unicode="&#xee;" horiz-adv-x="166" 
d="M130 674l-53.001 -93c-4 -7.33301 -9 -11 -15 -11h-18c-8 0 -9.66699 3.66699 -5 11l71 117c4 6.66699 9.33301 10 16 10h17c6 0 10 -3 12 -9l43 -118c2.66699 -7.33301 0.333984 -11 -6.99902 -11h-18c-5.33301 0 -9.33301 3.66699 -12 11zM128.999 481l-57.001 -470
c-0.666992 -7.33301 -5 -11 -13 -11h-24c-7.33301 0 -10.666 3.66699 -9.99902 11l58 470c0.666992 8 4.66699 12 12 12h25c6.66699 0 9.66699 -4 9 -12z" />
    <glyph glyph-name="idieresis" unicode="&#xef;" horiz-adv-x="167" 
d="M190 690l-12 -97c-1.33301 -8 -5.33301 -12 -12 -12h-16c-6.66699 0 -9.66699 4 -9 12l11 97c0.666992 7.33301 5 11 13 11h16c6.66699 0 9.66699 -3.66699 9 -11zM112 690l-12 -97c-1.33301 -8 -5.33301 -12 -12 -12h-16c-6.66699 0 -9.66699 4 -9 12l12 97
c0.666992 7.33301 4.66699 11 12 11h16c6.66699 0 9.66699 -3.66699 9 -11zM129 481l-57.001 -470c-0.666992 -7.33301 -5 -11 -13 -11h-24c-7.33301 0 -10.666 3.66699 -9.99902 11l58 470c0.666992 8 4.66699 12 12 12h25c6.66699 0 9.66699 -4 9 -12z" />
    <glyph glyph-name="eth" unicode="&#xf0;" horiz-adv-x="377" 
d="M237 594l65.999 35.002c-9.33301 19.333 -32.666 29 -69.999 29h-58c-7.33301 0 -10.666 3.66699 -9.99902 11l2 13c0.666992 7.33301 4.66699 11 12 11h58c55.333 0 91 -14 107 -42l38 21c6 2.66699 10 1.66699 12 -3l4 -9c2.66699 -5.33301 0.333984 -10 -6.99902 -14
l-38 -20c3.33301 -12 4 -26 2 -42l-59 -472c-4.66699 -38.667 -17.834 -68.334 -39.501 -89.001s-55.834 -31 -102.501 -31c-82.667 0 -124 30 -124 90c0 7.33301 0.333008 14 1 20l36 297c4 31.333 14.833 56.166 32.5 74.499s42.5 27.5 74.5 27.5
c46.667 0 86.667 -16.667 120 -50l16 123c1.33301 6 1 15 -1 27l-63 -33c-6.66699 -3.33301 -11 -2 -13 4l-2 8c-2 6 0 10.667 6 14zM250.999 111.002l37 302c-30.667 30.667 -65.667 46 -105 46c-41.333 0 -65 -23 -71 -69l-35 -288c-0.666992 -6 -1 -11 -1 -15
c0 -37.333 27.333 -56 82 -56c55.333 0 86.333 26.667 93 80z" />
    <glyph glyph-name="ntilde" unicode="&#xf1;" horiz-adv-x="384" 
d="M187 642c-8 0 -13.8291 -2.66699 -17.4961 -8s-6.16699 -15.333 -7.5 -30l-1 -12c-0.666992 -7.33301 -5 -11 -13 -11h-12c-6.66699 0 -9.33398 4.33301 -8.00098 13l3 18c7.33301 44.667 25.666 67 54.999 67c13.333 0 27 -7 41 -21l25 -26
c9.33301 -9.33301 17.666 -14 24.999 -14s12.833 2.66699 16.5 8s6.16699 16 7.5 32l1 11c0.666992 6.66699 5 10 13 10h11c6.66699 0 9.66699 -4 9 -12l-3 -18c-7.33301 -44 -26 -66 -56 -66c-14.667 0 -28.334 6.33301 -41.001 19l-24 25c-10 10 -18 15 -24 15z
M95.0039 493l22 0.000976562c6.66699 0 10 -3.66699 10 -11l-2 -30c38 32.667 79.667 49 125 49c29.333 0 51.666 -7.33301 66.999 -22s23 -34.334 23 -59.001c0 -4.66699 -0.333008 -10 -1 -16l-48 -393c-0.666992 -7.33301 -5 -11 -13 -11h-24
c-6.66699 0 -9.66699 3.66699 -9 11l47 381c0.666992 6 1 11 1 15c0 34 -20 51 -60 51c-38 0 -75.333 -15 -112 -45l-49 -402c-0.666992 -7.33301 -4.66699 -11 -12 -11h-25c-7.33301 0 -10.666 3.66699 -9.99902 11l58 471c0.666992 7.33301 4.66699 11 12 11z" />
    <glyph glyph-name="ograve" unicode="&#xf2;" horiz-adv-x="372" 
d="M196 577l-42.999 120c-2.66699 7.33301 -0.333984 11 6.99902 11h27c6.66699 0 11 -3 13 -9l36 -119c2 -6.66699 -0.333008 -10 -7 -10h-21c-6.66699 0 -10.667 2.33301 -12 7zM30.001 104l35.001 284.001c8.66699 75.333 56 113 142 113c82.667 0 124 -31 124 -93
c0 -6 -0.333008 -12.667 -1 -20l-35 -284c-4.66699 -36 -17.834 -63.667 -39.501 -83s-56.167 -29 -103.5 -29c-82 0 -123 31 -123 93c0 5.33301 0.333008 11.666 1 18.999zM249.002 104.001l35 284c0.666992 6 1 11.333 1 16c0 38.667 -27 58 -81 58
c-56 0 -87 -24.333 -93 -73l-35 -284c-0.666992 -6 -1 -11.333 -1 -16c0 -38.667 27 -58 81 -58c56.667 0 87.667 24.333 93 73z" />
    <glyph glyph-name="oacute" unicode="&#xf3;" horiz-adv-x="372" 
d="M312 697l-72 -119c-2.66699 -5.33301 -6.66699 -8 -12 -8h-23c-6.66699 0 -8.33398 3.33301 -5.00098 10l66 119c2.66699 6 7.33398 9 14.001 9h28c6.66699 0 8 -3.66699 4 -11zM30 104l35.001 284.001c8.66699 75.333 56 113 142 113c82.667 0 124 -31 124 -93
c0 -6 -0.333008 -12.667 -1 -20l-35 -284c-4.66699 -36 -17.834 -63.667 -39.501 -83s-56.167 -29 -103.5 -29c-82 0 -123 31 -123 93c0 5.33301 0.333008 11.666 1 18.999zM249.001 104.001l35 284c0.666992 6 1 11.333 1 16c0 38.667 -27 58 -81 58
c-56 0 -87 -24.333 -93 -73l-35 -284c-0.666992 -6 -1 -11.333 -1 -16c0 -38.667 27 -58 81 -58c56.667 0 87.667 24.333 93 73z" />
    <glyph glyph-name="ocircumflex" unicode="&#xf4;" horiz-adv-x="372" 
d="M232 674l-53.001 -93c-4 -7.33301 -9 -11 -15 -11h-18c-8 0 -9.66699 3.66699 -5 11l71 117c4 6.66699 9.33301 10 16 10h17c6 0 10 -3 12 -9l43 -118c2.66699 -7.33301 0.333984 -11 -6.99902 -11h-18c-5.33301 0 -9.33301 3.66699 -12 11zM29.999 104l35.001 284.001
c8.66699 75.333 56 113 142 113c82.667 0 124 -31 124 -93c0 -6 -0.333008 -12.667 -1 -20l-35 -284c-4.66699 -36 -17.834 -63.667 -39.501 -83s-56.167 -29 -103.5 -29c-82 0 -123 31 -123 93c0 5.33301 0.333008 11.666 1 18.999zM249 104.001l35 284
c0.666992 6 1 11.333 1 16c0 38.667 -27 58 -81 58c-56 0 -87 -24.333 -93 -73l-35 -284c-0.666992 -6 -1 -11.333 -1 -16c0 -38.667 27 -58 81 -58c56.667 0 87.667 24.333 93 73z" />
    <glyph glyph-name="otilde" unicode="&#xf5;" horiz-adv-x="372" 
d="M180 642c-8 0 -13.8291 -2.66699 -17.4961 -8s-6.16699 -15.333 -7.5 -30l-1 -12c-0.666992 -7.33301 -5 -11 -13 -11h-12c-6.66699 0 -9.33398 4.33301 -8.00098 13l3 18c7.33301 44.667 25.666 67 54.999 67c13.333 0 27 -7 41 -21l25 -26
c9.33301 -9.33301 17.666 -14 24.999 -14s12.833 2.66699 16.5 8s6.16699 16 7.5 32l1 11c0.666992 6.66699 5 10 13 10h11c7.33301 0 10.333 -4 9 -12l-3 -18c-7.33301 -44 -26 -66 -56 -66c-14.667 0 -28.334 6.33301 -41.001 19l-24 25c-10 10 -18 15 -24 15z
M30.0039 104l35.001 284.001c8.66699 75.333 56 113 142 113c82.667 0 124 -31 124 -93c0 -6 -0.333008 -12.667 -1 -20l-35 -284c-4.66699 -36 -17.834 -63.667 -39.501 -83s-56.167 -29 -103.5 -29c-82 0 -123 31 -123 93c0 5.33301 0.333008 11.666 1 18.999z
M249.005 104.001l35 284c0.666992 6 1 11.333 1 16c0 38.667 -27 58 -81 58c-56 0 -87 -24.333 -93 -73l-35 -284c-0.666992 -6 -1 -11.333 -1 -16c0 -38.667 27 -58 81 -58c56.667 0 87.667 24.333 93 73z" />
    <glyph glyph-name="odieresis" unicode="&#xf6;" horiz-adv-x="372" 
d="M291 690l-12 -97c-0.666992 -8 -4.66699 -12 -12 -12h-16c-7.33301 0 -10.333 4 -9 12l11 97c0.666992 7.33301 5 11 13 11h16c6.66699 0 9.66699 -3.66699 9 -11zM213 690l-12 -97c-0.666992 -8 -4.66699 -12 -12 -12h-16c-7.33301 0 -10.333 4 -9 12l12 97
c0.666992 7.33301 4.66699 11 12 11h16c6.66699 0 9.66699 -3.66699 9 -11zM30 104l35.001 284.001c8.66699 75.333 56 113 142 113c82.667 0 124 -31 124 -93c0 -6 -0.333008 -12.667 -1 -20l-35 -284c-4.66699 -36 -17.834 -63.667 -39.501 -83s-56.167 -29 -103.5 -29
c-82 0 -123 31 -123 93c0 5.33301 0.333008 11.666 1 18.999zM249.001 104.001l35 284c0.666992 6 1 11.333 1 16c0 38.667 -27 58 -81 58c-56 0 -87 -24.333 -93 -73l-35 -284c-0.666992 -6 -1 -11.333 -1 -16c0 -38.667 27 -58 81 -58c56.667 0 87.667 24.333 93 73z" />
    <glyph glyph-name="divide" unicode="&#xf7;" horiz-adv-x="410" 
d="M236 531v-77c0 -7.33301 -3.66699 -11 -11 -11h-25c-7.33301 0 -11 3.66699 -11 11v77c0 7.33301 3.66699 11 11 11h25c7.33301 0 11 -3.66699 11 -11zM67 348h284c7.33301 0 11 -3.33301 11 -10v-19c0 -7.33301 -3.66699 -11 -11 -11h-283
c-7.33301 0 -11 3.66699 -11 11v19c0 6.66699 3.33301 10 10 10zM236 204v-76c0 -8 -3.66699 -12 -11 -12h-25c-7.33301 0 -11 4 -11 12v76c0 7.33301 3.66699 11 11 11h25c7.33301 0 11 -3.66699 11 -11z" />
    <glyph glyph-name="oslash" unicode="&#xf8;" horiz-adv-x="372" 
d="M76 104c-1.33301 -9.33301 -1.33301 -19 0 -29l191 371c-14 10.667 -35 16 -63 16c-56 0 -87 -24 -93 -72zM155 31c56.667 0 87.999 24 93.999 72l35 284c1.33301 12 1.33301 22 0 30l-191 -371c14.667 -10 35.334 -15 62.001 -15zM60.999 -16
c-3.33301 -7.33301 -8.33203 -10.999 -14.999 -10.999h-14c-6.66699 0 -7.66699 3.66699 -3 11l21 41c-14 16 -21 36 -21 60c0 6.66699 0.333008 13 1 19l35 284c8.66699 75.333 56 113 142 113c33.333 0 60 -5.33301 80 -16l14 27c4 7.33301 8.66699 11 14 11h15
c5.33301 0 6.33301 -3.66699 3 -11l-23 -44c14 -16 21 -36 21 -60c0 -6.66699 -0.333008 -13.334 -1 -20.001l-35 -284c-4.66699 -36 -17.834 -63.667 -39.501 -83s-56.167 -29 -103.5 -29c-32.667 0 -59 5.33301 -79 16z" />
    <glyph glyph-name="ugrave" unicode="&#xf9;" horiz-adv-x="381" 
d="M201 577l-42.999 120c-2.66699 7.33301 -0.333984 11 6.99902 11h27c6.66699 0 11 -3 13 -9l36 -119c2 -6.66699 -0.333008 -10 -7 -10h-21c-6.66699 0 -10.667 2.33301 -12 7zM243.001 11l2.00098 29c-41.333 -32 -82 -48 -122 -48c-29.333 0 -51.833 7.33301 -67.5 22
s-23.5 34 -23.5 58c0 5.33301 0.333008 11 1 17l49 392c1.33301 8 5.33301 12 12 12h24c7.33301 0 10.666 -4 9.99902 -12l-47 -382c-0.666992 -6 -1 -10.333 -1 -13c0 -34.667 20 -52 60 -52c38 0 74 15 108 45l49 402c0.666992 8 4.66699 12 12 12h25
c6.66699 0 9.66699 -4 9 -12l-57 -470c-0.666992 -7.33301 -4.66699 -11 -12 -11h-22c-6.66699 0 -9.66699 3.66699 -9 11z" />
    <glyph glyph-name="uacute" unicode="&#xfa;" horiz-adv-x="381" 
d="M315 697l-71.999 -119c-2.66699 -5.33301 -6.66699 -8 -12 -8h-23c-6.66699 0 -8.33398 3.33301 -5.00098 10l66 119c3.33301 6 8 9 14 9h28c6.66699 0 8 -3.66699 4 -11zM243.001 11l2.00098 29c-41.333 -32 -82 -48 -122 -48c-29.333 0 -51.833 7.33301 -67.5 22
s-23.5 34 -23.5 58c0 5.33301 0.333008 11 1 17l49 392c1.33301 8 5.33301 12 12 12h24c7.33301 0 10.666 -4 9.99902 -12l-47 -382c-0.666992 -6 -1 -10.333 -1 -13c0 -34.667 20 -52 60 -52c38 0 74 15 108 45l49 402c0.666992 8 4.66699 12 12 12h25
c6.66699 0 9.66699 -4 9 -12l-57 -470c-0.666992 -7.33301 -4.66699 -11 -12 -11h-22c-6.66699 0 -9.66699 3.66699 -9 11z" />
    <glyph glyph-name="ucircumflex" unicode="&#xfb;" horiz-adv-x="381" 
d="M235 674l-53.001 -93c-4 -7.33301 -9 -11 -15 -11h-18c-8 0 -9.66699 3.66699 -5 11l71 117c4 6.66699 9.33301 10 16 10h17c6 0 10 -3 12 -9l43 -118c2.66699 -7.33301 0.333984 -11 -6.99902 -11h-18c-5.33301 0 -9.33301 3.66699 -12 11zM242.999 11l2.00098 29
c-41.333 -32 -82 -48 -122 -48c-29.333 0 -51.833 7.33301 -67.5 22s-23.5 34 -23.5 58c0 5.33301 0.333008 11 1 17l49 392c1.33301 8 5.33301 12 12 12h24c7.33301 0 10.666 -4 9.99902 -12l-47 -382c-0.666992 -6 -1 -10.333 -1 -13c0 -34.667 20 -52 60 -52
c38 0 74 15 108 45l49 402c0.666992 8 4.66699 12 12 12h25c6.66699 0 9.66699 -4 9 -12l-57 -470c-0.666992 -7.33301 -4.66699 -11 -12 -11h-22c-6.66699 0 -9.66699 3.66699 -9 11z" />
    <glyph glyph-name="udieresis" unicode="&#xfc;" horiz-adv-x="381" 
d="M296 690l-12 -97c-1.33301 -8 -5.33301 -12 -12 -12h-16c-6.66699 0 -9.66699 4 -9 12l11 97c0.666992 7.33301 5 11 13 11h16c6.66699 0 9.66699 -3.66699 9 -11zM218 690l-12 -97c-1.33301 -8 -5.33301 -12 -12 -12h-16c-6.66699 0 -9.66699 4 -9 12l12 97
c0.666992 7.33301 4.66699 11 12 11h16c6.66699 0 9.66699 -3.66699 9 -11zM243 11l2.00098 29c-41.333 -32 -82 -48 -122 -48c-29.333 0 -51.833 7.33301 -67.5 22s-23.5 34 -23.5 58c0 5.33301 0.333008 11 1 17l49 392c1.33301 8 5.33301 12 12 12h24
c7.33301 0 10.666 -4 9.99902 -12l-47 -382c-0.666992 -6 -1 -10.333 -1 -13c0 -34.667 20 -52 60 -52c38 0 74 15 108 45l49 402c0.666992 8 4.66699 12 12 12h25c6.66699 0 9.66699 -4 9 -12l-57 -470c-0.666992 -7.33301 -4.66699 -11 -12 -11h-22
c-6.66699 0 -9.66699 3.66699 -9 11z" />
    <glyph glyph-name="yacute" unicode="&#xfd;" horiz-adv-x="321" 
d="M292 697l-72 -119c-2.66699 -5.33301 -6.66699 -8 -12 -8h-23c-6.66699 0 -8.33398 3.33301 -5.00098 10l66 119c2.66699 6 7.33398 9 14.001 9h28c6.66699 0 8 -3.66699 4 -11zM324 481l-243 -665c-2 -7.33301 -6.33301 -11 -13 -11h-21
c-8.66699 0 -11.334 3.66699 -8.00098 11l66 179l-62 486c-0.666992 8 3.33301 12 12 12h25c5.33301 0 8.33301 -4 9 -12l43 -366c2 -14.667 3 -29.667 3 -45c2.66699 12 7 26 13 42l130 369c2.66699 8 7.33398 12 14.001 12h24c8 0 10.667 -4 8 -12z" />
    <glyph glyph-name="thorn" unicode="&#xfe;" horiz-adv-x="381" 
d="M187 33c20.667 0 36.832 5.83203 48.499 17.499s18.5 27.167 20.5 46.5l36 292c1.33301 10.667 2 17.334 2 20.001c0 33.333 -20 50 -60 50c-39.333 0 -76.666 -15.333 -111.999 -46l-40 -334c26 -30.667 61 -46 105 -46zM75.998 39.999l-28 -224
c-0.666992 -7.33301 -4.33398 -11 -11.001 -11h-25c-7.33301 0 -10.666 3.66699 -9.99902 11l107 867c0.666992 7.33301 4.66699 11 12 11h25c6.66699 0 9.66699 -3.66699 9 -11l-28 -230c39.333 32 81 48 125 48c28.667 0 50.667 -7.16699 66 -21.5s23 -33.5 23 -57.5
c0 -4 -0.666992 -12 -2 -24l-38 -311c-4 -28.667 -14.667 -51.667 -32 -69s-41.333 -26 -72 -26c-48.667 0 -89 16 -121 48z" />
    <glyph glyph-name="ydieresis" unicode="&#xff;" horiz-adv-x="321" 
d="M264 690l-12 -97c-1.33301 -8 -5.33301 -12 -12 -12h-16c-6.66699 0 -9.66699 4 -9 12l11 97c0.666992 7.33301 5 11 13 11h16c6.66699 0 9.66699 -3.66699 9 -11zM186 690l-12 -97c-1.33301 -8 -5.33301 -12 -12 -12h-16c-6.66699 0 -9.66699 4 -9 12l12 97
c0.666992 7.33301 4.66699 11 12 11h16c6.66699 0 9.66699 -3.66699 9 -11zM324 481l-243 -665c-2 -7.33301 -6.33301 -11 -13 -11h-21c-8.66699 0 -11.334 3.66699 -8.00098 11l66 179l-62 486c-0.666992 8 3.33301 12 12 12h25c5.33301 0 8.33301 -4 9 -12l43 -366
c2 -14.667 3 -29.667 3 -45c2.66699 12 7 26 13 42l130 369c2.66699 8 7.33398 12 14.001 12h24c8 0 10.667 -4 8 -12z" />
    <glyph glyph-name="Amacron" unicode="&#x100;" horiz-adv-x="393" 
d="M165 818h181c7.33301 0 10.666 -3.33301 9.99902 -10l-2 -16c-0.666992 -7.33301 -5 -11 -13 -11h-180c-7.33301 0 -10.666 3.66699 -9.99902 11l2 15c0.666992 7.33301 4.66699 11 12 11zM268 249l-28 273.001c-3.33301 28.667 -5 58.667 -5 90
c-8 -32.667 -17 -62.334 -27 -89.001l-97 -274h157zM229 680.001h27.999c8 0 12.333 -3.66699 13 -11l68 -658c1.33301 -7.33301 -1.66699 -11 -9 -11h-26c-6.66699 0 -10.667 3.66699 -12 11l-20 198h-172l-69 -198c-2 -7.33301 -6.33301 -11 -13 -11h-25
c-8 0 -10.333 3.66699 -7 11l230 658c2.66699 7.33301 7.33398 11 14.001 11z" />
    <glyph glyph-name="amacron" unicode="&#x101;" horiz-adv-x="380" 
d="M136 644h180.001c7.33301 0 10.666 -3.66699 9.99902 -11l-2 -16c-1.33301 -7.33301 -5.33301 -11 -12 -11h-181c-8 0 -11.333 3.66699 -10 11l2 16c0.666992 7.33301 5 11 13 11zM113.001 395l-36 -296c-0.666992 -6 -1 -11 -1 -15c0 -33.333 20 -50 60 -50
c38.667 0 75.667 15.333 111 46l41 333c-30 30 -65 45 -105 45c-42 0 -65.333 -21 -70 -63zM244.001 41c-42 -32.667 -84 -48.998 -126 -48.998c-29.333 0 -51.5 7.16699 -66.5 21.5s-22.5 34.166 -22.5 59.499c0 5.33301 0.333008 11.666 1 18.999l38 311
c4 30 14.667 53.833 32 71.5s42 26.5 74 26.5c45.333 0 85 -16 119 -48l6 29c2 7.33301 6 11 12 11h22c7.33301 0 10.333 -4 9 -12l-57 -470c-0.666992 -7.33301 -5 -11 -13 -11h-21c-6.66699 0 -9.66699 3.66699 -9 11z" />
    <glyph glyph-name="Abreve" unicode="&#x102;" horiz-adv-x="393" 
d="M212 870l-2.99902 -24c-1.33301 -12 -2 -20 -2 -24c0 -30 16 -45 48 -45c20 0 34.167 6 42.5 18s13.5 29.667 15.5 53l2 22c0.666992 6.66699 4.33398 10 11.001 10h16c7.33301 0 10.666 -3.33301 9.99902 -10l-2 -21c-3.33301 -34 -12.333 -59.833 -27 -77.5
s-38.334 -26.5 -71.001 -26.5c-54 0 -81 25.333 -81 76c0 2 0.666992 10.333 2 25l2 24c0.666992 6.66699 4.33398 10 11.001 10h16c7.33301 0 10.666 -3.33301 9.99902 -10zM268.001 249l-28 273.001c-3.33301 28.667 -5 58.667 -5 90c-8 -32.667 -17 -62.334 -27 -89.001
l-97 -274h157zM229.001 680.001h27.999c8 0 12.333 -3.66699 13 -11l68 -658c1.33301 -7.33301 -1.66699 -11 -9 -11h-26c-6.66699 0 -10.667 3.66699 -12 11l-20 198h-172l-69 -198c-2 -7.33301 -6.33301 -11 -13 -11h-25c-8 0 -10.333 3.66699 -7 11l230 658
c2.66699 7.33301 7.33398 11 14.001 11z" />
    <glyph glyph-name="abreve" unicode="&#x103;" horiz-adv-x="380" 
d="M178 683l-3 -24c-1.33301 -12 -2 -20 -2 -24c0 -30 16 -45 48 -45c20 0 34.167 6 42.5 18s13.5 29.667 15.5 53l2 22c0.666992 6.66699 4.33398 10 11.001 10h16c7.33301 0 10.666 -3.33301 9.99902 -10l-3 -21c-5.33301 -34.667 -14.833 -60.667 -28.5 -78
s-36.5 -26 -68.5 -26c-54 0 -81 25.333 -81 76c0 2 0.666992 10.333 2 25l2 24c0.666992 6.66699 4.33398 10 11.001 10h16c7.33301 0 10.666 -3.33301 9.99902 -10zM113 395l-36 -296c-0.666992 -6 -1 -11 -1 -15c0 -33.333 20 -50 60 -50c38.667 0 75.667 15.333 111 46
l41 333c-30 30 -65 45 -105 45c-42 0 -65.333 -21 -70 -63zM244 41c-42 -32.667 -84 -48.998 -126 -48.998c-29.333 0 -51.5 7.16699 -66.5 21.5s-22.5 34.166 -22.5 59.499c0 5.33301 0.333008 11.666 1 18.999l38 311c4 30 14.667 53.833 32 71.5s42 26.5 74 26.5
c45.333 0 85 -16 119 -48l6 29c2 7.33301 6 11 12 11h22c7.33301 0 10.333 -4 9 -12l-57 -470c-0.666992 -7.33301 -5 -11 -13 -11h-21c-6.66699 0 -9.66699 3.66699 -9 11z" />
    <glyph glyph-name="Aogonek" unicode="&#x104;" horiz-adv-x="393" 
d="M229 680h27.9971c8 0 12.333 -3.66699 13 -11l68 -658c1.33301 -7.33301 -1.66699 -11 -9 -11h-10c-19.333 -8 -33.666 -19.5 -42.999 -34.5s-14 -29.5 -14 -43.5c0 -24 13 -36 39 -36h11c8 0 11.667 -3.66699 11 -11l-1 -12c-1.33301 -7.33301 -5.66602 -11 -12.999 -11
h-18c-44 0 -66 20 -66 60c0 40.667 21.667 75.667 65 105l-19 192h-172l-69 -198c-2 -7.33301 -6.33301 -11 -13 -11h-25c-8 0 -10.333 3.66699 -7 11l230 658c2.66699 7.33301 7.33398 11 14.001 11zM267.997 249l-28 273.001c-2 18 -3.66699 48 -5 90
c-6.66699 -26.667 -15.667 -56.334 -27 -89.001l-97 -274h157z" />
    <glyph glyph-name="aogonek" unicode="&#x105;" horiz-adv-x="380" 
d="M118 -8c-28.667 0 -50.665 7.16699 -65.998 21.5s-23 33.5 -23 57.5c0 6 0.333008 13 1 21l38 311c4 30 14.667 53.833 32 71.5s42 26.5 74 26.5c45.333 0 85 -16 119 -48l6 29c2 7.33301 5.66699 11 11 11h23c7.33301 0 10.333 -4 9 -12l-57 -470
c-0.666992 -7.33301 -5 -11 -13 -11h-2c-18.667 -8 -33.334 -20.167 -44.001 -36.5s-16 -31.5 -16 -45.5c0 -21.333 13.667 -32 41 -32h8c7.33301 0 10.666 -3.66699 9.99902 -11l-1 -12c-1.33301 -7.33301 -5.33301 -11 -12 -11h-15c-44.667 0 -67 19 -67 57
s22.667 72.667 68 104l2 28c-42 -32.667 -84 -49 -126 -49zM113.002 395l-36 -296c-0.666992 -6 -1 -10.667 -1 -14c0 -34 20 -51 60 -51c38.667 0 75.667 15.333 111 46l41 333c-30 30 -65 45 -105 45c-42 0 -65.333 -21 -70 -63z" />
    <glyph glyph-name="Cacute" unicode="&#x106;" horiz-adv-x="399" 
d="M357 867l-73 -120c-3.33301 -4.66699 -7.66602 -7 -12.999 -7h-22c-6 0 -7.33301 3.33301 -4 10l65 119c2.66699 6 7.66699 9 15 9h28c7.33301 0 8.66602 -3.66699 3.99902 -11zM347 196l-8.99805 -77c-4.66699 -40 -19 -71.167 -43 -93.5s-63.667 -33.5 -119 -33.5
c-92 0 -138 34.667 -138 104c0 4 0.666992 12 2 24l54 441c5.33301 40 19.833 71.167 43.5 93.5s62.5 33.5 116.5 33.5c93.333 0 140 -35 140 -105c0 -3.33301 -0.666992 -11 -2 -23l-8 -64c-0.666992 -7.33301 -4.66699 -11 -12 -11h-25c-7.33301 0 -10.333 3.66699 -9 11
l7 63c1.33301 12 2 18.667 2 20c0 45.333 -32 68 -96 68c-66.667 0 -103.334 -29 -110.001 -87l-54 -438c-1.33301 -10.667 -2 -17.667 -2 -21c0 -45.333 31.667 -68 95 -68c67.333 0 104.333 29 111 87l9 76c1.33301 7.33301 5.66602 11 12.999 11h25
c7.33301 0 10.333 -3.66699 9 -11z" />
    <glyph glyph-name="cacute" unicode="&#x107;" horiz-adv-x="350" 
d="M306 697l-72 -119c-2.66699 -5.33301 -6.66699 -8 -12 -8h-23c-6.66699 0 -8.33398 3.33301 -5.00098 10l66 119c2.66699 6 7.33398 9 14.001 9h28c6.66699 0 8 -3.66699 4 -11zM206 501c79.333 0 118.998 -30.667 118.998 -92c0 -5.33301 -0.333008 -11.666 -1 -18.999
l-3 -31c-0.666992 -6.66699 -4.66699 -10 -12 -10h-23c-7.33301 0 -10.666 3.33301 -9.99902 10l3 29c0.666992 6.66699 1 12.667 1 18c0 37.333 -25.667 56 -77 56c-31.333 0 -53.666 -6.33301 -66.999 -19s-21.333 -30.334 -24 -53.001l-34 -284
c-0.666992 -7.33301 -1 -14.333 -1 -21c0 -17.333 5.5 -30.666 16.5 -39.999s31.167 -14 60.5 -14c31.333 0 53.5 6.16699 66.5 18.5s20.833 30.166 23.5 53.499l5 39c1.33301 7.33301 5.33301 11 12 11h24c7.33301 0 10.333 -3.66699 9 -11l-4 -38
c-4 -36 -16.5 -63.667 -37.5 -83s-55.167 -29 -102.5 -29c-80 0 -120 30.333 -120 91c0 7.33301 0.333008 14.333 1 21l35 286c4.66699 36 17.167 63.5 37.5 82.5s54.5 28.5 102.5 28.5z" />
    <glyph glyph-name="Ccircumflex" unicode="&#x108;" horiz-adv-x="399" 
d="M271 844l-53 -93c-4 -7.33301 -9 -11 -15 -11h-18c-8 0 -9.66699 3.66699 -5 11l71 117c4 6.66699 9.33301 10 16 10h17c6 0 10 -3 12 -9l43 -118c2.66699 -7.33301 0.333984 -11 -6.99902 -11h-17c-6.66699 0 -11.334 3.66699 -14.001 11zM347 196l-8.99805 -77
c-4.66699 -40 -19 -71.167 -43 -93.5s-63.667 -33.5 -119 -33.5c-92 0 -138 34.667 -138 104c0 4 0.666992 12 2 24l54 441c5.33301 40 19.833 71.167 43.5 93.5s62.5 33.5 116.5 33.5c93.333 0 140 -35 140 -105c0 -3.33301 -0.666992 -11 -2 -23l-8 -64
c-0.666992 -7.33301 -4.66699 -11 -12 -11h-25c-7.33301 0 -10.333 3.66699 -9 11l7 63c1.33301 12 2 18.667 2 20c0 45.333 -32 68 -96 68c-66.667 0 -103.334 -29 -110.001 -87l-54 -438c-1.33301 -10.667 -2 -17.667 -2 -21c0 -45.333 31.667 -68 95 -68
c67.333 0 104.333 29 111 87l9 76c1.33301 7.33301 5.66602 11 12.999 11h25c7.33301 0 10.333 -3.66699 9 -11z" />
    <glyph glyph-name="ccircumflex" unicode="&#x109;" horiz-adv-x="350" 
d="M224 674l-53.001 -93c-4 -7.33301 -9 -11 -15 -11h-18c-8 0 -9.66699 3.66699 -5 11l71 117c4 6.66699 9.33301 10 16 10h17c6 0 10 -3 12 -9l43 -118c2.66699 -7.33301 0.333984 -11 -6.99902 -11h-18c-5.33301 0 -9.33301 3.66699 -12 11zM205.999 501
c79.333 0 118.998 -30.667 118.998 -92c0 -5.33301 -0.333008 -11.666 -1 -18.999l-3 -31c-0.666992 -6.66699 -4.66699 -10 -12 -10h-23c-7.33301 0 -10.666 3.33301 -9.99902 10l3 29c0.666992 6.66699 1 12.667 1 18c0 37.333 -25.667 56 -77 56
c-31.333 0 -53.666 -6.33301 -66.999 -19s-21.333 -30.334 -24 -53.001l-34 -284c-0.666992 -7.33301 -1 -14.333 -1 -21c0 -17.333 5.5 -30.666 16.5 -39.999s31.167 -14 60.5 -14c31.333 0 53.5 6.16699 66.5 18.5s20.833 30.166 23.5 53.499l5 39
c1.33301 7.33301 5.33301 11 12 11h24c7.33301 0 10.333 -3.66699 9 -11l-4 -38c-4 -36 -16.5 -63.667 -37.5 -83s-55.167 -29 -102.5 -29c-80 0 -120 30.333 -120 91c0 7.33301 0.333008 14.333 1 21l35 286c4.66699 36 17.167 63.5 37.5 82.5s54.5 28.5 102.5 28.5z" />
    <glyph glyph-name="Cdotaccent" unicode="&#x10a;" horiz-adv-x="399" 
d="M298 838l-9 -76c-0.666992 -7.33301 -4.66699 -11 -12 -11h-26c-6.66699 0 -9.66699 3.66699 -9 11l9 76c0.666992 7.33301 4.66699 11 12 11h26c6.66699 0 9.66699 -3.66699 9 -11zM347 196l-8.99805 -77c-4.66699 -40 -19 -71.167 -43 -93.5s-63.667 -33.5 -119 -33.5
c-92 0 -138 34.667 -138 104c0 4 0.666992 12 2 24l54 441c5.33301 40 19.833 71.167 43.5 93.5s62.5 33.5 116.5 33.5c93.333 0 140 -35 140 -105c0 -3.33301 -0.666992 -11 -2 -23l-8 -64c-0.666992 -7.33301 -4.66699 -11 -12 -11h-25c-7.33301 0 -10.333 3.66699 -9 11
l7 63c1.33301 12 2 18.667 2 20c0 45.333 -32 68 -96 68c-66.667 0 -103.334 -29 -110.001 -87l-54 -438c-1.33301 -10.667 -2 -17.667 -2 -21c0 -45.333 31.667 -68 95 -68c67.333 0 104.333 29 111 87l9 76c1.33301 7.33301 5.66602 11 12.999 11h25
c7.33301 0 10.333 -3.66699 9 -11z" />
    <glyph glyph-name="cdotaccent" unicode="&#x10b;" horiz-adv-x="350" 
d="M251 675l-9.00098 -77c-0.666992 -7.33301 -5 -11 -13 -11h-25c-7.33301 0 -10.666 3.66699 -9.99902 11l10 77c0.666992 7.33301 4.33398 11 11.001 11h26c7.33301 0 10.666 -3.66699 9.99902 -11zM205.999 501c79.333 0 118.998 -30.667 118.998 -92
c0 -5.33301 -0.333008 -11.666 -1 -18.999l-3 -31c-0.666992 -6.66699 -4.66699 -10 -12 -10h-23c-7.33301 0 -10.666 3.33301 -9.99902 10l3 29c0.666992 6.66699 1 12.667 1 18c0 37.333 -25.667 56 -77 56c-31.333 0 -53.666 -6.33301 -66.999 -19
s-21.333 -30.334 -24 -53.001l-34 -284c-0.666992 -7.33301 -1 -14.333 -1 -21c0 -17.333 5.5 -30.666 16.5 -39.999s31.167 -14 60.5 -14c31.333 0 53.5 6.16699 66.5 18.5s20.833 30.166 23.5 53.499l5 39c1.33301 7.33301 5.33301 11 12 11h24
c7.33301 0 10.333 -3.66699 9 -11l-4 -38c-4 -36 -16.5 -63.667 -37.5 -83s-55.167 -29 -102.5 -29c-80 0 -120 30.333 -120 91c0 7.33301 0.333008 14.333 1 21l35 286c4.66699 36 17.167 63.5 37.5 82.5s54.5 28.5 102.5 28.5z" />
    <glyph glyph-name="Ccaron" unicode="&#x10c;" horiz-adv-x="399" 
d="M234 867l30.001 -92l54 92c4 7.33301 9 11 15 11h18c7.33301 0 8.66602 -3.66699 3.99902 -11l-71 -118c-4 -6 -9.33301 -9 -16 -9h-16c-6.66699 0 -11 3.33301 -13 10l-43 117c-2.66699 7.33301 0 11 8 11h18c6 0 10 -3.66699 12 -11zM347.001 196l-8.99805 -77
c-4.66699 -40 -19 -71.167 -43 -93.5s-63.667 -33.5 -119 -33.5c-92 0 -138 34.667 -138 104c0 4 0.666992 12 2 24l54 441c5.33301 40 19.833 71.167 43.5 93.5s62.5 33.5 116.5 33.5c93.333 0 140 -35 140 -105c0 -3.33301 -0.666992 -11 -2 -23l-8 -64
c-0.666992 -7.33301 -4.66699 -11 -12 -11h-25c-7.33301 0 -10.333 3.66699 -9 11l7 63c1.33301 12 2 18.667 2 20c0 45.333 -32 68 -96 68c-66.667 0 -103.334 -29 -110.001 -87l-54 -438c-1.33301 -10.667 -2 -17.667 -2 -21c0 -45.333 31.667 -68 95 -68
c67.333 0 104.333 29 111 87l9 76c1.33301 7.33301 5.66602 11 12.999 11h25c7.33301 0 10.333 -3.66699 9 -11z" />
    <glyph glyph-name="ccaron" unicode="&#x10d;" horiz-adv-x="350" 
d="M188 697l30.001 -92l54 92c4.66699 7.33301 9.66699 11 15 11h19c6 0 7 -3.66699 3 -11l-71 -118c-2.66699 -6 -8 -9 -16 -9h-15c-7.33301 0 -12 3.33301 -14 10l-42 117c-2.66699 7.33301 -0.333984 11 6.99902 11h18c6 0 10 -3.66699 12 -11zM206.001 501
c79.333 0 118.998 -30.667 118.998 -92c0 -5.33301 -0.333008 -11.666 -1 -18.999l-3 -31c-0.666992 -6.66699 -4.66699 -10 -12 -10h-23c-7.33301 0 -10.666 3.33301 -9.99902 10l3 29c0.666992 6.66699 1 12.667 1 18c0 37.333 -25.667 56 -77 56
c-31.333 0 -53.666 -6.33301 -66.999 -19s-21.333 -30.334 -24 -53.001l-34 -284c-0.666992 -7.33301 -1 -14.333 -1 -21c0 -17.333 5.5 -30.666 16.5 -39.999s31.167 -14 60.5 -14c31.333 0 53.5 6.16699 66.5 18.5s20.833 30.166 23.5 53.499l5 39
c1.33301 7.33301 5.33301 11 12 11h24c7.33301 0 10.333 -3.66699 9 -11l-4 -38c-4 -36 -16.5 -63.667 -37.5 -83s-55.167 -29 -102.5 -29c-80 0 -120 30.333 -120 91c0 7.33301 0.333008 14.333 1 21l35 286c4.66699 36 17.167 63.5 37.5 82.5s54.5 28.5 102.5 28.5z" />
    <glyph glyph-name="Dcaron" unicode="&#x10e;" horiz-adv-x="435" 
d="M236 867l30.001 -92l54 92c4 7.33301 9 11 15 11h18c7.33301 0 8.66602 -3.66699 3.99902 -11l-71 -118c-4 -6 -9.33301 -9 -16 -9h-16c-6.66699 0 -11 3.33301 -13 10l-43 117c-2.66699 7.33301 0 11 8 11h18c6 0 10 -3.66699 12 -11zM188.001 0l-145 0.000976562
c-6 0 -8.66699 3.66699 -8 11l80 658c0.666992 7.33301 4.66699 11 12 11h136c50 0 86.667 -9.66699 110 -29s35 -45.333 35 -78c0 -4.66699 -1 -14.334 -3 -29.001l-51 -417c-5.33301 -40 -20.333 -71.167 -45 -93.5s-65 -33.5 -121 -33.5zM260.001 639.001h-101.001
l-74 -598h106c70.667 0 109.334 29 116.001 87l50 412c2 12 3 21.333 3 28c0 47.333 -33.333 71 -100 71z" />
    <glyph glyph-name="dcaron" unicode="&#x10f;" horiz-adv-x="390" 
d="M431 668l4.00098 32c1.33301 7.33301 5 11 11 11h21c7.33301 0 10.333 -3.66699 9 -11l-4 -33c-4.66699 -36 -22 -72.667 -52 -110c-4.66699 -4.66699 -9.33398 -5.33398 -14.001 -2.00098l-11 9c-4 2.66699 -4 7.33398 0 14.001c20.667 33.333 32.667 63.333 36 90z
M113.001 395l-36 -295c-0.666992 -5.33301 -1 -10.333 -1 -15c0 -34 20 -51 60 -51c38.667 0 75.667 15.333 111 46l41 333c-30 30 -65 45 -105 45c-42 0 -65.333 -21 -70 -63zM243.001 41c-40 -32.667 -81.667 -48.999 -125 -48.999c-29.333 0 -51.5 7.16699 -66.5 21.5
s-22.5 34.166 -22.5 59.499c0 6 0.333008 12.333 1 19l38 311c4 30 14.667 53.833 32 71.5s42 26.5 74 26.5c47.333 0 87 -16 119 -48l28 230c0.666992 7.33301 4.66699 11 12 11h25c6.66699 0 9.66699 -3.66699 9 -11l-82 -672c-0.666992 -7.33301 -5 -11 -13 -11h-21
c-6 0 -9 3.66699 -9 11z" />
    <glyph glyph-name="Dcroat" unicode="&#x110;" horiz-adv-x="440" 
d="M193 0h-145c-6 0 -8.66699 3.66699 -8 11l38 315h-50c-6.66699 0 -9.66699 3.66699 -9 11l2 15c0.666992 7.33301 4.66699 11 12 11h50l37 306c0.666992 7.33301 4.66699 11 12 11h136c50 0 86.667 -9.66699 110 -29s35 -45.333 35 -78c0 -4 -0.666992 -11 -2 -21
l-52 -425c-5.33301 -40 -20.333 -71.167 -45 -93.5s-65 -33.5 -121 -33.5zM90 41h106c70.667 0 109.334 29 116.001 87l51 421c1.33301 12 2 18.333 2 19c0 47.333 -33.333 71 -100 71h-101l-34 -276h94c7.33301 0 10.666 -3.66699 9.99902 -11l-2 -15
c-0.666992 -7.33301 -5 -11 -13 -11h-94z" />
    <glyph glyph-name="dcroat" unicode="&#x111;" horiz-adv-x="380" 
d="M113 395l-36 -295c-0.666992 -5.33301 -1 -10.333 -1 -15c0 -34 20 -51 60 -51c38.667 0 75.667 15.333 111 46l41 333c-30 30 -65 45 -105 45c-42 0 -65.333 -21 -70 -63zM243 41c-40 -32.667 -81.668 -48.999 -125.001 -48.999c-29.333 0 -51.5 7.16699 -66.5 21.5
s-22.5 34.166 -22.5 59.499c0 6 0.333008 12.333 1 19l38 311c4 30 14.667 53.833 32 71.5s42 26.5 74 26.5c47.333 0 87 -16 119 -48l14 113h-114c-7.33301 0 -10.666 3.33301 -9.99902 10l2 14c0.666992 7.33301 4.33398 11 11.001 11h115l10 82
c0.666992 7.33301 4.66699 11 12 11h25c6.66699 0 9.66699 -3.66699 9 -11l-10 -82h34c7.33301 0 10.666 -3.66699 9.99902 -11l-2 -14c-0.666992 -6.66699 -5 -10 -13 -10h-33l-68 -555c-0.666992 -7.33301 -5 -11 -13 -11h-21c-6 0 -9 3.66699 -9 11z" />
    <glyph glyph-name="Emacron" unicode="&#x112;" horiz-adv-x="377" 
d="M170 818h181c7.33301 0 10.666 -3.33301 9.99902 -10l-2 -16c-0.666992 -7.33301 -5 -11 -13 -11h-180c-7.33301 0 -10.666 3.66699 -9.99902 11l2 15c0.666992 7.33301 4.66699 11 12 11zM296 0h-251.997c-6.66699 0 -9.66699 3.66699 -9 11l80 658
c0.666992 7.33301 4.66699 11 12 11h242c7.33301 0 10.666 -3.66699 9.99902 -11l-2 -19c-0.666992 -7.33301 -4.66699 -11 -12 -11h-206l-31 -261h191c7.33301 0 10.666 -3.66699 9.99902 -11l-2 -18c-0.666992 -7.33301 -4.66699 -11 -12 -11h-193l-37 -297h215
c7.33301 0 10.666 -3.66699 9.99902 -11l-2 -19c-0.666992 -7.33301 -4.66699 -11 -12 -11z" />
    <glyph glyph-name="emacron" unicode="&#x113;" horiz-adv-x="363" 
d="M135 644h180.001c7.33301 0 10.666 -3.66699 9.99902 -11l-2 -16c-1.33301 -7.33301 -5.33301 -11 -12 -11h-181c-8 0 -11.333 3.66699 -10 11l2 16c0.666992 7.33301 5 11 13 11zM325.001 390l-16 -136.001c-0.666992 -6.66699 -4.66699 -10 -12 -10h-204l-18 -142
c-0.666992 -5.33301 -1 -10.666 -1 -15.999c0 -37.333 26.667 -56 80 -56c55.333 0 86 23 92 69l5 39c0.666992 7.33301 4.66699 11 12 11h21c8 0 11.333 -3.66699 10 -11l-4 -36c-4 -35.333 -16.333 -62.5 -37 -81.5s-54.667 -28.5 -102 -28.5
c-81.333 0 -122 30.333 -122 91c0 6.66699 0.333008 13 1 19l35 285c4.66699 38 17.5 66.5 38.5 85.5s55.167 28.5 102.5 28.5c80 0 120 -30.667 120 -92c0 -6 -0.333008 -12.333 -1 -19zM112.001 392.999l-15 -112h171l14 110c0.666992 6 1 11 1 15c0 38 -26.667 57 -80 57
c-54.667 0 -85 -23.333 -91 -70z" />
    <glyph glyph-name="Ebreve" unicode="&#x114;" horiz-adv-x="377" 
d="M215 870l-2.99902 -24c-1.33301 -12 -2 -20 -2 -24c0 -30 16 -45 48 -45c20 0 34.167 6 42.5 18s13.5 29.667 15.5 53l2 22c0.666992 6.66699 4.33398 10 11.001 10h16c7.33301 0 10.666 -3.33301 9.99902 -10l-2 -21c-3.33301 -34 -12.333 -59.833 -27 -77.5
s-38.334 -26.5 -71.001 -26.5c-54 0 -81 25.333 -81 76c0 2 0.666992 10.333 2 25l2 24c0.666992 6.66699 4.33398 10 11.001 10h16c7.33301 0 10.666 -3.33301 9.99902 -10zM296.001 0h-251.997c-6.66699 0 -9.66699 3.66699 -9 11l80 658
c0.666992 7.33301 4.66699 11 12 11h242c7.33301 0 10.666 -3.66699 9.99902 -11l-2 -19c-0.666992 -7.33301 -4.66699 -11 -12 -11h-206l-31 -261h191c7.33301 0 10.666 -3.66699 9.99902 -11l-2 -18c-0.666992 -7.33301 -4.66699 -11 -12 -11h-193l-37 -297h215
c7.33301 0 10.666 -3.66699 9.99902 -11l-2 -19c-0.666992 -7.33301 -4.66699 -11 -12 -11z" />
    <glyph glyph-name="ebreve" unicode="&#x115;" horiz-adv-x="363" 
d="M176 683l-3 -24c-1.33301 -12 -2 -20 -2 -24c0 -30 16 -45 48 -45c20 0 34.167 6 42.5 18s13.5 29.667 15.5 53l2 22c0.666992 6.66699 4.33398 10 11.001 10h16c7.33301 0 10.666 -3.33301 9.99902 -10l-3 -21c-5.33301 -34.667 -14.833 -60.667 -28.5 -78
s-36.5 -26 -68.5 -26c-54 0 -81 25.333 -81 76c0 2 0.666992 10.333 2 25l2 24c0.666992 6.66699 4.33398 10 11.001 10h16c7.33301 0 10.666 -3.33301 9.99902 -10zM325 390l-16 -136.001c-0.666992 -6.66699 -4.66699 -10 -12 -10h-204l-18 -142
c-0.666992 -5.33301 -1 -10.666 -1 -15.999c0 -37.333 26.667 -56 80 -56c55.333 0 86 23 92 69l5 39c0.666992 7.33301 4.66699 11 12 11h21c8 0 11.333 -3.66699 10 -11l-4 -36c-4 -35.333 -16.333 -62.5 -37 -81.5s-54.667 -28.5 -102 -28.5
c-81.333 0 -122 30.333 -122 91c0 6.66699 0.333008 13 1 19l35 285c4.66699 38 17.5 66.5 38.5 85.5s55.167 28.5 102.5 28.5c80 0 120 -30.667 120 -92c0 -6 -0.333008 -12.333 -1 -19zM112 392.999l-15 -112h171l14 110c0.666992 6 1 11 1 15c0 38 -26.667 57 -80 57
c-54.667 0 -85 -23.333 -91 -70z" />
    <glyph glyph-name="Edotaccent" unicode="&#x116;" horiz-adv-x="377" 
d="M291 838l-9 -76c-0.666992 -7.33301 -4.66699 -11 -12 -11h-26c-6.66699 0 -9.66699 3.66699 -9 11l9 76c0.666992 7.33301 4.66699 11 12 11h26c6.66699 0 9.66699 -3.66699 9 -11zM296 0h-251.997c-6.66699 0 -9.66699 3.66699 -9 11l80 658
c0.666992 7.33301 4.66699 11 12 11h242c7.33301 0 10.666 -3.66699 9.99902 -11l-2 -19c-0.666992 -7.33301 -4.66699 -11 -12 -11h-206l-31 -261h191c7.33301 0 10.666 -3.66699 9.99902 -11l-2 -18c-0.666992 -7.33301 -4.66699 -11 -12 -11h-193l-37 -297h215
c7.33301 0 10.666 -3.66699 9.99902 -11l-2 -19c-0.666992 -7.33301 -4.66699 -11 -12 -11z" />
    <glyph glyph-name="edotaccent" unicode="&#x117;" horiz-adv-x="363" 
d="M250 675l-9.00098 -77c-0.666992 -7.33301 -5 -11 -13 -11h-25c-7.33301 0 -10.666 3.66699 -9.99902 11l10 77c0.666992 7.33301 4.33398 11 11.001 11h26c7.33301 0 10.666 -3.66699 9.99902 -11zM324.999 390l-16 -136.001c-0.666992 -6.66699 -4.66699 -10 -12 -10
h-204l-18 -142c-0.666992 -5.33301 -1 -10.666 -1 -15.999c0 -37.333 26.667 -56 80 -56c55.333 0 86 23 92 69l5 39c0.666992 7.33301 4.66699 11 12 11h21c8 0 11.333 -3.66699 10 -11l-4 -36c-4 -35.333 -16.333 -62.5 -37 -81.5s-54.667 -28.5 -102 -28.5
c-81.333 0 -122 30.333 -122 91c0 6.66699 0.333008 13 1 19l35 285c4.66699 38 17.5 66.5 38.5 85.5s55.167 28.5 102.5 28.5c80 0 120 -30.667 120 -92c0 -6 -0.333008 -12.333 -1 -19zM111.999 392.999l-15 -112h171l14 110c0.666992 6 1 11 1 15c0 38 -26.667 57 -80 57
c-54.667 0 -85 -23.333 -91 -70z" />
    <glyph glyph-name="Eogonek" unicode="&#x118;" horiz-adv-x="377" 
d="M295 0h-13.998c-18.667 0 -33.167 -9 -43.5 -27s-15.5 -34.667 -15.5 -50c0 -24.667 13 -37 39 -37h13c7.33301 0 10.666 -3.66699 9.99902 -11l-1 -12c-1.33301 -7.33301 -5.66602 -11 -12.999 -11h-19c-19.333 0 -35.166 5.16699 -47.499 15.5s-18.5 25.5 -18.5 45.5
c0 36.667 13 65.667 39 87h-180c-6.66699 0 -9.66699 3.66699 -9 11l80 658c0.666992 7.33301 4.66699 11 12 11h242c7.33301 0 10.666 -3.66699 9.99902 -11l-2 -19c-0.666992 -7.33301 -4.66699 -11 -12 -11h-206l-31 -261h191c7.33301 0 10.666 -3.66699 9.99902 -11
l-2 -18c-0.666992 -7.33301 -4.66699 -11 -12 -11h-193l-37 -297h215c7.33301 0 10.666 -3.66699 9.99902 -11l-2 -19c-0.666992 -7.33301 -5 -11 -13 -11z" />
    <glyph glyph-name="eogonek" unicode="&#x119;" horiz-adv-x="363" 
d="M326 390l-15.999 -136.003c-0.666992 -6.66699 -4.66699 -10 -12 -10h-205l-17 -142c-0.666992 -6 -1 -11.333 -1 -16c0 -37.333 26.333 -56 79 -56c55.333 0 86 23 92 69l5 39c0.666992 7.33301 5 11 13 11h21c7.33301 0 10.333 -3.66699 9 -11l-4 -36
c-4.66699 -40 -20.334 -69.333 -47.001 -88c-12.667 -9.33301 -23.667 -22.166 -33 -38.499s-14 -32.166 -14 -47.499c0 -28 15 -42 45 -42h13c7.33301 0 10.666 -3.66699 9.99902 -11l-1 -12c-1.33301 -7.33301 -5.66602 -11 -12.999 -11h-20
c-20.667 0 -37.5 5.66699 -50.5 17s-19.5 27.666 -19.5 48.999c0 26.667 9 52.334 27 77.001c-10 -2 -22 -3 -36 -3c-80.667 0 -121 30.333 -121 91c0 6 0.333008 12.333 1 19l34 287c4.66699 36.667 17.5 64.5 38.5 83.5s55.167 28.5 102.5 28.5
c80.667 0 121 -30.667 121 -92c0 -5.33301 -0.333008 -11.666 -1 -18.999zM112.001 392.997l-14 -112h171l14 110c0.666992 6.66699 1 11.667 1 15c0 38 -26.333 57 -79 57c-56 0 -87 -23.333 -93 -70z" />
    <glyph glyph-name="Ecaron" unicode="&#x11a;" horiz-adv-x="377" 
d="M228 867l30.001 -92l54 92c4 7.33301 9 11 15 11h18c7.33301 0 8.66602 -3.66699 3.99902 -11l-71 -118c-4 -6 -9.33301 -9 -16 -9h-16c-6.66699 0 -11 3.33301 -13 10l-43 117c-2.66699 7.33301 0 11 8 11h18c6 0 10 -3.66699 12 -11zM296.001 0h-251.997
c-6.66699 0 -9.66699 3.66699 -9 11l80 658c0.666992 7.33301 4.66699 11 12 11h242c7.33301 0 10.666 -3.66699 9.99902 -11l-2 -19c-0.666992 -7.33301 -4.66699 -11 -12 -11h-206l-31 -261h191c7.33301 0 10.666 -3.66699 9.99902 -11l-2 -18
c-0.666992 -7.33301 -4.66699 -11 -12 -11h-193l-37 -297h215c7.33301 0 10.666 -3.66699 9.99902 -11l-2 -19c-0.666992 -7.33301 -4.66699 -11 -12 -11z" />
    <glyph glyph-name="ecaron" unicode="&#x11b;" horiz-adv-x="363" 
d="M188 697l30.001 -92l54 92c4.66699 7.33301 9.66699 11 15 11h19c6 0 7 -3.66699 3 -11l-71 -118c-2.66699 -6 -8 -9 -16 -9h-15c-7.33301 0 -12 3.33301 -14 10l-42 117c-2.66699 7.33301 -0.333984 11 6.99902 11h18c6 0 10 -3.66699 12 -11zM325.001 390l-16 -136.001
c-0.666992 -6.66699 -4.66699 -10 -12 -10h-204l-18 -142c-0.666992 -5.33301 -1 -10.666 -1 -15.999c0 -37.333 26.667 -56 80 -56c55.333 0 86 23 92 69l5 39c0.666992 7.33301 4.66699 11 12 11h21c8 0 11.333 -3.66699 10 -11l-4 -36
c-4 -35.333 -16.333 -62.5 -37 -81.5s-54.667 -28.5 -102 -28.5c-81.333 0 -122 30.333 -122 91c0 6.66699 0.333008 13 1 19l35 285c4.66699 38 17.5 66.5 38.5 85.5s55.167 28.5 102.5 28.5c80 0 120 -30.667 120 -92c0 -6 -0.333008 -12.333 -1 -19zM112.001 392.999
l-15 -112h171l14 110c0.666992 6 1 11 1 15c0 38 -26.667 57 -80 57c-54.667 0 -85 -23.333 -91 -70z" />
    <glyph glyph-name="Gcircumflex" unicode="&#x11c;" horiz-adv-x="414" 
d="M276 844l-53 -93c-4 -7.33301 -9 -11 -15 -11h-18c-8 0 -9.66699 3.66699 -5 11l71 117c4 6.66699 9.33301 10 16 10h17c6 0 10 -3 12 -9l43 -118c2.66699 -7.33301 0.333984 -11 -6.99902 -11h-17c-6.66699 0 -11.334 3.66699 -14.001 11zM223 316h128.002
c7.33301 0 10.666 -3.66699 9.99902 -11l-23 -186c-5.33301 -40 -19.833 -71.167 -43.5 -93.5s-63.167 -33.5 -118.5 -33.5c-92 0 -138 34.667 -138 104c0 8.66699 0.333008 16.667 1 24l55 441c5.33301 40 19.833 71.167 43.5 93.5s62.5 33.5 116.5 33.5
c93.333 0 140 -35 140 -105c0 -3.33301 -0.666992 -11 -2 -23l-7 -62c-0.666992 -7.33301 -5 -11 -13 -11h-24c-8 0 -11.333 3.66699 -10 11l7 53c1.33301 12 2 21.333 2 28c0 45.333 -32 68 -96 68c-66.667 0 -103.334 -29 -110.001 -87l-54 -438
c-0.666992 -5.33301 -1 -12.333 -1 -21c0 -45.333 31.333 -68 94 -68c67.333 0 104.333 28.333 111 85l20 157h-93c-6.66699 0 -9.66699 3.66699 -9 11l2 19c0.666992 7.33301 4.66699 11 12 11z" />
    <glyph glyph-name="gcircumflex" unicode="&#x11d;" horiz-adv-x="380" 
d="M234 674l-53.001 -93c-4 -7.33301 -9 -11 -15 -11h-18c-8 0 -9.66699 3.66699 -5 11l71 117c4 6.66699 9.33301 10 16 10h17c6 0 10 -3 12 -9l43 -118c2.66699 -7.33301 0.333984 -11 -6.99902 -11h-18c-5.33301 0 -9.33301 3.66699 -12 11zM117.999 -8
c-29.333 0 -51.5 7.33105 -66.5 21.998s-22.5 34.334 -22.5 59.001c0 4.66699 0.333008 10.334 1 17.001l38 313c4 30 14.667 53.833 32 71.5s42 26.5 74 26.5c46.667 0 86.667 -16.667 120 -50l5 30c0.666992 8 4.66699 12 12 12h22c7.33301 0 10.333 -4 9 -12l-69 -570
c-4.66699 -34 -18 -60.167 -40 -78.5s-57 -27.5 -105 -27.5h-96c-6 0 -9 3.66699 -9 11l1 18c0 7.33301 4.33301 11 13 11h95c57.333 0 89 23 95 69l15 125c-40 -31.333 -81.333 -47 -124 -47zM112.999 394.998l-36 -295.001c-0.666992 -5.33301 -1 -9.66602 -1 -12.999
c0 -35.333 20 -53 60 -53c38.667 0 75.667 15.333 111 46l41 333c-30 30 -65 45 -105 45c-42 0 -65.333 -21 -70 -63z" />
    <glyph glyph-name="Gbreve" unicode="&#x11e;" horiz-adv-x="414" 
d="M224 870l-2.99902 -24c-1.33301 -12 -2 -20 -2 -24c0 -30 16 -45 48 -45c20 0 34.167 6 42.5 18s13.5 29.667 15.5 53l2 22c0.666992 6.66699 4.33398 10 11.001 10h16c7.33301 0 10.666 -3.33301 9.99902 -10l-2 -21c-3.33301 -34 -12.333 -59.833 -27 -77.5
s-38.334 -26.5 -71.001 -26.5c-54 0 -81 25.333 -81 76c0 2 0.666992 10.333 2 25l2 24c0.666992 6.66699 4.33398 10 11.001 10h16c7.33301 0 10.666 -3.33301 9.99902 -10zM223.001 316h128.002c7.33301 0 10.666 -3.66699 9.99902 -11l-23 -186
c-5.33301 -40 -19.833 -71.167 -43.5 -93.5s-63.167 -33.5 -118.5 -33.5c-92 0 -138 34.667 -138 104c0 8.66699 0.333008 16.667 1 24l55 441c5.33301 40 19.833 71.167 43.5 93.5s62.5 33.5 116.5 33.5c93.333 0 140 -35 140 -105c0 -3.33301 -0.666992 -11 -2 -23l-7 -62
c-0.666992 -7.33301 -5 -11 -13 -11h-24c-8 0 -11.333 3.66699 -10 11l7 53c1.33301 12 2 21.333 2 28c0 45.333 -32 68 -96 68c-66.667 0 -103.334 -29 -110.001 -87l-54 -438c-0.666992 -5.33301 -1 -12.333 -1 -21c0 -45.333 31.333 -68 94 -68
c67.333 0 104.333 28.333 111 85l20 157h-93c-6.66699 0 -9.66699 3.66699 -9 11l2 19c0.666992 7.33301 4.66699 11 12 11z" />
    <glyph glyph-name="gbreve" unicode="&#x11f;" horiz-adv-x="380" 
d="M181 683l-3 -24c-1.33301 -12 -2 -20 -2 -24c0 -30 16 -45 48 -45c20 0 34.167 6 42.5 18s13.5 29.667 15.5 53l2 22c0.666992 6.66699 4.33398 10 11.001 10h16c7.33301 0 10.666 -3.33301 9.99902 -10l-3 -21c-5.33301 -34.667 -14.833 -60.667 -28.5 -78
s-36.5 -26 -68.5 -26c-54 0 -81 25.333 -81 76c0 2 0.666992 10.333 2 25l2 24c0.666992 6.66699 4.33398 10 11.001 10h16c7.33301 0 10.666 -3.33301 9.99902 -10zM118 -8c-29.333 0 -51.5 7.33105 -66.5 21.998s-22.5 34.334 -22.5 59.001
c0 4.66699 0.333008 10.334 1 17.001l38 313c4 30 14.667 53.833 32 71.5s42 26.5 74 26.5c46.667 0 86.667 -16.667 120 -50l5 30c0.666992 8 4.66699 12 12 12h22c7.33301 0 10.333 -4 9 -12l-69 -570c-4.66699 -34 -18 -60.167 -40 -78.5s-57 -27.5 -105 -27.5h-96
c-6 0 -9 3.66699 -9 11l1 18c0 7.33301 4.33301 11 13 11h95c57.333 0 89 23 95 69l15 125c-40 -31.333 -81.333 -47 -124 -47zM113 394.998l-36 -295.001c-0.666992 -5.33301 -1 -9.66602 -1 -12.999c0 -35.333 20 -53 60 -53c38.667 0 75.667 15.333 111 46l41 333
c-30 30 -65 45 -105 45c-42 0 -65.333 -21 -70 -63z" />
    <glyph glyph-name="Gdotaccent" unicode="&#x120;" horiz-adv-x="414" 
d="M294 836l-9 -76c-0.666992 -7.33301 -4.66699 -11 -12 -11h-26c-6.66699 0 -9.66699 3.66699 -9 11l9 76c0.666992 7.33301 4.66699 11 12 11h26c6.66699 0 9.66699 -3.66699 9 -11zM223 316h128.002c7.33301 0 10.666 -3.66699 9.99902 -11l-23 -186
c-5.33301 -40 -19.833 -71.167 -43.5 -93.5s-63.167 -33.5 -118.5 -33.5c-92 0 -138 34.667 -138 104c0 8.66699 0.333008 16.667 1 24l55 441c5.33301 40 19.833 71.167 43.5 93.5s62.5 33.5 116.5 33.5c93.333 0 140 -35 140 -105c0 -3.33301 -0.666992 -11 -2 -23l-7 -62
c-0.666992 -7.33301 -5 -11 -13 -11h-24c-8 0 -11.333 3.66699 -10 11l7 53c1.33301 12 2 21.333 2 28c0 45.333 -32 68 -96 68c-66.667 0 -103.334 -29 -110.001 -87l-54 -438c-0.666992 -5.33301 -1 -12.333 -1 -21c0 -45.333 31.333 -68 94 -68
c67.333 0 104.333 28.333 111 85l20 157h-93c-6.66699 0 -9.66699 3.66699 -9 11l2 19c0.666992 7.33301 4.66699 11 12 11z" />
    <glyph glyph-name="gdotaccent" unicode="&#x121;" horiz-adv-x="380" 
d="M255 675l-9.00098 -77c-0.666992 -7.33301 -5 -11 -13 -11h-25c-7.33301 0 -10.666 3.66699 -9.99902 11l10 77c0.666992 7.33301 4.33398 11 11.001 11h26c7.33301 0 10.666 -3.66699 9.99902 -11zM117.999 -8c-29.333 0 -51.5 7.33105 -66.5 21.998
s-22.5 34.334 -22.5 59.001c0 4.66699 0.333008 10.334 1 17.001l38 313c4 30 14.667 53.833 32 71.5s42 26.5 74 26.5c46.667 0 86.667 -16.667 120 -50l5 30c0.666992 8 4.66699 12 12 12h22c7.33301 0 10.333 -4 9 -12l-69 -570c-4.66699 -34 -18 -60.167 -40 -78.5
s-57 -27.5 -105 -27.5h-96c-6 0 -9 3.66699 -9 11l1 18c0 7.33301 4.33301 11 13 11h95c57.333 0 89 23 95 69l15 125c-40 -31.333 -81.333 -47 -124 -47zM112.999 394.998l-36 -295.001c-0.666992 -5.33301 -1 -9.66602 -1 -12.999c0 -35.333 20 -53 60 -53
c38.667 0 75.667 15.333 111 46l41 333c-30 30 -65 45 -105 45c-42 0 -65.333 -21 -70 -63z" />
    <glyph glyph-name="Gcommaaccent" unicode="&#x122;" horiz-adv-x="414" 
d="M223 316h128.002c7.33301 0 10.666 -3.66699 9.99902 -11l-23 -186c-5.33301 -40 -19.833 -71.167 -43.5 -93.5s-63.167 -33.5 -118.5 -33.5c-92 0 -138 34.667 -138 104c0 8.66699 0.333008 16.667 1 24l55 441c5.33301 40 19.833 71.167 43.5 93.5
s62.5 33.5 116.5 33.5c93.333 0 140 -35 140 -105c0 -3.33301 -0.666992 -11 -2 -23l-7 -62c-0.666992 -7.33301 -5 -11 -13 -11h-24c-8 0 -11.333 3.66699 -10 11l7 53c1.33301 12 2 21.333 2 28c0 45.333 -32 68 -96 68c-66.667 0 -103.334 -29 -110.001 -87l-54 -438
c-0.666992 -5.33301 -1 -12.333 -1 -21c0 -45.333 31.333 -68 94 -68c67.333 0 104.333 28.333 111 85l20 157h-93c-6.66699 0 -9.66699 3.66699 -9 11l2 19c0.666992 7.33301 4.66699 11 12 11zM148.002 -92l4.00098 32c1.33301 7.33301 5 11 11 11h21
c7.33301 0 10.333 -3.66699 9 -11l-4 -33c-4.66699 -36 -22 -72.667 -52 -110c-4.66699 -4.66699 -9.33398 -5.33398 -14.001 -2.00098l-11 9c-4 2.66699 -4 7.33398 0 14.001c20.667 33.333 32.667 63.333 36 90z" />
    <glyph glyph-name="gcommaaccent" unicode="&#x123;" horiz-adv-x="380" 
d="M245 617l-4.00098 -32c-1.33301 -7.33301 -5 -11 -11 -11h-21c-7.33301 0 -10.333 3.66699 -9 11l4 33c4.66699 36 22 72.667 52 110c4.66699 4.66699 9.33398 5.33398 14.001 2.00098l11 -9c4 -2.66699 4 -7.33398 0 -14.001c-20.667 -33.333 -32.667 -63.333 -36 -90z
M117.999 -8c-29.333 0 -51.5 7.33105 -66.5 21.998s-22.5 34.334 -22.5 59.001c0 4.66699 0.333008 10.334 1 17.001l38 313c4 30 14.667 53.833 32 71.5s42 26.5 74 26.5c46.667 0 86.667 -16.667 120 -50l5 30c0.666992 8 4.66699 12 12 12h22c7.33301 0 10.333 -4 9 -12
l-69 -570c-4.66699 -34 -18 -60.167 -40 -78.5s-57 -27.5 -105 -27.5h-96c-6 0 -9 3.66699 -9 11l1 18c0 7.33301 4.33301 11 13 11h95c57.333 0 89 23 95 69l15 125c-40 -31.333 -81.333 -47 -124 -47zM112.999 394.998l-36 -295.001
c-0.666992 -5.33301 -1 -9.66602 -1 -12.999c0 -35.333 20 -53 60 -53c38.667 0 75.667 15.333 111 46l41 333c-30 30 -65 45 -105 45c-42 0 -65.333 -21 -70 -63z" />
    <glyph glyph-name="Hcircumflex" unicode="&#x124;" horiz-adv-x="444" 
d="M288 844l-53 -93c-4 -7.33301 -9 -11 -15 -11h-18c-8 0 -9.66699 3.66699 -5 11l71 117c4 6.66699 9.33301 10 16 10h17c6 0 10 -3 12 -9l43 -118c2.66699 -7.33301 0.333984 -11 -6.99902 -11h-17c-6.66699 0 -11.334 3.66699 -14.001 11zM163 669l-34.999 -284h210
l35 284c0.666992 7.33301 4.66699 11 12 11h25c7.33301 0 10.666 -3.66699 9.99902 -11l-80 -658c-0.666992 -7.33301 -5 -11 -13 -11h-25c-8 0 -11.333 3.66699 -10 11l41 332h-210l-41 -332c-1.33301 -7.33301 -5 -11 -11 -11h-27c-6.66699 0 -9.66699 3.66699 -9 11
l80 658c0.666992 7.33301 4.66699 11 12 11h27c6.66699 0 9.66699 -3.66699 9 -11z" />
    <glyph glyph-name="hcircumflex" unicode="&#x125;" horiz-adv-x="384" 
d="M150 844l-53 -93c-4 -7.33301 -9 -11 -15 -11h-18c-8 0 -9.66699 3.66699 -5 11l71 117c4 6.66699 9.33301 10 16 10h17c6 0 10 -3 12 -9l43 -118c2.66699 -7.33301 0.333984 -11 -6.99902 -11h-17c-6.66699 0 -11.334 3.66699 -14.001 11zM154 683l-27.999 -229.999
c37.333 32 78.666 48 123.999 48c29.333 0 51.666 -7.33301 66.999 -22s23 -34.334 23 -59.001c0 -4 -0.333008 -9 -1 -15l-48 -394c-0.666992 -7.33301 -5 -11 -13 -11h-24c-6.66699 0 -9.66699 3.66699 -9 11l47 382c0.666992 6 1 11 1 15c0 33.333 -20.333 50 -61 50
c-37.333 0 -74.333 -15 -111 -45l-49 -402c-0.666992 -7.33301 -4.66699 -11 -12 -11h-25c-7.33301 0 -10.666 3.66699 -9.99902 11l83 672c0.666992 7.33301 5 11 13 11h25c6 0 8.66699 -3.66699 8 -11z" />
    <glyph glyph-name="Hbar" unicode="&#x126;" horiz-adv-x="445" 
d="M129 385h210l15 118h-210zM83 11c-1.33301 -7.33301 -4.99902 -11 -10.999 -11h-27c-6.66699 0 -9.66699 3.66699 -9 11l60 492h-24c-7.33301 0 -10.666 3.66699 -9.99902 11l1 13c0.666992 7.33301 5 11 13 11h24l16 131c0.666992 7.33301 4.66699 11 12 11h27
c6.66699 0 9.66699 -3.66699 9 -11l-16 -131h210l16 131c0.666992 7.33301 4.66699 11 12 11h25c7.33301 0 10.666 -3.66699 9.99902 -11l-16 -131h26c7.33301 0 10.666 -3.66699 9.99902 -11l-1 -13c-0.666992 -7.33301 -4.66699 -11 -12 -11h-27l-60 -492
c-0.666992 -7.33301 -5 -11 -13 -11h-25c-8 0 -11.333 3.66699 -10 11l41 332h-210z" />
    <glyph glyph-name="hbar" unicode="&#x127;" horiz-adv-x="385" 
d="M72 11c-0.666992 -7.33301 -4.66699 -10.999 -12 -10.999h-25c-7.33301 0 -10.666 3.66699 -9.99902 11l69 555h-38c-7.33301 0 -10.666 3.66699 -9.99902 11l1 13c0.666992 7.33301 4.66699 11 12 11h39l10 82c0.666992 7.33301 5 11 13 11h25
c6 0 8.66699 -3.66699 8 -11l-10 -82h109c8 0 11.667 -3.66699 11 -11l-2 -13c-0.666992 -7.33301 -4.66699 -11 -12 -11h-110l-14 -113c37.333 32 78.666 48 123.999 48c29.333 0 51.666 -7.33301 66.999 -22s23 -34.334 23 -59.001c0 -4 -0.333008 -9 -1 -15l-48 -394
c-0.666992 -7.33301 -5 -11 -13 -11h-24c-6.66699 0 -9.66699 3.66699 -9 11l47 382c0.666992 6 1 11 1 15c0 33.333 -20.333 50 -61 50c-37.333 0 -74.333 -15 -111 -45z" />
    <glyph glyph-name="Itilde" unicode="&#x128;" horiz-adv-x="186" 
d="M111 817c-7.33301 0 -12.499 -2.5 -15.499 -7.5s-5.83301 -15.5 -8.5 -31.5l-2 -12c-0.666992 -6.66699 -5 -10 -13 -10h-11c-7.33301 0 -10.333 4 -9 12l3 19c7.33301 44 26 66 56 66c13.333 0 26.666 -6.66699 39.999 -20l25 -26c8.66699 -9.33301 17 -14 25 -14
c7.33301 0 12.833 2.66699 16.5 8s6.16699 16 7.5 32l1 10c0.666992 7.33301 5 11 13 11h12c6.66699 0 9.33398 -4.33301 8.00098 -13l-2 -18c-4.66699 -44 -23.667 -66 -57 -66c-14.667 0 -28.334 6.66699 -41.001 20l-24 25c-10 10 -18 15 -24 15zM163.001 669
l-80.999 -658c-0.666992 -7.33301 -4.33398 -11 -11.001 -11h-27c-6.66699 0 -9.66699 3.66699 -9 11l80 658c0.666992 7.33301 4.66699 11 12 11h27c6.66699 0 9.66699 -3.66699 9 -11z" />
    <glyph glyph-name="itilde" unicode="&#x129;" horiz-adv-x="166" 
d="M78 642c-8 0 -13.8291 -2.66699 -17.4961 -8s-6.16699 -15.333 -7.5 -30l-1 -12c-0.666992 -7.33301 -5 -11 -13 -11h-12c-6.66699 0 -9.33398 4.33301 -8.00098 13l3 18c7.33301 44.667 25.666 67 54.999 67c13.333 0 27 -7 41 -21l25 -26
c9.33301 -9.33301 17.666 -14 24.999 -14s12.833 2.66699 16.5 8s6.16699 16 7.5 32l1 11c0.666992 6.66699 5 10 13 10h11c7.33301 0 10.333 -4 9 -12l-3 -18c-7.33301 -44 -26 -66 -56 -66c-14.667 0 -28.334 6.33301 -41.001 19l-24 25c-10 10 -18 15 -24 15z
M129.004 481l-57.001 -470c-0.666992 -7.33301 -5 -11 -13 -11h-24c-7.33301 0 -10.666 3.66699 -9.99902 11l58 470c0.666992 8 4.66699 12 12 12h25c6.66699 0 9.66699 -4 9 -12z" />
    <glyph glyph-name="Imacron" unicode="&#x12a;" horiz-adv-x="186" 
d="M67 818h181c7.33301 0 10.666 -3.33301 9.99902 -10l-2 -16c-0.666992 -7.33301 -5 -11 -13 -11h-180c-7.33301 0 -10.666 3.66699 -9.99902 11l2 15c0.666992 7.33301 4.66699 11 12 11zM163 669l-80.999 -658c-0.666992 -7.33301 -4.33398 -11 -11.001 -11h-27
c-6.66699 0 -9.66699 3.66699 -9 11l80 658c0.666992 7.33301 4.66699 11 12 11h27c6.66699 0 9.66699 -3.66699 9 -11z" />
    <glyph glyph-name="imacron" unicode="&#x12b;" horiz-adv-x="166" 
d="M38 644h180.001c7.33301 0 10.666 -3.66699 9.99902 -11l-2 -16c-1.33301 -7.33301 -5.33301 -11 -12 -11h-181c-8 0 -11.333 3.66699 -10 11l2 16c0.666992 7.33301 5 11 13 11zM129.001 481l-57.001 -470c-0.666992 -7.33301 -5 -11 -13 -11h-24
c-7.33301 0 -10.666 3.66699 -9.99902 11l58 470c0.666992 8 4.66699 12 12 12h25c6.66699 0 9.66699 -4 9 -12z" />
    <glyph glyph-name="Ibreve" unicode="&#x12c;" horiz-adv-x="186" 
d="M111 870l-2.99902 -24c-1.33301 -12 -2 -20 -2 -24c0 -30 16 -45 48 -45c20 0 34.167 6 42.5 18s13.5 29.667 15.5 53l2 22c0.666992 6.66699 4.33398 10 11.001 10h16c7.33301 0 10.666 -3.33301 9.99902 -10l-2 -21c-3.33301 -34 -12.333 -59.833 -27 -77.5
s-38.334 -26.5 -71.001 -26.5c-54 0 -81 25.333 -81 76c0 2 0.666992 10.333 2 25l2 24c0.666992 6.66699 4.33398 10 11.001 10h16c7.33301 0 10.666 -3.33301 9.99902 -10zM163.001 669l-80.999 -658c-0.666992 -7.33301 -4.33398 -11 -11.001 -11h-27
c-6.66699 0 -9.66699 3.66699 -9 11l80 658c0.666992 7.33301 4.66699 11 12 11h27c6.66699 0 9.66699 -3.66699 9 -11z" />
    <glyph glyph-name="ibreve" unicode="&#x12d;" horiz-adv-x="166" 
d="M79 683l-3 -24c-1.33301 -12 -2 -20 -2 -24c0 -30 16 -45 48 -45c20 0 34.167 6 42.5 18s13.5 29.667 15.5 53l2 22c0.666992 6.66699 4.33398 10 11.001 10h16c7.33301 0 10.666 -3.33301 9.99902 -10l-3 -21c-5.33301 -34.667 -14.833 -60.667 -28.5 -78
s-36.5 -26 -68.5 -26c-54 0 -81 25.333 -81 76c0 2 0.666992 10.333 2 25l2 24c0.666992 6.66699 4.33398 10 11.001 10h16c7.33301 0 10.666 -3.33301 9.99902 -10zM129 481l-57.001 -470c-0.666992 -7.33301 -5 -11 -13 -11h-24c-7.33301 0 -10.666 3.66699 -9.99902 11
l58 470c0.666992 8 4.66699 12 12 12h25c6.66699 0 9.66699 -4 9 -12z" />
    <glyph glyph-name="Iogonek" unicode="&#x12e;" horiz-adv-x="186" 
d="M163 669l-81 -658c-0.666992 -7.33301 -4.33398 -11 -11.001 -11h-8c-18.667 -6 -32.667 -17 -42 -33s-14 -31 -14 -45c0 -24 13 -36 39 -36h10c7.33301 0 10.666 -3.66699 9.99902 -11l-1 -12c-1.33301 -7.33301 -5.66602 -11 -12.999 -11h-16
c-19.333 0 -35.166 5 -47.499 15s-18.5 25 -18.5 45c0 42.667 22 78 66 106l80 651c0.666992 7.33301 4.66699 11 12 11h26c6.66699 0 9.66699 -3.66699 9 -11z" />
    <glyph glyph-name="iogonek" unicode="&#x12f;" horiz-adv-x="168" 
d="M156 683l-12 -95c-1.33301 -8 -5.33301 -12 -12 -12h-25c-7.33301 0 -10.333 4 -9 12l11 95c0.666992 7.33301 5 11 13 11h25c6.66699 0 9.66699 -3.66699 9 -11zM131 481l-57 -469.999c-0.666992 -7.33301 -4.66699 -11 -12 -11h-5c-18.667 -8 -32.667 -20 -42 -36
s-14 -31.333 -14 -46c0 -21.333 13 -32 39 -32h11c6 0 9 -3.66699 9 -11v-12c0 -7.33301 -4.33301 -11 -13 -11h-16c-20 0 -36.167 4.66699 -48.5 14s-18.5 23.666 -18.5 42.999c0 38 21.333 74 64 108l57 464c0.666992 8 4.66699 12 12 12h25c6.66699 0 9.66699 -4 9 -12z
" />
    <glyph glyph-name="Idotaccent" unicode="&#x130;" horiz-adv-x="186" 
d="M185 838l-9 -76c-0.666992 -7.33301 -4.66699 -11 -12 -11h-26c-6.66699 0 -9.66699 3.66699 -9 11l9 76c0.666992 7.33301 4.66699 11 12 11h26c6.66699 0 9.66699 -3.66699 9 -11zM163 669l-80.999 -658c-0.666992 -7.33301 -4.33398 -11 -11.001 -11h-27
c-6.66699 0 -9.66699 3.66699 -9 11l80 658c0.666992 7.33301 4.66699 11 12 11h27c6.66699 0 9.66699 -3.66699 9 -11z" />
    <glyph glyph-name="dotlessi" unicode="&#x131;" horiz-adv-x="167" 
d="M129 481l-57.001 -470c-0.666992 -7.33301 -5 -11 -13 -11h-24c-7.33301 0 -10.666 3.66699 -9.99902 11l58 470c0.666992 8 4.66699 12 12 12h25c6.66699 0 9.66699 -4 9 -12z" />
    <glyph glyph-name="IJ" unicode="&#x132;" horiz-adv-x="546" 
d="M163 669l-80.999 -658c-0.666992 -7.33301 -4.33398 -11 -11.001 -11h-27c-6.66699 0 -9.66699 3.66699 -9 11l80 658c0.666992 7.33301 4.66699 11 12 11h27c6.66699 0 9.66699 -3.66699 9 -11zM240.001 171l-6.99902 -51c-0.666992 -6 -1 -13.333 -1 -22
c0 -43.333 27.333 -65 82 -65c32.667 0 56.167 7.33301 70.5 22s23.166 36 26.499 64l67 550c0.666992 7.33301 4.66699 11 12 11h26c8 0 11.333 -3.66699 10 -11l-68 -550c-5.33301 -40.667 -18.5 -72 -39.5 -94s-56.833 -33 -107.5 -33c-84 0 -126 34 -126 102
c0 5.33301 0.666992 14 2 26l6 51c0.666992 7.33301 5 11 13 11h25c6.66699 0 9.66699 -3.66699 9 -11z" />
    <glyph glyph-name="ij" unicode="&#x133;" horiz-adv-x="329" 
d="M317 683l-11.999 -95c-0.666992 -8 -4.66699 -12 -12 -12h-25c-6.66699 0 -9.66699 4 -9 12l12 95c0.666992 7.33301 4.66699 11 12 11h24c7.33301 0 10.666 -3.66699 9.99902 -11zM154.001 683l-11 -95c-0.666992 -8 -4.66699 -12 -12 -12h-25c-8 0 -11.333 4 -10 12
l12 95c0.666992 7.33301 4.66699 11 12 11h25c6.66699 0 9.66699 -3.66699 9 -11zM292.001 481l-70 -570c-8 -70.667 -55.333 -106 -142 -106h-5c-7.33301 0 -10.666 3.66699 -9.99902 11l2 18c1.33301 7.33301 5.66602 11 12.999 11h4c56 0 86.667 22.667 92 68l69 568
c0.666992 8 5 12 13 12h24c8 0 11.333 -4 10 -12zM130.001 481l-58.001 -470c-0.666992 -7.33301 -4.66699 -11 -12 -11h-25c-7.33301 0 -10.666 3.66699 -9.99902 11l58 470c0.666992 8 4.66699 12 12 12h25c8 0 11.333 -4 10 -12z" />
    <glyph glyph-name="Jcircumflex" unicode="&#x134;" horiz-adv-x="361" 
d="M334 844l-53 -93c-4 -7.33301 -9 -11 -15 -11h-18c-8 0 -9.66699 3.66699 -5 11l71 117c4 6.66699 9.33301 10 16 10h17c6 0 10 -3 12 -9l43 -118c2.66699 -7.33301 0.333984 -11 -6.99902 -11h-17c-6.66699 0 -11.334 3.66699 -14.001 11zM54 171l-6.99902 -51
c-0.666992 -6 -1 -13.333 -1 -22c0 -43.333 27.333 -65 82 -65c32.667 0 56.167 7.33301 70.5 22s23.166 36 26.499 64l67 550c0.666992 7.33301 4.66699 11 12 11h26c8 0 11.333 -3.66699 10 -11l-68 -550c-5.33301 -40.667 -18.5 -72 -39.5 -94s-56.833 -33 -107.5 -33
c-84 0 -126 34 -126 102c0 5.33301 0.666992 14 2 26l6 51c0.666992 7.33301 5 11 13 11h25c6.66699 0 9.66699 -3.66699 9 -11z" />
    <glyph glyph-name="jcircumflex" unicode="&#x135;" horiz-adv-x="167" 
d="M128 674l-53.001 -93c-4 -7.33301 -9 -11 -15 -11h-18c-8 0 -9.66699 3.66699 -5 11l71 117c4 6.66699 9.33301 10 16 10h17c6 0 10 -3 12 -9l43 -118c2.66699 -7.33301 0.333984 -11 -6.99902 -11h-18c-5.33301 0 -9.33301 3.66699 -12 11zM129.999 481l-70 -571
c-8 -70 -55.333 -105 -142 -105h-5c-7.33301 0 -10.666 3.66699 -9.99902 11l2 18c1.33301 7.33301 5.66602 11 12.999 11h4c56 0 86.667 22.667 92 68l69 568c0.666992 8 5 12 13 12h24c8 0 11.333 -4 10 -12z" />
    <glyph glyph-name="Kcommaaccent" unicode="&#x136;" horiz-adv-x="391" 
d="M184 345l157.001 -334c3.33301 -7.33301 0.666016 -11 -8.00098 -11h-30c-6.66699 0 -11.667 3.66699 -15 11l-146 312h-22l-38 -312c-0.666992 -7.33301 -4.66699 -11 -12 -11h-26c-7.33301 0 -10.666 3.66699 -9.99902 11l81 658c0.666992 7.33301 4.66699 11 12 11h26
c7.33301 0 10.666 -3.66699 9.99902 -11l-38 -308h20l206 309c4.66699 6.66699 10 10 16 10h29c9.33301 0 11.333 -3.66699 6 -11zM145.001 -92l4.00098 32c1.33301 7.33301 5 11 11 11h21c7.33301 0 10.333 -3.66699 9 -11l-4 -33c-4.66699 -36 -22 -72.667 -52 -110
c-4.66699 -4.66699 -9.33398 -5.33398 -14.001 -2.00098l-11 9c-4 2.66699 -4 7.33398 0 14.001c20.667 33.333 32.667 63.333 36 90z" />
    <glyph glyph-name="kcommaaccent" unicode="&#x137;" horiz-adv-x="335" 
d="M60 0h-25.001c-7.33301 0 -10.666 3.66699 -9.99902 11l83 672c0.666992 7.33301 4.66699 11 12 11h26c6 0 8.66699 -3.66699 8 -11l-47 -388h23l152 188c4.66699 6.66699 10.667 10 18 10h27c10 0 12 -4 6 -12l-166 -202l123 -268c2.66699 -7.33301 0 -11 -8 -11h-28
c-6 -0 -10.667 3.33301 -14 10l-113 248h-25l-30 -247c-0.666992 -7.33301 -4.66699 -11 -12 -11zM118.999 -92l4.00098 32c1.33301 7.33301 5 11 11 11h21c7.33301 0 10.333 -3.66699 9 -11l-4 -33c-4.66699 -36 -22 -72.667 -52 -110
c-4.66699 -4.66699 -9.33398 -5.33398 -14.001 -2.00098l-11 9c-4 2.66699 -4 7.33398 0 14.001c20.667 33.333 32.667 63.333 36 90z" />
    <glyph glyph-name="kgreenlandic" unicode="&#x138;" horiz-adv-x="334" 
d="M60 0h-25c-7.33301 0 -10.666 3.66699 -9.99902 11l58 471c1.33301 7.33301 5.66602 11 12.999 11h24c8 0 11.333 -3.66699 10 -11l-23 -187h21l151 187c5.33301 7.33301 11.333 11 18 11h28c9.33301 0 11 -4 5 -12l-165 -203l126 -267c2.66699 -7.33301 0 -11 -8 -11
h-27c-6.66699 0 -12 3.66699 -16 11l-116 247h-22l-30 -247c-0.666992 -7.33301 -4.66699 -11 -12 -11z" />
    <glyph glyph-name="Lacute" unicode="&#x139;" horiz-adv-x="342" 
d="M242 867l-73 -120c-3.33301 -4.66699 -7.66602 -7 -12.999 -7h-22c-6 0 -7.33301 3.33301 -4 10l65 119c3.33301 6 8.33301 9 15 9h28c7.33301 0 8.66602 -3.66699 3.99902 -11zM163 669l-77.9971 -628h203c7.33301 0 10.666 -3.66699 9.99902 -11l-3 -19
c-0.666992 -7.33301 -4.33398 -11 -11.001 -11h-241c-6.66699 0 -9.33398 3.66699 -8.00098 11l80 658c0.666992 7.33301 4.66699 11 12 11h27c6.66699 0 9.66699 -3.66699 9 -11z" />
    <glyph glyph-name="lacute" unicode="&#x13a;" horiz-adv-x="167" 
d="M233 867l-73 -120c-3.33301 -4.66699 -7.66602 -7 -12.999 -7h-22c-6 0 -7.33301 3.33301 -4 10l65 119c2.66699 6 7.66699 9 15 9h28c7.33301 0 8.66602 -3.66699 3.99902 -11zM154 683l-82.001 -672c-0.666992 -7.33301 -4.66699 -11 -12 -11h-25
c-7.33301 0 -10.666 3.66699 -9.99902 11l83 672c0.666992 7.33301 4.66699 11 12 11h25c6.66699 0 9.66699 -3.66699 9 -11z" />
    <glyph glyph-name="Lcommaaccent" unicode="&#x13b;" horiz-adv-x="342" 
d="M163 669l-77.9971 -628h203c7.33301 0 10.666 -3.66699 9.99902 -11l-3 -19c-0.666992 -7.33301 -4.33398 -11 -11.001 -11h-241c-6.66699 0 -9.33398 3.66699 -8.00098 11l80 658c0.666992 7.33301 4.66699 11 12 11h27c6.66699 0 9.66699 -3.66699 9 -11zM137.003 -92
l4.00098 32c1.33301 7.33301 5 11 11 11h21c7.33301 0 10.333 -3.66699 9 -11l-4 -33c-4.66699 -36 -22 -72.667 -52 -110c-4.66699 -4.66699 -9.33398 -5.33398 -14.001 -2.00098l-11 9c-4 2.66699 -4 7.33398 0 14.001c20.667 33.333 32.667 63.333 36 90z" />
    <glyph glyph-name="lcommaaccent" unicode="&#x13c;" horiz-adv-x="167" 
d="M154 683l-82.001 -672c-0.666992 -7.33301 -4.66699 -11 -12 -11h-25c-7.33301 0 -10.666 3.66699 -9.99902 11l83 672c0.666992 7.33301 4.66699 11 12 11h25c6.66699 0 9.66699 -3.66699 9 -11zM16.999 -93l4.00098 32c1.33301 7.33301 5 11 11 11h21
c7.33301 0 10.333 -3.66699 9 -11l-4 -33c-4.66699 -36 -22 -72.667 -52 -110c-4.66699 -4.66699 -9.33398 -5.33398 -14.001 -2.00098l-11 9c-4 2.66699 -4 7.33398 0 14.001c20.667 33.333 32.667 63.333 36 90z" />
    <glyph glyph-name="Lcaron" unicode="&#x13d;" horiz-adv-x="345" 
d="M281 653l4.00098 32c1.33301 7.33301 5 11 11 11h21c7.33301 0 10.333 -3.66699 9 -11l-4 -33c-4.66699 -36 -22 -72.667 -52 -110c-4.66699 -4.66699 -9.33398 -5.33398 -14.001 -2.00098l-11 9c-4 2.66699 -4 7.33398 0 14.001c20.667 33.333 32.667 63.333 36 90z
M163.001 669l-77.9971 -628h203c7.33301 0 10.666 -3.66699 9.99902 -11l-3 -19c-0.666992 -7.33301 -4.33398 -11 -11.001 -11h-241c-6.66699 0 -9.33398 3.66699 -8.00098 11l80 658c0.666992 7.33301 4.66699 11 12 11h27c6.66699 0 9.66699 -3.66699 9 -11z" />
    <glyph glyph-name="lcaron" unicode="&#x13e;" horiz-adv-x="177" 
d="M215 668l4.00098 32c1.33301 7.33301 5 11 11 11h21c7.33301 0 10.333 -3.66699 9 -11l-4 -33c-4.66699 -36 -22 -72.667 -52 -110c-4.66699 -4.66699 -9.33398 -5.33398 -14.001 -2.00098l-11 9c-4 2.66699 -4 7.33398 0 14.001c20.667 33.333 32.667 63.333 36 90z
M154.001 683l-82.001 -672c-0.666992 -7.33301 -4.66699 -11 -12 -11h-25c-7.33301 0 -10.666 3.66699 -9.99902 11l83 672c0.666992 7.33301 4.66699 11 12 11h25c6.66699 0 9.66699 -3.66699 9 -11z" />
    <glyph glyph-name="Ldot" unicode="&#x13f;" horiz-adv-x="350" 
d="M163 669l-77.9971 -628h203c7.33301 0 10.666 -3.66699 9.99902 -11l-3 -19c-0.666992 -7.33301 -4.33398 -11 -11.001 -11h-241c-6.66699 0 -9.33398 3.66699 -8.00098 11l80 658c0.666992 7.33301 4.66699 11 12 11h27c6.66699 0 9.66699 -3.66699 9 -11zM308.003 393
l-8.99902 -77c-0.666992 -7.33301 -4.66699 -11 -12 -11h-26c-6.66699 0 -9.66699 3.66699 -9 11l9 77c1.33301 7.33301 5.66602 11 12.999 11h25c7.33301 0 10.333 -3.66699 9 -11z" />
    <glyph glyph-name="ldot" unicode="&#x140;" horiz-adv-x="198" 
d="M154 683l-82.001 -672c-0.666992 -7.33301 -4.66699 -11 -12 -11h-25c-7.33301 0 -10.666 3.66699 -9.99902 11l83 672c0.666992 7.33301 4.66699 11 12 11h25c6.66699 0 9.66699 -3.66699 9 -11zM217.999 393l-8.99902 -77c-0.666992 -7.33301 -4.66699 -11 -12 -11h-26
c-6.66699 0 -9.66699 3.66699 -9 11l9 77c1.33301 7.33301 5.66602 11 12.999 11h25c7.33301 0 10.333 -3.66699 9 -11z" />
    <glyph glyph-name="Lslash" unicode="&#x141;" horiz-adv-x="348" 
d="M291 0l-240.998 -0.000976562c-6.66699 0 -9.33398 3.66699 -8.00098 11l36 299l-46 -23c-5.33301 -2.66699 -9.66602 -1 -12.999 5l-5 10c-3.33301 5.33301 -0.666016 10.333 8.00098 15l61 29l39 323c0.666992 7.33301 4.66699 11 12 11h27
c6.66699 0 9.66699 -3.66699 9 -11l-37 -299l51 25c7.33301 4 11.666 2.33301 12.999 -5l3 -12c2 -5.33301 -0.666992 -9.66602 -8 -12.999l-64 -31l-36 -293h203c7.33301 0 10.666 -3.66699 9.99902 -11l-3 -19c-0.666992 -7.33301 -4.33398 -11 -11.001 -11z" />
    <glyph glyph-name="lslash" unicode="&#x142;" horiz-adv-x="189" 
d="M70 0l-25.001 -0.00195312c-7.33301 0 -10.666 3.66699 -9.99902 11l37 297l-41 -21c-6 -3.33301 -10.333 -1.66602 -13 5.00098l-4 10c-2 6 0.333008 11 7 15l55 28l42 338c0.666992 7.33301 4.66699 11 12 11h25c6.66699 0 9.66699 -3.66699 9 -11l-38 -313l46 24
c6.66699 3.33301 11 2 13 -4l3 -12c2 -5.33301 -0.666992 -9.66602 -8 -12.999l-59 -31l-39 -323c-0.666992 -7.33301 -4.66699 -11 -12 -11z" />
    <glyph glyph-name="Nacute" unicode="&#x143;" horiz-adv-x="446" 
d="M374 867l-73 -120c-3.33301 -4.66699 -7.66602 -7 -12.999 -7h-22c-6 0 -7.33301 3.33301 -4 10l65 119c3.33301 6 8.33301 9 15 9h28c7.33301 0 8.66602 -3.66699 3.99902 -11zM422 669l-81 -658.001c-0.666992 -7.33301 -4.33398 -11 -11.001 -11h-24
c-5.33301 0 -9 2.66699 -11 8l-135 492c-5.33301 18.667 -10 41.334 -14 68.001l-69 -557c-0.666992 -7.33301 -4.33398 -11 -11.001 -11h-22c-7.33301 0 -10.666 3.66699 -9.99902 11l81 658c0.666992 7.33301 4.66699 11 12 11h24c5.33301 0 8.33301 -2.33301 9 -7
l137 -498c6.66699 -26 11.334 -46.667 14.001 -62l69 556c0.666992 7.33301 4.66699 11 12 11h21c6.66699 0 9.66699 -3.66699 9 -11z" />
    <glyph glyph-name="nacute" unicode="&#x144;" horiz-adv-x="384" 
d="M325 697l-71.999 -119c-2.66699 -5.33301 -6.66699 -8 -12 -8h-23c-6.66699 0 -8.33398 3.33301 -5.00098 10l66 119c3.33301 6 8 9 14 9h28c6.66699 0 8 -3.66699 4 -11zM95.001 493l22 0.000976562c6.66699 0 10 -3.66699 10 -11l-2 -30c38 32.667 79.667 49 125 49
c29.333 0 51.666 -7.33301 66.999 -22s23 -34.334 23 -59.001c0 -4.66699 -0.333008 -10 -1 -16l-48 -393c-0.666992 -7.33301 -5 -11 -13 -11h-24c-6.66699 0 -9.66699 3.66699 -9 11l47 381c0.666992 6 1 11 1 15c0 34 -20 51 -60 51c-38 0 -75.333 -15 -112 -45l-49 -402
c-0.666992 -7.33301 -4.66699 -11 -12 -11h-25c-7.33301 0 -10.666 3.66699 -9.99902 11l58 471c0.666992 7.33301 4.66699 11 12 11z" />
    <glyph glyph-name="Ncommaaccent" unicode="&#x145;" horiz-adv-x="446" 
d="M422 669l-81 -658.001c-0.666992 -7.33301 -4.33398 -11 -11.001 -11h-24c-5.33301 0 -9 2.66699 -11 8l-135 492c-5.33301 18.667 -10 41.334 -14 68.001l-69 -557c-0.666992 -7.33301 -4.33398 -11 -11.001 -11h-22c-7.33301 0 -10.666 3.66699 -9.99902 11l81 658
c0.666992 7.33301 4.66699 11 12 11h24c5.33301 0 8.33301 -2.33301 9 -7l137 -498c6.66699 -26 11.334 -46.667 14.001 -62l69 556c0.666992 7.33301 4.66699 11 12 11h21c6.66699 0 9.66699 -3.66699 9 -11zM168 -93.001l4.00098 32c1.33301 7.33301 5 11 11 11h21
c7.33301 0 10.333 -3.66699 9 -11l-4 -33c-4.66699 -36 -22 -72.667 -52 -110c-4.66699 -4.66699 -9.33398 -5.33398 -14.001 -2.00098l-11 9c-4 2.66699 -4 7.33398 0 14.001c20.667 33.333 32.667 63.333 36 90z" />
    <glyph glyph-name="ncommaaccent" unicode="&#x146;" horiz-adv-x="384" 
d="M95 493l22 0.000976562c6.66699 0 10 -3.66699 10 -11l-2 -30c38 32.667 79.667 49 125 49c29.333 0 51.666 -7.33301 66.999 -22s23 -34.334 23 -59.001c0 -4.66699 -0.333008 -10 -1 -16l-48 -393c-0.666992 -7.33301 -5 -11 -13 -11h-24
c-6.66699 0 -9.66699 3.66699 -9 11l47 381c0.666992 6 1 11 1 15c0 34 -20 51 -60 51c-38 0 -75.333 -15 -112 -45l-49 -402c-0.666992 -7.33301 -4.66699 -11 -12 -11h-25c-7.33301 0 -10.666 3.66699 -9.99902 11l58 471c0.666992 7.33301 4.66699 11 12 11zM131 -91.999
l4.00098 32c1.33301 7.33301 5 11 11 11h21c7.33301 0 10.333 -3.66699 9 -11l-4 -33c-4.66699 -36 -22 -72.667 -52 -110c-4.66699 -4.66699 -9.33398 -5.33398 -14.001 -2.00098l-11 9c-4 2.66699 -4 7.33398 0 14.001c20.667 33.333 32.667 63.333 36 90z" />
    <glyph glyph-name="Ncaron" unicode="&#x147;" horiz-adv-x="446" 
d="M253 867l30.001 -92l54 92c4 7.33301 9 11 15 11h18c7.33301 0 8.66602 -3.66699 3.99902 -11l-71 -118c-4 -6 -9.33301 -9 -16 -9h-16c-6.66699 0 -11 3.33301 -13 10l-43 117c-2.66699 7.33301 0 11 8 11h18c6 0 10 -3.66699 12 -11zM422.001 669l-81 -658.001
c-0.666992 -7.33301 -4.33398 -11 -11.001 -11h-24c-5.33301 0 -9 2.66699 -11 8l-135 492c-5.33301 18.667 -10 41.334 -14 68.001l-69 -557c-0.666992 -7.33301 -4.33398 -11 -11.001 -11h-22c-7.33301 0 -10.666 3.66699 -9.99902 11l81 658
c0.666992 7.33301 4.66699 11 12 11h24c5.33301 0 8.33301 -2.33301 9 -7l137 -498c6.66699 -26 11.334 -46.667 14.001 -62l69 556c0.666992 7.33301 4.66699 11 12 11h21c6.66699 0 9.66699 -3.66699 9 -11z" />
    <glyph glyph-name="ncaron" unicode="&#x148;" horiz-adv-x="384" 
d="M198 697l30.001 -92l54 92c4.66699 7.33301 9.66699 11 15 11h19c6 0 7 -3.66699 3 -11l-71 -118c-2.66699 -6 -8 -9 -16 -9h-15c-7.33301 0 -12 3.33301 -14 10l-42 117c-2.66699 7.33301 -0.333984 11 6.99902 11h18c6 0 10 -3.66699 12 -11zM95.001 493
l22 0.000976562c6.66699 0 10 -3.66699 10 -11l-2 -30c38 32.667 79.667 49 125 49c29.333 0 51.666 -7.33301 66.999 -22s23 -34.334 23 -59.001c0 -4.66699 -0.333008 -10 -1 -16l-48 -393c-0.666992 -7.33301 -5 -11 -13 -11h-24c-6.66699 0 -9.66699 3.66699 -9 11
l47 381c0.666992 6 1 11 1 15c0 34 -20 51 -60 51c-38 0 -75.333 -15 -112 -45l-49 -402c-0.666992 -7.33301 -4.66699 -11 -12 -11h-25c-7.33301 0 -10.666 3.66699 -9.99902 11l58 471c0.666992 7.33301 4.66699 11 12 11z" />
    <glyph glyph-name="napostrophe" unicode="&#x149;" horiz-adv-x="384" 
d="M98 668l4.00098 32c1.33301 7.33301 5 11 11 11h21c7.33301 0 10.333 -3.66699 9 -11l-4 -33c-4.66699 -36 -22 -72.667 -52 -110c-4.66699 -4.66699 -9.33398 -5.33398 -14.001 -2.00098l-11 9c-4 2.66699 -4 7.33398 0 14.001c20.667 33.333 32.667 63.333 36 90z
M95.001 493l22 0.000976562c6.66699 0 10 -3.66699 10 -11l-2 -30c38 32.667 79.667 49 125 49c29.333 0 51.666 -7.33301 66.999 -22s23 -34.334 23 -59.001c0 -4.66699 -0.333008 -10 -1 -16l-48 -393c-0.666992 -7.33301 -5 -11 -13 -11h-24
c-6.66699 0 -9.66699 3.66699 -9 11l47 381c0.666992 6 1 11 1 15c0 34 -20 51 -60 51c-38 0 -75.333 -15 -112 -45l-49 -402c-0.666992 -7.33301 -4.66699 -11 -12 -11h-25c-7.33301 0 -10.666 3.66699 -9.99902 11l58 471c0.666992 7.33301 4.66699 11 12 11z" />
    <glyph glyph-name="Eng" unicode="&#x14a;" horiz-adv-x="445" 
d="M422 669l-93.001 -755.001c-8.66699 -72.667 -59 -109 -151 -109h-5c-7.33301 0 -10.666 3.66699 -9.99902 11l2 17c0.666992 7.33301 4.66699 11 12 11h5c63.333 0 98.333 24.667 105 74l11 87l-138 495c-4 13.333 -8.66699 36 -14 68l-69 -557
c-0.666992 -7.33301 -4.33398 -11 -11.001 -11h-22c-7.33301 0 -10.666 3.66699 -9.99902 11l81 658c0.666992 7.33301 4.66699 11 12 11h24c5.33301 0 8.33301 -2 9 -6l137 -499c6 -21.333 10.667 -41.666 14 -60.999l69 555c0.666992 7.33301 4.66699 11 12 11h21
c6.66699 0 9.66699 -3.66699 9 -11z" />
    <glyph glyph-name="eng" unicode="&#x14b;" horiz-adv-x="384" 
d="M340 420c0 -2.66699 -0.669922 -9.33301 -2.00293 -20l-60 -490c-4 -33.333 -17 -59.166 -39 -77.499s-56.333 -27.5 -103 -27.5h-5c-7.33301 0 -10.666 3.66699 -9.99902 11l2 18c1.33301 7.33301 5.33301 11 12 11h5c56 0 86.667 22 92 66l59 478
c1.33301 10.667 2 17 2 19c0 34 -20 51 -60 51c-39.333 0 -76.666 -15.333 -111.999 -46l-49 -402c-0.666992 -7.33301 -5 -11 -13 -11h-24c-7.33301 0 -10.666 3.66699 -9.99902 11l58 471c1.33301 7.33301 5.33301 11 12 11h22c6.66699 0 10 -3.66699 10 -11l-2 -30
c38 32.667 79.333 49 124 49c29.333 0 51.833 -7.33301 67.5 -22s23.5 -34.334 23.5 -59.001z" />
    <glyph glyph-name="Omacron" unicode="&#x14c;" horiz-adv-x="427" 
d="M187 818h181c7.33301 0 10.666 -3.33301 9.99902 -10l-2 -16c-0.666992 -7.33301 -5 -11 -13 -11h-180c-7.33301 0 -10.666 3.66699 -9.99902 11l2 15c0.666992 7.33301 4.66699 11 12 11zM39 120l55 441c5.33301 40 20.166 71.167 44.499 93.5s63.833 33.5 118.5 33.5
c49.333 0 85.5 -9.66699 108.5 -29s34.5 -45 34.5 -77c0 -6.66699 -0.333008 -14 -1 -22l-55 -441c-5.33301 -40 -20.166 -71.167 -44.499 -93.5s-63.833 -33.5 -118.5 -33.5c-95.333 0 -143 35.333 -143 106c0 8.66699 0.333008 16 1 22zM297 120l54 437.999
c0.666992 6 1 12.333 1 19c0 46.667 -32.667 70 -98 70c-68.667 0 -106.334 -29 -113.001 -87l-54 -438c-0.666992 -5.33301 -1 -11.666 -1 -18.999c0 -46.667 32.667 -70 98 -70c68.667 0 106.334 29 113.001 87z" />
    <glyph glyph-name="omacron" unicode="&#x14d;" horiz-adv-x="372" 
d="M139 644h180.001c7.33301 0 10.666 -3.66699 9.99902 -11l-2 -16c-1.33301 -7.33301 -5.33301 -11 -12 -11h-181c-8 0 -11.333 3.66699 -10 11l2 16c0.666992 7.33301 5 11 13 11zM30.001 104l35.001 284.001c8.66699 75.333 56 113 142 113c82.667 0 124 -31 124 -93
c0 -6 -0.333008 -12.667 -1 -20l-35 -284c-4.66699 -36 -17.834 -63.667 -39.501 -83s-56.167 -29 -103.5 -29c-82 0 -123 31 -123 93c0 5.33301 0.333008 11.666 1 18.999zM249.002 104.001l35 284c0.666992 6 1 11.333 1 16c0 38.667 -27 58 -81 58
c-56 0 -87 -24.333 -93 -73l-35 -284c-0.666992 -6 -1 -11.333 -1 -16c0 -38.667 27 -58 81 -58c56.667 0 87.667 24.333 93 73z" />
    <glyph glyph-name="Obreve" unicode="&#x14e;" horiz-adv-x="427" 
d="M233 870l-2.99902 -24c-1.33301 -12 -2 -20 -2 -24c0 -30 16 -45 48 -45c20 0 34.167 6 42.5 18s13.5 29.667 15.5 53l2 22c0.666992 6.66699 4.33398 10 11.001 10h16c7.33301 0 10.666 -3.33301 9.99902 -10l-2 -21c-3.33301 -34 -12.333 -59.833 -27 -77.5
s-38.334 -26.5 -71.001 -26.5c-54 0 -81 25.333 -81 76c0 2 0.666992 10.333 2 25l2 24c0.666992 6.66699 4.33398 10 11.001 10h16c7.33301 0 10.666 -3.33301 9.99902 -10zM39.001 120l55 441c5.33301 40 20.166 71.167 44.499 93.5s63.833 33.5 118.5 33.5
c49.333 0 85.5 -9.66699 108.5 -29s34.5 -45 34.5 -77c0 -6.66699 -0.333008 -14 -1 -22l-55 -441c-5.33301 -40 -20.166 -71.167 -44.499 -93.5s-63.833 -33.5 -118.5 -33.5c-95.333 0 -143 35.333 -143 106c0 8.66699 0.333008 16 1 22zM297.001 120l54 437.999
c0.666992 6 1 12.333 1 19c0 46.667 -32.667 70 -98 70c-68.667 0 -106.334 -29 -113.001 -87l-54 -438c-0.666992 -5.33301 -1 -11.666 -1 -18.999c0 -46.667 32.667 -70 98 -70c68.667 0 106.334 29 113.001 87z" />
    <glyph glyph-name="obreve" unicode="&#x14f;" horiz-adv-x="372" 
d="M182 683l-3 -24c-1.33301 -12 -2 -20 -2 -24c0 -30 16 -45 48 -45c20 0 34.167 6 42.5 18s13.5 29.667 15.5 53l2 22c0.666992 6.66699 4.33398 10 11.001 10h16c7.33301 0 10.666 -3.33301 9.99902 -10l-3 -21c-5.33301 -34.667 -14.833 -60.667 -28.5 -78
s-36.5 -26 -68.5 -26c-54 0 -81 25.333 -81 76c0 2 0.666992 10.333 2 25l2 24c0.666992 6.66699 4.33398 10 11.001 10h16c7.33301 0 10.666 -3.33301 9.99902 -10zM30 104l35.001 284.001c8.66699 75.333 56 113 142 113c82.667 0 124 -31 124 -93
c0 -6 -0.333008 -12.667 -1 -20l-35 -284c-4.66699 -36 -17.834 -63.667 -39.501 -83s-56.167 -29 -103.5 -29c-82 0 -123 31 -123 93c0 5.33301 0.333008 11.666 1 18.999zM249.001 104.001l35 284c0.666992 6 1 11.333 1 16c0 38.667 -27 58 -81 58
c-56 0 -87 -24.333 -93 -73l-35 -284c-0.666992 -6 -1 -11.333 -1 -16c0 -38.667 27 -58 81 -58c56.667 0 87.667 24.333 93 73z" />
    <glyph glyph-name="Ohungarumlaut" unicode="&#x150;" horiz-adv-x="427" 
d="M319 867l-66.999 -118c-2.66699 -6 -7.33398 -9 -14.001 -9h-20c-6 0 -7.33301 3.33301 -4 10l62 118c4 6.66699 9 10 15 10h23c8 0 9.66699 -3.66699 5 -11zM402.001 867l-78 -118c-4.66699 -6 -10 -9 -16 -9h-19c-7.33301 0 -8.66602 3.33301 -3.99902 10l74 118
c4 6.66699 9.66699 10 17 10h22c7.33301 0 8.66602 -3.66699 3.99902 -11zM39.001 120l55 441c5.33301 40 20.166 71.167 44.499 93.5s63.833 33.5 118.5 33.5c49.333 0 85.5 -9.66699 108.5 -29s34.5 -45 34.5 -77c0 -6.66699 -0.333008 -14 -1 -22l-55 -441
c-5.33301 -40 -20.166 -71.167 -44.499 -93.5s-63.833 -33.5 -118.5 -33.5c-95.333 0 -143 35.333 -143 106c0 8.66699 0.333008 16 1 22zM297.001 120l54 437.999c0.666992 6 1 12.333 1 19c0 46.667 -32.667 70 -98 70c-68.667 0 -106.334 -29 -113.001 -87l-54 -438
c-0.666992 -5.33301 -1 -11.666 -1 -18.999c0 -46.667 32.667 -70 98 -70c68.667 0 106.334 29 113.001 87z" />
    <glyph glyph-name="ohungarumlaut" unicode="&#x151;" horiz-adv-x="372" 
d="M270 697l-65.999 -118c-2.66699 -6 -7.66699 -9 -15 -9h-20c-6 0 -7.33301 3.33301 -4 10l62 118c4 6.66699 9.33301 10 16 10h23c7.33301 0 8.66602 -3.66699 3.99902 -11zM354.001 697l-79 -118c-3.33301 -6 -8.33301 -9 -15 -9h-20c-6.66699 0 -7.66699 3.33301 -3 10
l73 118c4 6.66699 9.66699 10 17 10h22c8 0 9.66699 -3.66699 5 -11zM30.001 104l35.001 284.001c8.66699 75.333 56 113 142 113c82.667 0 124 -31 124 -93c0 -6 -0.333008 -12.667 -1 -20l-35 -284c-4.66699 -36 -17.834 -63.667 -39.501 -83s-56.167 -29 -103.5 -29
c-82 0 -123 31 -123 93c0 5.33301 0.333008 11.666 1 18.999zM249.002 104.001l35 284c0.666992 6 1 11.333 1 16c0 38.667 -27 58 -81 58c-56 0 -87 -24.333 -93 -73l-35 -284c-0.666992 -6 -1 -11.333 -1 -16c0 -38.667 27 -58 81 -58c56.667 0 87.667 24.333 93 73z" />
    <glyph glyph-name="OE" unicode="&#x152;" horiz-adv-x="626" 
d="M184 33c68.667 0 106.334 28.667 113.001 86l54 443c0.666992 6 1 11.333 1 16c0 46 -32.667 69 -98 69c-68.667 0 -106.334 -29 -113.001 -87l-54 -437c-0.666992 -5.33301 -1 -12.333 -1 -21c0 -46 32.667 -69 98 -69zM284 11l2.00488 16c-28 -23.333 -65 -35 -111 -35
c-91.333 0 -137 35 -137 105c0 2.66699 0.666992 10.667 2 24l54 440c5.33301 40 19.833 71.167 43.5 93.5s62.167 33.5 115.5 33.5c51.333 0 87.666 -12.333 108.999 -37l2 18c0.666992 7.33301 4.66699 11 12 11h242c7.33301 0 10.666 -3.66699 9.99902 -11l-2 -19
c-0.666992 -7.33301 -4.33398 -11 -11.001 -11h-207l-31 -261h191c7.33301 0 10.666 -3.66699 9.99902 -11l-2 -18c-1.33301 -7.33301 -5.33301 -11 -12 -11h-193l-37 -297h215c7.33301 0 10.666 -3.66699 9.99902 -11l-2 -19c-0.666992 -7.33301 -4.66699 -11 -12 -11h-252
c-6.66699 0 -9.66699 3.66699 -9 11z" />
    <glyph glyph-name="oe" unicode="&#x153;" horiz-adv-x="581" 
d="M370 -8c-55.333 0 -91.3301 14.333 -107.997 43c-21.333 -28.667 -59 -43 -113 -43c-80 0 -120 31 -120 93c0 6.66699 0.333008 13 1 19l35 284c8.66699 75.333 55.667 113 141 113c55.333 0 91 -15.333 107 -46c22 30.667 60 46 114 46c79.333 0 119 -30 119 -90
c0 -7.33301 -0.333008 -14.333 -1 -21l-17 -135c-1.33301 -7.33301 -5 -11 -11 -11h-205l-19 -143c-0.666992 -5.33301 -1 -10.333 -1 -15c0 -37.333 26.667 -56 80 -56c57.333 0 88.333 23 93 69l4 39c1.33301 7.33301 5.66602 11 12.999 11h21
c7.33301 0 10.666 -3.66699 9.99902 -11l-5 -36c-4.66699 -35.333 -17.334 -62.5 -38.001 -81.5s-54 -28.5 -100 -28.5zM487.003 280l14 112c0.666992 6 1 10.667 1 14c0 38 -26.667 57 -80 57c-55.333 0 -86 -23.333 -92 -70l-14 -113h171zM249.003 104l34.001 275.999
c1.33301 10.667 2 18.667 2 24c0 38.667 -27 58 -81 58c-56 0 -87 -24 -93 -72l-35 -285c-0.666992 -5.33301 -1 -10.666 -1 -15.999c0 -38.667 26.667 -58 80 -58c57.333 0 88.666 24.333 93.999 73z" />
    <glyph glyph-name="Racute" unicode="&#x154;" horiz-adv-x="425" 
d="M351 867l-73 -120c-3.33301 -4.66699 -7.66602 -7 -12.999 -7h-22c-6 0 -7.33301 3.33301 -4 10l65 119c2.66699 6 7.66699 9 15 9h28c7.33301 0 8.66602 -3.66699 3.99902 -11zM259 639h-100l-39 -315h105c69.333 0 107.333 28.333 114 85l18 140
c0.666992 7.33301 1 13.333 1 18c0 48 -33 72 -99 72zM82 11c-0.666992 -7.33301 -4.66699 -10.999 -12 -10.999h-26c-6.66699 0 -9.66699 3.66699 -9 11l80 658c0.666992 7.33301 4.66699 11 12 11h135c49.333 0 85.5 -9.83301 108.5 -29.5s34.5 -45.834 34.5 -78.501
c0 -6.66699 -0.333008 -13.667 -1 -21l-18 -143c-8 -65.333 -42.667 -105 -104 -119l63 -278c2 -7.33301 -1.66699 -11 -11 -11h-27c-6 0 -10 3.66699 -12 11l-60 272h-120z" />
    <glyph glyph-name="racute" unicode="&#x155;" horiz-adv-x="250" 
d="M259 697l-71.999 -119c-2.66699 -5.33301 -6.66699 -8 -12 -8h-23c-6.66699 0 -8.33398 3.33301 -5.00098 10l66 119c3.33301 6 8 9 14 9h28c6.66699 0 8 -3.66699 4 -11zM249.001 500c7.33301 0 10.667 -3.66602 10 -10.999l-2 -21
c-0.666992 -7.33301 -5.33398 -11 -14.001 -11c-43.333 -2.66699 -84.333 -22.334 -123 -59.001l-48 -387c-0.666992 -7.33301 -4.66699 -11 -12 -11h-25c-7.33301 0 -10.666 3.66699 -9.99902 11l58 471c1.33301 7.33301 5.33301 11 12 11h22c6.66699 0 10 -3.66699 10 -11
l-3 -43c14 14.667 32.5 28.5 55.5 41.5s46.167 19.5 69.5 19.5z" />
    <glyph glyph-name="Rcommaaccent" unicode="&#x156;" horiz-adv-x="425" 
d="M259 639h-100l-39 -315h105c69.333 0 107.333 28.333 114 85l18 140c0.666992 7.33301 1 13.333 1 18c0 48 -33 72 -99 72zM82 11c-0.666992 -7.33301 -4.66699 -10.999 -12 -10.999h-26c-6.66699 0 -9.66699 3.66699 -9 11l80 658c0.666992 7.33301 4.66699 11 12 11
h135c49.333 0 85.5 -9.83301 108.5 -29.5s34.5 -45.834 34.5 -78.501c0 -6.66699 -0.333008 -13.667 -1 -21l-18 -143c-8 -65.333 -42.667 -105 -104 -119l63 -278c2 -7.33301 -1.66699 -11 -11 -11h-27c-6 0 -10 3.66699 -12 11l-60 272h-120zM156 -91.999l4.00098 32
c1.33301 7.33301 5 11 11 11h21c7.33301 0 10.333 -3.66699 9 -11l-4 -33c-4.66699 -36 -22 -72.667 -52 -110c-4.66699 -4.66699 -9.33398 -5.33398 -14.001 -2.00098l-11 9c-4 2.66699 -4 7.33398 0 14.001c20.667 33.333 32.667 63.333 36 90z" />
    <glyph glyph-name="rcommaaccent" unicode="&#x157;" horiz-adv-x="250" 
d="M249 500c7.33301 0 10.667 -3.66602 10 -10.999l-2 -21c-0.666992 -7.33301 -5.33398 -11 -14.001 -11c-43.333 -2.66699 -84.333 -22.334 -123 -59.001l-48 -387c-0.666992 -7.33301 -4.66699 -11 -12 -11h-25c-7.33301 0 -10.666 3.66699 -9.99902 11l58 471
c1.33301 7.33301 5.33301 11 12 11h22c6.66699 0 10 -3.66699 10 -11l-3 -43c14 14.667 32.5 28.5 55.5 41.5s46.167 19.5 69.5 19.5zM18.001 -91.999l4.00098 32c1.33301 7.33301 5 11 11 11h21c7.33301 0 10.333 -3.66699 9 -11l-4 -33c-4.66699 -36 -22 -72.667 -52 -110
c-4.66699 -4.66699 -9.33398 -5.33398 -14.001 -2.00098l-11 9c-4 2.66699 -4 7.33398 0 14.001c20.667 33.333 32.667 63.333 36 90z" />
    <glyph glyph-name="Rcaron" unicode="&#x158;" horiz-adv-x="425" 
d="M227 867l30.001 -92l54 92c4 7.33301 9 11 15 11h18c7.33301 0 8.66602 -3.66699 3.99902 -11l-71 -118c-4 -6 -9.33301 -9 -16 -9h-16c-6.66699 0 -11 3.33301 -13 10l-43 117c-2.66699 7.33301 0 11 8 11h18c6 0 10 -3.66699 12 -11zM259.001 639h-100l-39 -315h105
c69.333 0 107.333 28.333 114 85l18 140c0.666992 7.33301 1 13.333 1 18c0 48 -33 72 -99 72zM82.001 11c-0.666992 -7.33301 -4.66699 -10.999 -12 -10.999h-26c-6.66699 0 -9.66699 3.66699 -9 11l80 658c0.666992 7.33301 4.66699 11 12 11h135
c49.333 0 85.5 -9.83301 108.5 -29.5s34.5 -45.834 34.5 -78.501c0 -6.66699 -0.333008 -13.667 -1 -21l-18 -143c-8 -65.333 -42.667 -105 -104 -119l63 -278c2 -7.33301 -1.66699 -11 -11 -11h-27c-6 0 -10 3.66699 -12 11l-60 272h-120z" />
    <glyph glyph-name="rcaron" unicode="&#x159;" horiz-adv-x="250" 
d="M138 697l30.001 -92l54 92c4.66699 7.33301 9.66699 11 15 11h19c6 0 7 -3.66699 3 -11l-71 -118c-2.66699 -6 -8 -9 -16 -9h-15c-7.33301 0 -12 3.33301 -14 10l-42 117c-2.66699 7.33301 -0.333984 11 6.99902 11h18c6 0 10 -3.66699 12 -11zM249.001 500
c7.33301 0 10.667 -3.66602 10 -10.999l-2 -21c-0.666992 -7.33301 -5.33398 -11 -14.001 -11c-43.333 -2.66699 -84.333 -22.334 -123 -59.001l-48 -387c-0.666992 -7.33301 -4.66699 -11 -12 -11h-25c-7.33301 0 -10.666 3.66699 -9.99902 11l58 471
c1.33301 7.33301 5.33301 11 12 11h22c6.66699 0 10 -3.66699 10 -11l-3 -43c14 14.667 32.5 28.5 55.5 41.5s46.167 19.5 69.5 19.5z" />
    <glyph glyph-name="Sacute" unicode="&#x15a;" horiz-adv-x="400" 
d="M339 867l-73 -120c-3.33301 -4.66699 -7.66602 -7 -12.999 -7h-22c-6 0 -7.33301 3.33301 -4 10l65 119c2.66699 6 7.66699 9 15 9h28c7.33301 0 8.66602 -3.66699 3.99902 -11zM327 499l7 60.999c0.666992 8 1 15 1 21c0 44.667 -31 67 -93 67
c-67.333 0 -104.333 -28.667 -111 -86l-7 -58c-0.666992 -5.33301 -1 -12 -1 -20c0 -33.333 14 -58.333 42 -75l112 -66c43.333 -26 65 -61.333 65 -106c0 -6 -0.333008 -12.333 -1 -19l-11 -99c-9.33301 -84.667 -64 -127 -164 -127c-94 0 -141 35 -141 105
c0 8 0.333008 15.667 1 23l8 63c1.33301 8 5.33301 12 12 12h25c7.33301 0 10.333 -4 9 -12l-7 -61c-0.666992 -6 -1 -13 -1 -21c0 -46 32 -69 96 -69c70 0 108.333 29 115 87l11 91c0.666992 7.33301 1 12.666 1 15.999c0 32.667 -17.667 59.334 -53 80.001l-109 64
c-38 22.667 -57 57 -57 103c0 9.33301 0.333008 17 1 23l8 65c5.33301 40 19.5 71.167 42.5 93.5s61.833 33.5 116.5 33.5c92 0 138 -34.667 138 -104c0 -11.333 -0.666992 -21.666 -2 -30.999l-7 -54c-0.666992 -7.33301 -4.66699 -11 -12 -11h-25
c-6.66699 0 -9.66699 3.66699 -9 11z" />
    <glyph glyph-name="sacute" unicode="&#x15b;" horiz-adv-x="347" 
d="M296 697l-72 -119c-2.66699 -5.33301 -6.66699 -8 -12 -8h-23c-6.66699 0 -8.33398 3.33301 -5.00098 10l66 119c2.66699 6 7.33398 9 14.001 9h28c6.66699 0 8 -3.66699 4 -11zM263 361l4.99902 39c0.666992 6.66699 1 11.667 1 15c0 33.333 -26.333 50 -79 50
c-52 0 -80.667 -19.667 -86 -59l-5 -40c-0.666992 -7.33301 -1 -13.666 -1 -18.999c0 -21.333 14.667 -39 44 -53l89 -43c37.333 -18 56 -42.333 56 -73c0 -4.66699 -0.333008 -11.334 -1 -20.001l-8 -71c-3.33301 -28 -16.166 -50.833 -38.499 -68.5
s-55.5 -26.5 -99.5 -26.5c-40 0 -70.5 8 -91.5 24s-31.5 36.333 -31.5 61c0 3.33301 0.666992 10.333 2 21l3 29c0.666992 6.66699 4.33398 10 11.001 10h24c6 0 8.66699 -3.33301 8 -10l-4 -35c-0.666992 -6 -1 -10 -1 -12c0 -15.333 7 -27.833 21 -37.5
s34.333 -14.5 61 -14.5c57.333 0 88.333 20.667 93 62l7 60c0.666992 7.33301 1 13 1 17c0 20 -13.667 36.667 -41 50l-89 44c-40 20 -60 47.333 -60 82c0 3.33301 0.333008 8 1 14l6 48c7.33301 64 51.666 96 132.999 96c39.333 0 69 -8 89 -24s30 -36.333 30 -61
c0 -3.33301 -0.333008 -8 -1 -14l-5 -41c-1.33301 -6.66699 -5 -10 -11 -10h-23c-7.33301 0 -10.333 3.33301 -9 10z" />
    <glyph glyph-name="Scircumflex" unicode="&#x15c;" horiz-adv-x="400" 
d="M262 844l-53 -93c-4 -7.33301 -9 -11 -15 -11h-18c-8 0 -9.66699 3.66699 -5 11l71 117c4 6.66699 9.33301 10 16 10h17c6 0 10 -3 12 -9l43 -118c2.66699 -7.33301 0.333984 -11 -6.99902 -11h-17c-6.66699 0 -11.334 3.66699 -14.001 11zM327 499l7 60.999
c0.666992 8 1 15 1 21c0 44.667 -31 67 -93 67c-67.333 0 -104.333 -28.667 -111 -86l-7 -58c-0.666992 -5.33301 -1 -12 -1 -20c0 -33.333 14 -58.333 42 -75l112 -66c43.333 -26 65 -61.333 65 -106c0 -6 -0.333008 -12.333 -1 -19l-11 -99
c-9.33301 -84.667 -64 -127 -164 -127c-94 0 -141 35 -141 105c0 8 0.333008 15.667 1 23l8 63c1.33301 8 5.33301 12 12 12h25c7.33301 0 10.333 -4 9 -12l-7 -61c-0.666992 -6 -1 -13 -1 -21c0 -46 32 -69 96 -69c70 0 108.333 29 115 87l11 91
c0.666992 7.33301 1 12.666 1 15.999c0 32.667 -17.667 59.334 -53 80.001l-109 64c-38 22.667 -57 57 -57 103c0 9.33301 0.333008 17 1 23l8 65c5.33301 40 19.5 71.167 42.5 93.5s61.833 33.5 116.5 33.5c92 0 138 -34.667 138 -104
c0 -11.333 -0.666992 -21.666 -2 -30.999l-7 -54c-0.666992 -7.33301 -4.66699 -11 -12 -11h-25c-6.66699 0 -9.66699 3.66699 -9 11z" />
    <glyph glyph-name="scircumflex" unicode="&#x15d;" horiz-adv-x="347" 
d="M214 674l-53.001 -93c-4 -7.33301 -9 -11 -15 -11h-18c-8 0 -9.66699 3.66699 -5 11l71 117c4 6.66699 9.33301 10 16 10h17c6 0 10 -3 12 -9l43 -118c2.66699 -7.33301 0.333984 -11 -6.99902 -11h-18c-5.33301 0 -9.33301 3.66699 -12 11zM262.999 361l4.99902 39
c0.666992 6.66699 1 11.667 1 15c0 33.333 -26.333 50 -79 50c-52 0 -80.667 -19.667 -86 -59l-5 -40c-0.666992 -7.33301 -1 -13.666 -1 -18.999c0 -21.333 14.667 -39 44 -53l89 -43c37.333 -18 56 -42.333 56 -73c0 -4.66699 -0.333008 -11.334 -1 -20.001l-8 -71
c-3.33301 -28 -16.166 -50.833 -38.499 -68.5s-55.5 -26.5 -99.5 -26.5c-40 0 -70.5 8 -91.5 24s-31.5 36.333 -31.5 61c0 3.33301 0.666992 10.333 2 21l3 29c0.666992 6.66699 4.33398 10 11.001 10h24c6 0 8.66699 -3.33301 8 -10l-4 -35c-0.666992 -6 -1 -10 -1 -12
c0 -15.333 7 -27.833 21 -37.5s34.333 -14.5 61 -14.5c57.333 0 88.333 20.667 93 62l7 60c0.666992 7.33301 1 13 1 17c0 20 -13.667 36.667 -41 50l-89 44c-40 20 -60 47.333 -60 82c0 3.33301 0.333008 8 1 14l6 48c7.33301 64 51.666 96 132.999 96
c39.333 0 69 -8 89 -24s30 -36.333 30 -61c0 -3.33301 -0.333008 -8 -1 -14l-5 -41c-1.33301 -6.66699 -5 -10 -11 -10h-23c-7.33301 0 -10.333 3.33301 -9 10z" />
    <glyph glyph-name="Scedilla" unicode="&#x15e;" horiz-adv-x="400" 
d="M148 -211l-72 -0.000976562c-6 0 -9 3.66699 -9 11v9c0 7.33301 4 11 12 11h68c13.333 0 25.833 4.16699 37.5 12.5s17.5 22.833 17.5 43.5c0 14.667 -4.33301 25 -13 31s-18.334 9 -29.001 9h-32c-10.667 0 -14.334 4.66699 -11.001 14l22 63
c-76 6.66699 -114 41.334 -114 104.001c0 8 0.333008 15.667 1 23l8 63c1.33301 8 5.33301 12 12 12h25c7.33301 0 10.333 -4 9 -12l-7 -61c-0.666992 -6 -1 -13 -1 -21c0 -46 32 -69 96 -69c70 0 108.333 29 115 87l11 91c0.666992 7.33301 1 12.666 1 15.999
c0 32.667 -17.667 59.334 -53 80.001l-109 64c-38 22.667 -57 57 -57 103c0 9.33301 0.333008 17 1 23l8 65c5.33301 40 19.5 71.167 42.5 93.5s61.833 33.5 116.5 33.5c92 0 138 -34.667 138 -104c0 -11.333 -0.666992 -21.666 -2 -30.999l-7 -54
c-0.666992 -7.33301 -4.66699 -11 -12 -11h-25c-6.66699 0 -9.66699 3.66699 -9 11l7 61c0.666992 8 1 15 1 21c0 44.667 -31 67 -93 67c-67.333 0 -104.333 -28.667 -111 -86l-7 -58c-0.666992 -5.33301 -1 -12 -1 -20c0 -33.333 14 -58.333 42 -75l112 -66
c43.333 -26 65 -61.333 65 -106c0 -6 -0.333008 -12.333 -1 -19l-11 -99c-9.33301 -84.667 -62 -127 -158 -127l-17 -46h14c18.667 0 34.834 -5.33301 48.501 -16s20.5 -27.334 20.5 -50.001c0 -32 -9.16699 -55.167 -27.5 -69.5s-39.166 -21.5 -62.499 -21.5z" />
    <glyph glyph-name="scedilla" unicode="&#x15f;" horiz-adv-x="347" 
d="M124 -211l-72 0.00195312c-6 0 -9 3.66699 -9 11v9c0 7.33301 4 11 12 11h68c13.333 0 25.833 4.16699 37.5 12.5s17.5 22.833 17.5 43.5c0 14.667 -4.33301 25 -13 31s-18.334 9 -29.001 9h-32c-10.667 0 -14.334 4.66699 -11.001 14l22 63
c-32 3.33301 -56.333 12.666 -73 27.999s-25 34 -25 56c0 3.33301 0.666992 10.333 2 21l3 29c0.666992 6.66699 4.33398 10 11.001 10h24c6 0 8.66699 -3.33301 8 -10l-4 -35c-0.666992 -6 -1 -10 -1 -12c0 -15.333 7 -27.833 21 -37.5s34.333 -14.5 61 -14.5
c57.333 0 88.333 20.667 93 62l7 60c0.666992 7.33301 1 13 1 17c0 20 -13.667 36.667 -41 50l-89 44c-40 20 -60 47.333 -60 82c0 3.33301 0.333008 8 1 14l6 48c7.33301 64 51.666 96 132.999 96c39.333 0 69 -8 89 -24s30 -36.333 30 -61c0 -3.33301 -0.333008 -8 -1 -14
l-5 -41c-1.33301 -6.66699 -5 -10 -11 -10h-23c-7.33301 0 -10.333 3.33301 -9 10l5 39c0.666992 6.66699 1 11.667 1 15c0 33.333 -26.333 50 -79 50c-52 0 -80.667 -19.667 -86 -59l-5 -40c-0.666992 -7.33301 -1 -13.666 -1 -18.999c0 -21.333 14.667 -39 44 -53l89 -43
c37.333 -18 56 -42.333 56 -73c0 -4.66699 -0.333008 -11.334 -1 -20.001l-8 -71c-3.33301 -28 -15.833 -50.833 -37.5 -68.5s-52.5 -26.5 -92.5 -26.5l-17 -46h14c18.667 0 34.834 -5.33301 48.501 -16s20.5 -27.334 20.5 -50.001c0 -32 -9.16699 -55.167 -27.5 -69.5
s-39.166 -21.5 -62.499 -21.5z" />
    <glyph glyph-name="Scaron" unicode="&#x160;" horiz-adv-x="400" 
d="M223 867l30.001 -92l54 92c4 7.33301 9 11 15 11h18c7.33301 0 8.66602 -3.66699 3.99902 -11l-71 -118c-4 -6 -9.33301 -9 -16 -9h-16c-6.66699 0 -11 3.33301 -13 10l-43 117c-2.66699 7.33301 0 11 8 11h18c6 0 10 -3.66699 12 -11zM327.001 499l7 60.999
c0.666992 8 1 15 1 21c0 44.667 -31 67 -93 67c-67.333 0 -104.333 -28.667 -111 -86l-7 -58c-0.666992 -5.33301 -1 -12 -1 -20c0 -33.333 14 -58.333 42 -75l112 -66c43.333 -26 65 -61.333 65 -106c0 -6 -0.333008 -12.333 -1 -19l-11 -99
c-9.33301 -84.667 -64 -127 -164 -127c-94 0 -141 35 -141 105c0 8 0.333008 15.667 1 23l8 63c1.33301 8 5.33301 12 12 12h25c7.33301 0 10.333 -4 9 -12l-7 -61c-0.666992 -6 -1 -13 -1 -21c0 -46 32 -69 96 -69c70 0 108.333 29 115 87l11 91
c0.666992 7.33301 1 12.666 1 15.999c0 32.667 -17.667 59.334 -53 80.001l-109 64c-38 22.667 -57 57 -57 103c0 9.33301 0.333008 17 1 23l8 65c5.33301 40 19.5 71.167 42.5 93.5s61.833 33.5 116.5 33.5c92 0 138 -34.667 138 -104
c0 -11.333 -0.666992 -21.666 -2 -30.999l-7 -54c-0.666992 -7.33301 -4.66699 -11 -12 -11h-25c-6.66699 0 -9.66699 3.66699 -9 11z" />
    <glyph glyph-name="scaron" unicode="&#x161;" horiz-adv-x="347" 
d="M173 697l30 -92l54 92c4.66699 7.33301 9.66699 11 15 11h19c6 0 7 -3.66699 3 -11l-71 -118c-3.33301 -6 -8.66602 -9 -15.999 -9h-15c-7.33301 0 -12 3.33301 -14 10l-42 117c-2.66699 7.33301 -0.333984 11 6.99902 11h18c6 0 10 -3.66699 12 -11zM263 361l4.99902 39
c0.666992 6.66699 1 11.667 1 15c0 33.333 -26.333 50 -79 50c-52 0 -80.667 -19.667 -86 -59l-5 -40c-0.666992 -7.33301 -1 -13.666 -1 -18.999c0 -21.333 14.667 -39 44 -53l89 -43c37.333 -18 56 -42.333 56 -73c0 -4.66699 -0.333008 -11.334 -1 -20.001l-8 -71
c-3.33301 -28 -16.166 -50.833 -38.499 -68.5s-55.5 -26.5 -99.5 -26.5c-40 0 -70.5 8 -91.5 24s-31.5 36.333 -31.5 61c0 3.33301 0.666992 10.333 2 21l3 29c0.666992 6.66699 4.33398 10 11.001 10h24c6 0 8.66699 -3.33301 8 -10l-4 -35c-0.666992 -6 -1 -10 -1 -12
c0 -15.333 7 -27.833 21 -37.5s34.333 -14.5 61 -14.5c57.333 0 88.333 20.667 93 62l7 60c0.666992 7.33301 1 13 1 17c0 20 -13.667 36.667 -41 50l-89 44c-40 20 -60 47.333 -60 82c0 3.33301 0.333008 8 1 14l6 48c7.33301 64 51.666 96 132.999 96
c39.333 0 69 -8 89 -24s30 -36.333 30 -61c0 -3.33301 -0.333008 -8 -1 -14l-5 -41c-1.33301 -6.66699 -5 -10 -11 -10h-23c-7.33301 0 -10.333 3.33301 -9 10z" />
    <glyph glyph-name="Tcommaaccent" unicode="&#x162;" horiz-adv-x="350" 
d="M73 680h295.999c7.33301 0 10.666 -3.66699 9.99902 -11l-2 -19c-0.666992 -7.33301 -4.66699 -11 -12 -11h-124l-77 -628c-0.666992 -7.33301 -4.66699 -11 -12 -11h-26c-7.33301 0 -10.666 3.66699 -9.99902 11l78 628h-125c-7.33301 0 -10.666 3.66699 -9.99902 11
l2 19c0.666992 7.33301 4.66699 11 12 11zM107.999 -92l4.00098 32c1.33301 7.33301 5 11 11 11h21c7.33301 0 10.333 -3.66699 9 -11l-4 -33c-4.66699 -36 -22 -72.667 -52 -110c-4.66699 -4.66699 -9.33398 -5.33398 -14.001 -2.00098l-11 9
c-4 2.66699 -4 7.33398 0 14.001c20.667 33.333 32.667 63.333 36 90z" />
    </font>
</defs>
</svg>
