<?xml version="1.0" encoding="utf-8"?>
<!-- Generator: Adobe Illustrator 17.0.2, SVG Export Plug-In . SVG Version: 6.00 Build 0)  -->
<!DOCTYPE svg PUBLIC "-//W3C//DTD SVG 1.1//EN" "http://www.w3.org/Graphics/SVG/1.1/DTD/svg11.dtd">
<svg version="1.1" id="Camada_1" xmlns="http://www.w3.org/2000/svg" xmlns:xlink="http://www.w3.org/1999/xlink" x="0px" y="0px"
	 width="150px" height="40px" viewBox="35 0 150 40" enable-background="new 35 0 150 40" xml:space="preserve">
<path fill="#FFFFFF" d="M38.509,7.637c0.17-1.15,0.361-2.172,0.574-3.065c0.213-0.895,0.553-1.671,1.021-2.331
	c0.531-0.723,1.181-1.261,1.947-1.613c0.766-0.351,1.692-0.548,2.776-0.59c0.574-0.042,1.169-0.048,1.787-0.016
	c0.617,0.032,1.181,0.102,1.691,0.208c0.361,0.043,0.564,0.128,0.606,0.256c0.042,0.128-0.032,0.426-0.223,0.895
	c-0.234,0.554-0.421,0.931-0.558,1.133c-0.139,0.203-0.357,0.283-0.655,0.24c-0.468,0-0.925-0.021-1.372-0.064
	c-0.447-0.042-0.883-0.042-1.308,0C44.37,2.731,43.972,2.832,43.6,2.991c-0.372,0.16-0.708,0.431-1.005,0.814
	c-0.404,0.49-0.676,1.123-0.813,1.9c-0.139,0.777-0.26,1.539-0.367,2.283L41.35,8.5h3.765c0.574,0,0.894,0.123,0.957,0.367
	c0.064,0.245,0.053,0.612-0.032,1.102c-0.043,0.298-0.075,0.532-0.095,0.702c-0.021,0.171-0.074,0.299-0.16,0.383
	c-0.085,0.086-0.207,0.139-0.367,0.16s-0.389,0.032-0.687,0.032h-3.766l-2.935,21.331c-0.043,0.298-0.091,0.522-0.144,0.67
	c-0.053,0.149-0.138,0.26-0.255,0.335c-0.117,0.074-0.271,0.117-0.463,0.128c-0.192,0.01-0.436,0.016-0.734,0.016
	c-0.362,0-0.644-0.005-0.845-0.016c-0.202-0.011-0.351-0.048-0.447-0.112C35.048,33.535,35,33.424,35,33.265
	c0-0.16,0.021-0.389,0.063-0.687l2.936-21.301L38.509,7.637z"/>
<path fill="#FFFFFF" d="M55.397,8.467c0.276-0.042,0.596-0.08,0.958-0.111c0.362-0.032,0.723-0.053,1.085-0.064
	c0.362-0.01,0.708-0.01,1.038,0c0.33,0.011,0.59,0.027,0.783,0.048c0.34,0.064,0.537,0.149,0.59,0.256
	c0.053,0.107-0.005,0.394-0.176,0.862c-0.192,0.554-0.357,0.937-0.494,1.15c-0.139,0.213-0.357,0.309-0.655,0.287
	c-0.383-0.063-0.825-0.095-1.325-0.095c-0.5,0-1.011,0.027-1.533,0.08c-0.522,0.053-1.028,0.128-1.517,0.224
	c-0.49,0.095-0.926,0.207-1.309,0.335l-1.756,12.582c-0.085,0.49-0.186,0.798-0.303,0.926c-0.117,0.128-0.357,0.203-0.719,0.224
	h-1.246c-0.383,0-0.618-0.069-0.702-0.207c-0.085-0.138-0.085-0.453,0-0.942l1.246-8.814l0.607-4.311h-1.852l0.223-1.564
	c0.235-0.192,0.511-0.372,0.83-0.543c0.276-0.128,0.601-0.25,0.974-0.367c0.372-0.117,0.804-0.176,1.293-0.176
	c0.596,0,1.01,0.16,1.246,0.479c0.234,0.319,0.362,0.628,0.383,0.926l0.064-0.063C53.725,9.01,54.481,8.638,55.397,8.467"/>
<path fill="#FFFFFF" d="M61.952,20.89c0.511,1.107,1.607,1.724,3.29,1.852c0.915,0.063,1.708-0.01,2.379-0.224
	c0.671-0.213,1.24-0.543,1.708-0.99c0.468-0.447,0.841-1,1.118-1.661c0.277-0.659,0.49-1.405,0.639-2.236
	c0.149-0.873,0.213-1.698,0.192-2.475c-0.021-0.777-0.155-1.464-0.4-2.059c-0.245-0.596-0.622-1.07-1.134-1.422
	c-0.511-0.351-1.182-0.548-2.012-0.591c-0.937-0.042-1.752,0.07-2.443,0.335c-0.692,0.267-1.278,0.655-1.757,1.165
	c-0.479,0.511-0.862,1.123-1.15,1.836c-0.287,0.713-0.494,1.496-0.622,2.347c-0.127,0.809-0.181,1.559-0.16,2.251
	C61.622,19.714,61.738,20.336,61.952,20.89 M64.538,25.392c-0.618-0.043-1.193-0.144-1.724-0.303
	c-0.533-0.16-1.011-0.357-1.437-0.59c-1.193-0.703-2.001-1.724-2.427-3.066c-0.426-1.34-0.436-3.012-0.032-5.013
	c0.256-1.234,0.639-2.368,1.15-3.401c0.511-1.032,1.154-1.91,1.932-2.635c0.777-0.723,1.698-1.272,2.763-1.645
	c1.064-0.372,2.278-0.516,3.641-0.431c1.214,0.085,2.23,0.383,3.05,0.894c0.82,0.511,1.447,1.187,1.884,2.028
	c0.436,0.841,0.697,1.826,0.783,2.954c0.085,1.128,0.021,2.342-0.192,3.64c-0.213,1.235-0.575,2.343-1.085,3.321
	c-0.511,0.98-1.156,1.799-1.932,2.459c-0.777,0.66-1.698,1.15-2.763,1.469C67.082,25.392,65.88,25.499,64.538,25.392"/>
<path fill="#FFFFFF" d="M75.731,10.894l0.224-1.565c0.235-0.192,0.511-0.372,0.83-0.543c0.276-0.128,0.601-0.25,0.974-0.367
	c0.372-0.117,0.803-0.176,1.293-0.176c0.595,0,1.01,0.16,1.246,0.479c0.235,0.319,0.362,0.628,0.383,0.926l0.063-0.063
	c0.639-0.617,1.299-0.979,1.98-1.086c0.703-0.128,1.618-0.213,2.746-0.256c2.15-0.02,3.651,0.325,4.503,1.038
	c0.851,0.714,1.182,1.9,0.99,3.56l-1.501,10.73h1.82l-0.224,1.405c-0.021,0-0.314,0.08-0.878,0.239
	c-0.565,0.16-1.283,0.207-2.155,0.144c-0.511-0.043-0.873-0.17-1.085-0.383c-0.213-0.213-0.351-0.441-0.415-0.687
	c-0.064-0.245-0.064-0.569,0-0.974l1.341-9.644c0.064-1-0.117-1.697-0.543-2.091c-0.425-0.393-1.128-0.623-2.107-0.687
	c-0.852-0.042-1.655-0.005-2.411,0.112c-0.756,0.117-1.539,0.261-2.347,0.431l-1.756,12.582c-0.085,0.49-0.186,0.798-0.303,0.927
	c-0.117,0.128-0.357,0.203-0.719,0.223h-1.246c-0.383,0-0.618-0.069-0.703-0.207s-0.085-0.452,0-0.942l1.246-8.814l0.607-4.311
	C77.584,10.894,75.731,10.894,75.731,10.894z"/>
<path fill="#FFFFFF" d="M96.106,18.527c-0.053,0.383-0.091,0.762-0.112,1.134c-0.022,0.373-0.016,0.719,0.016,1.038
	c0.032,0.319,0.112,0.607,0.239,0.862c0.213,0.383,0.436,0.661,0.671,0.83c0.234,0.17,0.505,0.277,0.814,0.32
	s0.644,0.048,1.006,0.016c0.362-0.032,0.777-0.048,1.246-0.048c0.319-0.042,0.511,0.043,0.575,0.256
	c0.064,0.213,0.149,0.586,0.256,1.118c0.085,0.405,0.08,0.676-0.016,0.814c-0.095,0.139-0.325,0.251-0.687,0.335
	c-0.661,0.128-1.331,0.192-2.012,0.192c-0.681,0-1.325-0.075-1.932-0.224c-0.606-0.149-1.15-0.388-1.629-0.719
	c-0.479-0.329-0.836-0.771-1.07-1.325c-0.298-0.659-0.436-1.442-0.415-2.347c0.021-0.905,0.128-1.921,0.32-3.05l1.82-13.03
	c0.043-0.297,0.085-0.527,0.128-0.687c0.042-0.16,0.123-0.271,0.239-0.335c0.117-0.063,0.276-0.101,0.479-0.111
	c0.202-0.011,0.484-0.016,0.846-0.016c0.596,0,0.957,0.048,1.085,0.144c0.128,0.095,0.149,0.432,0.064,1.006l-0.543,3.8h4.31
	c0.298,0,0.527,0.005,0.687,0.016s0.266,0.048,0.319,0.112c0.053,0.063,0.074,0.17,0.064,0.319c-0.011,0.149-0.037,0.372-0.08,0.671
	c-0.063,0.49-0.165,0.857-0.303,1.102c-0.139,0.245-0.495,0.367-1.07,0.367h-4.31l-0.83,6.291
	C96.218,17.76,96.158,18.143,96.106,18.527"/>
<path fill="#FFFFFF" d="M117.652,2.783c0.042-0.362,0.095-0.639,0.16-0.83c0.063-0.192,0.16-0.335,0.287-0.431
	c0.128-0.095,0.293-0.149,0.496-0.16c0.202-0.011,0.483-0.016,0.846-0.016c0.404,0,0.729,0.005,0.974,0.016
	c0.244,0.011,0.425,0.059,0.543,0.144c0.117,0.085,0.181,0.224,0.192,0.415c0.011,0.192-0.016,0.479-0.08,0.862l-0.095,0.639
	c-0.043,0.362-0.095,0.639-0.16,0.83c-0.064,0.192-0.16,0.335-0.288,0.431c-0.128,0.095-0.299,0.149-0.511,0.16
	c-0.213,0.011-0.49,0.016-0.83,0.016c-0.426,0-0.756-0.005-0.99-0.016c-0.235-0.01-0.41-0.058-0.527-0.144
	c-0.117-0.085-0.176-0.224-0.176-0.415c0-0.192,0.021-0.479,0.064-0.862L117.652,2.783z M117.94,24.019
	c-0.043,0.298-0.091,0.522-0.144,0.671c-0.053,0.149-0.133,0.261-0.239,0.335c-0.107,0.074-0.256,0.117-0.447,0.128
	c-0.192,0.011-0.436,0.016-0.734,0.016c-0.362,0-0.644-0.005-0.846-0.016c-0.202-0.011-0.351-0.048-0.447-0.112
	c-0.095-0.063-0.144-0.176-0.144-0.335c0-0.16,0.021-0.389,0.064-0.687l1.82-13.125h-1.853l0.224-1.565
	c0.234-0.192,0.511-0.372,0.83-0.543c0.276-0.128,0.601-0.25,0.974-0.367c0.372-0.117,0.803-0.176,1.293-0.176
	c0.596,0,1.011,0.16,1.246,0.479c0.235,0.319,0.387,0.712,0.383,0.926c-0.003,0.214-0.043,0.436-0.064,0.543L117.94,24.019z"/>
<path fill="#FFFFFF" d="M121.337,10.894l0.224-1.565c0.235-0.192,0.511-0.372,0.83-0.543c0.276-0.128,0.601-0.25,0.974-0.367
	c0.372-0.117,0.803-0.176,1.293-0.176c0.595,0,1.01,0.16,1.246,0.479c0.234,0.319,0.361,0.628,0.383,0.926l0.063-0.063
	c0.639-0.617,1.299-0.979,1.98-1.086c0.703-0.128,1.618-0.213,2.746-0.256c2.15-0.02,3.651,0.325,4.503,1.038
	c0.851,0.714,1.182,1.9,0.99,3.56l-1.501,10.73h1.82l-0.224,1.405c-0.021,0-0.314,0.08-0.878,0.239
	c-0.565,0.16-1.283,0.207-2.156,0.144c-0.511-0.043-0.873-0.17-1.085-0.383c-0.213-0.213-0.351-0.441-0.416-0.687
	c-0.063-0.245-0.063-0.569,0-0.974l1.341-9.644c0.064-1-0.117-1.697-0.543-2.091c-0.426-0.393-1.128-0.623-2.107-0.687
	c-0.852-0.042-1.655-0.005-2.411,0.112c-0.756,0.117-1.539,0.261-2.347,0.431l-1.756,12.582c-0.085,0.49-0.186,0.798-0.303,0.927
	c-0.117,0.128-0.357,0.203-0.719,0.223h-1.246c-0.383,0-0.618-0.069-0.703-0.207s-0.085-0.452,0-0.942l1.246-8.814l0.607-4.311
	C123.189,10.894,121.337,10.894,121.337,10.894z"/>
<path fill="#FFFFFF" d="M158.901,11.304c-0.511,0.192-1.033,0.447-1.565,0.766l-1.469,10.506c0.383,0.085,0.798,0.16,1.246,0.223
	c0.49,0.086,1.128,0.128,1.916,0.128c0.511,0,0.958-0.048,1.341-0.144c0.383-0.095,0.692-0.207,0.927-0.335
	c0.553-0.276,1.07-0.708,1.548-1.293c0.479-0.586,0.867-1.261,1.166-2.028c0.298-0.766,0.532-1.852,0.702-3.257
	c0.17-1.405,0.032-2.608-0.415-3.609c-0.341-0.766-1.054-1.246-2.14-1.437c-0.256-0.042-0.67-0.048-1.246-0.016
	C160.338,10.841,159.668,11.006,158.901,11.304 M158.614,25.387c-2.448,0.021-4.428-0.329-5.94-1.053l3.194-23.056
	c0.042-0.276,0.091-0.496,0.144-0.655c0.053-0.16,0.132-0.276,0.239-0.351c0.106-0.074,0.256-0.117,0.447-0.128
	c0.192-0.01,0.436-0.016,0.734-0.016c0.361,0,0.649,0.005,0.862,0.016c0.213,0.011,0.368,0.048,0.463,0.112
	c0.095,0.063,0.144,0.175,0.144,0.335s-0.021,0.389-0.063,0.687l-1.15,8.303c0.595-0.297,1.096-0.532,1.501-0.702
	c0.915-0.362,1.937-0.543,3.065-0.543c0.32,0,0.719,0.032,1.197,0.095c0.479,0.064,0.963,0.213,1.453,0.447
	c0.788,0.404,1.411,0.979,1.869,1.724c0.458,0.745,0.766,1.634,0.926,2.667c0.16,1.033,0.144,2.177-0.048,3.433
	c-0.17,1.235-0.511,2.384-1.022,3.449c-0.511,1.065-1.102,1.97-1.772,2.714c-0.671,0.745-1.347,1.277-2.028,1.597
	c-0.682,0.319-1.257,0.532-1.724,0.639C160.317,25.291,159.486,25.387,158.614,25.387"/>
<path fill="#FFFFFF" d="M169.352,24.892c-0.085-0.138-0.085-0.452,0-0.942l3.162-22.673c0.042-0.276,0.091-0.495,0.144-0.655
	c0.052-0.16,0.133-0.276,0.239-0.351c0.106-0.074,0.256-0.117,0.447-0.128c0.192-0.01,0.436-0.016,0.734-0.016
	c0.362,0,0.649,0.005,0.862,0.016c0.213,0.011,0.367,0.048,0.463,0.112s0.144,0.175,0.144,0.335c0,0.16-0.022,0.389-0.064,0.687
	l-1.15,8.239h0.032c0.639-0.617,1.299-0.979,1.98-1.085c0.703-0.127,1.649-0.213,2.842-0.256c2.15-0.021,3.651,0.325,4.503,1.038
	c0.851,0.714,1.182,1.9,0.99,3.56l-1.501,10.73H185l-0.223,1.405c-0.022,0-0.314,0.08-0.878,0.239
	c-0.565,0.16-1.283,0.207-2.156,0.144c-0.511-0.043-0.873-0.171-1.085-0.383c-0.213-0.213-0.351-0.441-0.415-0.687
	c-0.064-0.245-0.064-0.569,0-0.974l1.341-9.644c0.064-1-0.117-1.697-0.543-2.091c-0.426-0.393-1.129-0.623-2.108-0.687
	c-0.852-0.042-1.672-0.005-2.459,0.112c-0.788,0.117-1.587,0.261-2.395,0.431l-1.756,12.582c-0.085,0.49-0.187,0.798-0.303,0.926
	c-0.117,0.128-0.357,0.203-0.718,0.224h-1.246C169.672,25.099,169.438,25.03,169.352,24.892"/>
<g>
	<path fill="#FFFFFF" d="M150.548,39.83c-0.1-0.014-0.172-0.045-0.217-0.095c-0.046-0.05-0.07-0.122-0.074-0.217
		c-0.005-0.095,0.007-0.219,0.034-0.373l0.082-0.584c0.072-0.479,0.156-0.891,0.251-1.235c0.095-0.344,0.208-0.638,0.34-0.882
		c0.131-0.244,0.287-0.455,0.468-0.631c0.181-0.176,0.398-0.332,0.652-0.468c0.172-0.099,0.335-0.194,0.489-0.284
		c0.153-0.091,0.319-0.183,0.495-0.278c0.176-0.095,0.38-0.194,0.611-0.299c0.231-0.104,0.509-0.224,0.835-0.36
		c0.443-0.181,0.787-0.371,1.032-0.57c0.245-0.199,0.389-0.434,0.434-0.706l0.081-0.57c0.036-0.28,0.034-0.504-0.007-0.672
		c-0.041-0.168-0.123-0.296-0.245-0.387s-0.29-0.149-0.503-0.177c-0.213-0.027-0.468-0.041-0.766-0.041h-0.407
		c-0.163,0.009-0.303,0.018-0.421,0.027c-0.117,0.01-0.23,0.023-0.339,0.041c-0.109,0.018-0.22,0.043-0.333,0.074
		c-0.113,0.031-0.247,0.07-0.4,0.115c-0.19,0.063-0.333,0.1-0.428,0.109c-0.095,0.009-0.163-0.005-0.204-0.041
		s-0.068-0.088-0.082-0.156c-0.014-0.068-0.034-0.152-0.061-0.251c-0.036-0.118-0.054-0.222-0.054-0.312
		c0-0.09,0.025-0.17,0.074-0.237c0.05-0.068,0.131-0.129,0.244-0.183c0.113-0.055,0.265-0.108,0.455-0.163
		c0.199-0.054,0.38-0.1,0.543-0.136s0.328-0.067,0.495-0.095c0.168-0.027,0.348-0.045,0.543-0.055
		c0.194-0.009,0.418-0.014,0.672-0.014c0.524,0,0.961,0.046,1.31,0.136c0.348,0.091,0.62,0.24,0.814,0.448
		c0.194,0.209,0.319,0.48,0.373,0.814c0.054,0.335,0.05,0.747-0.014,1.235l-0.082,0.543c-0.046,0.317-0.117,0.588-0.217,0.815
		c-0.1,0.226-0.24,0.428-0.421,0.603c-0.181,0.176-0.407,0.338-0.678,0.481c-0.271,0.145-0.592,0.29-0.963,0.434
		c-0.398,0.172-0.8,0.35-1.207,0.536c-0.407,0.185-0.747,0.36-1.018,0.522c-0.163,0.1-0.297,0.213-0.4,0.34
		c-0.104,0.127-0.194,0.282-0.271,0.468c-0.077,0.185-0.14,0.402-0.19,0.652c-0.05,0.249-0.098,0.541-0.143,0.875h4.397
		c0.244,0,0.382,0.038,0.414,0.115c0.032,0.077,0.034,0.22,0.007,0.428c-0.018,0.127-0.036,0.233-0.055,0.319
		c-0.018,0.086-0.043,0.156-0.074,0.211c-0.032,0.054-0.084,0.093-0.156,0.115c-0.072,0.023-0.172,0.034-0.299,0.034h-5.008
		C150.784,39.851,150.648,39.844,150.548,39.83z"/>
	<path fill="#FFFFFF" d="M162.274,40c-1.14,0-1.939-0.262-2.395-0.787c-0.458-0.524-0.609-1.366-0.455-2.524l0.53-3.745
		c0.163-1.167,0.545-2.017,1.147-2.551c0.601-0.534,1.481-0.8,2.639-0.8h0.177c1.13,0,1.916,0.267,2.354,0.8
		c0.439,0.534,0.577,1.384,0.414,2.551l-0.53,3.745c-0.172,1.15-0.552,1.988-1.14,2.517S163.572,40,162.45,40
		C162.45,40,162.274,40,162.274,40z M162.587,38.752c1.276,0,2.009-0.674,2.198-2.022l0.543-3.868c0.19-1.366-0.353-2.05-1.629-2.05
		h-0.108c-0.652,0-1.156,0.168-1.514,0.502c-0.357,0.335-0.586,0.85-0.685,1.547l-0.543,3.868c-0.1,0.688-0.016,1.197,0.251,1.527
		c0.267,0.33,0.725,0.495,1.377,0.495L162.587,38.752L162.587,38.752z"/>
	<path fill="#FFFFFF" d="M171.842,29.732c0.082-0.004,0.185-0.007,0.312-0.007c0.154,0,0.276,0.003,0.367,0.007
		c0.09,0.005,0.156,0.02,0.197,0.048c0.041,0.027,0.061,0.074,0.061,0.142c0,0.067-0.009,0.165-0.027,0.292l-1.194,8.495h1.317
		c0.245,0,0.383,0.036,0.414,0.108c0.032,0.072,0.034,0.213,0.007,0.421c-0.018,0.127-0.034,0.229-0.048,0.305
		c-0.014,0.077-0.036,0.138-0.068,0.183c-0.032,0.045-0.084,0.077-0.156,0.095c-0.072,0.018-0.172,0.027-0.299,0.027h-3.895
		c-0.127,0-0.224-0.009-0.292-0.027c-0.068-0.018-0.113-0.05-0.136-0.095c-0.022-0.046-0.029-0.107-0.02-0.183
		c0.009-0.077,0.023-0.179,0.04-0.305c0.027-0.208,0.065-0.348,0.115-0.421c0.05-0.072,0.196-0.108,0.441-0.108h1.276l1.032-7.356
		l-1.113,0.584c-0.226,0.117-0.373,0.151-0.441,0.102c-0.068-0.05-0.147-0.188-0.237-0.414c-0.054-0.136-0.098-0.242-0.129-0.319
		c-0.032-0.077-0.043-0.142-0.034-0.197c0.009-0.055,0.043-0.104,0.102-0.149c0.059-0.045,0.147-0.1,0.265-0.163l1.927-1.004
		C171.688,29.758,171.76,29.738,171.842,29.732z"/>
	<path fill="#FFFFFF" d="M181.994,35.67c0.127,0,0.224,0.003,0.292,0.007c0.068,0.005,0.113,0.023,0.136,0.055
		c0.022,0.032,0.029,0.084,0.02,0.156c-0.01,0.072-0.023,0.177-0.041,0.312c-0.018,0.127-0.036,0.233-0.055,0.319
		c-0.018,0.087-0.045,0.156-0.081,0.211c-0.036,0.055-0.091,0.093-0.163,0.115c-0.072,0.023-0.168,0.034-0.285,0.034h-0.855
		l-0.34,2.483c-0.018,0.127-0.038,0.224-0.061,0.292c-0.023,0.067-0.059,0.115-0.108,0.142c-0.05,0.027-0.117,0.043-0.204,0.048
		c-0.086,0.005-0.206,0.007-0.359,0.007c-0.127,0-0.23-0.002-0.312-0.007c-0.081-0.004-0.145-0.023-0.19-0.055
		c-0.045-0.031-0.072-0.079-0.081-0.143s-0.005-0.158,0.014-0.285l0.34-2.483h-4.058c-0.127,0-0.228-0.046-0.305-0.136
		s-0.106-0.199-0.088-0.325c0.009-0.055,0.025-0.102,0.048-0.142c0.023-0.04,0.056-0.093,0.102-0.156l4.505-6.243
		c0.045-0.063,0.082-0.106,0.109-0.129c0.027-0.023,0.095-0.034,0.203-0.034h1.533c0.172,0,0.249,0.086,0.231,0.258l-0.8,5.699
		h0.855V35.67z M179.836,35.684l0.678-4.818l-3.393,4.818H179.836z"/>
	<path fill="#FFFFFF" d="M177.135,35.684l3.393-4.818l-0.678,4.818H177.135z M181.152,35.67l0.8-5.7
		c0.018-0.172-0.059-0.258-0.23-0.258h-1.533c-0.108,0-0.177,0.012-0.204,0.034c-0.027,0.023-0.063,0.065-0.108,0.129l-4.505,6.243
		c-0.046,0.063-0.079,0.115-0.102,0.156c-0.023,0.041-0.039,0.088-0.048,0.142c-0.018,0.127,0.012,0.235,0.088,0.326
		c0.077,0.091,0.179,0.136,0.305,0.136h4.058l-0.34,2.484c-0.018,0.127-0.023,0.222-0.014,0.285s0.036,0.111,0.081,0.142
		c0.046,0.032,0.108,0.05,0.19,0.055c0.081,0.005,0.185,0.007,0.312,0.007c0.154,0,0.273-0.002,0.359-0.007
		c0.086-0.004,0.154-0.02,0.204-0.048c0.05-0.027,0.086-0.074,0.108-0.142c0.023-0.068,0.043-0.165,0.061-0.292l0.34-2.484h0.855
		c0.117,0,0.213-0.011,0.285-0.034c0.072-0.022,0.127-0.061,0.163-0.115s0.063-0.124,0.081-0.211
		c0.018-0.086,0.036-0.192,0.055-0.319c0.018-0.136,0.032-0.239,0.041-0.312c0.009-0.072,0.002-0.124-0.02-0.156
		c-0.023-0.031-0.068-0.05-0.136-0.055c-0.068-0.004-0.165-0.007-0.292-0.007L181.152,35.67L181.152,35.67z M171.638,29.794
		l-1.927,1.004c-0.117,0.063-0.206,0.118-0.265,0.163c-0.059,0.046-0.093,0.095-0.102,0.149s0.002,0.12,0.034,0.197
		c0.032,0.077,0.074,0.183,0.129,0.319c0.091,0.226,0.17,0.364,0.237,0.414c0.068,0.05,0.215,0.016,0.441-0.102l1.113-0.584
		l-1.032,7.355h-1.276c-0.244,0-0.391,0.036-0.441,0.108c-0.05,0.072-0.088,0.213-0.115,0.421c-0.018,0.127-0.032,0.228-0.041,0.305
		c-0.009,0.077-0.002,0.138,0.02,0.183c0.023,0.046,0.068,0.077,0.136,0.095c0.068,0.018,0.165,0.027,0.292,0.027h3.895
		c0.127,0,0.226-0.009,0.299-0.027c0.072-0.018,0.124-0.05,0.156-0.095c0.032-0.045,0.055-0.106,0.068-0.183
		c0.014-0.077,0.029-0.179,0.048-0.305c0.027-0.208,0.025-0.348-0.007-0.421c-0.032-0.072-0.17-0.108-0.414-0.108h-1.317
		l1.195-8.495c0.018-0.126,0.027-0.224,0.027-0.292s-0.02-0.115-0.061-0.142s-0.106-0.043-0.197-0.048
		c-0.091-0.004-0.213-0.007-0.366-0.007c-0.127,0-0.23,0.003-0.312,0.007C171.774,29.738,171.702,29.758,171.638,29.794
		 M162.492,38.752c-0.651,0-1.111-0.165-1.377-0.496c-0.267-0.33-0.35-0.839-0.251-1.527l0.543-3.868
		c0.1-0.696,0.328-1.212,0.685-1.547c0.357-0.335,0.862-0.502,1.513-0.502h0.108c1.276,0,1.818,0.683,1.629,2.05l-0.543,3.868
		c-0.19,1.348-0.923,2.022-2.199,2.022L162.492,38.752L162.492,38.752z M162.465,40c1.122,0,1.977-0.265,2.565-0.794
		c0.588-0.529,0.968-1.368,1.14-2.517l0.529-3.746c0.163-1.167,0.025-2.017-0.414-2.551c-0.439-0.534-1.224-0.8-2.354-0.8h-0.177
		c-1.158,0-2.038,0.267-2.639,0.8c-0.602,0.534-0.984,1.384-1.147,2.551l-0.529,3.746c-0.154,1.158-0.003,2,0.455,2.524
		c0.457,0.525,1.255,0.787,2.395,0.787C162.289,40,162.465,40,162.465,40z M150.956,39.851h5.008c0.126,0,0.226-0.011,0.299-0.034
		c0.072-0.023,0.124-0.061,0.156-0.115c0.031-0.055,0.057-0.124,0.074-0.211c0.018-0.086,0.036-0.192,0.055-0.319
		c0.027-0.208,0.025-0.35-0.007-0.428c-0.032-0.077-0.17-0.115-0.414-0.115h-4.397c0.045-0.335,0.093-0.627,0.143-0.875
		c0.05-0.249,0.113-0.466,0.19-0.651c0.077-0.185,0.167-0.342,0.271-0.468c0.104-0.126,0.237-0.239,0.4-0.34
		c0.271-0.163,0.611-0.337,1.018-0.522c0.407-0.185,0.809-0.364,1.208-0.536c0.371-0.145,0.692-0.289,0.963-0.434
		c0.271-0.145,0.498-0.305,0.678-0.482s0.321-0.378,0.421-0.604c0.1-0.226,0.172-0.498,0.217-0.814l0.081-0.543
		c0.063-0.489,0.068-0.9,0.014-1.235c-0.055-0.335-0.179-0.606-0.373-0.814s-0.466-0.357-0.814-0.448
		c-0.348-0.091-0.785-0.136-1.31-0.136c-0.254,0-0.477,0.005-0.672,0.014c-0.194,0.01-0.376,0.027-0.543,0.055
		c-0.168,0.027-0.333,0.059-0.496,0.095c-0.163,0.036-0.344,0.081-0.543,0.136c-0.19,0.055-0.342,0.108-0.455,0.163
		c-0.113,0.055-0.194,0.115-0.244,0.183c-0.05,0.068-0.074,0.147-0.074,0.237c0,0.091,0.018,0.194,0.055,0.312
		c0.027,0.1,0.048,0.183,0.061,0.251c0.014,0.068,0.041,0.12,0.081,0.156c0.041,0.036,0.108,0.05,0.204,0.041
		c0.095-0.009,0.237-0.045,0.427-0.108c0.153-0.045,0.287-0.084,0.4-0.115c0.113-0.031,0.224-0.057,0.333-0.074
		c0.108-0.018,0.222-0.031,0.34-0.041c0.117-0.009,0.258-0.018,0.421-0.027h0.407c0.299,0,0.554,0.014,0.767,0.041
		c0.213,0.027,0.38,0.086,0.502,0.177c0.122,0.091,0.204,0.22,0.244,0.387c0.041,0.168,0.043,0.391,0.007,0.672l-0.081,0.57
		c-0.046,0.271-0.19,0.507-0.434,0.706c-0.244,0.199-0.588,0.389-1.032,0.57c-0.326,0.136-0.604,0.256-0.835,0.359
		c-0.23,0.104-0.434,0.204-0.611,0.299c-0.177,0.095-0.342,0.188-0.496,0.278c-0.154,0.091-0.317,0.185-0.489,0.285
		c-0.254,0.136-0.47,0.292-0.651,0.468c-0.181,0.177-0.337,0.387-0.468,0.631c-0.132,0.244-0.244,0.539-0.34,0.882
		c-0.095,0.344-0.179,0.755-0.251,1.235l-0.081,0.584c-0.027,0.154-0.039,0.278-0.034,0.373c0.004,0.095,0.029,0.168,0.074,0.217
		c0.045,0.05,0.117,0.081,0.217,0.095C150.648,39.844,150.784,39.851,150.956,39.851"/>
</g>
<polyline fill="#FFFFFF" points="150.571,14.586 149.976,18.814 138.692,25.157 139.286,20.929 150.571,14.586 "/>
<polygon fill="#FFFFFF" points="150.104,14.275 141.069,8.243 140.475,12.472 146.343,16.389 "/>
<polyline fill="#FFFFFF" points="113.354,8.243 112.76,12.471 101.475,18.814 102.07,14.585 113.354,8.243 "/>
<polygon fill="#FFFFFF" points="101.942,19.125 110.977,25.156 111.572,20.927 105.704,17.01 "/>
</svg>
