<?xml version="1.0" encoding="utf-8"?>
<!-- Generator: Adobe Illustrator 17.0.2, SVG Export Plug-In . SVG Version: 6.00 Build 0)  -->
<!DOCTYPE svg PUBLIC "-//W3C//DTD SVG 1.1//EN" "http://www.w3.org/Graphics/SVG/1.1/DTD/svg11.dtd">
<svg version="1.1" id="Camada_1" xmlns="http://www.w3.org/2000/svg" xmlns:xlink="http://www.w3.org/1999/xlink" x="0px" y="0px"
	 width="460px" height="170px" viewBox="0 0 460 170" enable-background="new 0 0 460 170" xml:space="preserve">
<g>
	<path fill="#FFFFFF" d="M0,161.204v-22.178c0-6.854,2.555-13.599,7.671-20.231c5.117-6.628,11.305-12.608,18.571-17.948
		l22.215-16.474c7.479-5.337,13.853-11.326,19.12-17.961c5.266-6.635,7.902-13.386,7.902-20.252c0-7.323-2.405-13.728-7.216-19.223
		c-4.809-5.49-11.715-8.238-20.722-8.238c-7.636,0-13.857,2.16-18.667,6.475c-4.811,4.318-7.211,10.561-7.211,18.731
		c0,2.005-0.914,3.779-2.738,5.319c-1.824,1.542-4.257,2.312-7.297,2.312c-5.779,0-8.664-3.723-8.664-11.173
		c0-11.402,4.304-20.752,12.915-28.049C24.489,5.017,35.042,1.369,47.542,1.369c13.41,0,24.609,4.186,33.602,12.553
		c8.993,8.369,13.489,18.888,13.489,31.55c0,7.628-1.866,14.95-5.6,21.966c-3.734,7.019-8.38,12.97-13.938,17.85
		c-5.56,4.882-11.617,9.763-18.164,14.645L38.61,112.974c-5.498,3.816-10.115,8.014-13.851,12.589
		c-3.737,4.575-5.603,9.073-5.603,13.499v11.668h70.212c1.832,0,3.392,0.839,4.69,2.509c1.296,1.676,1.945,3.729,1.945,6.157
		c0,2.279-0.646,4.297-1.931,6.044c-1.287,1.75-2.836,2.622-4.651,2.622H8.627c-1.971,0-3.902-0.646-5.791-1.94
		C0.944,164.823,0,163.183,0,161.204z"/>
	<path fill="#FFFFFF" d="M113.846,163.044c0-0.604,0.074-1.062,0.228-1.369L162.834,4.094C163.724,1.366,165.798,0,169.062,0
		c3.263,0,5.34,1.404,6.231,4.212l48.693,158.765c0,0,0.036,0.126,0.113,0.381c0.074,0.258,0.115,0.504,0.115,0.743
		c0,1.082-0.684,2.011-2.053,2.793c-1.367,0.781-2.89,1.169-4.56,1.169c-2.433,0-3.955-1.14-4.56-3.419l-11.173-36.258h-65.706
		l-11.057,36.213c-0.751,2.308-2.401,3.464-4.953,3.464c-1.653,0-3.117-0.455-4.393-1.369
		C114.483,165.782,113.846,164.565,113.846,163.044z M139.357,117.895h59.325L169.09,20.473L139.357,117.895z"/>
	<path fill="#FFFFFF" d="M245.877,121.543V49.256c0-16.568,4.141-28.693,12.429-36.372c8.283-7.675,19.343-11.515,33.179-11.515
		c14.137,0,25.385,3.613,33.749,10.832c8.357,7.221,12.542,16.456,12.542,27.705c0,3.955-1.903,5.929-5.702,5.929
		c-3.648,0-5.552-1.597-5.7-4.79c-2.588-19.154-14.138-28.732-34.661-28.732c-22.957,0-34.434,12.314-34.434,36.942v72.286
		c0,24.628,11.476,36.942,34.434,36.942c11.095,0,19.646-3.08,25.653-9.237c6.004-6.157,9.008-15.391,9.008-27.705V90.985h-33.749
		c-1.369,0-2.473-0.53-3.306-1.595c-0.838-1.062-1.254-2.281-1.254-3.648c0-1.369,0.417-2.585,1.254-3.648
		c0.833-1.062,1.937-1.597,3.306-1.597h40.361c1.369,0,2.509,0.534,3.421,1.597c0.912,1.064,1.369,2.279,1.369,3.648v35.801
		c0,16.573-4.22,28.696-12.656,36.371c-8.438,7.678-19.575,11.517-33.407,11.517c-13.988,0-25.124-3.839-33.407-11.517
		C250.018,150.239,245.877,138.116,245.877,121.543z"/>
	<path fill="#FFFFFF" d="M368.101,121.543V49.256c0-16.568,4.141-28.693,12.429-36.372c8.283-7.675,19.419-11.515,33.407-11.515
		c13.832,0,24.969,3.84,33.407,11.515C455.78,20.563,460,32.689,460,49.256v72.286c0,16.573-4.22,28.696-12.656,36.371
		c-8.438,7.678-19.575,11.517-33.407,11.517c-13.988,0-25.124-3.839-33.407-11.517C372.242,150.239,368.101,138.116,368.101,121.543
		z M379.503,121.543c0,24.628,11.476,36.942,34.434,36.942c11.095,0,19.646-3.08,25.653-9.237
		c6.004-6.157,9.008-15.391,9.008-27.705V49.256c0-12.314-3.004-21.55-9.008-27.707c-6.007-6.157-14.558-9.236-25.653-9.236
		c-22.957,0-34.434,12.314-34.434,36.942V121.543z"/>
</g>
</svg>
