<?xml version="1.0" encoding="utf-8"?>
<!-- Generator: Adobe Illustrator 17.0.2, SVG Export Plug-In . SVG Version: 6.00 Build 0)  -->
<!DOCTYPE svg PUBLIC "-//W3C//DTD SVG 1.1//EN" "http://www.w3.org/Graphics/SVG/1.1/DTD/svg11.dtd">
<svg version="1.1" id="Camada_1" xmlns="http://www.w3.org/2000/svg" xmlns:xlink="http://www.w3.org/1999/xlink" x="0px" y="0px"
	 width="460px" height="170px" viewBox="0 0 460 170" enable-background="new 0 0 460 170" xml:space="preserve">
<path fill="#FFFFFF" d="M363.997,161.204v-22.178c0-6.854,2.555-13.599,7.671-20.231c5.117-6.628,11.305-12.608,18.571-17.948
	l22.215-16.474c7.479-5.337,13.853-11.326,19.12-17.961c5.266-6.635,7.902-13.386,7.902-20.252c0-7.323-2.405-13.728-7.216-19.223
	c-4.809-5.49-11.715-8.238-20.722-8.238c-7.636,0-13.857,2.16-18.667,6.475c-4.811,4.318-7.211,10.561-7.211,18.731
	c0,2.005-0.914,3.779-2.738,5.319c-1.824,1.542-4.257,2.312-7.297,2.312c-5.779,0-8.664-3.723-8.664-11.173
	c0-11.402,4.304-20.752,12.915-28.049c8.61-7.297,19.163-10.945,31.663-10.945c13.41,0,24.609,4.186,33.602,12.553
	c8.993,8.369,13.489,18.888,13.489,31.55c0,7.628-1.866,14.95-5.6,21.966c-3.734,7.019-8.38,12.97-13.938,17.85
	c-5.56,4.882-11.617,9.763-18.164,14.645l-18.321,13.041c-5.498,3.816-10.115,8.014-13.851,12.589
	c-3.737,4.575-5.603,9.073-5.603,13.499v11.668h70.212c1.832,0,3.392,0.839,4.69,2.509c1.296,1.676,1.945,3.729,1.945,6.157
	c0,2.279-0.646,4.297-1.931,6.044c-1.287,1.75-2.836,2.622-4.651,2.622h-80.794c-1.971,0-3.902-0.646-5.791-1.94
	C364.941,164.823,363.997,163.183,363.997,161.204z"/>
<path fill="#FFFFFF" d="M0,163.594c0-0.608,0.074-1.065,0.229-1.373L49.154,4.107C50.048,1.368,52.128,0,55.403,0
	c3.275,0,5.358,1.408,6.252,4.225l48.857,159.3c0,0,0.036,0.126,0.115,0.383c0.074,0.257,0.114,0.504,0.114,0.744
	c0,1.086-0.686,2.019-2.059,2.803c-1.373,0.783-2.899,1.173-4.576,1.173c-2.442,0-3.968-1.144-4.576-3.432l-11.211-36.379H22.391
	l-11.093,36.337c-0.754,2.316-2.41,3.475-4.97,3.475c-1.659,0-3.128-0.458-4.408-1.373C0.639,166.34,0,165.12,0,163.594z
	 M25.598,118.291h59.525L55.431,20.542L25.598,118.291z"/>
<path fill="#FFFFFF" d="M127.25,121.952V6.178c0-3.204,1.906-4.805,5.72-4.805c3.811,0,5.72,1.601,5.72,4.805v115.774
	c0,12.355,3.01,21.622,9.038,27.799c6.024,6.178,14.605,9.266,25.74,9.266c11.133,0,19.752-3.089,25.855-9.266
	c6.099-6.178,9.151-15.444,9.151-27.799V6.178c0-3.204,1.906-4.805,5.72-4.805c3.811,0,5.72,1.601,5.72,4.805v115.774
	c0,16.627-4.233,28.793-12.698,36.494C198.751,166.15,187.5,170,173.468,170c-14.035,0-25.247-3.85-33.634-11.554
	C131.443,150.745,127.25,138.579,127.25,121.952z"/>
<path fill="#FFFFFF" d="M248.776,121.952V49.421c0-16.624,4.154-28.79,12.47-36.494c8.312-7.7,19.408-11.554,33.291-11.554
	c14.184,0,25.471,3.625,33.86,10.868c8.389,7.247,12.585,16.513,12.585,27.8c0,3.968-1.907,5.949-5.72,5.949
	c-3.66,0-5.567-1.602-5.72-4.805c-2.596-19.22-14.185-28.829-34.776-28.829c-23.035,0-34.549,12.355-34.549,37.066v72.531
	c0,24.71,11.515,37.066,34.549,37.066c11.133,0,19.71-3.089,25.74-9.266c6.022-6.178,9.036-15.444,9.036-27.799v-30.66h-33.861
	c-1.373,0-2.481-0.532-3.318-1.601c-0.841-1.065-1.259-2.288-1.259-3.66c0-1.374,0.418-2.592,1.259-3.661
	c0.836-1.065,1.945-1.601,3.318-1.601h40.496c1.375,0,2.52,0.536,3.435,1.601c0.915,1.069,1.37,2.288,1.37,3.661v35.922
	c0,16.627-4.23,28.793-12.696,36.494C319.816,166.15,308.644,170,294.766,170c-14.035,0-25.207-3.85-33.519-11.554
	C252.93,150.745,248.776,138.579,248.776,121.952z"/>
<g>
	<path fill="#FFFFFF" d="M425.39,144.473v-22.98c0-0.662,0.479-0.994,1.439-0.994c0.479,0,0.882,0.145,1.213,0.429
		c0.328,0.287,0.654,0.746,0.974,1.386l8.516,16.654v-17.475c0-0.32,0.142-0.565,0.426-0.735c0.287-0.173,0.621-0.259,1.01-0.259
		c0.387,0,0.724,0.086,1.007,0.259c0.287,0.17,0.429,0.415,0.429,0.735v22.98c0,0.32-0.142,0.571-0.429,0.754
		c-0.284,0.181-0.621,0.273-1.007,0.273c-0.729,0-1.333-0.434-1.812-1.3l-8.892-17.202v17.475c0,0.32-0.145,0.571-0.429,0.754
		c-0.284,0.181-0.621,0.273-1.007,0.273c-0.39,0-0.726-0.092-1.01-0.273C425.535,145.044,425.39,144.793,425.39,144.473z"/>
	<path fill="#FFFFFF" d="M445.258,144.509v-23.016c0-0.273,0.12-0.507,0.359-0.701c0.239-0.195,0.554-0.292,0.941-0.292h6.053
		c2.235,0,4.024,0.601,5.371,1.798c1.344,1.197,2.018,3.084,2.018,5.658v10.089c0,2.577-0.673,4.464-2.018,5.661
		c-1.347,1.197-3.136,1.795-5.371,1.795h-6.053c-0.387,0-0.701-0.097-0.941-0.289C445.378,145.016,445.258,144.782,445.258,144.509z
		 M448.133,142.901h4.478c1.436,0,2.549-0.404,3.334-1.213c0.788-0.81,1.18-2.023,1.18-3.643v-10.089c0-1.617-0.392-2.833-1.18-3.64
		c-0.785-0.81-1.898-1.216-3.334-1.216h-4.478V142.901z"/>
</g>
</svg>
