<?xml version="1.0" encoding="utf-8"?>
<!-- Generator: Adobe Illustrator 17.0.2, SVG Export Plug-In . SVG Version: 6.00 Build 0)  -->
<!DOCTYPE svg PUBLIC "-//W3C//DTD SVG 1.1//EN" "http://www.w3.org/Graphics/SVG/1.1/DTD/svg11.dtd">
<svg version="1.1" id="Camada_1" xmlns="http://www.w3.org/2000/svg" xmlns:xlink="http://www.w3.org/1999/xlink" x="0px" y="0px"
	 width="460px" height="170px" viewBox="0 0 460 170" enable-background="new 0 0 460 170" xml:space="preserve">
<g>
	<g>
		<path fill="#FFFFFF" d="M0.001,67.838V26.895c0-0.569,0.232-1.014,0.699-1.341c0.467-0.324,1.005-0.487,1.615-0.487h10.479
			c3.819,0,6.833,0.752,9.047,2.254c2.214,1.504,3.323,4.225,3.323,8.164c0,2.518-0.458,4.641-1.372,6.366
			c-0.914,1.727-2.183,2.936-3.807,3.626c2.071,0.813,3.633,2.011,4.69,3.595c1.057,1.584,1.584,3.839,1.584,6.761v1.097
			c0,4.388-1.095,7.597-3.289,9.628s-5.119,3.045-8.774,3.045H2.316c-0.69,0-1.249-0.172-1.676-0.518
			C0.213,68.743,0.001,68.325,0.001,67.838z M5.118,43.345h7.617c2.518,0,4.366-0.568,5.544-1.705s1.767-2.945,1.767-5.423
			c0-4.346-2.498-6.52-7.494-6.52H5.118V43.345z M5.118,64.976h8.227c5.197,0,7.798-2.782,7.798-8.348v-1.037
			c0-2.802-0.661-4.833-1.98-6.093c-1.321-1.258-3.26-1.888-5.818-1.888H5.118V64.976z"/>
		<path fill="#FFFFFF" d="M33.206,67.778V26.895c0-0.569,0.232-1.014,0.699-1.341c0.467-0.324,1.005-0.487,1.615-0.487h21.689
			c0.57,0,1.005,0.223,1.312,0.67c0.304,0.447,0.456,0.974,0.456,1.584c0,0.65-0.163,1.209-0.487,1.676
			c-0.326,0.467-0.751,0.699-1.28,0.699H38.323v15.475h9.505c0.527,0,0.954,0.215,1.28,0.641c0.324,0.427,0.487,0.943,0.487,1.553
			c0,0.53-0.152,1.005-0.458,1.432c-0.304,0.427-0.74,0.639-1.309,0.639h-9.505v15.538h18.887c0.53,0,0.954,0.232,1.28,0.699
			c0.324,0.467,0.487,1.026,0.487,1.676c0,0.61-0.152,1.137-0.456,1.584c-0.306,0.447-0.742,0.67-1.312,0.67H35.521
			c-0.61,0-1.148-0.161-1.615-0.487C33.439,68.795,33.206,68.348,33.206,67.778z"/>
		<path fill="#FFFFFF" d="M64.523,67.778V26.833c0-0.566,0.252-1.003,0.762-1.308c0.507-0.305,1.106-0.457,1.796-0.457
			c0.69,0,1.289,0.152,1.796,0.457c0.509,0.305,0.762,0.742,0.762,1.308v38.143h16.635c0.527,0,0.934,0.232,1.218,0.699
			c0.284,0.467,0.427,1.005,0.427,1.615c0,0.608-0.143,1.148-0.427,1.613c-0.284,0.469-0.69,0.702-1.218,0.702H66.838
			c-0.61,0-1.148-0.161-1.615-0.487C64.756,68.795,64.523,68.348,64.523,67.778z"/>
		<path fill="#FFFFFF" d="M91.756,56.689v-18.34c0-4.589,1.189-7.95,3.566-10.082c2.375-2.134,5.552-3.2,9.534-3.2
			c3.979,0,7.168,1.066,9.565,3.2c2.397,2.132,3.595,5.492,3.595,10.082v18.34c0,4.592-1.198,7.952-3.595,10.084
			c-2.397,2.132-5.586,3.2-9.565,3.2c-3.982,0-7.159-1.068-9.534-3.2C92.945,64.641,91.756,61.28,91.756,56.689z M96.875,56.689
			c0,5.769,2.659,8.652,7.981,8.652c2.558,0,4.54-0.719,5.941-2.163c1.401-1.441,2.1-3.604,2.1-6.489v-18.34
			c0-2.882-0.699-5.045-2.1-6.489c-1.401-1.441-3.383-2.163-5.941-2.163c-5.322,0-7.981,2.885-7.981,8.652V56.689z"/>
		<path fill="#FFFFFF" d="M126.729,68.265V26.347c0-0.852,0.507-1.279,1.524-1.279c1.014,0,1.522,0.427,1.522,1.279v18.766h18.583
			V26.347c0-0.852,0.507-1.279,1.524-1.279c1.014,0,1.524,0.427,1.524,1.279v41.918c0,0.894-0.509,1.341-1.524,1.341
			c-1.017,0-1.524-0.447-1.524-1.341V47.916h-18.583v20.349c0,0.894-0.507,1.341-1.522,1.341
			C127.236,69.606,126.729,69.159,126.729,68.265z"/>
		<path fill="#FFFFFF" d="M160.604,57.176V37.862c0-4.426,1.106-7.666,3.32-9.717s5.188-3.077,8.926-3.077
			c3.696,0,6.672,1.026,8.926,3.077s3.381,5.291,3.381,9.717v19.314c0,4.429-1.126,7.668-3.381,9.72
			c-2.255,2.051-5.231,3.077-8.926,3.077c-3.738,0-6.712-1.026-8.926-3.077C161.71,64.844,160.604,61.604,160.604,57.176z
			 M163.65,57.176c0,6.58,3.068,9.872,9.201,9.872c2.965,0,5.249-0.822,6.855-2.469c1.604-1.645,2.406-4.111,2.406-7.403V37.862
			c0-3.289-0.802-5.758-2.406-7.403c-1.607-1.645-3.89-2.467-6.855-2.467c-6.133,0-9.201,3.289-9.201,9.869V57.176z"/>
		<path fill="#FFFFFF" d="M194.357,68.265V26.347c0-0.365,0.123-0.67,0.366-0.914c0.244-0.244,0.568-0.365,0.974-0.365h10.419
			c3.819,0,6.915,0.924,9.293,2.771c2.375,1.85,3.564,4.866,3.564,9.049c0,6.824-3.311,10.703-9.932,11.637l9.749,18.887
			c0.123,0.244,0.183,0.487,0.183,0.733c0,0.404-0.152,0.76-0.458,1.066c-0.304,0.304-0.699,0.456-1.186,0.456
			c-0.489,0-1.119-0.711-1.89-2.132l-9.565-18.704h-8.468v19.435c0,0.894-0.509,1.341-1.524,1.341
			C194.866,69.606,194.357,69.159,194.357,68.265z M197.405,46.026h8.712c6.54,0,9.809-3.025,9.809-9.078
			c0-5.97-3.269-8.955-9.809-8.955h-8.712V46.026z"/>
		<path fill="#FFFFFF" d="M225.795,68.265V26.347c0-0.852,0.509-1.279,1.524-1.279c1.014,0,1.524,0.427,1.524,1.279v41.918
			c0,0.894-0.509,1.341-1.524,1.341C226.303,69.606,225.795,69.159,225.795,68.265z"/>
		<path fill="#FFFFFF" d="M235.24,68.388c0-0.407,0.101-0.753,0.304-1.037l20.838-39.359h-19.193c-0.851,0-1.278-0.489-1.278-1.462
			c0-0.975,0.427-1.462,1.278-1.462h21.875c0.851,0,1.278,0.365,1.278,1.097c0,0.447-0.121,0.874-0.364,1.28l-20.779,39.236h20.534
			c0.851,0,1.278,0.487,1.278,1.464c0,0.974-0.427,1.461-1.278,1.461h-23.215C235.665,69.606,235.24,69.199,235.24,68.388z"/>
		<path fill="#FFFFFF" d="M266.312,57.176V37.862c0-4.426,1.106-7.666,3.32-9.717c2.212-2.051,5.188-3.077,8.924-3.077
			c3.696,0,6.672,1.026,8.926,3.077c2.257,2.051,3.383,5.291,3.383,9.717v19.314c0,4.429-1.126,7.668-3.383,9.72
			c-2.255,2.051-5.231,3.077-8.926,3.077c-3.736,0-6.712-1.026-8.924-3.077C267.419,64.844,266.312,61.604,266.312,57.176z
			 M269.359,57.176c0,6.58,3.066,9.872,9.199,9.872c2.965,0,5.251-0.822,6.855-2.469c1.604-1.645,2.406-4.111,2.406-7.403V37.862
			c0-3.289-0.802-5.758-2.406-7.403c-1.604-1.645-3.89-2.467-6.855-2.467c-6.133,0-9.199,3.289-9.199,9.869V57.176z"/>
		<path fill="#FFFFFF" d="M300.065,68.265V26.347c0-0.852,0.507-1.279,1.524-1.279c0.771,0,1.604,0.832,2.498,2.498l17.607,34.789
			V26.347c0-0.852,0.509-1.279,1.524-1.279c1.014,0,1.524,0.427,1.524,1.279v41.918c0,0.894-0.509,1.341-1.524,1.341
			c-0.65,0-1.381-0.751-2.194-2.254l-17.911-35.093v36.007c0,0.894-0.509,1.341-1.524,1.341
			C300.573,69.606,300.065,69.159,300.065,68.265z"/>
		<path fill="#FFFFFF" d="M330.836,27.566c-0.244-0.284-0.366-0.63-0.366-1.036s0.123-0.752,0.366-1.036
			c0.244-0.284,0.547-0.427,0.914-0.427h24.127c0.854,0,1.28,0.467,1.28,1.401c0,1.017-0.427,1.524-1.28,1.524h-10.479v40.273
			c0,0.894-0.509,1.341-1.524,1.341c-1.017,0-1.524-0.447-1.524-1.341V27.992h-10.6C331.383,27.992,331.078,27.852,330.836,27.566z"
			/>
		<path fill="#FFFFFF" d="M362.88,68.265V26.408c0-0.894,0.487-1.341,1.464-1.341h21.689c0.854,0,1.28,0.467,1.28,1.401
			c0,0.407-0.123,0.762-0.366,1.066c-0.244,0.304-0.547,0.458-0.914,0.458h-20.105v17.913h9.686c0.366,0,0.67,0.143,0.914,0.427
			c0.244,0.284,0.366,0.63,0.366,1.035c0,0.894-0.427,1.341-1.28,1.341h-9.686v17.973h20.105c0.366,0,0.67,0.152,0.914,0.458
			c0.244,0.304,0.366,0.659,0.366,1.066c0,0.934-0.427,1.401-1.28,1.401h-21.689C363.367,69.606,362.88,69.159,362.88,68.265z"/>
		<path fill="#FFFFFF" d="M393.041,67.778V27.566c0-1.666,0.854-2.498,2.558-2.498c1.624,0,2.985,1.077,4.082,3.229l9.565,18.34
			l9.628-18.34c1.178-2.152,2.538-3.229,4.082-3.229c1.705,0,2.558,0.832,2.558,2.498v40.212c0,0.57-0.255,1.017-0.762,1.341
			c-0.507,0.326-1.106,0.487-1.796,0.487c-0.693,0-1.291-0.161-1.799-0.487c-0.507-0.324-0.762-0.771-0.762-1.341V35.79
			l-9.199,17.303c-0.487,0.936-1.157,1.401-2.011,1.401c-0.771,0-1.401-0.465-1.888-1.401l-9.139-17.547v32.231
			c0,0.57-0.255,1.017-0.762,1.341c-0.509,0.326-1.108,0.487-1.799,0.487c-0.691,0-1.289-0.161-1.796-0.487
			C393.292,68.795,393.041,68.348,393.041,67.778z"/>
		<path fill="#FFFFFF" d="M433.74,56.689v-18.34c0-4.589,1.189-7.95,3.564-10.082c2.377-2.134,5.514-3.2,9.413-3.2
			c3.982,0,7.19,1.005,9.628,3.016c2.435,2.011,3.655,4.641,3.655,7.89c0,0.934-0.215,1.584-0.641,1.951
			c-0.425,0.364-1.066,0.547-1.917,0.547c-1.667,0-2.52-0.588-2.561-1.767c-0.527-4.67-3.209-7.007-8.042-7.007
			c-5.322,0-7.981,2.885-7.981,8.652v18.34c0,5.769,2.659,8.652,7.981,8.652c2.558,0,4.538-0.719,5.939-2.163
			c1.403-1.441,2.103-3.604,2.103-6.489v-6.214h-7.251c-0.568,0-1.005-0.215-1.309-0.641c-0.304-0.425-0.456-0.923-0.456-1.493
			c0-0.568,0.161-1.066,0.487-1.493c0.324-0.427,0.751-0.639,1.278-0.639h10.602c0.568,0,1.005,0.183,1.309,0.547
			c0.306,0.366,0.458,0.813,0.458,1.341v8.591c0,4.592-1.2,7.952-3.595,10.084c-2.397,2.132-5.586,3.2-9.565,3.2
			c-3.982,0-7.159-1.068-9.536-3.2C434.929,64.641,433.74,61.28,433.74,56.689z"/>
	</g>
	<g>
		<path fill="#FFFFFF" d="M0.362,102.949c-0.242-0.281-0.361-0.624-0.361-1.026c0-0.4,0.119-0.743,0.361-1.024
			s0.544-0.423,0.905-0.423h23.889c0.845,0,1.268,0.462,1.268,1.387c0,1.007-0.423,1.509-1.268,1.509H14.78v39.871
			c0,0.885-0.504,1.327-1.509,1.327c-1.007,0-1.509-0.442-1.509-1.327v-39.871H1.266C0.906,103.372,0.603,103.23,0.362,102.949z"/>
		<path fill="#FFFFFF" d="M32.09,143.243v-41.439c0-0.885,0.482-1.327,1.449-1.327h21.473c0.845,0,1.268,0.462,1.268,1.387
			c0,0.403-0.122,0.754-0.363,1.055c-0.241,0.303-0.542,0.453-0.905,0.453H35.107v17.735h9.59c0.363,0,0.664,0.142,0.905,0.423
			c0.241,0.281,0.363,0.624,0.363,1.024c0,0.885-0.423,1.327-1.268,1.327h-9.59v17.794h19.905c0.363,0,0.664,0.15,0.905,0.453
			c0.241,0.301,0.363,0.653,0.363,1.055c0,0.925-0.423,1.387-1.268,1.387H33.539C32.572,144.57,32.09,144.128,32.09,143.243z"/>
		<path fill="#FFFFFF" d="M59.053,143.243c0-0.159,0.02-0.281,0.06-0.363l12.899-41.683c0.237-0.723,0.785-1.084,1.648-1.084
			s1.414,0.372,1.648,1.115l12.881,41.997c0,0,0.009,0.033,0.029,0.102c0.02,0.066,0.031,0.133,0.031,0.195
			c0,0.288-0.181,0.533-0.542,0.739c-0.363,0.208-0.765,0.31-1.208,0.31c-0.644,0-1.046-0.301-1.206-0.905l-2.955-9.592H64.957
			l-2.924,9.581c-0.199,0.611-0.637,0.916-1.312,0.916c-0.436,0-0.825-0.122-1.161-0.363
			C59.221,143.966,59.053,143.645,59.053,143.243z M65.803,131.3h15.693l-7.829-25.771L65.803,131.3z"/>
		<path fill="#FFFFFF" d="M87.525,102.949c-0.241-0.281-0.363-0.624-0.363-1.026c0-0.4,0.122-0.743,0.363-1.024
			s0.542-0.423,0.905-0.423h23.886c0.845,0,1.268,0.462,1.268,1.387c0,1.007-0.423,1.509-1.268,1.509h-10.375v39.871
			c0,0.885-0.504,1.327-1.509,1.327c-1.007,0-1.509-0.442-1.509-1.327v-39.871H88.43C88.067,103.372,87.767,103.23,87.525,102.949z"
			/>
		<path fill="#FFFFFF" d="M119.252,143.243v-41.499c0-0.363,0.122-0.664,0.363-0.905c0.241-0.243,0.562-0.363,0.964-0.363h10.315
			c3.778,0,6.846,0.916,9.198,2.745c2.354,1.829,3.531,4.816,3.531,8.957c0,6.756-3.278,10.596-9.833,11.521l9.651,18.699
			c0.119,0.241,0.181,0.482,0.181,0.726c0,0.4-0.153,0.752-0.453,1.055c-0.301,0.301-0.695,0.451-1.177,0.451
			s-1.106-0.703-1.869-2.11l-9.47-18.518h-8.384v19.241c0,0.885-0.504,1.327-1.509,1.327
			C119.754,144.57,119.252,144.128,119.252,143.243z M122.269,121.226h8.625c6.475,0,9.711-2.995,9.711-8.988
			c0-5.911-3.236-8.866-9.711-8.866h-8.625C122.269,103.372,122.269,121.226,122.269,121.226z"/>
		<path fill="#FFFFFF" d="M149.952,132.264v-19.121c0-4.382,1.095-7.59,3.287-9.62c2.192-2.031,5.137-3.046,8.837-3.046
			c3.659,0,6.605,1.015,8.837,3.046c2.232,2.031,3.347,5.238,3.347,9.62v19.121c0,4.384-1.115,7.592-3.347,9.623
			s-5.179,3.046-8.837,3.046c-3.701,0-6.645-1.015-8.837-3.046S149.952,136.648,149.952,132.264z M152.971,132.264
			c0,6.515,3.035,9.773,9.107,9.773c2.935,0,5.198-0.814,6.787-2.444c1.588-1.628,2.382-4.07,2.382-7.329v-19.121
			c0-3.256-0.794-5.701-2.382-7.329s-3.851-2.442-6.787-2.442c-6.072,0-9.107,3.256-9.107,9.771V132.264z"/>
		<path fill="#FFFFFF" d="M182.89,142.761v-40.535c0-1.166,0.845-1.75,2.533-1.75c0.845,0,1.56,0.252,2.141,0.754
			c0.584,0.502,1.157,1.316,1.719,2.442l15.02,29.377v-30.824c0-0.564,0.252-0.995,0.754-1.299c0.502-0.301,1.095-0.451,1.781-0.451
			c0.681,0,1.274,0.15,1.779,0.451c0.502,0.303,0.754,0.734,0.754,1.299v40.535c0,0.564-0.252,1.007-0.754,1.327
			c-0.504,0.323-1.097,0.482-1.779,0.482c-1.287,0-2.354-0.763-3.199-2.292l-15.682-30.341v30.824c0,0.564-0.252,1.007-0.754,1.327
			c-0.504,0.323-1.097,0.482-1.781,0.482s-1.276-0.159-1.779-0.482C183.14,143.767,182.89,143.325,182.89,142.761z"/>
		<path fill="#FFFFFF" d="M217.936,142.761v-40.475c0-0.562,0.23-1.004,0.695-1.327c0.46-0.321,0.995-0.482,1.597-0.482h21.475
			c0.562,0,0.995,0.221,1.296,0.664c0.301,0.442,0.453,0.964,0.453,1.568c0,0.644-0.161,1.197-0.484,1.659
			c-0.321,0.462-0.743,0.692-1.265,0.692h-18.699v15.321h9.408c0.522,0,0.945,0.212,1.268,0.635
			c0.321,0.423,0.482,0.934,0.482,1.537c0,0.524-0.15,0.995-0.451,1.418c-0.303,0.423-0.734,0.633-1.299,0.633h-9.408v15.383h18.699
			c0.522,0,0.945,0.23,1.265,0.692c0.323,0.462,0.484,1.015,0.484,1.659c0,0.604-0.153,1.126-0.453,1.568
			c-0.301,0.442-0.734,0.664-1.296,0.664h-21.475c-0.602,0-1.137-0.159-1.597-0.482
			C218.165,143.767,217.936,143.325,217.936,142.761z"/>
		<path fill="#FFFFFF" d="M245.683,102.586c0-0.602,0.332-1.104,0.993-1.506c0.664-0.403,1.338-0.604,2.022-0.604
			c0.723,0,1.327,0.442,1.81,1.327l10.616,20.69l10.556-20.69c0.482-0.885,1.086-1.327,1.81-1.327s1.407,0.201,2.051,0.604
			s0.967,0.905,0.967,1.506c0,0.323-0.082,0.664-0.241,1.026l-12.487,23.282c-0.082,0.122-0.122,0.323-0.122,0.604v15.261
			c0,0.564-0.25,1.007-0.752,1.327c-0.504,0.323-1.097,0.482-1.781,0.482s-1.276-0.159-1.779-0.482
			c-0.504-0.321-0.754-0.763-0.754-1.327v-15.26c0-0.201-0.06-0.4-0.181-0.604l-12.485-23.282
			C245.762,103.25,245.683,102.909,245.683,102.586z"/>
		<path fill="#FFFFFF" d="M279.882,138.659c0-0.403,0.153-0.785,0.453-1.146c0.301-0.363,0.613-0.544,0.936-0.544
			c0.241,0,0.602,0.263,1.084,0.785l1.63,1.748c0.602,0.644,1.577,1.228,2.924,1.75c1.347,0.524,2.905,0.785,4.674,0.785
			c3.097,0,5.471-0.763,7.119-2.292c1.648-1.529,2.473-3.781,2.473-6.758c0-2.25-0.502-4.121-1.509-5.608
			c-1.004-1.489-2.252-2.555-3.738-3.199c-1.489-0.642-3.108-1.305-4.856-1.991c-1.75-0.681-3.369-1.356-4.856-2.02
			c-1.489-0.664-2.736-1.759-3.741-3.287c-1.007-1.529-1.509-3.458-1.509-5.791c0-2.09,0.383-3.869,1.146-5.338
			c0.763-1.467,1.79-2.573,3.077-3.318c1.287-0.743,2.584-1.265,3.891-1.568c1.305-0.301,2.703-0.451,4.192-0.451
			c2.413,0,4.654,0.352,6.725,1.055c2.071,0.703,3.108,1.498,3.108,2.382c0,0.363-0.142,0.745-0.423,1.146
			c-0.283,0.403-0.604,0.604-0.964,0.604c-0.204,0-0.644-0.19-1.327-0.573c-0.686-0.383-1.659-0.763-2.927-1.146
			c-1.265-0.383-2.683-0.573-4.252-0.573c-2.615,0-4.807,0.573-6.574,1.719c-1.772,1.146-2.655,3.086-2.655,5.82
			c0,1.65,0.372,3.026,1.115,4.132s1.71,1.96,2.896,2.564c1.186,0.604,2.493,1.146,3.92,1.628c1.429,0.482,2.867,1.026,4.314,1.628
			c1.449,0.604,2.765,1.349,3.951,2.232c1.186,0.885,2.152,2.141,2.896,3.772c0.743,1.628,1.117,3.588,1.117,5.88
			c0,4.101-1.117,7.169-3.349,9.2c-2.232,2.031-5.218,3.046-8.957,3.046c-3.46,0-6.324-0.745-8.596-2.232
			C281.018,141.212,279.882,139.865,279.882,138.659z"/>
		<path fill="#FFFFFF" d="M311.25,132.264v-19.121c0-4.382,1.095-7.59,3.287-9.62c2.192-2.031,5.137-3.046,8.837-3.046
			c3.659,0,6.605,1.015,8.837,3.046s3.347,5.238,3.347,9.62v19.121c0,4.384-1.115,7.592-3.347,9.623s-5.179,3.046-8.837,3.046
			c-3.701,0-6.645-1.015-8.837-3.046S311.25,136.648,311.25,132.264z M314.266,132.264c0,6.515,3.035,9.773,9.107,9.773
			c2.935,0,5.198-0.814,6.787-2.444c1.588-1.628,2.382-4.07,2.382-7.329v-19.121c0-3.256-0.794-5.701-2.382-7.329
			s-3.851-2.442-6.787-2.442c-6.072,0-9.107,3.256-9.107,9.771V132.264z"/>
		<path fill="#FFFFFF" d="M341.289,143.243c0-0.159,0.02-0.281,0.06-0.363l12.899-41.683c0.237-0.723,0.785-1.084,1.648-1.084
			c0.863,0,1.414,0.372,1.648,1.115l12.881,41.997c0,0,0.009,0.033,0.029,0.102c0.02,0.066,0.031,0.133,0.031,0.195
			c0,0.288-0.181,0.533-0.542,0.739c-0.363,0.208-0.765,0.31-1.208,0.31c-0.644,0-1.046-0.301-1.206-0.905l-2.955-9.592h-17.381
			l-2.924,9.581c-0.199,0.611-0.637,0.916-1.312,0.916c-0.436,0-0.825-0.122-1.161-0.363
			C341.458,143.966,341.289,143.645,341.289,143.243z M348.039,131.3h15.693l-7.829-25.771L348.039,131.3z"/>
		<path fill="#FFFFFF" d="M376.638,143.243v-41.499c0-0.363,0.122-0.664,0.363-0.905c0.241-0.243,0.562-0.363,0.964-0.363h10.315
			c3.778,0,6.846,0.916,9.198,2.745c2.354,1.829,3.531,4.816,3.531,8.957c0,6.756-3.278,10.596-9.833,11.521l9.651,18.699
			c0.119,0.241,0.181,0.482,0.181,0.726c0,0.4-0.153,0.752-0.453,1.055c-0.301,0.301-0.695,0.451-1.177,0.451
			s-1.106-0.703-1.869-2.11l-9.47-18.518h-8.384v19.241c0,0.885-0.504,1.327-1.509,1.327
			C377.14,144.57,376.638,144.128,376.638,143.243z M379.654,121.226h8.625c6.475,0,9.711-2.995,9.711-8.988
			c0-5.911-3.236-8.866-9.711-8.866h-8.625V121.226z"/>
		<path fill="#FFFFFF" d="M407.761,143.243v-41.439c0-0.885,0.482-1.327,1.449-1.327h21.473c0.845,0,1.268,0.462,1.268,1.387
			c0,0.403-0.122,0.754-0.363,1.055c-0.241,0.303-0.542,0.453-0.905,0.453h-19.905v17.735h9.59c0.363,0,0.664,0.142,0.905,0.423
			c0.241,0.281,0.363,0.624,0.363,1.024c0,0.885-0.422,1.327-1.268,1.327h-9.59v17.794h19.905c0.363,0,0.664,0.15,0.905,0.453
			c0.241,0.301,0.363,0.653,0.363,1.055c0,0.925-0.423,1.387-1.268,1.387h-21.473C408.244,144.57,407.761,144.128,407.761,143.243z"
			/>
		<path fill="#FFFFFF" d="M435.69,138.659c0-0.403,0.153-0.785,0.453-1.146c0.301-0.363,0.613-0.544,0.936-0.544
			c0.241,0,0.602,0.263,1.084,0.785l1.63,1.748c0.602,0.644,1.577,1.228,2.924,1.75c1.347,0.524,2.905,0.785,4.674,0.785
			c3.097,0,5.471-0.763,7.119-2.292c1.648-1.529,2.473-3.781,2.473-6.758c0-2.25-0.502-4.121-1.509-5.608
			c-1.004-1.489-2.252-2.555-3.738-3.199c-1.489-0.642-3.108-1.305-4.856-1.991c-1.75-0.681-3.369-1.356-4.856-2.02
			c-1.489-0.664-2.736-1.759-3.741-3.287c-1.007-1.529-1.509-3.458-1.509-5.791c0-2.09,0.383-3.869,1.146-5.338
			c0.763-1.467,1.79-2.573,3.077-3.318c1.287-0.743,2.584-1.265,3.891-1.568c1.305-0.301,2.703-0.451,4.192-0.451
			c2.413,0,4.654,0.352,6.725,1.055c2.071,0.703,3.108,1.498,3.108,2.382c0,0.363-0.142,0.745-0.423,1.146
			c-0.283,0.403-0.604,0.604-0.964,0.604c-0.204,0-0.644-0.19-1.327-0.573c-0.686-0.383-1.659-0.763-2.927-1.146
			c-1.265-0.383-2.683-0.573-4.252-0.573c-2.615,0-4.807,0.573-6.574,1.719c-1.772,1.146-2.655,3.086-2.655,5.82
			c0,1.65,0.372,3.026,1.115,4.132c0.743,1.106,1.71,1.96,2.896,2.564c1.186,0.604,2.493,1.146,3.92,1.628
			c1.429,0.482,2.867,1.026,4.314,1.628c1.449,0.604,2.765,1.349,3.951,2.232c1.186,0.885,2.152,2.141,2.896,3.772
			c0.743,1.628,1.117,3.588,1.117,5.88c0,4.101-1.117,7.169-3.349,9.2c-2.232,2.031-5.218,3.046-8.957,3.046
			c-3.46,0-6.324-0.745-8.596-2.232C436.826,141.212,435.69,139.865,435.69,138.659z"/>
	</g>
	<path fill="#FFFFFF" d="M458.5,158.502H1.5c-0.828,0-1.5,0.672-1.5,1.5s0.672,1.5,1.5,1.5h457c0.828,0,1.5-0.672,1.5-1.5
		S459.328,158.502,458.5,158.502z"/>
	<path fill="#FFFFFF" d="M458.5,83.543H1.5c-0.828,0-1.5,0.672-1.5,1.5s0.672,1.5,1.5,1.5h457c0.828,0,1.5-0.672,1.5-1.5
		S459.328,83.543,458.5,83.543z"/>
	<path fill="#FFFFFF" d="M458.5,8.498H1.5c-0.828,0-1.5,0.672-1.5,1.5s0.672,1.5,1.5,1.5h457c0.828,0,1.5-0.672,1.5-1.5
		S459.328,8.498,458.5,8.498z"/>
</g>
</svg>
