<?xml version="1.0" encoding="utf-8"?>
<!-- Generator: Adobe Illustrator 17.0.2, SVG Export Plug-In . SVG Version: 6.00 Build 0)  -->
<!DOCTYPE svg PUBLIC "-//W3C//DTD SVG 1.1//EN" "http://www.w3.org/Graphics/SVG/1.1/DTD/svg11.dtd">
<svg version="1.1" id="Camada_1" xmlns="http://www.w3.org/2000/svg" xmlns:xlink="http://www.w3.org/1999/xlink" x="0px" y="0px"
	 width="460px" height="170px" viewBox="0 0 460 170" enable-background="new 0 0 460 170" xml:space="preserve">
<g>
	<path fill="#FFFFFF" d="M0,64.375V23.432c0-0.569,0.232-1.014,0.699-1.341c0.467-0.324,1.005-0.487,1.615-0.487h10.479
		c3.819,0,6.833,0.752,9.047,2.254c2.214,1.504,3.323,4.225,3.323,8.164c0,2.518-0.458,4.641-1.372,6.366
		c-0.914,1.727-2.183,2.936-3.807,3.626c2.071,0.813,3.633,2.011,4.69,3.595c1.057,1.584,1.584,3.839,1.584,6.761v1.097
		c0,4.388-1.095,7.597-3.289,9.628c-2.194,2.031-5.119,3.045-8.774,3.045H2.315c-0.69,0-1.249-0.172-1.676-0.518
		C0.212,65.28,0,64.862,0,64.375z M5.117,39.882h7.617c2.518,0,4.366-0.568,5.544-1.705s1.767-2.945,1.767-5.423
		c0-4.346-2.498-6.52-7.494-6.52H5.117V39.882z M5.117,61.513h8.227c5.197,0,7.798-2.782,7.798-8.348v-1.037
		c0-2.802-0.661-4.833-1.98-6.093c-1.321-1.258-3.26-1.888-5.818-1.888H5.117V61.513z"/>
	<path fill="#FFFFFF" d="M33.205,64.315V23.432c0-0.569,0.232-1.014,0.699-1.341c0.467-0.324,1.005-0.487,1.615-0.487h21.689
		c0.57,0,1.005,0.223,1.312,0.67c0.304,0.447,0.456,0.974,0.456,1.584c0,0.65-0.163,1.209-0.487,1.676
		c-0.326,0.467-0.751,0.699-1.28,0.699H38.322v15.475h9.505c0.527,0,0.954,0.215,1.28,0.641c0.324,0.427,0.487,0.943,0.487,1.553
		c0,0.53-0.152,1.005-0.458,1.432c-0.304,0.427-0.74,0.639-1.309,0.639h-9.505v15.538h18.887c0.53,0,0.954,0.232,1.28,0.699
		c0.324,0.467,0.487,1.026,0.487,1.676c0,0.61-0.152,1.137-0.456,1.584c-0.306,0.447-0.742,0.67-1.312,0.67H35.52
		c-0.61,0-1.148-0.161-1.615-0.487C33.438,65.332,33.205,64.885,33.205,64.315z"/>
	<path fill="#FFFFFF" d="M64.522,64.315V23.37c0-0.566,0.252-1.003,0.762-1.308c0.507-0.305,1.106-0.457,1.796-0.457
		c0.69,0,1.289,0.152,1.796,0.457c0.509,0.305,0.762,0.742,0.762,1.308v38.143h16.635c0.527,0,0.934,0.232,1.218,0.699
		c0.284,0.467,0.427,1.005,0.427,1.615c0,0.608-0.143,1.148-0.427,1.613c-0.284,0.469-0.69,0.702-1.218,0.702H66.837
		c-0.61,0-1.148-0.161-1.615-0.487C64.755,65.332,64.522,64.885,64.522,64.315z"/>
	<path fill="#FFFFFF" d="M91.755,53.226v-18.34c0-4.589,1.189-7.95,3.566-10.082c2.375-2.134,5.552-3.2,9.534-3.2
		c3.979,0,7.168,1.066,9.565,3.2c2.397,2.132,3.595,5.492,3.595,10.082v18.34c0,4.592-1.198,7.952-3.595,10.084
		c-2.397,2.132-5.586,3.2-9.565,3.2c-3.982,0-7.159-1.068-9.534-3.2C92.944,61.178,91.755,57.817,91.755,53.226z M96.874,53.226
		c0,5.769,2.659,8.652,7.981,8.652c2.558,0,4.54-0.719,5.941-2.163c1.401-1.441,2.1-3.604,2.1-6.489v-18.34
		c0-2.882-0.699-5.045-2.1-6.489c-1.401-1.441-3.383-2.163-5.941-2.163c-5.322,0-7.981,2.885-7.981,8.652V53.226z"/>
	<path fill="#FFFFFF" d="M126.728,64.802V22.884c0-0.852,0.507-1.279,1.524-1.279c1.014,0,1.522,0.427,1.522,1.279V41.65h18.583
		V22.884c0-0.852,0.507-1.279,1.524-1.279c1.014,0,1.524,0.427,1.524,1.279v41.918c0,0.894-0.509,1.341-1.524,1.341
		c-1.017,0-1.524-0.447-1.524-1.341V44.453h-18.583v20.349c0,0.894-0.507,1.341-1.522,1.341
		C127.235,66.143,126.728,65.696,126.728,64.802z"/>
	<path fill="#FFFFFF" d="M160.603,53.713V34.399c0-4.426,1.106-7.666,3.32-9.717s5.188-3.077,8.926-3.077
		c3.696,0,6.672,1.026,8.926,3.077s3.381,5.291,3.381,9.717v19.314c0,4.429-1.126,7.668-3.381,9.72
		c-2.255,2.051-5.231,3.077-8.926,3.077c-3.738,0-6.712-1.026-8.926-3.077C161.709,61.381,160.603,58.141,160.603,53.713z
		 M163.649,53.713c0,6.58,3.068,9.872,9.201,9.872c2.965,0,5.249-0.822,6.855-2.469c1.604-1.645,2.406-4.111,2.406-7.403V34.399
		c0-3.289-0.802-5.758-2.406-7.403c-1.607-1.645-3.89-2.467-6.855-2.467c-6.133,0-9.201,3.289-9.201,9.869V53.713z"/>
	<path fill="#FFFFFF" d="M194.356,64.802V22.884c0-0.365,0.123-0.67,0.366-0.914c0.244-0.244,0.568-0.365,0.974-0.365h10.419
		c3.819,0,6.915,0.924,9.293,2.771c2.375,1.85,3.564,4.866,3.564,9.049c0,6.824-3.311,10.703-9.932,11.637l9.749,18.887
		c0.123,0.244,0.183,0.487,0.183,0.733c0,0.404-0.152,0.76-0.458,1.066c-0.304,0.304-0.699,0.456-1.186,0.456
		c-0.489,0-1.119-0.711-1.89-2.132l-9.565-18.704h-8.468v19.435c0,0.894-0.509,1.341-1.524,1.341
		C194.865,66.143,194.356,65.696,194.356,64.802z M197.404,42.563h8.712c6.54,0,9.809-3.025,9.809-9.078
		c0-5.97-3.269-8.955-9.809-8.955h-8.712V42.563z"/>
	<path fill="#FFFFFF" d="M225.794,64.802V22.884c0-0.852,0.509-1.279,1.524-1.279c1.014,0,1.524,0.427,1.524,1.279v41.918
		c0,0.894-0.509,1.341-1.524,1.341C226.303,66.143,225.794,65.696,225.794,64.802z"/>
	<path fill="#FFFFFF" d="M235.239,64.925c0-0.407,0.101-0.753,0.304-1.037l20.838-39.359h-19.193c-0.851,0-1.278-0.489-1.278-1.462
		c0-0.975,0.427-1.462,1.278-1.462h21.875c0.851,0,1.278,0.365,1.278,1.097c0,0.447-0.121,0.874-0.364,1.28l-20.779,39.236h20.534
		c0.851,0,1.278,0.487,1.278,1.464c0,0.974-0.427,1.461-1.278,1.461h-23.215C235.665,66.143,235.239,65.736,235.239,64.925z"/>
	<path fill="#FFFFFF" d="M266.312,53.713V34.399c0-4.426,1.106-7.666,3.32-9.717c2.212-2.051,5.188-3.077,8.924-3.077
		c3.696,0,6.672,1.026,8.926,3.077c2.257,2.051,3.383,5.291,3.383,9.717v19.314c0,4.429-1.126,7.668-3.383,9.72
		c-2.255,2.051-5.231,3.077-8.926,3.077c-3.736,0-6.712-1.026-8.924-3.077C267.418,61.381,266.312,58.141,266.312,53.713z
		 M269.358,53.713c0,6.58,3.066,9.872,9.199,9.872c2.965,0,5.251-0.822,6.855-2.469c1.604-1.645,2.406-4.111,2.406-7.403V34.399
		c0-3.289-0.802-5.758-2.406-7.403s-3.89-2.467-6.855-2.467c-6.133,0-9.199,3.289-9.199,9.869V53.713z"/>
	<path fill="#FFFFFF" d="M300.065,64.802V22.884c0-0.852,0.507-1.279,1.524-1.279c0.771,0,1.604,0.832,2.498,2.498l17.607,34.789
		V22.884c0-0.852,0.509-1.279,1.524-1.279c1.014,0,1.524,0.427,1.524,1.279v41.918c0,0.894-0.509,1.341-1.524,1.341
		c-0.65,0-1.381-0.751-2.194-2.254l-17.911-35.093v36.007c0,0.894-0.509,1.341-1.524,1.341
		C300.572,66.143,300.065,65.696,300.065,64.802z"/>
	<path fill="#FFFFFF" d="M330.835,24.103c-0.244-0.284-0.366-0.63-0.366-1.036s0.123-0.752,0.366-1.036
		c0.244-0.284,0.547-0.427,0.914-0.427h24.127c0.854,0,1.28,0.467,1.28,1.401c0,1.017-0.427,1.524-1.28,1.524h-10.479v40.273
		c0,0.894-0.509,1.341-1.524,1.341c-1.017,0-1.524-0.447-1.524-1.341V24.529h-10.6C331.382,24.529,331.078,24.389,330.835,24.103z"
		/>
	<path fill="#FFFFFF" d="M362.88,64.802V22.945c0-0.894,0.487-1.341,1.464-1.341h21.689c0.854,0,1.28,0.467,1.28,1.401
		c0,0.407-0.123,0.762-0.366,1.066c-0.244,0.304-0.547,0.458-0.914,0.458h-20.105v17.913h9.686c0.366,0,0.67,0.143,0.914,0.427
		c0.244,0.284,0.366,0.63,0.366,1.035c0,0.894-0.427,1.341-1.28,1.341h-9.686v17.973h20.105c0.366,0,0.67,0.152,0.914,0.458
		c0.244,0.304,0.366,0.659,0.366,1.066c0,0.934-0.427,1.401-1.28,1.401h-21.689C363.367,66.143,362.88,65.696,362.88,64.802z"/>
	<path fill="#FFFFFF" d="M393.04,64.315V24.103c0-1.666,0.854-2.498,2.558-2.498c1.624,0,2.985,1.077,4.082,3.229l9.565,18.34
		l9.628-18.34c1.178-2.152,2.538-3.229,4.082-3.229c1.705,0,2.558,0.832,2.558,2.498v40.212c0,0.57-0.255,1.017-0.762,1.341
		c-0.507,0.326-1.106,0.487-1.796,0.487c-0.693,0-1.291-0.161-1.799-0.487c-0.507-0.324-0.762-0.771-0.762-1.341V32.327
		l-9.199,17.303c-0.487,0.936-1.157,1.401-2.011,1.401c-0.771,0-1.401-0.465-1.888-1.401l-9.139-17.547v32.231
		c0,0.57-0.255,1.017-0.762,1.341c-0.509,0.326-1.108,0.487-1.799,0.487s-1.289-0.161-1.796-0.487
		C393.292,65.332,393.04,64.885,393.04,64.315z"/>
	<path fill="#FFFFFF" d="M433.739,53.226v-18.34c0-4.589,1.189-7.95,3.564-10.082c2.377-2.134,5.514-3.2,9.413-3.2
		c3.982,0,7.19,1.005,9.628,3.016c2.435,2.011,3.655,4.641,3.655,7.89c0,0.934-0.215,1.584-0.641,1.951
		c-0.425,0.364-1.066,0.547-1.917,0.547c-1.667,0-2.52-0.588-2.561-1.767c-0.527-4.67-3.209-7.007-8.042-7.007
		c-5.322,0-7.981,2.885-7.981,8.652v18.34c0,5.769,2.659,8.652,7.981,8.652c2.558,0,4.538-0.719,5.939-2.163
		c1.403-1.441,2.103-3.604,2.103-6.489v-6.214h-7.251c-0.568,0-1.005-0.215-1.309-0.641c-0.304-0.425-0.456-0.923-0.456-1.493
		c0-0.568,0.161-1.066,0.487-1.493c0.324-0.427,0.751-0.639,1.278-0.639h10.602c0.568,0,1.005,0.183,1.309,0.547
		c0.306,0.366,0.458,0.813,0.458,1.341v8.591c0,4.592-1.2,7.952-3.595,10.084c-2.397,2.132-5.586,3.2-9.565,3.2
		c-3.982,0-7.159-1.068-9.536-3.2C434.928,61.178,433.739,57.817,433.739,53.226z"/>
</g>
<path fill="#FFFFFF" d="M2,4h456c1.104,0,2-0.896,2-2s-0.896-2-2-2H2C0.896,0,0,0.896,0,2S0.896,4,2,4z"/>
<path fill="#FFFFFF" d="M458,84.115H2c-1.104,0-2,0.896-2,2s0.896,2,2,2h456c1.104,0,2-0.896,2-2S459.104,84.115,458,84.115z"/>
<path fill="#FFFFFF" d="M458,165.43H2c-1.104,0-2,0.896-2,2s0.896,2,2,2h456c1.104,0,2-0.896,2-2S459.104,165.43,458,165.43z"/>
<g>
	<path fill="#FFFFFF" d="M-0.001,146.13v-38.885c0-0.791,0.471-1.187,1.413-1.187c0.715,0,1.488,0.773,2.317,2.318l16.334,32.272
		v-33.402c0-0.791,0.47-1.187,1.413-1.187c0.942,0,1.413,0.396,1.413,1.187v38.885c0,0.829-0.471,1.243-1.413,1.243
		c-0.603,0-1.281-0.697-2.035-2.091L2.826,112.727v33.403c0,0.829-0.472,1.243-1.413,1.243C0.47,147.374-0.001,146.959-0.001,146.13
		z"/>
	<path fill="#FFFFFF" d="M31.819,146.13v-38.828c0-0.829,0.452-1.244,1.357-1.244h20.121c0.792,0,1.187,0.434,1.187,1.3
		c0,0.378-0.113,0.707-0.339,0.989c-0.226,0.283-0.509,0.424-0.848,0.424H34.645v16.617h8.986c0.339,0,0.621,0.132,0.848,0.395
		c0.226,0.264,0.339,0.585,0.339,0.961c0,0.829-0.395,1.243-1.187,1.243h-8.986v16.673h18.651c0.339,0,0.622,0.142,0.848,0.424
		c0.226,0.283,0.339,0.612,0.339,0.989c0,0.867-0.395,1.3-1.187,1.3H33.175C32.271,147.374,31.819,146.959,31.819,146.13z"/>
	<path fill="#FFFFFF" d="M56.97,107.302c0-0.377,0.131-0.679,0.395-0.905c0.263-0.226,0.584-0.339,0.961-0.339
		c0.489,0,0.923,0.339,1.3,1.017l10.852,21.76l10.908-21.76c0.339-0.678,0.772-1.017,1.3-1.017c0.339,0,0.63,0.113,0.876,0.339
		c0.244,0.226,0.367,0.528,0.367,0.905c0,0.415-0.076,0.772-0.226,1.074l-11.756,23.003c-0.038,0.076-0.057,0.208-0.057,0.396
		v14.356c0,0.829-0.471,1.243-1.413,1.243c-0.942,0-1.413-0.414-1.413-1.243v-14.356c0-0.113-0.038-0.245-0.113-0.396l-11.7-23.003
		C57.063,107.886,56.97,107.528,56.97,107.302z"/>
	<path fill="#FFFFFF" d="M87.037,141.552c0-0.603,0.217-1.187,0.65-1.752c0.433-0.565,0.913-0.847,1.441-0.847
		c0.339,0,0.772,0.235,1.3,0.706c0.527,0.471,1.074,0.999,1.639,1.582c0.565,0.585,1.45,1.112,2.656,1.583
		c1.206,0.472,2.562,0.706,4.07,0.706c2.449,0,4.371-0.593,5.765-1.78c1.394-1.187,2.091-2.929,2.091-5.228
		c0-2.072-0.641-3.759-1.921-5.058c-1.282-1.3-2.826-2.289-4.635-2.967c-1.809-0.678-3.627-1.403-5.454-2.176
		c-1.828-0.772-3.382-1.959-4.663-3.56c-1.282-1.601-1.922-3.664-1.922-6.189c0-1.98,0.377-3.704,1.131-5.17
		c0.753-1.466,1.761-2.571,3.024-3.314c1.262-0.743,2.571-1.286,3.928-1.629c1.356-0.342,2.806-0.514,4.352-0.514
		c2.336,0,4.569,0.339,6.698,1.015c2.128,0.678,3.193,1.616,3.193,2.815c0,0.53-0.189,1.098-0.565,1.704
		c-0.377,0.606-0.867,0.908-1.469,0.908c-0.151,0-1.017-0.358-2.6-1.073c-1.582-0.716-3.335-1.074-5.257-1.074
		c-2.299,0-4.154,0.471-5.567,1.413c-1.413,0.942-2.119,2.43-2.119,4.465c0,1.734,0.64,3.137,1.922,4.211
		c1.281,1.074,2.835,1.931,4.663,2.571c1.827,0.641,3.645,1.376,5.454,2.204c1.809,0.829,3.353,2.157,4.635,3.985
		c1.281,1.828,1.921,4.154,1.921,6.98c0,3.882-1.13,6.812-3.391,8.79c-2.261,1.978-5.256,2.966-8.986,2.966
		c-3.354,0-6.189-0.703-8.506-2.11C88.195,144.31,87.037,142.922,87.037,141.552z"/>
	<path fill="#FFFFFF" d="M117.161,135.392v-17.012c0-4.257,1.102-7.376,3.307-9.354c2.204-1.978,5.152-2.967,8.845-2.967
		c3.692,0,6.65,0.989,8.873,2.967c2.223,1.978,3.335,5.097,3.335,9.354v17.012c0,4.258-1.112,7.376-3.335,9.354
		c-2.223,1.978-5.181,2.967-8.873,2.967c-3.694,0-6.641-0.989-8.845-2.967C118.263,142.767,117.161,139.65,117.161,135.392z
		 M121.909,135.392c0,5.351,2.467,8.026,7.404,8.026c2.374,0,4.211-0.669,5.51-2.007c1.3-1.337,1.95-3.343,1.95-6.019v-17.012
		c0-2.675-0.65-4.681-1.95-6.019c-1.3-1.337-3.137-2.007-5.51-2.007c-4.937,0-7.404,2.676-7.404,8.026V135.392z"/>
	<path fill="#FFFFFF" d="M146.098,145.395c0-0.075,0.037-0.226,0.113-0.452l11.567-37.574c0.332-1.1,1.293-1.65,2.882-1.65
		c1.587,0,2.549,0.554,2.881,1.662l11.607,37.711c0,0.071,0.009,0.141,0.028,0.212c0.018,0.071,0.028,0.124,0.028,0.159
		c0,0.496-0.311,0.938-0.932,1.327c-0.622,0.389-1.291,0.584-2.007,0.584c-0.904,0-1.469-0.356-1.696-1.068l-2.487-8.371h-14.956
		l-2.478,8.341c-0.223,0.732-0.796,1.098-1.722,1.098c-0.666,0-1.304-0.188-1.915-0.565
		C146.403,146.432,146.098,145.96,146.098,145.395z M154.305,133.978h12.611l-6.287-21.292L154.305,133.978z"/>
	<path fill="#FFFFFF" d="M180.235,145.678v-37.981c0-0.452,0.16-0.829,0.48-1.131c0.32-0.301,0.725-0.47,1.215-0.509h10.343
		c3.767,0,6.801,0.876,9.099,2.628c2.298,1.752,3.448,4.645,3.448,8.676c0,6.217-2.808,9.891-8.422,11.021l8.365,15.882
		c0.15,0.264,0.226,0.528,0.226,0.791c0,0.603-0.302,1.158-0.904,1.667c-0.603,0.509-1.243,0.763-1.922,0.763
		c-0.791,0-1.507-0.622-2.147-1.865l-8.534-16.56h-6.5v16.616c0,0.529-0.236,0.942-0.706,1.244
		c-0.472,0.302-1.027,0.452-1.667,0.452c-0.641,0-1.197-0.15-1.667-0.452C180.47,146.62,180.235,146.206,180.235,145.678z
		 M184.983,125.105h7.291c5.2,0,7.799-2.468,7.799-7.404c0-4.898-2.6-7.348-7.799-7.348h-7.291V125.105z"/>
	<path fill="#FFFFFF" d="M210.925,145.678v-37.924c0-0.527,0.217-0.941,0.65-1.243c0.433-0.301,0.933-0.452,1.498-0.452h20.122
		c0.527,0,0.932,0.208,1.214,0.622c0.282,0.415,0.425,0.905,0.425,1.469c0,0.604-0.151,1.122-0.453,1.555
		c-0.302,0.434-0.697,0.65-1.186,0.65h-17.522v14.356h8.818c0.489,0,0.884,0.198,1.186,0.594c0.302,0.395,0.453,0.876,0.453,1.441
		c0,0.49-0.141,0.932-0.425,1.328c-0.282,0.395-0.687,0.593-1.214,0.593h-8.818v14.412h17.522c0.489,0,0.884,0.218,1.186,0.65
		c0.302,0.434,0.453,0.952,0.453,1.554c0,0.565-0.143,1.055-0.425,1.469c-0.282,0.415-0.687,0.622-1.214,0.622h-20.122
		c-0.565,0-1.065-0.15-1.498-0.452C211.141,146.62,210.925,146.206,210.925,145.678z"/>
	<path fill="#FFFFFF" d="M237.827,141.552c0-0.603,0.217-1.187,0.651-1.752c0.432-0.565,0.913-0.847,1.441-0.847
		c0.339,0,0.772,0.235,1.299,0.706c0.527,0.471,1.074,0.999,1.639,1.582c0.565,0.585,1.45,1.112,2.656,1.583
		c1.205,0.472,2.562,0.706,4.069,0.706c2.45,0,4.371-0.593,5.766-1.78c1.393-1.187,2.091-2.929,2.091-5.228
		c0-2.072-0.642-3.759-1.922-5.058c-1.281-1.3-2.825-2.289-4.634-2.967c-1.809-0.678-3.627-1.403-5.454-2.176
		c-1.828-0.772-3.383-1.959-4.663-3.56c-1.281-1.601-1.921-3.664-1.921-6.189c0-1.98,0.376-3.704,1.13-5.17
		c0.754-1.466,1.761-2.571,3.024-3.314c1.263-0.743,2.572-1.286,3.928-1.629c1.357-0.342,2.807-0.514,4.352-0.514
		c2.337,0,4.569,0.339,6.698,1.015c2.129,0.678,3.194,1.616,3.194,2.815c0,0.53-0.19,1.098-0.565,1.704
		c-0.378,0.606-0.867,0.908-1.47,0.908c-0.151,0-1.017-0.358-2.6-1.073c-1.583-0.716-3.334-1.074-5.256-1.074
		c-2.299,0-4.153,0.471-5.567,1.413c-1.413,0.942-2.119,2.43-2.119,4.465c0,1.734,0.64,3.137,1.921,4.211
		c1.281,1.074,2.835,1.931,4.663,2.571c1.827,0.641,3.645,1.376,5.454,2.204c1.809,0.829,3.353,2.157,4.634,3.985
		c1.281,1.828,1.922,4.154,1.922,6.98c0,3.882-1.13,6.812-3.392,8.79c-2.261,1.978-5.256,2.966-8.986,2.966
		c-3.354,0-6.189-0.703-8.507-2.11C238.987,144.31,237.827,142.922,237.827,141.552z"/>
	<path fill="#FFFFFF" d="M265.522,108.376c-0.227-0.263-0.34-0.584-0.34-0.961c0-0.376,0.113-0.697,0.34-0.961
		c0.225-0.263,0.509-0.396,0.847-0.396h22.382c0.792,0,1.187,0.434,1.187,1.3c0,0.942-0.395,1.413-1.187,1.413h-9.722v37.359
		c0,0.829-0.471,1.243-1.413,1.243c-0.942,0-1.413-0.414-1.413-1.243v-37.359h-9.835
		C266.03,108.771,265.747,108.639,265.522,108.376z"/>
	<path fill="#FFFFFF" d="M295.25,146.13v-38.885c0-0.791,0.47-1.187,1.413-1.187c0.942,0,1.413,0.396,1.413,1.187v17.408h17.239
		v-17.408c0-0.791,0.471-1.187,1.413-1.187c0.942,0,1.414,0.396,1.414,1.187v38.885c0,0.829-0.472,1.243-1.414,1.243
		c-0.942,0-1.413-0.414-1.413-1.243v-18.877h-17.239v18.877c0,0.829-0.471,1.243-1.413,1.243
		C295.72,147.374,295.25,146.959,295.25,146.13z"/>
	<path fill="#FFFFFF" d="M327.069,146.13v-38.828c0-0.829,0.452-1.244,1.356-1.244h20.121c0.792,0,1.187,0.434,1.187,1.3
		c0,0.378-0.113,0.707-0.339,0.989c-0.227,0.283-0.509,0.424-0.848,0.424h-18.651v16.617h8.986c0.34,0,0.622,0.132,0.848,0.395
		c0.225,0.264,0.339,0.585,0.339,0.961c0,0.829-0.395,1.243-1.187,1.243h-8.986v16.673h18.651c0.34,0,0.622,0.142,0.848,0.424
		c0.225,0.283,0.339,0.612,0.339,0.989c0,0.867-0.395,1.3-1.187,1.3h-20.121C327.521,147.374,327.069,146.959,327.069,146.13z"/>
	<path fill="#FFFFFF" d="M352.333,146.13c0-0.15,0.018-0.263,0.056-0.339l12.086-39.057c0.221-0.676,0.735-1.014,1.544-1.014
		s1.323,0.348,1.545,1.044l12.068,39.35c0,0,0.009,0.031,0.029,0.094c0.018,0.064,0.028,0.125,0.028,0.184
		c0,0.268-0.17,0.499-0.509,0.692c-0.339,0.193-0.716,0.29-1.131,0.29c-0.603,0-0.98-0.283-1.13-0.848l-2.769-8.986h-16.286
		l-2.74,8.976c-0.187,0.572-0.595,0.858-1.228,0.858c-0.409,0-0.773-0.113-1.089-0.339
		C352.491,146.808,352.333,146.507,352.333,146.13z M358.656,134.94h14.703l-7.334-24.146L358.656,134.94z"/>
	<path fill="#FFFFFF" d="M379.01,108.376c-0.227-0.263-0.34-0.584-0.34-0.961c0-0.376,0.113-0.697,0.34-0.961
		c0.225-0.263,0.509-0.396,0.847-0.396h22.382c0.792,0,1.187,0.434,1.187,1.3c0,0.942-0.395,1.413-1.187,1.413h-9.722v37.359
		c0,0.829-0.471,1.243-1.413,1.243s-1.413-0.414-1.413-1.243v-37.359h-9.835C379.518,108.771,379.235,108.639,379.01,108.376z"/>
	<path fill="#FFFFFF" d="M408.738,146.13v-38.828c0-0.829,0.452-1.244,1.356-1.244h20.121c0.792,0,1.187,0.434,1.187,1.3
		c0,0.378-0.113,0.707-0.339,0.989c-0.227,0.283-0.509,0.424-0.848,0.424h-18.651v16.617h8.986c0.34,0,0.622,0.132,0.848,0.395
		c0.225,0.264,0.339,0.585,0.339,0.961c0,0.829-0.395,1.243-1.187,1.243h-8.986v16.673h18.651c0.34,0,0.622,0.142,0.848,0.424
		c0.225,0.283,0.339,0.612,0.339,0.989c0,0.867-0.395,1.3-1.187,1.3h-20.121C409.19,147.374,408.738,146.959,408.738,146.13z"/>
	<path fill="#FFFFFF" d="M437.166,146.13v-38.885c0-0.339,0.112-0.622,0.339-0.848s0.527-0.339,0.904-0.339h9.665
		c3.542,0,6.415,0.858,8.619,2.572c2.204,1.715,3.307,4.513,3.307,8.393c0,6.33-3.072,9.929-9.213,10.795l9.043,17.521
		c0.113,0.226,0.17,0.452,0.17,0.678c0,0.377-0.142,0.706-0.424,0.989s-0.65,0.424-1.102,0.424c-0.453,0-1.037-0.659-1.752-1.978
		l-8.873-17.351h-7.857v18.03c0,0.829-0.471,1.243-1.413,1.243C437.636,147.374,437.166,146.959,437.166,146.13z M439.991,125.501
		h8.082c6.066,0,9.1-2.806,9.1-8.421c0-5.539-3.034-8.308-9.1-8.308h-8.082V125.501z"/>
</g>
</svg>
