<?xml version="1.0" encoding="utf-8"?>
<!-- Generator: Adobe Illustrator 17.0.2, SVG Export Plug-In . SVG Version: 6.00 Build 0)  -->
<!DOCTYPE svg PUBLIC "-//W3C//DTD SVG 1.1//EN" "http://www.w3.org/Graphics/SVG/1.1/DTD/svg11.dtd">
<svg version="1.1" id="Layer_1" xmlns="http://www.w3.org/2000/svg" xmlns:xlink="http://www.w3.org/1999/xlink" x="0px" y="0px"
	 width="48px" height="48px" viewBox="4.213 52 48 48" enable-background="new 4.213 52 48 48" xml:space="preserve">
<g>
	<path fill="#322E2D" d="M29.568,89.748h5.129c1.501,0,1.501,2.252,0,2.252H21.77c-1.501,0-1.501-2.252,0-2.252h5.171v-3.795
		c-4.253-0.584-7.756-4.087-7.756-8.673v-4.588c0-1.209,2.252-1.209,2.252,0v4.587c0,1.71,0.667,3.378,1.918,4.503
		c1.209,1.251,2.877,1.918,4.587,1.918h0.709c1.752,0,3.252-0.667,4.462-1.918c1.167-1.126,1.876-2.794,1.876-4.503v-4.587
		c0-1.167,2.252-1.167,2.252,0v4.587c0,4.253-3.169,7.964-7.673,8.673C29.568,85.954,29.568,89.748,29.568,89.748z"/>
	<path fill="#322E2D" d="M33.404,68.982v-3.044c-0.459,0-0.792-0.375-0.792-0.792c0-0.459,0.333-0.792,0.751-0.834
		c-0.167-1.626-1.168-3.044-2.585-3.753c0,0.417-0.375,0.709-0.793,0.709c-0.417,0-0.792-0.333-0.792-0.792
		c0-0.125,0.042-0.292,0.125-0.417c-0.709-0.084-1.334-0.084-2.043,0.042c0.084,0.084,0.125,0.25,0.125,0.375
		c0,0.459-0.375,0.792-0.792,0.792c-0.417,0-0.792-0.292-0.792-0.709c-1.418,0.709-2.419,2.127-2.585,3.753
		c0.417,0.042,0.751,0.375,0.751,0.834c0,0.417-0.333,0.792-0.792,0.792v3.044c0.459,0,0.792,0.375,0.792,0.793
		c0,0.417-0.333,0.792-0.792,0.792v6.588c0,2.627,2.168,4.754,4.754,4.754c0.125,0,0.584,0,0.709,0c2.627,0,4.754-2.127,4.754-4.754
		v-6.589c-0.459,0-0.792-0.375-0.792-0.792C32.612,69.316,32.945,68.982,33.404,68.982z M25.314,62.018
		c0.417,0,0.792,0.334,0.792,0.793c0,0.417-0.375,0.792-0.792,0.792c-0.459,0-0.792-0.375-0.792-0.792
		C24.522,62.352,24.856,62.018,25.314,62.018z M24.897,68.232c-0.459,0-0.792-0.334-0.792-0.793c0-0.417,0.333-0.792,0.792-0.792
		c0.417,0,0.792,0.375,0.792,0.792C25.69,67.898,25.314,68.232,24.897,68.232z M26.607,70.567c-0.459,0-0.792-0.333-0.792-0.792
		s0.333-0.793,0.792-0.793c0.417,0,0.792,0.334,0.792,0.793S27.024,70.567,26.607,70.567z M26.607,65.938
		c-0.459,0-0.792-0.375-0.792-0.792c0-0.459,0.333-0.834,0.792-0.834c0.417,0,0.792,0.375,0.792,0.834
		C27.399,65.563,27.024,65.938,26.607,65.938z M31.277,62.018c0.459,0,0.792,0.334,0.792,0.793c0,0.417-0.333,0.792-0.792,0.792
		s-0.792-0.375-0.792-0.792C30.485,62.352,30.819,62.018,31.277,62.018z M28.275,68.232c-0.417,0-0.792-0.334-0.792-0.793
		c0-0.417,0.375-0.792,0.792-0.792c0.459,0,0.834,0.375,0.834,0.792C29.109,67.898,28.734,68.232,28.275,68.232z M28.275,63.603
		c-0.417,0-0.792-0.375-0.792-0.792c0-0.459,0.375-0.793,0.792-0.793c0.459,0,0.834,0.334,0.834,0.793
		C29.109,63.228,28.734,63.603,28.275,63.603z M29.985,70.567c-0.417,0-0.792-0.333-0.792-0.792s0.375-0.793,0.792-0.793
		c0.459,0,0.793,0.334,0.793,0.793S30.443,70.567,29.985,70.567z M29.985,65.938c-0.417,0-0.792-0.375-0.792-0.792
		c0-0.459,0.375-0.834,0.792-0.834c0.459,0,0.793,0.375,0.793,0.834C30.777,65.563,30.443,65.938,29.985,65.938z M31.694,68.232
		c-0.459,0-0.792-0.334-0.792-0.793c0-0.417,0.333-0.792,0.792-0.792c0.459,0,0.793,0.375,0.793,0.792
		C32.487,67.898,32.153,68.232,31.694,68.232z"/>
</g>
</svg>
