<?xml version="1.0" encoding="utf-8"?>
<!-- Generator: Adobe Illustrator 17.0.2, SVG Export Plug-In . SVG Version: 6.00 Build 0)  -->
<!DOCTYPE svg PUBLIC "-//W3C//DTD SVG 1.1//EN" "http://www.w3.org/Graphics/SVG/1.1/DTD/svg11.dtd">
<svg version="1.1" id="Layer_1" xmlns="http://www.w3.org/2000/svg" xmlns:xlink="http://www.w3.org/1999/xlink" x="0px" y="0px"
	 width="48px" height="48px" viewBox="26 52 48 48" enable-background="new 26 52 48 48" xml:space="preserve">
<g>
	<path fill="#322E2D" d="M37.833,79.52l2.451,5.197h2.459L45.173,100h9.668l2.423-15.282h2.471l2.431-5.197H37.833z M47.173,67.222
		l-5.518,3.14l-0.254,8.036h17.198L47.173,67.222z M41.401,78.398h17.198l-0.246-8.036l-5.511-3.14L41.401,78.398z M46.453,62.278
		c-0.174,0.179-0.257,0.521-0.159,0.869c0.049,0.195,0.123,0.345,0.226,0.468c0.005,0.031,0.01,0.061,0.019,0.087
		c0.06,0.226,0.214,0.375,0.377,0.363c0.453,1.558,1.583,3.157,2.806,3.157h0.577c1.203,0,2.339-1.599,2.809-3.157
		c0.149,0.012,0.312-0.138,0.363-0.363c0.005-0.026,0.01-0.057,0.01-0.087c0.111-0.123,0.19-0.273,0.246-0.468
		c0.101-0.42-0.013-0.843-0.271-0.965c-0.001-0.003-0.002-0.006-0.003-0.009l0.003-0.012c0.015-0.017,0.031-0.033,0.043-0.05
		c0.374-0.515,0.111-2.532-0.488-3.635c-0.502-0.927-2.019-1.582-2.959-1.462c-0.533,0.068-0.793,0.374-0.912,0.588
		c-0.381-0.212-0.92-0.239-1.559,0.406c-0.519,0.523-0.9,1.357-1.093,2.143c-0.011,0.041-0.02,0.083-0.029,0.124
		c-0.134,0.607-0.157,1.174-0.022,1.523c0.022,0.059,0.055,0.114,0.088,0.169l0.021,0.097
		C46.505,62.125,46.475,62.198,46.453,62.278z"/>
</g>
</svg>
