<?xml version="1.0" encoding="utf-8"?>
<!-- Generator: Adobe Illustrator 17.0.2, SVG Export Plug-In . SVG Version: 6.00 Build 0)  -->
<!DOCTYPE svg PUBLIC "-//W3C//DTD SVG 1.1//EN" "http://www.w3.org/Graphics/SVG/1.1/DTD/svg11.dtd">
<svg version="1.1" id="Layer_1" xmlns="http://www.w3.org/2000/svg" xmlns:xlink="http://www.w3.org/1999/xlink" x="0px" y="0px"
	 width="12px" height="12px" viewBox="44 88 12 12" enable-background="new 44 88 12 12" xml:space="preserve">
<g>
	<g>
		<path fill="#FFFFFF" d="M50,100c-3.308,0-6-2.692-6-6c0-3.308,2.692-6,6-6c3.308,0,6,2.692,6,6C56,97.308,53.308,100,50,100z
			 M50,88.752c-2.894,0-5.248,2.354-5.248,5.248c0,2.894,2.354,5.248,5.248,5.248c2.894,0,5.248-2.354,5.248-5.248
			C55.248,91.106,52.894,88.752,50,88.752z"/>
	</g>
	<g>
		<path fill="#FFFFFF" d="M50.828,92.768l-0.713,3.365c-0.03,0.129-0.039,0.227-0.039,0.317c0,0.277,0.128,0.366,0.406,0.366
			c0.178,0,0.257-0.029,0.317-0.059c-0.05,0.702-0.555,1.019-1.089,1.019c-0.594,0-1.059-0.356-1.059-1.188
			c0-0.187,0.03-0.405,0.079-0.643l0.673-3.177L50.828,92.768L50.828,92.768z M50.383,90.196c0.435,0,0.792,0.356,0.792,0.791
			c0,0.436-0.357,0.782-0.792,0.782c-0.436,0-0.782-0.347-0.782-0.782C49.601,90.552,49.947,90.196,50.383,90.196z"/>
	</g>
</g>
</svg>
