<?xml version="1.0" encoding="utf-8"?>
<!-- Generator: Adobe Illustrator 17.0.2, SVG Export Plug-In . SVG Version: 6.00 Build 0)  -->
<!DOCTYPE svg PUBLIC "-//W3C//DTD SVG 1.1//EN" "http://www.w3.org/Graphics/SVG/1.1/DTD/svg11.dtd">
<svg version="1.1" id="Layer_1" xmlns="http://www.w3.org/2000/svg" xmlns:xlink="http://www.w3.org/1999/xlink" x="0px" y="0px"
	 width="48px" height="48px" viewBox="0 0 48 48" enable-background="new 0 0 48 48" xml:space="preserve">
<g>
	<path fill="#322E2D" d="M40,30.471H8c0.002,2.315,1.767,3.389,3.188,3.396h25.624C38.507,33.861,39.992,32.528,40,30.471L40,30.471
		z"/>
	<path fill="#322E2D" d="M33.919,14.133H14.826v12.526c0.003,1.701,1.468,3.047,3.05,3.05h12.387
		c1.786-0.004,3.004-1.505,2.998-3.05V25.62c3.535-0.003,6.1-2.657,6.099-5.752C39.361,16.718,36.846,14.131,33.919,14.133z
		 M33.261,23.229v-6.74h0.659c2.422-0.004,3.199,2.287,3.187,3.396C37.109,21.677,35.782,23.396,33.261,23.229z"/>
</g>
</svg>
