<?xml version="1.0" encoding="utf-8"?>
<!-- Generator: Adobe Illustrator 17.0.2, SVG Export Plug-In . SVG Version: 6.00 Build 0)  -->
<!DOCTYPE svg PUBLIC "-//W3C//DTD SVG 1.1//EN" "http://www.w3.org/Graphics/SVG/1.1/DTD/svg11.dtd">
<svg version="1.1" id="Layer_1" xmlns="http://www.w3.org/2000/svg" xmlns:xlink="http://www.w3.org/1999/xlink" x="0px" y="0px"
	 width="250px" height="250px" viewBox="-75 -150 250 250" enable-background="new -75 -150 250 250" xml:space="preserve">
<path fill="#C2C0C0" d="M96.414-5.435c4.414-11.018,4.95-23.635,0.571-35.666C87.54-67.05,58.848-80.429,32.899-70.985
	C6.95-61.54-6.429-32.848,3.015-6.899c0.18,0.495,0.38,0.978,0.574,1.464H-11.5v4V-1v4h123v-4v-0.435v-4H96.414z M34.416-66.817
	c23.647-8.607,49.793,3.586,58.4,27.233c4.764,13.089,3.13,26.928-3.266,38.149H61.755L59.28-7.996
	c6.379-3.591,8.406-9.409,6.494-14.662c-1.954-5.371-5.909-7.608-13.835-7.53c-5.742,0.018-8.281-0.529-8.969-2.417
	c-0.601-1.652,0.015-3.815,3.852-5.212c4.249-1.547,7.517-1.199,9.25-1.028l-0.657-7.314c-2.409-0.192-5.387-0.111-9.326,1.189
	l-1.89-5.194l-5.784,2.105l2.041,5.607c-5.886,3.479-8.063,8.883-6.151,14.136c2.084,5.726,7.466,7.108,14.554,6.934
	c4.964-0.136,7.369,0.593,8.185,2.835c0.838,2.301-0.97,4.497-4.394,5.743c-3.837,1.396-7.769,1.424-10.743,0.969l0.742,7.55
	c2.694,0.423,6.938,0.148,10.958-1.114l1.442,3.963H10.43c-1.252-2.2-2.352-4.522-3.247-6.981
	C-1.424-32.063,10.768-58.21,34.416-66.817z"/>
</svg>
