<?xml version="1.0" encoding="utf-8"?>
<!-- Generator: Adobe Illustrator 17.0.2, SVG Export Plug-In . SVG Version: 6.00 Build 0)  -->
<!DOCTYPE svg PUBLIC "-//W3C//DTD SVG 1.1//EN" "http://www.w3.org/Graphics/SVG/1.1/DTD/svg11.dtd">
<svg version="1.1" id="Your_Icon" xmlns="http://www.w3.org/2000/svg" xmlns:xlink="http://www.w3.org/1999/xlink" x="0px" y="0px"
	 width="48px" height="48px" viewBox="0 0 48 48" enable-background="new 0 0 48 48" xml:space="preserve">
<g>
	<path fill="#322E2D" d="M29.706,7.353c-2.948,2.757-3.93,13.011-2.948,15.423c1.222,3.001,2.457,0.689,2.457,6.549v11.114
		c0,0.571,0.659,1.034,1.473,1.034s1.474-0.463,1.474-1.034V25.534v-0.345c0-2.585,0-16.882,0-17.836
		C32.162,6.319,30.957,6.183,29.706,7.353z"/>
	<path fill="#322E2D" d="M22.222,6.526c-0.272,0-0.491,0.681-0.491,1.521v0.176v4.509v0.716v2.946c0,0.184-0.22,0.333-0.491,0.333
		s-0.491-0.149-0.491-0.333v-2.946v-0.716V8.223V8.047c0-0.84-0.22-1.521-0.491-1.521c-0.272,0-0.491,0.681-0.491,1.521v0.176v4.509
		v0.716v2.946c0,0.184-0.22,0.333-0.491,0.333c-0.272,0-0.491-0.149-0.491-0.333v-2.946v-0.716V8.223V8.047
		c0-0.84-0.22-1.521-0.491-1.521c-0.272,0-0.491,0.681-0.491,1.521v0.176v4.509v0.716v2.946c0,0.184-0.22,0.333-0.491,0.333
		c-0.272,0-0.491-0.149-0.491-0.333v-2.946v-0.716V8.223V8.047c0-0.84-0.22-1.521-0.491-1.521s-0.491,0.681-0.491,1.521v0.176v9.334
		v1.272c0,3.076,1.965,3.076,1.965,4.857v10.332v6.422c0,0.571,0.66,1.034,1.474,1.034s1.473-0.463,1.473-1.034v-6.422V23.686
		c0-1.781,1.964-1.781,1.964-4.857v-1.272V8.222V8.046C22.713,7.207,22.493,6.526,22.222,6.526z"/>
</g>
</svg>
