<?xml version="1.0" encoding="utf-8"?>
<!-- Generator: Adobe Illustrator 17.0.2, SVG Export Plug-In . SVG Version: 6.00 Build 0)  -->
<!DOCTYPE svg PUBLIC "-//W3C//DTD SVG 1.1//EN" "http://www.w3.org/Graphics/SVG/1.1/DTD/svg11.dtd">
<svg version="1.1" id="Camada_1" xmlns="http://www.w3.org/2000/svg" xmlns:xlink="http://www.w3.org/1999/xlink" x="0px" y="0px"
	 width="48px" height="48px" viewBox="26 52 48 48" enable-background="new 26 52 48 48" xml:space="preserve">
<path fill="#322E2D" d="M57.68,67.529c0-3.764,0-5.609,0-5.609h1.6V60H40.72v1.92h1.6c0,0,0,1.844,0,5.609
	c0,2.824,4.236,6.706,6.353,8.471c-2.117,1.765-6.353,5.647-6.353,8.471c0,3.764,0,5.609,0,5.609h-1.6V92h18.56v-1.92h-1.6
	c0,0,0-1.844,0-5.609c0-2.824-4.235-6.706-6.353-8.471C53.445,74.235,57.68,70.353,57.68,67.529z M55.76,84.471v3.689h-1.1
	c0-4.577-1.869-5.095-4.657-7.647c-2.817,2.579-4.663,3.32-4.663,7.647h-1.1v-3.689c0-1.607,3.11-4.807,5.761-7.012
	C52.901,79.861,55.76,82.98,55.76,84.471z M49.998,74.542c-2.9-2.403-5.758-5.522-5.758-7.013V63.84h11.52v3.689
	C55.76,69.137,52.651,72.337,49.998,74.542z"/>
</svg>
