<?xml version="1.0" encoding="utf-8"?>
<!-- Generator: Adobe Illustrator 17.0.2, SVG Export Plug-In . SVG Version: 6.00 Build 0)  -->
<!DOCTYPE svg PUBLIC "-//W3C//DTD SVG 1.1//EN" "http://www.w3.org/Graphics/SVG/1.1/DTD/svg11.dtd">
<svg version="1.1" id="Camada_1" xmlns="http://www.w3.org/2000/svg" xmlns:xlink="http://www.w3.org/1999/xlink" x="0px" y="0px"
	 width="24px" height="24px" viewBox="38 76 24 24" enable-background="new 38 76 24 24" xml:space="preserve">
<g id="Captions" display="none">
</g>
<g id="Your_Icon">
	<g>
		<path fill="#FFFFFF" d="M49.976,89.411l6.11-2.961c0.88-0.396,0.307-1.673-0.617-1.264l-5.191,2.338v-6.142
			c0-0.964-1.457-0.92-1.457,0l0.022,7.357C48.843,89.289,49.437,89.686,49.976,89.411z"/>
	</g>
	<path fill="#FFFFFF" d="M50,76c-6.628,0-12,5.373-12,12c0,6.628,5.373,12,12,12c6.627,0,12-5.373,12-12C62,81.372,56.628,76,50,76z
		 M50,98.63c-5.87,0-10.63-4.76-10.63-10.63c0-5.87,4.76-10.629,10.63-10.629S60.63,82.13,60.63,88
		C60.63,93.87,55.871,98.63,50,98.63z"/>
	<path fill="#FFFFFF" d="M50,88"/>
</g>
</svg>
