<?xml version="1.0" encoding="utf-8"?>
<!-- Generator: Adobe Illustrator 17.0.2, SVG Export Plug-In . SVG Version: 6.00 Build 0)  -->
<!DOCTYPE svg PUBLIC "-//W3C//DTD SVG 1.1//EN" "http://www.w3.org/Graphics/SVG/1.1/DTD/svg11.dtd">
<svg version="1.1" id="Camada_1" xmlns="http://www.w3.org/2000/svg" xmlns:xlink="http://www.w3.org/1999/xlink" x="0px" y="0px"
	 width="150px" height="40px" viewBox="0 0 150 40" enable-background="new 0 0 150 40" xml:space="preserve">
<path fill="#FFFFFF" d="M3.509,10.636c0.17-1.15,0.361-2.172,0.574-3.065C4.296,6.676,4.636,5.9,5.104,5.24
	c0.531-0.723,1.181-1.261,1.947-1.613c0.766-0.351,1.692-0.548,2.776-0.59c0.574-0.042,1.169-0.048,1.787-0.016
	c0.617,0.032,1.181,0.102,1.691,0.208c0.361,0.043,0.564,0.128,0.606,0.256s-0.032,0.426-0.223,0.895
	c-0.234,0.554-0.421,0.931-0.558,1.133c-0.139,0.203-0.357,0.283-0.655,0.24c-0.468,0-0.925-0.021-1.372-0.064
	c-0.447-0.042-0.883-0.042-1.308,0C9.37,5.73,8.972,5.831,8.6,5.99C8.228,6.15,7.892,6.421,7.595,6.804
	c-0.404,0.49-0.676,1.123-0.813,1.9c-0.139,0.777-0.26,1.539-0.367,2.283L6.35,11.499h3.765c0.574,0,0.894,0.123,0.957,0.367
	c0.064,0.245,0.053,0.612-0.032,1.102c-0.043,0.298-0.075,0.532-0.095,0.702c-0.021,0.171-0.074,0.299-0.16,0.383
	c-0.085,0.086-0.207,0.139-0.367,0.16s-0.389,0.032-0.687,0.032H5.965L3.03,35.576c-0.043,0.298-0.091,0.522-0.144,0.67
	c-0.053,0.149-0.138,0.26-0.255,0.335c-0.117,0.074-0.271,0.117-0.463,0.128c-0.192,0.01-0.436,0.016-0.734,0.016
	c-0.362,0-0.644-0.005-0.845-0.016c-0.202-0.011-0.351-0.048-0.447-0.112C0.048,36.534,0,36.423,0,36.264
	c0-0.16,0.021-0.389,0.063-0.687l2.936-21.301L3.509,10.636z"/>
<path fill="#FFFFFF" d="M20.397,11.466c0.276-0.042,0.596-0.08,0.958-0.111c0.362-0.032,0.723-0.053,1.085-0.064
	c0.362-0.01,0.708-0.01,1.038,0c0.33,0.011,0.59,0.027,0.783,0.048c0.34,0.064,0.537,0.149,0.59,0.256
	c0.053,0.107-0.005,0.394-0.176,0.862c-0.192,0.554-0.357,0.937-0.494,1.15c-0.139,0.213-0.357,0.309-0.655,0.287
	c-0.383-0.063-0.825-0.095-1.325-0.095s-1.011,0.027-1.533,0.08c-0.522,0.053-1.028,0.128-1.517,0.224
	c-0.49,0.095-0.926,0.207-1.309,0.335L16.086,27.02c-0.085,0.49-0.186,0.798-0.303,0.926s-0.357,0.203-0.719,0.224h-1.246
	c-0.383,0-0.618-0.069-0.702-0.207c-0.085-0.138-0.085-0.453,0-0.942l1.246-8.814l0.607-4.311h-1.852l0.223-1.564
	c0.235-0.192,0.511-0.372,0.83-0.543c0.276-0.128,0.601-0.25,0.974-0.367c0.372-0.117,0.804-0.176,1.293-0.176
	c0.596,0,1.01,0.16,1.246,0.479c0.234,0.319,0.362,0.628,0.383,0.926l0.064-0.063C18.725,12.009,19.481,11.637,20.397,11.466"/>
<path fill="#FFFFFF" d="M26.952,23.889c0.511,1.107,1.607,1.724,3.29,1.852c0.915,0.063,1.708-0.01,2.379-0.224
	c0.671-0.213,1.24-0.543,1.708-0.99s0.841-1,1.118-1.661c0.277-0.659,0.49-1.405,0.639-2.236c0.149-0.873,0.213-1.698,0.192-2.475
	c-0.021-0.777-0.155-1.464-0.4-2.059c-0.245-0.596-0.622-1.07-1.134-1.422c-0.511-0.351-1.182-0.548-2.012-0.591
	c-0.937-0.042-1.752,0.07-2.443,0.335c-0.692,0.267-1.278,0.655-1.757,1.165c-0.479,0.511-0.862,1.123-1.15,1.836
	c-0.287,0.713-0.494,1.496-0.622,2.347c-0.127,0.809-0.181,1.559-0.16,2.251C26.622,22.713,26.738,23.335,26.952,23.889
	 M29.538,28.391c-0.618-0.043-1.193-0.144-1.724-0.303c-0.533-0.16-1.011-0.357-1.437-0.59c-1.193-0.703-2.001-1.724-2.427-3.066
	c-0.426-1.34-0.436-3.012-0.032-5.013c0.256-1.234,0.639-2.368,1.15-3.401c0.511-1.032,1.154-1.91,1.932-2.635
	c0.777-0.723,1.698-1.272,2.763-1.645c1.064-0.372,2.278-0.516,3.641-0.431c1.214,0.085,2.23,0.383,3.05,0.894
	s1.447,1.187,1.884,2.028c0.436,0.841,0.697,1.826,0.783,2.954c0.085,1.128,0.021,2.342-0.192,3.64
	c-0.213,1.235-0.575,2.343-1.085,3.321c-0.511,0.98-1.156,1.799-1.932,2.459c-0.777,0.66-1.698,1.15-2.763,1.469
	C32.082,28.391,30.88,28.498,29.538,28.391"/>
<path fill="#FFFFFF" d="M40.731,13.893l0.224-1.565c0.235-0.192,0.511-0.372,0.83-0.543c0.276-0.128,0.601-0.25,0.974-0.367
	c0.372-0.117,0.803-0.176,1.293-0.176c0.595,0,1.01,0.16,1.246,0.479c0.235,0.319,0.362,0.628,0.383,0.926l0.063-0.063
	c0.639-0.617,1.299-0.979,1.98-1.086c0.703-0.128,1.618-0.213,2.746-0.256c2.15-0.02,3.651,0.325,4.503,1.038
	c0.851,0.714,1.182,1.9,0.99,3.56l-1.501,10.73h1.82l-0.224,1.405c-0.021,0-0.314,0.08-0.878,0.239
	c-0.565,0.16-1.283,0.207-2.155,0.144c-0.511-0.043-0.873-0.17-1.085-0.383c-0.213-0.213-0.351-0.441-0.415-0.687
	c-0.064-0.245-0.064-0.569,0-0.974l1.341-9.644c0.064-1-0.117-1.697-0.543-2.091c-0.425-0.393-1.128-0.623-2.107-0.687
	c-0.852-0.042-1.655-0.005-2.411,0.112c-0.756,0.117-1.539,0.261-2.347,0.431l-1.756,12.582c-0.085,0.49-0.186,0.798-0.303,0.927
	c-0.117,0.128-0.357,0.203-0.719,0.223h-1.246c-0.383,0-0.618-0.069-0.703-0.207s-0.085-0.452,0-0.942l1.246-8.814l0.607-4.311
	C42.584,13.893,40.731,13.893,40.731,13.893z"/>
<path fill="#FFFFFF" d="M61.106,21.526c-0.053,0.383-0.091,0.762-0.112,1.134c-0.022,0.373-0.016,0.719,0.016,1.038
	s0.112,0.607,0.239,0.862c0.213,0.383,0.436,0.661,0.671,0.83c0.234,0.17,0.505,0.277,0.814,0.32s0.644,0.048,1.006,0.016
	s0.777-0.048,1.246-0.048c0.319-0.042,0.511,0.043,0.575,0.256c0.064,0.213,0.149,0.586,0.256,1.118
	c0.085,0.405,0.08,0.676-0.016,0.814c-0.095,0.139-0.325,0.251-0.687,0.335c-0.661,0.128-1.331,0.192-2.012,0.192
	s-1.325-0.075-1.932-0.224c-0.606-0.149-1.15-0.388-1.629-0.719c-0.479-0.329-0.836-0.771-1.07-1.325
	c-0.298-0.659-0.436-1.442-0.415-2.347c0.021-0.905,0.128-1.921,0.32-3.05l1.82-13.03c0.043-0.297,0.085-0.527,0.128-0.687
	c0.042-0.16,0.123-0.271,0.239-0.335c0.117-0.063,0.276-0.101,0.479-0.111c0.202-0.011,0.484-0.016,0.846-0.016
	c0.596,0,0.957,0.048,1.085,0.144c0.128,0.095,0.149,0.432,0.064,1.006l-0.543,3.8h4.31c0.298,0,0.527,0.005,0.687,0.016
	s0.266,0.048,0.319,0.112c0.053,0.063,0.074,0.17,0.064,0.319c-0.011,0.149-0.037,0.372-0.08,0.671
	c-0.063,0.49-0.165,0.857-0.303,1.102c-0.139,0.245-0.495,0.367-1.07,0.367h-4.31l-0.83,6.291
	C61.218,20.759,61.158,21.142,61.106,21.526"/>
<path fill="#FFFFFF" d="M82.652,5.782c0.042-0.362,0.095-0.639,0.16-0.83c0.063-0.192,0.16-0.335,0.287-0.431
	c0.128-0.095,0.293-0.149,0.496-0.16c0.202-0.011,0.483-0.016,0.846-0.016c0.404,0,0.729,0.005,0.974,0.016
	c0.244,0.011,0.425,0.059,0.543,0.144c0.117,0.085,0.181,0.224,0.192,0.415c0.011,0.192-0.016,0.479-0.08,0.862l-0.095,0.639
	c-0.043,0.362-0.095,0.639-0.16,0.83c-0.064,0.192-0.16,0.335-0.288,0.431c-0.128,0.095-0.299,0.149-0.511,0.16
	c-0.213,0.011-0.49,0.016-0.83,0.016c-0.426,0-0.756-0.005-0.99-0.016c-0.235-0.01-0.41-0.058-0.527-0.144
	c-0.117-0.085-0.176-0.224-0.176-0.415c0-0.192,0.021-0.479,0.064-0.862L82.652,5.782z M82.94,27.018
	c-0.043,0.298-0.091,0.522-0.144,0.671c-0.053,0.149-0.133,0.261-0.239,0.335c-0.107,0.074-0.256,0.117-0.447,0.128
	c-0.192,0.011-0.436,0.016-0.734,0.016c-0.362,0-0.644-0.005-0.846-0.016c-0.202-0.011-0.351-0.048-0.447-0.112
	c-0.095-0.063-0.144-0.176-0.144-0.335c0-0.16,0.021-0.389,0.064-0.687l1.82-13.125H79.97l0.224-1.565
	c0.234-0.192,0.511-0.372,0.83-0.543c0.276-0.128,0.601-0.25,0.974-0.367c0.372-0.117,0.803-0.176,1.293-0.176
	c0.596,0,1.011,0.16,1.246,0.479s0.387,0.712,0.383,0.926c-0.003,0.214-0.043,0.436-0.064,0.543L82.94,27.018z"/>
<path fill="#FFFFFF" d="M86.337,13.893l0.224-1.565c0.235-0.192,0.511-0.372,0.83-0.543c0.276-0.128,0.601-0.25,0.974-0.367
	c0.372-0.117,0.803-0.176,1.293-0.176c0.595,0,1.01,0.16,1.246,0.479c0.234,0.319,0.361,0.628,0.383,0.926l0.063-0.063
	c0.639-0.617,1.299-0.979,1.98-1.086c0.703-0.128,1.618-0.213,2.746-0.256c2.15-0.02,3.651,0.325,4.503,1.038
	c0.851,0.714,1.182,1.9,0.99,3.56l-1.501,10.73h1.82l-0.224,1.405c-0.021,0-0.314,0.08-0.878,0.239
	c-0.565,0.16-1.283,0.207-2.156,0.144c-0.511-0.043-0.873-0.17-1.085-0.383c-0.213-0.213-0.351-0.441-0.416-0.687
	c-0.063-0.245-0.063-0.569,0-0.974l1.341-9.644c0.064-1-0.117-1.697-0.543-2.091c-0.426-0.393-1.128-0.623-2.107-0.687
	c-0.852-0.042-1.655-0.005-2.411,0.112c-0.756,0.117-1.539,0.261-2.347,0.431l-1.756,12.582c-0.085,0.49-0.186,0.798-0.303,0.927
	c-0.117,0.128-0.357,0.203-0.719,0.223h-1.246c-0.383,0-0.618-0.069-0.703-0.207s-0.085-0.452,0-0.942l1.246-8.814l0.607-4.311
	C88.189,13.893,86.337,13.893,86.337,13.893z"/>
<path fill="#FFFFFF" d="M123.901,14.303c-0.511,0.192-1.033,0.447-1.565,0.766l-1.469,10.506c0.383,0.085,0.798,0.16,1.246,0.223
	c0.49,0.086,1.128,0.128,1.916,0.128c0.511,0,0.958-0.048,1.341-0.144c0.383-0.095,0.692-0.207,0.927-0.335
	c0.553-0.276,1.07-0.708,1.548-1.293c0.479-0.586,0.867-1.261,1.166-2.028c0.298-0.766,0.532-1.852,0.702-3.257
	s0.032-2.608-0.415-3.609c-0.341-0.766-1.054-1.246-2.14-1.437c-0.256-0.042-0.67-0.048-1.246-0.016
	C125.338,13.84,124.668,14.005,123.901,14.303 M123.614,28.386c-2.448,0.021-4.428-0.329-5.94-1.053l3.194-23.056
	c0.042-0.276,0.091-0.496,0.144-0.655c0.053-0.16,0.132-0.276,0.239-0.351c0.106-0.074,0.256-0.117,0.447-0.128
	c0.192-0.01,0.436-0.016,0.734-0.016c0.361,0,0.649,0.005,0.862,0.016s0.368,0.048,0.463,0.112c0.095,0.063,0.144,0.175,0.144,0.335
	s-0.021,0.389-0.063,0.687l-1.15,8.303c0.595-0.297,1.096-0.532,1.501-0.702c0.915-0.362,1.937-0.543,3.065-0.543
	c0.32,0,0.719,0.032,1.197,0.095c0.479,0.064,0.963,0.213,1.453,0.447c0.788,0.404,1.411,0.979,1.869,1.724
	c0.458,0.745,0.766,1.634,0.926,2.667c0.16,1.033,0.144,2.177-0.048,3.433c-0.17,1.235-0.511,2.384-1.022,3.449
	c-0.511,1.065-1.102,1.97-1.772,2.714c-0.671,0.745-1.347,1.277-2.028,1.597c-0.682,0.319-1.257,0.532-1.724,0.639
	C125.317,28.29,124.486,28.386,123.614,28.386"/>
<path fill="#FFFFFF" d="M134.352,27.891c-0.085-0.138-0.085-0.452,0-0.942l3.162-22.673c0.042-0.276,0.091-0.495,0.144-0.655
	c0.052-0.16,0.133-0.276,0.239-0.351c0.106-0.074,0.256-0.117,0.447-0.128c0.192-0.01,0.436-0.016,0.734-0.016
	c0.362,0,0.649,0.005,0.862,0.016s0.367,0.048,0.463,0.112c0.096,0.064,0.144,0.175,0.144,0.335s-0.022,0.389-0.064,0.687
	l-1.15,8.239h0.032c0.639-0.617,1.299-0.979,1.98-1.085c0.703-0.127,1.649-0.213,2.842-0.256c2.15-0.021,3.651,0.325,4.503,1.038
	c0.851,0.714,1.182,1.9,0.99,3.56l-1.501,10.73H150l-0.223,1.405c-0.022,0-0.314,0.08-0.878,0.239
	c-0.565,0.16-1.283,0.207-2.156,0.144c-0.511-0.043-0.873-0.171-1.085-0.383c-0.213-0.213-0.351-0.441-0.415-0.687
	c-0.064-0.245-0.064-0.569,0-0.974l1.341-9.644c0.064-1-0.117-1.697-0.543-2.091c-0.426-0.393-1.129-0.623-2.108-0.687
	c-0.852-0.042-1.672-0.005-2.459,0.112c-0.788,0.117-1.587,0.261-2.395,0.431l-1.756,12.582c-0.085,0.49-0.187,0.798-0.303,0.926
	c-0.117,0.128-0.357,0.203-0.718,0.224h-1.246C134.672,28.098,134.438,28.029,134.352,27.891"/>
<polyline fill="#FFFFFF" points="115.571,17.585 114.976,21.813 103.692,28.156 104.286,23.928 115.571,17.585 "/>
<polygon fill="#FFFFFF" points="115.104,17.274 106.069,11.242 105.475,15.471 111.343,19.388 "/>
<polyline fill="#FFFFFF" points="78.354,11.242 77.76,15.47 66.475,21.813 67.07,17.584 78.354,11.242 "/>
<polygon fill="#FFFFFF" points="66.942,22.124 75.977,28.155 76.572,23.926 70.704,20.009 "/>
</svg>
