<?xml version="1.0" encoding="utf-8"?>
<!-- Generator: Adobe Illustrator 17.0.2, SVG Export Plug-In . SVG Version: 6.00 Build 0)  -->
<!DOCTYPE svg PUBLIC "-//W3C//DTD SVG 1.1//EN" "http://www.w3.org/Graphics/SVG/1.1/DTD/svg11.dtd">
<svg version="1.1" id="Camada_1" xmlns="http://www.w3.org/2000/svg" xmlns:xlink="http://www.w3.org/1999/xlink" x="0px" y="0px"
	 width="50px" height="100px" viewBox="3 16 50 100" enable-background="new 3 16 50 100" xml:space="preserve">
<path id="github-2-icon" fill="#FFFFFF" d="M44.043,90.582l0.029-0.298c-1.787-0.173-3.562-0.188-5.288-0.057
	c0.278-0.885,0.423-1.885,0.413-3.022c-0.023-2.416-0.829-4.297-2.095-5.859c0.243-1.471,0.06-2.941-0.399-4.412
	c-1.809,0.148-3.437,0.74-4.887,1.77c-2.709-0.55-5.418-0.585-8.127,0c-1.691-1.141-3.351-1.701-4.986-1.77
	c-0.485,1.62-0.559,3.217-0.15,4.787c-1.426,1.513-1.971,3.35-1.945,5.385c0.015,1.164,0.195,2.201,0.526,3.117
	c-1.7-0.125-3.448-0.108-5.206,0.063l0.029,0.298c1.79-0.174,3.57-0.188,5.299-0.053c0.063,0.154,0.128,0.307,0.2,0.454
	c-1.873-0.049-3.559,0.113-5.137,0.502l0.071,0.29c1.603-0.394,3.319-0.553,5.236-0.487c1.268,2.252,3.707,3.575,7.261,3.995
	c-0.826,0.671-1.27,1.462-1.384,2.356c0,0-0.373,0-1.882,0c-2.528,0-3.216-3.222-5.834-2.904c2.539,1.259,2.032,5.285,6.096,5.285
	c1.366,0,1.656,0,1.707,0v3.69c0.018,0.596-0.241,0.995-0.661,1.271c1.455,0.147,2.549-0.579,2.549-1.471c0-0.891,0-4.443,0-4.878
	s0.455-0.468,0.455-0.468v5.695c0.019,0.567-0.256,0.888-0.548,1.196c1.282,0.051,2.488-0.205,2.543-1.296c0,0,0-5.176,0-5.45
	c0-0.274,0.449-0.28,0.449,0c0,0.28,0,5.195,0,5.195c0.013,0.921,0.808,1.667,2.493,1.552c-0.451-0.363-0.589-0.729-0.589-1.26
	s0-5.631,0-5.631s0.464-0.024,0.464,0.468c0,0.492,0,3.927,0,4.75c0,1.057,1.269,1.493,2.717,1.453
	c-0.474-0.355-0.796-0.779-0.797-1.346v-5.713c-0.049-0.839-0.39-1.631-1.06-2.369c3.248-0.499,5.589-1.796,6.754-4.119
	c1.923-0.066,3.645,0.092,5.251,0.487l0.071-0.29c-1.591-0.391-3.291-0.554-5.181-0.501c0.065-0.147,0.13-0.296,0.187-0.451
	C40.433,90.393,42.233,90.406,44.043,90.582z M16.921,95.214c-0.079,0-0.145-0.046-0.145-0.103s0.065-0.103,0.145-0.103
	c0.079,0,0.145,0.046,0.145,0.103S17.002,95.214,16.921,95.214z M17.377,95.525c-0.088,0-0.161-0.051-0.161-0.114
	c0-0.063,0.072-0.114,0.161-0.114c0.088,0,0.161,0.051,0.161,0.114S17.465,95.525,17.377,95.525z M17.838,95.928
	c-0.104,0-0.188-0.06-0.188-0.134s0.085-0.134,0.188-0.134s0.188,0.06,0.188,0.134S17.942,95.928,17.838,95.928z M18.287,96.412
	c-0.121,0-0.221-0.07-0.221-0.156s0.099-0.156,0.221-0.156c0.121,0,0.221,0.07,0.221,0.156S18.409,96.412,18.287,96.412z
	 M18.781,96.96c-0.135,0-0.245-0.078-0.245-0.174s0.11-0.174,0.245-0.174c0.135,0,0.245,0.078,0.245,0.174
	S18.916,96.96,18.781,96.96z M19.354,97.516c-0.15,0-0.272-0.087-0.272-0.193c0-0.106,0.121-0.193,0.272-0.193
	c0.15,0,0.272,0.087,0.272,0.193C19.626,97.429,19.504,97.516,19.354,97.516z M20.127,98.044c-0.167,0-0.303-0.096-0.303-0.214
	c0-0.119,0.136-0.214,0.303-0.214s0.303,0.096,0.303,0.214C20.429,97.948,20.294,98.044,20.127,98.044z M21.086,98.327
	c-0.167,0-0.303-0.096-0.303-0.214c0-0.119,0.136-0.214,0.303-0.214c0.167,0,0.303,0.096,0.303,0.214
	C21.388,98.231,21.253,98.327,21.086,98.327z M22.096,98.36c-0.167,0-0.303-0.096-0.303-0.214c0-0.119,0.136-0.214,0.303-0.214
	c0.167,0,0.303,0.096,0.303,0.214C22.399,98.263,22.263,98.36,22.096,98.36z M23.095,98.378c-0.167,0-0.303-0.096-0.303-0.214
	c0-0.119,0.136-0.214,0.303-0.214c0.167,0,0.303,0.096,0.303,0.214C23.397,98.283,23.262,98.378,23.095,98.378z"/>
<g>
	<ellipse fill="#FFFFFF" cx="18.781" cy="46.786" rx="0.245" ry="0.174"/>
	<ellipse fill="#FFFFFF" cx="19.354" cy="47.322" rx="0.272" ry="0.193"/>
	<ellipse fill="#FFFFFF" cx="17.377" cy="45.411" rx="0.161" ry="0.114"/>
	<ellipse fill="#FFFFFF" cx="17.838" cy="45.795" rx="0.188" ry="0.134"/>
	<ellipse fill="#FFFFFF" cx="16.921" cy="45.112" rx="0.145" ry="0.103"/>
	<ellipse fill="#FFFFFF" cx="18.287" cy="46.256" rx="0.221" ry="0.156"/>
	<ellipse fill="#FFFFFF" cx="23.095" cy="48.164" rx="0.303" ry="0.214"/>
	<ellipse fill="#FFFFFF" cx="20.127" cy="47.829" rx="0.303" ry="0.214"/>
	<ellipse fill="#FFFFFF" cx="22.096" cy="48.145" rx="0.303" ry="0.214"/>
	<path fill="#FFFFFF" d="M44.043,40.582c-1.81-0.176-3.61-0.189-5.355-0.048c-0.056,0.155-0.121,0.304-0.187,0.451
		c1.89-0.053,3.59,0.11,5.181,0.501l-0.071,0.29c-1.606-0.396-3.328-0.554-5.251-0.487c-1.165,2.323-3.506,3.62-6.754,4.119
		c0.67,0.738,1.011,1.529,1.06,2.369v5.713c0.002,0.567,0.323,0.991,0.797,1.346c-1.448,0.04-2.717-0.396-2.717-1.453
		c0-0.823,0-4.258,0-4.75s-0.464-0.468-0.464-0.468s0,5.101,0,5.631s0.138,0.897,0.589,1.26c-1.685,0.115-2.479-0.631-2.493-1.552
		c0,0,0-4.914,0-5.195c0-0.28-0.449-0.274-0.449,0s0,5.45,0,5.45c-0.054,1.091-1.261,1.347-2.543,1.296
		c0.292-0.308,0.567-0.629,0.548-1.196v-5.695c0,0-0.455,0.033-0.455,0.468s0,3.987,0,4.878c0,0.891-1.094,1.618-2.549,1.471
		c0.42-0.277,0.679-0.675,0.661-1.271v-3.69c-0.051,0-0.341,0-1.707,0c-4.064,0-3.557-4.026-6.096-5.285
		c2.618-0.318,3.306,2.904,5.834,2.904c1.509,0,1.882,0,1.882,0c0.114-0.895,0.558-1.686,1.384-2.356
		c-3.554-0.42-5.993-1.743-7.261-3.995c-1.917-0.065-3.633,0.094-5.236,0.488l-0.071-0.29c1.579-0.388,3.264-0.551,5.137-0.502
		c-0.072-0.146-0.137-0.3-0.2-0.454c-1.729-0.136-3.509-0.121-5.299,0.053l-0.029-0.298c1.758-0.171,3.506-0.188,5.206-0.062
		c-0.331-0.916-0.511-1.953-0.526-3.117c-0.027-2.035,0.519-3.871,1.945-5.385c-0.409-1.57-0.335-3.167,0.15-4.787
		c1.635,0.069,3.295,0.629,4.986,1.77c2.709-0.585,5.418-0.55,8.127,0c1.45-1.029,3.078-1.621,4.887-1.77
		c0.459,1.471,0.642,2.942,0.399,4.412c1.266,1.562,2.071,3.443,2.095,5.859c0.01,1.138-0.136,2.138-0.413,3.022
		c1.726-0.131,3.502-0.116,5.288,0.057L44.043,40.582z"/>
	<ellipse fill="#FFFFFF" cx="21.086" cy="48.112" rx="0.303" ry="0.214"/>
</g>
</svg>
