<?xml version="1.0" encoding="utf-8"?>
<!-- Generator: Adobe Illustrator 17.1.0, SVG Export Plug-In . SVG Version: 6.00 Build 0)  -->
<!DOCTYPE svg PUBLIC "-//W3C//DTD SVG 1.1//EN" "http://www.w3.org/Graphics/SVG/1.1/DTD/svg11.dtd">
<svg version="1.1" id="Layer_1" xmlns="http://www.w3.org/2000/svg" xmlns:xlink="http://www.w3.org/1999/xlink" x="0px" y="0px"
	 viewBox="42 42 16 16" enable-background="new 42 42 16 16" xml:space="preserve">
<g id="Your_Icon">
	<g>
		<path fill="#FFFFFF" d="M50,42c-3.2,0-5.8,2.6-5.8,5.8c0,0.9,0.2,1.7,0.6,2.6L50,58l5.2-7.6l0-0.1c0.4-0.8,0.6-1.7,0.6-2.6
			C55.8,44.6,53.2,42,50,42z M54.1,49.8l-4.1,6l-4.1-6c-0.3-0.6-0.5-1.3-0.5-2c0-2.5,2-4.6,4.6-4.6c2.5,0,4.6,2,4.6,4.6
			C54.6,48.5,54.4,49.1,54.1,49.8z"/>
		<path fill="#FFFFFF" d="M50,45.4L50,45.4C50,45.4,50,45.4,50,45.4C50,45.4,50,45.4,50,45.4L50,45.4c-1.6,0.1-2.5,1.3-2.5,2.7
			s1,2.6,2.5,2.7v0c0,0,0,0,0,0c0,0,0,0,0,0v0c1.6-0.1,2.5-1.3,2.5-2.7C52.5,46.7,51.6,45.5,50,45.4z"/>
	</g>
</g>
</svg>
