<?xml version="1.0" encoding="utf-8"?>
<!-- Generator: Adobe Illustrator 17.0.2, SVG Export Plug-In . SVG Version: 6.00 Build 0)  -->
<!DOCTYPE svg PUBLIC "-//W3C//DTD SVG 1.1//EN" "http://www.w3.org/Graphics/SVG/1.1/DTD/svg11.dtd">
<svg version="1.1" id="Camada_1" xmlns="http://www.w3.org/2000/svg" xmlns:xlink="http://www.w3.org/1999/xlink" x="0px" y="0px"
	 width="50px" height="100px" viewBox="3 16 50 100" enable-background="new 3 16 50 100" xml:space="preserve">
<path fill="#FFFFFF" d="M40.725,34.474c0.415,9.234-6.471,19.529-18.661,19.529c-3.708,0-7.159-1.086-10.064-2.949
	c3.484,0.41,6.96-0.556,9.72-2.719c-2.873-0.052-5.297-1.951-6.133-4.559c1.029,0.197,2.041,0.14,2.965-0.112
	c-3.157-0.634-5.337-3.478-5.266-6.52c0.884,0.492,1.897,0.788,2.973,0.821c-2.925-1.955-3.752-5.815-2.032-8.766
	c3.237,3.973,8.076,6.586,13.532,6.86c-0.958-4.107,2.157-8.062,6.395-8.062c1.888,0,3.595,0.797,4.792,2.073
	c1.495-0.294,2.901-0.841,4.169-1.593c-0.49,1.533-1.531,2.82-2.886,3.632c1.328-0.158,2.594-0.511,3.771-1.034
	C43.12,32.392,42.007,33.548,40.725,34.474z"/>
<path id="twitter-icon_1_" fill="#FFFFFF" d="M44,81.075c-1.177,0.523-2.443,0.876-3.771,1.034c1.356-0.812,2.397-2.099,2.886-3.632
	c-1.268,0.752-2.674,1.299-4.169,1.593c-1.197-1.276-2.904-2.073-4.792-2.073c-4.237,0-7.353,3.955-6.395,8.062
	c-5.456-0.274-10.295-2.887-13.532-6.86c-1.72,2.95-0.892,6.811,2.032,8.766c-1.076-0.034-2.089-0.33-2.973-0.821
	c-0.071,3.042,2.108,5.886,5.266,6.52c-0.924,0.252-1.936,0.309-2.965,0.112c0.836,2.608,3.26,4.507,6.133,4.559
	c-2.76,2.163-6.237,3.129-9.72,2.719c2.905,1.863,6.357,2.949,10.064,2.949c12.19,0,19.076-10.295,18.661-19.529
	C42.007,83.548,43.12,82.392,44,81.075z"/>
</svg>
