<?xml version="1.0" encoding="utf-8"?>
<!-- Generator: Adobe Illustrator 17.0.2, SVG Export Plug-In . SVG Version: 6.00 Build 0)  -->
<!DOCTYPE svg PUBLIC "-//W3C//DTD SVG 1.1//EN" "http://www.w3.org/Graphics/SVG/1.1/DTD/svg11.dtd">
<svg version="1.1" id="Camada_1" xmlns="http://www.w3.org/2000/svg" xmlns:xlink="http://www.w3.org/1999/xlink" x="0px" y="0px"
	 width="460px" height="170px" viewBox="0 0 460 170" enable-background="new 0 0 460 170" xml:space="preserve">
<g>
	<path fill="#FFFFFF" d="M0,154.013v-20.19c0-6.241,2.326-12.382,6.984-18.418c4.659-6.033,10.293-11.48,16.908-16.339l20.225-15
		c6.809-4.859,12.612-10.312,17.407-16.352c4.794-6.04,7.195-12.187,7.195-18.438c0-6.666-2.19-12.498-6.569-17.5
		c-4.379-4.999-10.666-7.5-18.866-7.5c-6.952,0-12.616,1.966-16.995,5.894c-4.379,3.931-6.565,9.615-6.565,17.053
		c0,1.826-0.83,3.442-2.491,4.843c-1.662,1.405-3.877,2.105-6.644,2.105c-5.262,0-7.889-3.39-7.889-10.173
		c0-10.38,3.919-18.892,11.759-25.535c7.837-6.644,17.445-9.965,28.825-9.965c12.209,0,22.404,3.812,30.593,11.428
		c8.187,7.62,12.281,17.195,12.281,28.724c0,6.945-1.699,13.611-5.099,19.998c-3.399,6.39-7.629,11.808-12.69,16.252
		S57.792,93.787,51.83,98.231l-16.679,11.873c-5.005,3.474-9.21,7.296-12.609,11.461c-3.403,4.165-5.103,8.262-5.103,12.291v10.624
		h63.923c1.668,0,3.089,0.762,4.269,2.283c1.181,1.525,1.771,3.393,1.771,5.605c0,2.076-0.587,3.912-1.758,5.502
		c-1.171,1.593-2.583,2.387-4.234,2.387H7.854c-1.794,0-3.552-0.587-5.271-1.768C0.86,157.308,0,155.816,0,154.013z"/>
	<path fill="#FFFFFF" d="M95.325,116.245v-62.49c0-15.638,4.116-27.092,12.353-34.359c8.233-7.266,19.272-10.899,33.113-10.899
		c13.838,0,24.634,3.6,32.387,10.795c7.748,7.198,11.625,15.642,11.625,25.328c0,5.122-2.699,7.681-8.097,7.681
		c-6.091,0-9.134-2.283-9.134-6.851c0-6.364-2.595-11.487-7.785-15.363c-5.19-3.873-11.661-5.813-19.411-5.813
		c-18.409,0-27.611,9.829-27.611,29.48V82.82c6.644-8.58,16.745-12.871,30.31-12.871c27.818,0,41.728,13.981,41.728,41.936v4.36
		c0,15.641-4.048,27.092-12.145,34.359c-8.095,7.266-18.927,10.899-32.489,10.899c-13.566,0-24.429-3.633-32.594-10.899
		C99.407,143.337,95.325,131.886,95.325,116.245z M112.765,117.292c0,19.787,9.135,29.678,27.404,29.678
		c18.129,0,27.195-9.89,27.195-29.678v-4.389c0-18.947-9.066-28.423-27.195-28.423c-18.269,0-27.404,8.849-27.404,26.541V117.292z"
		/>
	<path fill="#FFFFFF" d="M189.061,126.209c0-3.597,1.729-5.398,5.19-5.398c3.458,0,5.19,1.454,5.19,4.36
		c0.137,8.444,3.114,14.948,8.928,19.515c5.812,4.567,13.354,6.851,22.629,6.851c20.896,0,31.348-11.211,31.348-33.632V18.463
		h-31.141c-2.906,0-4.36-1.729-4.36-5.19c0-3.182,1.454-4.775,4.36-4.775h36.539c3.321,0,4.982,1.525,4.982,4.567v104.841
		c0,15.087-3.773,26.126-11.315,33.113c-7.545,6.991-17.614,10.484-30.206,10.484c-12.736,0-22.94-3.321-30.622-9.965
		C192.902,144.894,189.061,136.454,189.061,126.209z"/>
	<path fill="#FFFFFF" d="M286.228,117.905V12.857c0-2.907,1.729-4.36,5.19-4.36c3.457,0,5.19,1.453,5.19,4.36v105.048
		c0,11.211,2.731,19.619,8.2,25.224c5.465,5.605,13.25,8.408,23.356,8.408c10.101,0,17.922-2.803,23.459-8.408
		c5.534-5.605,8.304-14.013,8.304-25.224V12.857c0-2.907,1.729-4.36,5.19-4.36c3.458,0,5.19,1.453,5.19,4.36v105.048
		c0,15.087-3.841,26.126-11.522,33.113c-7.681,6.991-17.89,10.484-30.622,10.484c-12.736,0-22.909-3.493-30.518-10.484
		C290.032,144.031,286.228,132.992,286.228,117.905z"/>
	<path fill="#FFFFFF" d="M384.432,155.69V12.857c0-2.907,1.729-4.36,5.19-4.36c3.458,0,5.19,1.453,5.19,4.36v137.434h61.243
		c2.628,0,3.945,1.661,3.945,4.983s-1.317,4.983-3.945,4.983h-66.64C386.093,160.257,384.432,158.735,384.432,155.69z"/>
</g>
</svg>
