<?xml version="1.0" encoding="utf-8"?>
<!-- Generator: Adobe Illustrator 19.2.1, SVG Export Plug-In . SVG Version: 6.00 Build 0)  -->
<svg version="1.1" id="Layer_1" xmlns="http://www.w3.org/2000/svg" xmlns:xlink="http://www.w3.org/1999/xlink" x="0px" y="0px"
	 viewBox="0 0 400 90" style="enable-background:new 0 0 400 90;" xml:space="preserve">
<style type="text/css">
	.st0{fill:#FF3366;}
</style>
<path class="st0" d="M395.2,62.7h4.9l-0.6,3.8c-0.1,0-0.8,0.2-2.3,0.6c-1.5,0.4-3.4,0.6-5.7,0.4c-1.4-0.1-2.3-0.5-2.9-1
	c-0.6-0.6-0.9-1.2-1.1-1.8c-0.2-0.7-0.2-1.5,0-2.6l3.6-25.7c0.2-2.7-0.3-4.5-1.4-5.6c-1.1-1-3-1.7-5.6-1.8c-2.3-0.1-4.5,0-6.6,0.3
	c-2.1,0.3-4.2,0.7-6.4,1.2l-4.7,33.6c-0.2,1.3-0.5,2.1-0.8,2.5c-0.3,0.3-1,0.5-1.9,0.6h-3.3c-1,0-1.6-0.2-1.9-0.6
	c-0.2-0.4-0.2-1.2,0-2.5l8.4-60.5c0.1-0.7,0.2-1.3,0.4-1.7c0.1-0.4,0.4-0.7,0.6-0.9c0.3-0.2,0.7-0.3,1.2-0.3c0.5,0,1.2,0,2,0
	c1,0,1.7,0,2.3,0c0.6,0,1,0.1,1.2,0.3c0.3,0.2,0.4,0.5,0.4,0.9c0,0.4-0.1,1-0.2,1.8l-3.1,22h0.1c1.7-1.6,3.5-2.6,5.3-2.9
	c1.9-0.3,4.4-0.6,7.6-0.7c5.7-0.1,9.7,0.9,12,2.8c2.3,1.9,3.2,5.1,2.6,9.5L395.2,62.7z M351,53.8c-1.4,2.8-2.9,5.3-4.7,7.2
	c-1.8,2-3.6,3.4-5.4,4.3c-1.8,0.9-3.3,1.4-4.6,1.7c-2.1,0.5-4.3,0.8-6.6,0.8c-6.5,0.1-11.8-0.9-15.8-2.8l8.5-61.5
	c0.1-0.7,0.2-1.3,0.4-1.7c0.1-0.4,0.4-0.7,0.6-0.9s0.7-0.3,1.2-0.3c0.5,0,1.2,0,2,0c1,0,1.7,0,2.3,0c0.6,0,1,0.1,1.2,0.3
	c0.3,0.2,0.4,0.5,0.4,0.9c0,0.4-0.1,1-0.2,1.8l-3.1,22.2c1.6-0.8,2.9-1.4,4-1.9c2.4-1,5.2-1.4,8.2-1.4c0.9,0,1.9,0.1,3.2,0.3
	c1.3,0.2,2.6,0.6,3.9,1.2c2.1,1.1,3.8,2.6,5,4.6c1.2,2,2,4.4,2.5,7.1c0.4,2.8,0.4,5.8-0.1,9.2C353.3,47.9,352.4,50.9,351,53.8z
	 M344.8,32.7c-0.9-2-2.8-3.3-5.7-3.8c-0.7-0.1-1.8-0.1-3.3,0c-1.5,0.1-3.3,0.5-5.4,1.3c-1.4,0.5-2.8,1.2-4.2,2l-3.9,28
	c1,0.2,2.1,0.4,3.3,0.6c1.3,0.2,3,0.3,5.1,0.3c1.4,0,2.6-0.1,3.6-0.4c1-0.3,1.8-0.6,2.5-0.9c1.5-0.7,2.9-1.9,4.1-3.5
	c1.3-1.6,2.3-3.4,3.1-5.4c0.8-2,1.4-4.9,1.9-8.7C346.4,38.6,346,35.4,344.8,32.7z M296.6,55.8l-10,5.6l-10,5.6l1.6-11.3l10-5.6
	l10-5.6l-8.4-5.6l-8.4-5.6l1.6-11.3l8.4,5.6l8.4,5.6l8.4,5.6l-1.6,11.3L296.6,55.8z M271.1,66.7c-0.1,0-0.8,0.2-2.3,0.6
	c-1.5,0.4-3.4,0.6-5.7,0.4c-1.4-0.1-2.3-0.5-2.9-1c-0.6-0.6-0.9-1.2-1.1-1.8c-0.2-0.7-0.2-1.5,0-2.6l3.6-25.7
	c0.2-2.7-0.3-4.5-1.4-5.6c-1.1-1-3-1.7-5.6-1.8c-2.3-0.1-4.4,0-6.4,0.3c-2,0.3-4.1,0.7-6.3,1.2l-4.7,33.6c-0.2,1.3-0.5,2.1-0.8,2.5
	c-0.3,0.3-1,0.5-1.9,0.6h-3.3c-1,0-1.6-0.2-1.9-0.6c-0.2-0.4-0.2-1.2,0-2.5l3.3-23.5l1.6-11.5h-4.9l0.6-4.2c0.6-0.5,1.4-1,2.2-1.4
	c0.7-0.3,1.6-0.7,2.6-1c1-0.3,2.1-0.5,3.4-0.5c1.6,0,2.7,0.4,3.3,1.3c0.6,0.9,1,1.7,1,2.5l0.2-0.2c1.7-1.6,3.5-2.6,5.3-2.9
	c1.9-0.3,4.3-0.6,7.3-0.7c5.7-0.1,9.7,0.9,12,2.8c2.3,1.9,3.2,5.1,2.6,9.5l-4,28.6h4.9L271.1,66.7z M229.3,9.1
	c-0.1,1-0.3,1.7-0.4,2.2c-0.2,0.5-0.4,0.9-0.8,1.2c-0.3,0.3-0.8,0.4-1.4,0.4c-0.6,0-1.3,0-2.2,0c-1.1,0-2,0-2.6,0
	c-0.6,0-1.1-0.2-1.4-0.4c-0.3-0.2-0.5-0.6-0.5-1.1c0-0.5,0.1-1.3,0.2-2.3l0.3-1.7c0.1-1,0.3-1.7,0.4-2.2c0.2-0.5,0.4-0.9,0.8-1.2
	c0.3-0.3,0.8-0.4,1.3-0.4c0.5,0,1.3,0,2.3,0c1.1,0,1.9,0,2.6,0c0.7,0,1.1,0.2,1.4,0.4c0.3,0.2,0.5,0.6,0.5,1.1c0,0.5,0,1.3-0.2,2.3
	L229.3,9.1z M225.4,23.3c0.6,0.9,1,1.9,1,2.5c0,0.6-0.1,1.2-0.2,1.4l-5.1,36.9c-0.1,0.8-0.2,1.4-0.4,1.8c-0.1,0.4-0.4,0.7-0.6,0.9
	c-0.3,0.2-0.7,0.3-1.2,0.3c-0.5,0-1.2,0-2,0c-1,0-1.7,0-2.3,0c-0.5,0-0.9-0.1-1.2-0.3c-0.3-0.2-0.4-0.5-0.4-0.9c0-0.4,0.1-1,0.2-1.8
	l4.9-35h-4.9l0.6-4.2c0.6-0.5,1.4-1,2.2-1.4c0.7-0.3,1.6-0.7,2.6-1c1-0.3,2.1-0.5,3.4-0.5C223.7,22,224.8,22.4,225.4,23.3z
	 M197.3,38.9l-10,5.6l8.4,5.6l8.4,5.6l-1.6,11.3l-8.4-5.6l-8.4-5.6l-8.4-5.6l1.6-11.3l10-5.6l10-5.6l10-5.6l-1.6,11.3L197.3,38.9z
	 M180.8,25.7c-0.2,1.3-0.4,2.3-0.8,2.9c-0.4,0.7-1.3,1-2.9,1h-11.5l-2.2,16.8c-0.2,1-0.3,2-0.5,3.1c-0.1,1-0.2,2-0.3,3
	c-0.1,1,0,1.9,0,2.8c0.1,0.9,0.3,1.6,0.6,2.3c0.6,1,1.2,1.8,1.8,2.2c0.6,0.5,1.3,0.7,2.2,0.9c0.8,0.1,1.7,0.1,2.7,0
	c1-0.1,2.1-0.1,3.3-0.1c0.9-0.1,1.4,0.1,1.5,0.7c0.2,0.6,0.4,1.6,0.7,3c0.2,1.1,0.2,1.8,0,2.2c-0.3,0.4-0.9,0.7-1.8,0.9
	c-1.8,0.3-3.6,0.5-5.4,0.5c-1.8,0-3.5-0.2-5.2-0.6c-1.6-0.4-3.1-1-4.3-1.9c-1.3-0.9-2.2-2.1-2.9-3.5c-0.8-1.8-1.2-3.8-1.1-6.3
	c0.1-2.4,0.3-5.1,0.9-8.1l4.9-34.8c0.1-0.8,0.2-1.4,0.3-1.8c0.1-0.4,0.3-0.7,0.6-0.9c0.3-0.2,0.7-0.3,1.3-0.3c0.5,0,1.3,0,2.3,0
	c1.6,0,2.6,0.1,2.9,0.4c0.3,0.3,0.4,1.2,0.2,2.7l-1.4,10.1h11.5c0.8,0,1.4,0,1.8,0c0.4,0,0.7,0.1,0.9,0.3c0.1,0.2,0.2,0.5,0.2,0.9
	C181,24.3,180.9,24.9,180.8,25.7z M149.5,66.7c-0.1,0-0.8,0.2-2.3,0.6c-1.5,0.4-3.4,0.6-5.7,0.4c-1.4-0.1-2.3-0.5-2.9-1
	c-0.6-0.6-0.9-1.2-1.1-1.8c-0.2-0.7-0.2-1.5,0-2.6l3.6-25.7c0.2-2.7-0.3-4.5-1.4-5.6c-1.1-1-3-1.7-5.6-1.8c-2.3-0.1-4.4,0-6.4,0.3
	c-2,0.3-4.1,0.7-6.3,1.2l-4.7,33.6c-0.2,1.3-0.5,2.1-0.8,2.5c-0.3,0.3-1,0.5-1.9,0.6h-3.3c-1,0-1.6-0.2-1.9-0.6
	c-0.2-0.4-0.2-1.2,0-2.5l3.3-23.5l1.6-11.5h-4.9l0.6-4.2c0.6-0.5,1.4-1,2.2-1.4c0.7-0.3,1.6-0.7,2.6-1c1-0.3,2.1-0.5,3.4-0.5
	c1.6,0,2.7,0.4,3.3,1.3c0.6,0.9,1,1.7,1,2.5l0.2-0.2c1.7-1.6,3.5-2.6,5.3-2.9c1.9-0.3,4.3-0.6,7.3-0.7c5.7-0.1,9.7,0.9,12,2.8
	c2.3,1.9,3.2,5.1,2.6,9.5l-4,28.6h4.9L149.5,66.7z M100.9,56.4c-1.4,2.6-3.1,4.8-5.2,6.6c-2.1,1.8-4.5,3.1-7.4,3.9
	c-2.8,0.9-6,1.1-9.6,0.9c-1.6-0.1-3.2-0.4-4.6-0.8c-1.4-0.4-2.7-1-3.8-1.6c-3.2-1.9-5.3-4.6-6.5-8.2c-1.1-3.6-1.2-8-0.1-13.4
	c0.7-3.3,1.7-6.3,3.1-9.1c1.4-2.8,3.1-5.1,5.2-7c2.1-1.9,4.5-3.4,7.4-4.4c2.8-1,6.1-1.4,9.7-1.1c3.2,0.2,5.9,1,8.1,2.4
	c2.2,1.4,3.9,3.2,5,5.4c1.2,2.2,1.9,4.9,2.1,7.9c0.2,3,0.1,6.2-0.5,9.7C103.2,50.9,102.3,53.8,100.9,56.4z M95.7,34.9
	c-0.7-1.6-1.7-2.9-3-3.8c-1.4-0.9-3.2-1.5-5.4-1.6c-2.5-0.1-4.7,0.2-6.5,0.9c-1.8,0.7-3.4,1.7-4.7,3.1c-1.3,1.4-2.3,3-3.1,4.9
	c-0.8,1.9-1.3,4-1.7,6.3c-0.3,2.2-0.5,4.2-0.4,6c0.1,1.8,0.4,3.5,0.9,5c1.4,3,4.3,4.6,8.8,4.9c2.4,0.2,4.6,0,6.3-0.6
	c1.8-0.6,3.3-1.4,4.6-2.6c1.2-1.2,2.2-2.7,3-4.4c0.7-1.8,1.3-3.8,1.7-6c0.4-2.3,0.6-4.5,0.5-6.6C96.7,38.4,96.3,36.5,95.7,34.9z
	 M64.5,28.3c-0.4,0.6-1,0.8-1.7,0.8c-1-0.2-2.2-0.3-3.5-0.3c-1.3,0-2.7,0.1-4.1,0.2c-1.4,0.1-2.7,0.3-4,0.6
	c-1.3,0.3-2.5,0.6-3.5,0.9l-4.7,33.6c-0.2,1.3-0.5,2.1-0.8,2.5c-0.3,0.3-1,0.5-1.9,0.6h-3.3c-1,0-1.6-0.2-1.9-0.6
	c-0.2-0.4-0.2-1.2,0-2.5l3.3-23.5l1.6-11.5H35l0.6-4.2c0.6-0.5,1.4-1,2.2-1.4c0.7-0.3,1.6-0.7,2.6-1c1-0.3,2.1-0.5,3.4-0.5
	c1.6,0,2.7,0.4,3.3,1.3c0.6,0.9,1,1.7,1,2.5l0.2-0.2c1.6-1.5,3.6-2.5,6-3c0.7-0.1,1.6-0.2,2.6-0.3c1-0.1,1.9-0.1,2.9-0.2
	c1,0,1.9,0,2.8,0c0.9,0,1.6,0.1,2.1,0.1c0.9,0.2,1.4,0.4,1.6,0.7c0.1,0.3,0,1.1-0.5,2.3C65.3,26.7,64.8,27.7,64.5,28.3z M35,6.7
	c-0.4,0.5-1,0.8-1.7,0.6c-1.2,0-2.5-0.1-3.7-0.2c-1.2-0.1-2.4-0.1-3.5,0C25,7.3,23.9,7.5,22.9,8c-1,0.4-1.9,1.2-2.7,2.2
	c-1.1,1.3-1.8,3-2.2,5.1c-0.4,2.1-0.7,4.1-1,6.1l-0.2,1.4h10c1.5,0,2.4,0.3,2.6,1c0.2,0.7,0.1,1.6-0.1,2.9c-0.1,0.8-0.2,1.4-0.3,1.9
	c-0.1,0.5-0.2,0.8-0.4,1c-0.2,0.2-0.6,0.4-1,0.4C27.4,30,26.8,30,26,30h-10L8.1,86.9c-0.1,0.8-0.2,1.4-0.4,1.8
	c-0.1,0.4-0.4,0.7-0.7,0.9c-0.3,0.2-0.7,0.3-1.2,0.3c-0.5,0-1.2,0-2,0c-1,0-1.7,0-2.3,0c-0.5,0-0.9-0.1-1.2-0.3
	C0.1,89.5,0,89.2,0,88.8c0-0.4,0.1-1,0.2-1.8L8,30.1l1.4-9.7c0.5-3.1,1-5.8,1.5-8.2c0.6-2.4,1.5-4.5,2.7-6.2C15,4,16.8,2.6,18.8,1.7
	s4.5-1.5,7.4-1.6C27.8,0,29.3,0,31,0c1.6,0.1,3.2,0.3,4.5,0.6c1,0.1,1.5,0.3,1.6,0.7c0.1,0.3-0.1,1.1-0.6,2.4
	C35.9,5.1,35.4,6.2,35,6.7z"/>
</svg>
