<?xml version="1.0" encoding="utf-8"?>
<!-- Generator: Adobe Illustrator 19.2.1, SVG Export Plug-In . SVG Version: 6.00 Build 0)  -->
<svg version="1.1" id="Layer_1" xmlns="http://www.w3.org/2000/svg" xmlns:xlink="http://www.w3.org/1999/xlink" x="0px" y="0px"
	 viewBox="0 0 48 48" style="enable-background:new 0 0 48 48;" xml:space="preserve">
<style type="text/css">
	.st0{fill:#FFFFFF;}
</style>
<g>
	<path class="st0" d="M25.4,37.7h5.1c1.5,0,1.5,2.3,0,2.3H17.6c-1.5,0-1.5-2.3,0-2.3h5.2V34c-4.3-0.6-7.8-4.1-7.8-8.7v-4.6
		c0-1.2,2.3-1.2,2.3,0v4.6c0,1.7,0.7,3.4,1.9,4.5c1.2,1.3,2.9,1.9,4.6,1.9h0.7c1.8,0,3.3-0.7,4.5-1.9c1.2-1.1,1.9-2.8,1.9-4.5v-4.6
		c0-1.2,2.3-1.2,2.3,0v4.6c0,4.3-3.2,8-7.7,8.7C25.4,34,25.4,37.7,25.4,37.7z"/>
	<path class="st0" d="M29.2,17v-3c-0.5,0-0.8-0.4-0.8-0.8c0-0.5,0.3-0.8,0.8-0.8c-0.2-1.6-1.2-3-2.6-3.8c0,0.4-0.4,0.7-0.8,0.7
		c-0.4,0-0.8-0.3-0.8-0.8c0-0.1,0-0.3,0.1-0.4c-0.7-0.1-1.3-0.1-2,0c0.1,0.1,0.1,0.2,0.1,0.4c0,0.5-0.4,0.8-0.8,0.8S21.6,9,21.6,8.6
		c-1.4,0.7-2.4,2.1-2.6,3.8c0.4,0,0.8,0.4,0.8,0.8c0,0.4-0.3,0.8-0.8,0.8v3c0.5,0,0.8,0.4,0.8,0.8c0,0.4-0.3,0.8-0.8,0.8v6.6
		c0,2.6,2.2,4.8,4.8,4.8c0.1,0,0.6,0,0.7,0c2.6,0,4.8-2.1,4.8-4.8v-6.6c-0.5,0-0.8-0.4-0.8-0.8C28.4,17.3,28.7,17,29.2,17z M21.1,10
		c0.4,0,0.8,0.3,0.8,0.8c0,0.4-0.4,0.8-0.8,0.8c-0.5,0-0.8-0.4-0.8-0.8C20.3,10.4,20.6,10,21.1,10z M20.7,16.2
		c-0.5,0-0.8-0.3-0.8-0.8c0-0.4,0.3-0.8,0.8-0.8c0.4,0,0.8,0.4,0.8,0.8C21.5,15.9,21.1,16.2,20.7,16.2z M22.4,18.6
		c-0.5,0-0.8-0.3-0.8-0.8s0.3-0.8,0.8-0.8c0.4,0,0.8,0.3,0.8,0.8S22.8,18.6,22.4,18.6z M22.4,13.9c-0.5,0-0.8-0.4-0.8-0.8
		c0-0.5,0.3-0.8,0.8-0.8c0.4,0,0.8,0.4,0.8,0.8C23.2,13.6,22.8,13.9,22.4,13.9z M27.1,10c0.5,0,0.8,0.3,0.8,0.8
		c0,0.4-0.3,0.8-0.8,0.8s-0.8-0.4-0.8-0.8C26.3,10.4,26.6,10,27.1,10z M24.1,16.2c-0.4,0-0.8-0.3-0.8-0.8c0-0.4,0.4-0.8,0.8-0.8
		c0.5,0,0.8,0.4,0.8,0.8C24.9,15.9,24.5,16.2,24.1,16.2z M24.1,11.6c-0.4,0-0.8-0.4-0.8-0.8c0-0.5,0.4-0.8,0.8-0.8
		c0.5,0,0.8,0.3,0.8,0.8C24.9,11.2,24.5,11.6,24.1,11.6z M25.8,18.6c-0.4,0-0.8-0.3-0.8-0.8s0.4-0.8,0.8-0.8c0.5,0,0.8,0.3,0.8,0.8
		S26.2,18.6,25.8,18.6z M25.8,13.9c-0.4,0-0.8-0.4-0.8-0.8c0-0.5,0.4-0.8,0.8-0.8c0.5,0,0.8,0.4,0.8,0.8
		C26.6,13.6,26.2,13.9,25.8,13.9z M27.5,16.2c-0.5,0-0.8-0.3-0.8-0.8c0-0.4,0.3-0.8,0.8-0.8s0.8,0.4,0.8,0.8
		C28.3,15.9,27.9,16.2,27.5,16.2z"/>
</g>
</svg>
