<?xml version="1.0" encoding="utf-8"?>
<!-- Generator: Adobe Illustrator 19.2.1, SVG Export Plug-In . SVG Version: 6.00 Build 0)  -->
<svg version="1.1" id="Camada_1" xmlns="http://www.w3.org/2000/svg" xmlns:xlink="http://www.w3.org/1999/xlink" x="0px" y="0px"
	 viewBox="0 0 48 48" style="enable-background:new 0 0 48 48;" xml:space="preserve">
<style type="text/css">
	.st0{fill:#FFFFFF;}
</style>
<g>
	<path class="st0" d="M31.7,15.5c0-3.8,0-5.6,0-5.6h1.6V8H14.7v1.9h1.6c0,0,0,1.8,0,5.6c0,2.8,4.2,6.7,6.4,8.5
		c-2.1,1.8-6.4,5.6-6.4,8.5c0,3.8,0,5.6,0,5.6h-1.6V40h18.6v-1.9h-1.6c0,0,0-1.8,0-5.6c0-2.8-4.2-6.7-6.4-8.5
		C27.4,22.2,31.7,18.4,31.7,15.5z M29.8,32.5v3.7h-1.1c0-4.6-1.9-5.1-4.7-7.6c-2.8,2.6-4.7,3.3-4.7,7.6h-1.1v-3.7
		c0-1.6,3.1-4.8,5.8-7C26.9,27.9,29.8,31,29.8,32.5z M24,22.5c-2.9-2.4-5.8-5.5-5.8-7v-3.7h11.5v3.7C29.8,17.1,26.7,20.3,24,22.5z"
		/>
</g>
</svg>
