<?xml version="1.0" encoding="utf-8"?>
<!-- Generator: Adobe Illustrator 19.2.1, SVG Export Plug-In . SVG Version: 6.00 Build 0)  -->
<svg version="1.1" id="Your_Icon" xmlns="http://www.w3.org/2000/svg" xmlns:xlink="http://www.w3.org/1999/xlink" x="0px" y="0px"
	 viewBox="0 0 48 48" style="enable-background:new 0 0 48 48;" xml:space="preserve">
<style type="text/css">
	.st0{fill:#FFFFFF;}
</style>
<g>
	<path class="st0" d="M29.7,7.4c-2.9,2.8-3.9,13-2.9,15.4c1.2,3,2.5,0.7,2.5,6.5v11.1c0,0.6,0.7,1,1.5,1s1.5-0.5,1.5-1V25.5v-0.3
		c0-2.6,0-16.9,0-17.8C32.2,6.3,31,6.2,29.7,7.4z"/>
	<path class="st0" d="M22.2,6.5c-0.3,0-0.5,0.7-0.5,1.5v0.2v4.5v0.7v2.9c0,0.2-0.2,0.3-0.5,0.3s-0.5-0.1-0.5-0.3v-2.9v-0.7V8.2V8
		c0-0.8-0.2-1.5-0.5-1.5c-0.3,0-0.5,0.7-0.5,1.5v0.2v4.5v0.7v2.9c0,0.2-0.2,0.3-0.5,0.3c-0.3,0-0.5-0.1-0.5-0.3v-2.9v-0.7V8.2V8
		c0-0.8-0.2-1.5-0.5-1.5c-0.3,0-0.5,0.7-0.5,1.5v0.2v4.5v0.7v2.9c0,0.2-0.2,0.3-0.5,0.3c-0.3,0-0.5-0.1-0.5-0.3v-2.9v-0.7V8.2V8
		c0-0.8-0.2-1.5-0.5-1.5S15.8,7.2,15.8,8v0.2v9.3v1.3c0,3.1,2,3.1,2,4.9V34v6.4c0,0.6,0.7,1,1.5,1s1.5-0.5,1.5-1V34V23.7
		c0-1.8,2-1.8,2-4.9v-1.3V8.2V8C22.7,7.2,22.5,6.5,22.2,6.5z"/>
</g>
</svg>
