<?xml version="1.0" encoding="utf-8"?>
<!-- Generator: Adobe Illustrator 19.2.1, SVG Export Plug-In . SVG Version: 6.00 Build 0)  -->
<svg version="1.1" id="Layer_1" xmlns="http://www.w3.org/2000/svg" xmlns:xlink="http://www.w3.org/1999/xlink" x="0px" y="0px"
	 viewBox="0 0 48 48" style="enable-background:new 0 0 48 48;" xml:space="preserve">
<style type="text/css">
	.st0{fill:#FFFFFF;}
</style>
<g>
	<path class="st0" d="M11.8,25l2.5,5.2h2.5l2.4,15.3h9.7l2.4-15.3h2.5l2.4-5.2L11.8,25L11.8,25z M21.2,12.7l-5.5,3.1l-0.3,8h17.2
		L21.2,12.7z M15.4,23.9h17.2l-0.2-8l-5.5-3.1L15.4,23.9z M20.5,7.8c-0.2,0.2-0.3,0.5-0.2,0.9c0,0.2,0.1,0.3,0.2,0.5
		c0,0,0,0.1,0,0.1c0.1,0.2,0.2,0.4,0.4,0.4c0.5,1.6,1.6,3.2,2.8,3.2h0.6c1.2,0,2.3-1.6,2.8-3.2c0.1,0,0.3-0.1,0.4-0.4
		c0,0,0-0.1,0-0.1c0.1-0.1,0.2-0.3,0.2-0.5c0.1-0.4,0-0.8-0.3-1c0,0,0,0,0,0l0,0c0,0,0,0,0,0C27.9,7.1,27.6,5.1,27,4
		c-0.5-0.9-2-1.6-3-1.5c-0.5,0.1-0.8,0.4-0.9,0.6c-0.4-0.2-0.9-0.2-1.6,0.4c-0.5,0.5-0.9,1.4-1.1,2.1c0,0,0,0.1,0,0.1
		c-0.1,0.6-0.2,1.2,0,1.5c0,0.1,0.1,0.1,0.1,0.2l0,0.1C20.5,7.6,20.5,7.7,20.5,7.8z"/>
</g>
</svg>
