<?xml version="1.0" encoding="utf-8"?>
<!-- Generator: Adobe Illustrator 19.1.0, SVG Export Plug-In . SVG Version: 6.00 Build 0)  -->
<svg version="1.1" id="Layer_1" xmlns="http://www.w3.org/2000/svg" xmlns:xlink="http://www.w3.org/1999/xlink" x="0px" y="0px"
	 viewBox="-670 373 24 24" style="enable-background:new -670 373 24 24;" xml:space="preserve">
<style type="text/css">
	.st0{fill:#0F0F57;}
</style>
<path class="st0" d="M-649.2,380.4c0-1.5-0.5-2.7-1.4-3.7c0.1-0.3,0.6-1.8-0.1-3.7c0,0-1.2-0.4-3.8,1.4c-1.1-0.3-2.3-0.5-3.5-0.5
	s-2.4,0.2-3.5,0.5c-2.6-1.8-3.8-1.4-3.8-1.4c-0.8,1.9-0.3,3.3-0.1,3.7c-0.9,1-1.4,2.2-1.4,3.7c0,5.3,3.2,6.5,6.3,6.8
	c-0.4,0.3-0.8,1-0.9,1.8c-0.8,0.4-2.8,1-4-1.1c0,0-0.7-1.3-2.1-1.4c0,0-1.3,0-0.1,0.8c0,0,0.9,0.4,1.5,2c0,0,0.8,2.4,4.4,1.7
	c0,1.3,0,3.1,0,3.1c0,0.4-0.2,0.9-0.4,1.1c-0.3,0.2-0.3,0.7,0.2,0.7s1.7-0.5,1.7-1.8c0,0,0-1.4,0-2.7c0-0.6,0.1-1,0.2-1.3
	c0-0.1,0.1-0.1,0.1,0c0,1.2,0,2.5,0,3.5c0,0.8,0,1.4,0,1.6c0,0.4-0.2,0.9-0.4,1.1c-0.3,0.2-0.3,0.7,0.2,0.7s1.7-0.5,1.7-1.8
	c0-0.2,0-0.8,0-1.6c0-1.2,0-2.8,0-4c0-0.1,0.1-0.3,0.3-0.3l0,0c0.1,0,0.3,0.1,0.3,0.3c0,1.3,0,2.9,0,4c0,0.8,0,1.4,0,1.6
	c0,1.3,1.2,1.8,1.7,1.8s0.5-0.5,0.2-0.7s-0.4-0.7-0.4-1.1c0-0.2,0-0.8,0-1.6c0-1,0-2.3,0-3.5c0-0.1,0.1-0.1,0.1,0
	c0.1,0.3,0.2,0.7,0.2,1.3c0,1.2,0,2.7,0,2.7c0,1.3,1.2,1.8,1.7,1.8s0.5-0.5,0.2-0.7s-0.4-0.7-0.4-1.1c0,0,0-2.7,0-4
	c0-1.2-0.4-2.3-1-2.9C-652.3,386.8-649.2,385.6-649.2,380.4z M-666.6,387.1c0,0.1-0.1,0.1-0.2,0c-0.1,0-0.2-0.1-0.1-0.2
	c0-0.1,0.1-0.1,0.2,0C-666.6,387-666.6,387.1-666.6,387.1z M-666.1,387.7c-0.1,0.1-0.2,0-0.3-0.1s-0.1-0.2,0-0.3
	c0.1-0.1,0.2,0,0.3,0.1C-666,387.6-666,387.7-666.1,387.7z M-665.5,388.5c-0.1,0.1-0.2,0-0.3-0.1s-0.1-0.3,0-0.3
	c0.1-0.1,0.2,0,0.3,0.1C-665.4,388.3-665.4,388.5-665.5,388.5z M-664.8,389.3c-0.1,0.1-0.2,0.1-0.4-0.1c-0.1-0.1-0.2-0.3-0.1-0.4
	c0.1-0.1,0.2-0.1,0.4,0.1C-664.7,389.1-664.7,389.2-664.8,389.3z M-663.7,389.8c0,0.1-0.2,0.2-0.3,0.1c-0.2,0-0.3-0.2-0.2-0.3
	c0-0.1,0.2-0.2,0.3-0.1C-663.8,389.5-663.7,389.6-663.7,389.8z M-662.9,390.1c-0.2,0-0.3-0.1-0.3-0.2s0.1-0.2,0.3-0.2
	s0.3,0.1,0.3,0.2S-662.7,390-662.9,390.1z M-661.8,389.9c-0.2,0-0.3,0-0.3-0.1s0.1-0.2,0.3-0.3c0.2,0,0.3,0,0.3,0.2
	C-661.5,389.8-661.6,389.9-661.8,389.9z"/>
</svg>
