<?xml version="1.0" encoding="utf-8"?>
<!-- Generator: Adobe Illustrator 19.1.0, SVG Export Plug-In . SVG Version: 6.00 Build 0)  -->
<svg version="1.1" id="Layer_1" xmlns="http://www.w3.org/2000/svg" xmlns:xlink="http://www.w3.org/1999/xlink" x="0px" y="0px"
	 viewBox="-670 373 24 24" style="enable-background:new -670 373 24 24;" xml:space="preserve">
<style type="text/css">
	.st0{fill:#FFFFFF;}
</style>
<path class="st0" d="M-646,377.6c-0.9,0.4-1.8,0.7-2.8,0.8c1-0.6,1.8-1.6,2.2-2.7c-1,0.6-2,1-3.1,1.2c-0.9-1-2.2-1.6-3.6-1.6
	c-3.2,0-5.5,3-4.8,6c-4.1-0.2-7.7-2.2-10.1-5.1c-1.3,2.2-0.7,5.1,1.5,6.6c-0.8,0-1.6-0.2-2.2-0.6c-0.1,2.3,1.6,4.4,3.9,4.9
	c-0.7,0.2-1.5,0.2-2.2,0.1c0.6,2,2.4,3.4,4.6,3.4c-2.1,1.6-4.7,2.3-7.3,2c2.2,1.4,4.8,2.2,7.5,2.2c9.1,0,14.3-7.7,14-14.6
	C-647.5,379.4-646.7,378.5-646,377.6z"/>
</svg>
