<?xml version="1.0" encoding="utf-8"?>
<!-- Generator: Adobe Illustrator 19.2.1, SVG Export Plug-In . SVG Version: 6.00 Build 0)  -->
<svg version="1.1" id="Layer_1" xmlns="http://www.w3.org/2000/svg" xmlns:xlink="http://www.w3.org/1999/xlink" x="0px" y="0px"
	 viewBox="0 0 50 50" style="enable-background:new 0 0 50 50;" xml:space="preserve">
<style type="text/css">
	.st0{fill:#333333;}
</style>
<path id="White_2_" class="st0" d="M47.2,0H2.8C1.2,0,0,1.2,0,2.8v44.5C0,48.8,1.2,50,2.8,50h23.9V30.6h-6.5v-7.5h6.5v-5.6
	c0-6.5,3.9-10,9.7-10c2.8,0,5.1,0.2,5.8,0.3v6.7l-4,0c-3.1,0-3.7,1.5-3.7,3.7v4.8H42l-1,7.5h-6.5V50h12.7c1.5,0,2.8-1.2,2.8-2.8V2.8
	C50,1.2,48.8,0,47.2,0z"/>
</svg>
